<mxfile host="65bd71144e">
    <diagram id="CEq0DkR0caGXi7iFeCsH" name="第 1 页">
        <mxGraphModel dx="1024" dy="810" grid="1" gridSize="10" guides="1" tooltips="1" connect="1" arrows="1" fold="1" page="1" pageScale="1" pageWidth="1600" pageHeight="900" math="0" shadow="0">
            <root>
                <mxCell id="0"/>
                <mxCell id="1" parent="0"/>
                <mxCell id="2" value="" style="strokeWidth=1;shadow=0;dashed=0;align=center;html=1;shape=mxgraph.mockup.containers.browserWindow;rSize=0;strokeColor=#666666;strokeColor2=#008cff;strokeColor3=#c4c4c4;mainText=,;recursiveResize=0;" parent="1" vertex="1">
                    <mxGeometry x="10" width="1930" height="1080" as="geometry"/>
                </mxCell>
                <mxCell id="3" value="Easy社团" style="strokeWidth=1;shadow=0;dashed=0;align=center;html=1;shape=mxgraph.mockup.containers.anchor;fontSize=17;fontColor=#666666;align=left;" parent="2" vertex="1">
                    <mxGeometry x="60" y="12" width="110" height="26" as="geometry"/>
                </mxCell>
                <mxCell id="4" value="http://easy.rolin.icu/sso/register.html" style="strokeWidth=1;shadow=0;dashed=0;align=center;html=1;shape=mxgraph.mockup.containers.anchor;rSize=0;fontSize=17;fontColor=#666666;align=left;" parent="2" vertex="1">
                    <mxGeometry x="130" y="60" width="250" height="26" as="geometry"/>
                </mxCell>
                <mxCell id="6" value="" style="rounded=0;whiteSpace=wrap;html=1;fontSize=19;labelBackgroundColor=none;labelBorderColor=none;fillColor=#FFFFFF;" parent="2" vertex="1">
                    <mxGeometry x="4" y="210" width="1920" height="775" as="geometry"/>
                </mxCell>
                <mxCell id="30" value="" style="shape=image;verticalLabelPosition=bottom;labelBackgroundColor=#ffffff;verticalAlign=top;aspect=fixed;imageAspect=0;image=data:image/png,iVBORw0KGgoAAAANSUhEUgAAAggAAAE7CAYAAAC4+nn9AAAgAElEQVR4XuxdB3xUVfb+prfMpPdCCQmh916kF0UFEQUVFQusC5ZV17b6X9eylnV17X0VdVUEpCMiCEoPvSaBBJKQ3ieZPvPe+//OnUwSeoAEMube3TEh894t33kz57unXZnFapdUKiV44whwBDgCzYWAmn/HNBe0vF+OQJMhIEkSnC4XnE4P6HcZJwhNhi3viCPAETgHApwg8EeDI+AfCBAxsNoc8HgEyGosNkmtVvnHzPksOQIcAb9EgBMEvxQbn3QrRcDhdMHhcHGC0Erlz5fNEbiiCHCCcEXh5oNxBC4LASIIdruTE4TLQpHfzBHgCDQKAU4QGgUTv4gj0CIQ4AShRYiBT4Ij0DoQ4AShdciZr/KPgQC5F+wObkH4Y0iTr4Ij0MIR4AShhQuIT48j0AABIgg2uwOy6hqrpNGoOTgcAY4AR6DZEOAEodmg5R1zBJocAYfDCRvFIHCC0OTY8g45AhyB0xDgBIE/EhwB/0GAEwT/kRWfKUfA7xHgBMHvRcgX0IoQIIJAtRC4BaEVCZ0vlSNwtRDgBOFqIc/H5QhcPAKcIFw8ZvwOjgBH4BIR4AThEoHjt3EErgICnCBcBdD5kByB1ooAJwitVfJ83f6IACcI/ig1PmeOgJ8iwAmCnwqOT7tVIsAJQqsUO180R+DqIMAJwtXBnY/KEbgUBDhBuBTU+D0cAY7AJSHACcIlwcZv4ghcFQS8BMHOsxiuCvp8UI5AK0OAE4RWJnC+XL9GgBMEvxYfnzxHwL8Q4ATBv+TFZ9u6EWAEwcotCK37KeCr5whcIQQ4QbhCQPNhOAJNgAARBIu/EwRJkiAIAhQKBWQyWRPAwrvgCHAEmgMBThCaA1XeJ0egeRD4QxAEURThdruhVqs5QWie54T3yhFoEgQ4QWgSGHknHIErgoBfEwSyHNBLFAV4PAI0Gs1FEQQJEgAZuM3hijxrfBCOADhB4A8BR8B/EPA7gkDWAnIneDwe0O/UiCSQljfoDY0mCB5RQLnThhCNHiq5wn8kxmfKEfBjBDhB8GPh8am3OgT8hiAQCXC5XHC5XZDLZJDLvfEGDWMOGutiECUJmdVlyLOYMSAiHgaVptUJni+YI3A1EOAE4WqgzsfkCFwaAn5BEMhiYLfbmaVApVJBqVTC5nQjp6gcx/PLUFZVA5dHgEGnQWxYENrHhiEmPAgaleoMVMitkG81Y0NBFjQKBa6N74QAThAu7enhd3EELhIBThAuEjB+OUfgKiLQ4gkCBR/abDZGDNRqDcrMFqzYfAA/bTuIY3klqLE54HJ7QF4GhVwGrUaNsMAA9EqKx7QxfTG8RxKUSq8LgSIOKpw2/F6YhYMVRegUFIFrEzrBoFQ3uQgcDgd27dqFarMZg4cMQVBQUJOPwTvkCPgbApwg+JvE+HxbMwItmiBQnIHFUgOtVgeZXIHf9h3Dv75Zg90ZubA73XUxCKcLkNwOSoUcISYDHrplNP4yfQwUcjmsbhe2FGdje0kO3KKAPmFxGB/XETrlmZYGX59kcRBFCU7Bw65rbBolzX3dul/w5Rdf4I6ZMzFu3HgolSrI5VcvJJLFatQ2+v10Fw0jUbWuHPqdXDZOp5OljxJBawnNt4bGyqElzJnPoR4BThD408AR8B8EWixBoADE6upqlpngEiR8/8tOvPHtWuQWV5wXXVIcRr0WY/p1wn03DMWwHkksctolCthXno/1+Zmwe1xQK5S4Jro9BkS0gfosQYqkSolElNotOFRZhPamUHQwhjaKINDca2pqcPToUfz002pkHjuGhDZt8OCDDyIyMqpu/hRT4XQ4oDcYIJfLz+ib+qG/+xr9m1wtZJ0giwQp7gs1UqgWiwXHjh1j/SclJcFmteL3339Hx44dERIaisjISOa2oUbEZsuWLQz7gQMH4v3330NMTAxmzrwTOp3uQsNd1Pu+LBS6idxItFZf4GlDQuK7jt6vrKzEvn372Nyaej4XNXl+8SUhwAnCJcHGb+IIXBUEWiRB8Cq1GshkckhyJRas24mXvlyFwjLzeUFSKRXoEBeOB6eNxtQRvRFo1LMURkESkWkuw8rcNFjcToRpDegXHo+uIVHQn+ZeoABGshaUO6w4UFGIDHMpOgWFY1RsEtRyrxI9XysuLmbBlAsXLsSyZUtht9nQs2cvTJs2DUOGDoVer2e30zW//LIWa35agxsn34h27dqhTZu2TOmTsiwrK8Px48fRtk0bqDUaaNRqpKensz5pjH++8irCw8PPmArdS/j5ikbROC+/9BIOHTqEBx96ECqVmt2fm5uDmOgYbN68GU88+STi4uJYX6WlpZg//0ts3rQZERERyM3NhdVqwbPP/R9GjhzJrAq+LBJS4kQ6aK5arRYBAQFnJTnULyl3chfRTx+xqaqqQlpaGrsvMzOTzaGsrBSlJaW4aepUGAwGZsE4fPgwXE4nunXvzjD49n//w8OPPMKIS0uxbFzoueDvexHgBIE/CRwB/0GgRRIEl4vqP1thCDDh113pePzdhcjMK2HKh1wHpMQFQWQxBb5G5KBncgIemzEWEwZ2gU7jjSsgZZlrrcLq3DRUu51obwxB3/A4xAcEQymr352TK8HucaPYbsExcymOVBajyuVAoikE1yV0ZumQjWn/+c9biI6OQWL79mwnfuDAAaZ077zrTkyceC1TehRTsWP7dnz62aeoqqxE7z590bNHT0yYMB5yhQI7d6bil19+QVZWFgYNGoTk5I7QaNRMMdL7I0eOQq9evdChQwemrPPyTrI6EGRZKCoshEarRZ8+fZjiJYKwaOFCKJRKpmwrysuhVKnQq2dPhISEIL+gAG3atEFiYiK7dteunfj0k0+YxYHuGTJkKGKioxmOffr2xeDBg1FQUIAdO3YwawQRm9dffw0hIaGMBMXGxtaRBJpbdnY2SkqKkZSUzObmEQT06NGDXUPro7Hi4+NRUVEBrU6HQwcP4tixo5g+YwZumnITNm3ahO+++w4pnVJw3bXXobKqEjtTdzKiNW7cOPTr378xYuHXtBAEOEFoIYLg0+AINAKBFkcQSBFVV5uh0+lRZrbh4be+x6+709EuJgwpbaIQFmSE2+NBXnElDh7PR1F5Nai6crfEWDwxcwImDuwGncbrLycCUWa3YE1eBqweF7qHRKNzUCQC1do6JUbEwCF4UGA145i5DMeqy1DusEGUREToAjAutiMSA0OhaEAmzoUrzf2lF19Ar169kZaehuXLlyM2JgZdu3bF0GHD0K1bd6aUi4oK8dijj+L4iROYOXMmJk+egtDQUOZOMZvN+OijD7Fq5UqMGj0a1103CVqNBtt37EBGehqKiorRISkJxoAAzJ03j2H1j3/8g1kFyC2g1+nZTv/2O25HeHgEIwVkdSCSQhaHA/sPsDHatmsLk9GEqOho9OvXjxGNn3/+GVlZmSgpKUF+Xh5TwrknTzJFHGAIYDt4Iiwbfv0Vb7zxLwwePASDBg/G4sWLmGti9uzZGD16DLMSEBZEhBYvXoyv5n/p7cNoRFRUNCZPnsxcJTt37mQWDLIoOBx2FtAZHhHB5hgdHY3JUybjww8+gCEggBGo/Px8Bn1NTTWyc3Iwb+48TLz22kY85vySloIAJwgtRRJ8HhyBCyPQ4giCN2vBCqPRhGW/78Mj/1mA3iltcN8Nw9CvU1sEBeiY8jlZUoltB7OwZvthZBeWYc6U4Zg2qm+d5YCWXum0Y2vxCTgFgZGDtsZgKGvjDYg8kMWgwGZGVnU5IwelDguzTlALUKoxJKodC2Q8XxBjQ4hpB//B++9h3PgJ+HHxYhw5cgSdu3Rm8QK0g+7duzcz29NO/aknn0RhUSEz848eM5opVjLTkw9+1aqVbJd89GgGbrjhRqZM6b3DR45g3949mDTpenQnZT14MIsvWLDge+zZvZuNN2XKTejdpw+MRiOLMSDz/xv/+hdOnjyJwEATC7ikXXigKRB3zLwDAwcOQmBgINasWYPNmzchOSmZEYgdO7YzgkBreurpZ1hfNO/PP/8cW7dsxsm8PPTv358RCZvNjonXTsQtt9xa5/agWIG1a3/G6lWrmPugb9++GDR4CK677jpmRdm+fTu+/uordEjqwNa2d+9e5i64++5ZiIqKYmNTXATdT/+mRm6SktISRoKuGTGCjU8uD978BwFOEPxHVnymHIEWRxCIHFBZRDKTz37lKyzasBv9O7fDI7eOweh+naBV10fTkzI9UViOk8UV6JWcgMCA+iA6m8eFjKoSCBKQaApFkEbLiiqT+qcYg5OWKhw1lyDHUokSu5XFKVCjmAUKYOwWEoXhUe0R3EjXAnNl5OYiNyeH7YhXrloJwSNAp9dBLpNj5KhRLLCOlCDttj/68EOk7kxFQX4+/vTAAxg7dhxTikSQHn74IURERGL7tq3MhE5mfHp9/PHHyMrMxIsvvoQJEyeyfg4eOIDikmKsX78eW7duZYqc/k7zeeKJJ+Gw27FgwQJWjppiGcilERBgRHLHjiw4sUNiIrr36IGcnBw2flhYGAoK8rFyxUps27YNY8aOxc1Tp7JASiIqtKOnwMu+ffux9ezZu4fFEZDrYe7ceXUxAURM3n3nHXz55RfMfTFu/HhMmDAR3bp1Y9YbiitIT0/DoEGDkZqaiv/97xuYTIF47rnn2FrpGiIqP61ejeHXXMOIwN49e/Djj4sZ6XnrP2/XxU3wj7H/IMAJgv/Iis+UI9DiCAIpBYpOJ8Xec+YLyC4qh0alZCTh2VnXYXjP5DNSBWnXT9UVG7Yql51lIQSpdXWllF2CgHybmWUlZFdXoNJlZ8RAq1DCqNIgTBuACG0AwnUGxOhNjByc3u+5HhnaaW/fvg29e/dhPvp/vf46DAEGhASHICY2BsOHX8PqMZSVlaO8vIwpt+PHT+CXtWuZmXzr1i3MmkB+/C++/IKZ2bt264qJEyciKCiYBSy+8s+XmauAFPGt06ezHf0LL/wDOq0W0TGxbKdNL18KYJcuXbBt61Y8//zfccMNNzDzPREKIgekmLds3ozJU6awWIaGaYO0liVLfsTiRYvRf0B/3H//bAQHB7Prv/7mazaHQQMHwe12obSsDBRs2CahDcaOG4eePXt6lfnevVi6ZAlT5knJScjJzmHujtdef531RUSIXmTZWLF8GbN+EB4Uq3H77Xcwdwv1u2zZMkwYPx4yuRyff/YZ0jPSWSzCdZMmMTIiCgKLXeDNPxDgBME/5MRnyREgBFocQaisrGDuhZMlVeh55wtwuNxMUkQSbhs3AH+7+1rER4ZcUHqk+Em50/8onqDQVoO95fk4UVMBQRQRpNEhUmdkhCBEq4NRpYVGoWQpj0q5nO36T69YQESkzGGBxeNCuMYAo1pbVzeAFGqPHj2RkpLCUhzXrVvHfPkUfT9s+HB06tSJKWuKSxg/YTwjQWRmT09LxxNPPIGs41lQq9ToP2AAy4BYuWIF/vLooxg+fDhTlF988V/M//JLZh3o06cvXnzpJRYQSH55UpQUkEh9klm+obLft28v9uzew5QoXU8BiXq9jmFMwYvkiiD3gEbjdW+Qy+LA/v349NNPWWzH+AkTcf3117PrKF3TXF2NoxkZzPpwJO0IK15FlgR6/81/v8HiBebNm4clS5aw99QqFYtzMOj1zMIxe84cFodBjdItlyxdwnCiTA+KbRgxYgTDi9ZE6/7+++/QvXsPRhjW/vwzJEnE0GHD2ZgU2JiauoPFaTQm5fOCDw2/oNkR4ASh2SHmA3AEmgyBFkkQyCeempaD0Q++yaLzfS02PAjvPDoDEwd1ZYWPLtQoANHmdmFXWR6LR6Cgw1i9CUEaPTRyBeuDgg9JEV7oTEcy2e+vKMSvBcfQJSgKI2M6QK1QMKX6w4IF+PXX9Xj9X2+wXTLt7CnWwJfTTxH/RUVFGDVqFPO3kyLPy8vD0qVL2M6bdsM+BUcBfmTKX75sGSbVKmaf4qbMDioZScreZDI1SilS8KGvVDWRB3Ij+AgEBTW+8cYbSEhIwKxZs1jGwf899xw6pnRkc0xM7MBIkkarYS4Q3xypP+qDyAr99KUakqJPT0tD3379GHGitVCf1BeNQdeTdcFX24HWlZZ2hGUpHDx4kI1x++23MwsDNSIrq1evZnENlNmiUCiRk53NYi4opqO8ohxWixULfvihLn30Qs8Ef//qIsAJwtXFn4/OEbgYBFosQdhzNA8j/vwvuBsQBIVCjkduHY3HZoxDaGDABddJO/5qlwMBKnV9FgKzKnjbKYV6RIHFDFBrqMTo39QPBTIuPnGAEYwb2nZlmRC+PigaX61WsSwFUmjkK6c8fSI6bKdsszHlSMF5DXe6pCDPVs2QSIAvhbM5KwbS+mmX/tmnn+KRv/yFkZvs7BNMMX/y8ceM0FA66b79+/D88/+oW8/5gD+90qGvYuP57qGaF9knshEdE8OsC741071ElohQ+F5ETqjI0+JFC2GzO/DIww+jV+/ejSpgdcEHhl/Q7AhwgtDsEPMBOAJNhkCLIwhVVd4gOkpx7DTjOdgcrlMWO6BLe7z/+G3o2j6m0UrBp7ToJyllMlOTZYL5wT1ueNxutssm5U3R/RQg6VNS5KqggMal2YdYLMPUdt0RpTeeUwC+Mej+hlUQL1ViPivExfZ1PsV8ep+nX0tYUDAjWTsoOJHa2YhKw9LNp7/vw+FSTP9EpnyVHU/HrTGE41Kx5vc1PwKcIDQ/xnwEjkBTIdDiCEJ1TTU0ag07e2HI7NdwICvvlLWaDFq899htmHJNr3NWZaMdv5tM66IASRSZ8qdgNrIQCEQIPJ4zznEghURR9GQO9yk76oeCGn/KTYddcGNSQie0P0+5ZVK8LO3Pbmcmb8rlP5eia4wAaZ7FxUUsPoDqJFyMNYHqIpAFg5R8w0YKloolkbUgLDz8rGmChBeRJ5r7+eZfVlqK8ooKRqyiIiNZ/AHNkcagOIyKinLExsbVuSB8ZZ/PVnHRN0fCcN/evSxV82zkgCweZInh6Y2NeYJa3jWcILQ8mfAZcQTOhUCLIwhkUiYFRUrg6Q9+xNsL17Pc/YbttvH98caDtyDU5N3dnt48ooAqhx2VdguqHDbUOOyMLFDYIbkXfMGL9JMiGeivAXo9DHoDi0tgf5dRfIKMlVvOqalkpZl7hMacN6uB/O2/bdzIMgnCI8LRvn0im5qvfDJZAU6cOMHIQ9u2bVm2A5ViDgoOZn53ikvwxS/Q+skvT2mNHVNSWNZDcVERIiIj2f2USUC7/PaJiUxZUoolrY3M9KSAKYPAFwtALgPqjwgLxULs2bOb9UEVGinYkGIbiEhQTIK5qopVazx+PIsFNdLZEVTAiKwq1C+96Dqa78aNG1nJZsIvsUMHFqCZn5/HUjQpE4LqFvTr15cRLxqD/kbBmxR4SX0TXjQPKplM1RYpgyUuLh5vvfkmptw0BWFh4czlQJkORJZo/pTNQWmQRPxycnMQH5/AUjN58w8EOEHwDznxWXIECIEWRxB8JziSUtlyIAt3vfhf5JdWnSKtiBAjvnruHozoncICDM/YaUKCmw57ctrZ8c5lDiv7Wem0sfLJNk/tSZAyMNJAL7VS6T0noJYYhGoN6BocxbIaiJ7EBwSd9VCnhmNTsGJUdBQLPCwrL2fWCFJ6pFRJQUZHRWFHqrf2wY2TJ2Pjxg0IDg5hGQDBQUEoLCpiyjc+Po7t8KnYUGVlFZI6dGDDVFRWspTGyKgo7N+/H0GBgaw6ISnbI4cPsyIOHToksVLG33z9FYYMHYYVy5ezDAoKIKRjpynNsay8jBEDIiNUz4CyEoh40E8iCmStoPoGdJ/T6WKZGERESDlTiWeqtjhs2HBWCIn6VSlV7H4iPESOaN7dunbFscxM1hcFVBKRIAU/f/58FhBJpC91xw72Ph1kRfdQdgVlLLzyz39i/IQJrD8iE5TdQBjRHMgy0r1bN/z2229szE6dUpiVgjf/QIATBP+QE58lR6BFEgTfQU10NLLDI+HFL1bikyW/wS14CxlRIzM2uRg+euKOU4ojnUuklOZo9bhR43ayoEUiC3QYU6nDysgDlWH2VVCkPgxKNbMYDIhIgEGlOSPd8VzjEEEICQ1B27bt2C6dYilop0tKnAgCBTKSwqUqhZSat23bVowZM5alKpI1gM4kIKVttdlA6YnTp89gVQiJLJBVo3379kxx046ZSi6PHDGClUdOSk5mRIksL3QY07Bhw2oJwlC88/Y7eOaZZ7Bk6VJWfZGUbnR0FNvNZx7LZAdIURXGTp07s0OZiKDQvMnFQOdJ7Nq1C507d2a1Ez755GOm5Gl9VBXy55/XoKqyipV+JgsH7fyf+dvfWNGjfn37MWVOSjw97Qg7spsKHn3zzdf485/nYsWKFaiprka79u1BcSdEpqh0M5Gpl19+CY899jjeffcdVhly9+7dLD2TgjePnziOAQMGsnMpaCzKoLiUOAf+8b86CHCCcHVw56NyBC4FgRZnQaBFkBWBFJhOr8eBYyfxzEdLsXFPxilKPECvwfP3Xo8HbhoBZSOOPfaBQ/kBHlFk1RSJNFg9Tnb2Qp61CkW2GkYikkzhGB7Tnh3QdBYDxTlxJkVPpYHJEsHqFfTti8LCAmRlHWfnHdCaaKdPu2UyoVM1QToMie4j33v2iRPMzUCmevLnk3uBFCCd5VBRWYGcnFy2Q4+Li0V5WTmrgEi1FWhnTUWayD1DO3CqJUDlmmm3v+D7Baz2AB3+RBYBIi5EAuigJbIWHD16DKUlJbjzrrvYMcq006cCSzRHqstAc+7Ttw9iYmLZWD+v/RlPPvkkOyuDKiBSHzQ/Inb/++YbdhCUIHhq15XH0hHpLAjK8CBSQfUcUlI6MYvApk2/MzdHQnw80tLTmaK/5prhjDxQsSQiGlSCmo7NJouH72AqOuti7dq1zD3Ru3cv1gdv/oEAJwj+ISc+S45Ai7Qg+MRCCtObZeDB9iM5ePGLVUg9fOIUkhAVYsIbD03DTSN6N6ouAgtWFMVTigmR+4AKJzlFNxwegQUj6hUqVkipsVUU68iHJKG8vJxZAbxBjya2+6c0R/qdLB+knKnR+Qz0nq+8MsUJUI4/mc7pYCeqSEhFo8iSQrtqIhy0w9frvQF69G9SzlSa2uV0MZcD+fS7duuGAQMGsCBBX1wBxQuQBYOKDdE4ND+KSSDyQS4QUu5Ua4Dm5kvHdLu8VhUiOzRHupZSOPU6HTsHgdZChIR+Ur++0sj0N/o39U/yoz7JQkHWi9i4OFbcyNen2VzFLB50Lc2PxiZc6HcKsKS50Xs+PGmevnX7YhqIaNA1vPkHApwg+Iec+Cw5Ai2WIPjy36mUr1yugEarw660bOZu+G3fMZab72sxYYF4btYk3DFhIOjI5/NF+hM58HgopVFkSvZspmkiDBdjNWiqx4ii8zMyMqBSKdG5c5czsg/ONQ7LSqioYKWKyfVAAXynZy401RzpeGZyg1xMBgERFbJCkOL3FVRqqvnwfvwPAU4Q/E9mfMatF4EW52IgJU4KxedbtlosrA4/mbQLy834bPkmLFi/CwVlVXC7BVZGOdhowN2TBmP2DcMRFxHMiMLpzeu2sLMdOe3uaXdLY1xOGmJTPjbnqynQmHFOL1DUmHsu9ppLrUFwqfdd7Pz49S0fAU4QWr6M+Aw5Aj4EWhxB8FU39BUG8pUJpuJGVA9AJpPjWF4pfkk9jK0Hs3A8vxR2lxtKhRx9OrbBPdcPRb/O7aCuJQk+V4WPHPhKDdPf6UVWhIupL8AfHY4AR+DSEeAE4dKx43dyBK40Ai2OIJwNAFLkTpcT5Bf3WQCIQFAqo9XmRHm1FS63gACdGmGBRui1KuZXp9oHbhe5FMhfr2OmcU4GrvQjxsfjCNQjwAkCfxo4Av6DgF8QBC+cEquESAFrpPi9ZxjQQUunRwxIjBywksoAlAolC5q72FLF/iNCPlOOgP8gwAmC/8iKz5Qj4EcEoVZYpPxro9l9WQlEHryNSIP3DARyHSiZm8H7N944AhyBq48AJwhXXwZ8BhyBxiLgfwShsSvj13EEOAItDgFOEFqcSPiEOALnRIATBP5wcAQ4AlcMAU4QrhjUfCCOwGUjwAnCZUPIO+AIcAQaiwAnCI1Fil/HEbj6CHCCcPVlwGfAEWg1CHCC0GpEzRf6B0CAE4Q/gBD5EjgC/oIAJwj+Iik+T45ACzzumQuFI8AR+OMi4M8EQRIF2OhUVl0AVEp5nZAElwOVNQ6EhARB3swJU3ZrDdySAkaD/qxH3Z/+5HicNjglJQxa9SlvuR02CHI1NGrlGaXlKUWc2pmp4RLcTiecbhF6g/6MtUqiBx5JAZWi6UAQBQ88ggilSs3G87gckBRqqBT1+P9xPy1Xf2XcgnD1ZcBnwBFoNQj4M0Ewl5zAihXrMeSGGWgXXn9AWHXeYfzn8+WYcs8cdIsPaT5ZSm6sXfQVKgI64eZxA1n12Au1A+u/x1FZCqaO6gnJbUdJWRVUeiNKDm9CNuIxpn/nU8gOJA+yM4+h0i4hKbkDAhoQC0lwIWvfdmzLtOHGqRNgUp46et6hTciwBGNI3y5QuG0oyMtFWbXtvFM0hYQjKjwENVUVsDlcDa6lQ+AMUMGCrBMF6NCjH5SOcuxL3YHgTkPRKzGyliCJsJorcTK/CMIFwNDqTYiMikaA9rSJXwjEVvw+JwitWPh86RyBK42A3xIEScKWJe/hh1QnHv/rbMhqSlFtdTL4PLYyfP72v6HpOwN3j+1eC6kCQaFhiIoKxYXV+LmkIKGqrBB7d+5ENelOwYqfFi6ENnk4hvdsB4XPXKHQID6xI3p2anfKWJLLjOfn3YPQiU/goSn9UXLiAH78aQtSBo5DWPVufLjiGB578iG0jzDVT0BwYMf6FViybg8GTJiC8UN6Qa9Rsfcltw3bVy/Ad9uq8OwLf0HEqUYJbF/2ET5Zthc33f0ABnQIwea1q7ArM6+ubxmLuj4AACAASURBVFv5SezLtmBAn07wnZbToVt/DO/bGQd3bUducWXdtYU5x6GP6oOpExOx7IcVCEzoBJmlELnlLoy5YTr6pUTDZAwAEZqco/uxctVGOM7zMNut1RDUgZh86yz0aBt8pR97vx2PEwS/FR2fOEfA/xDwV4LgrMzG88+8jEF3P4mR7fXY9vtGHM2vgOSxI6egHFqZC7LAGESatLVC0aJzz74YOrwnTtOjFyE0EUd2bcD7732EkKRBiAnWnXGv6LHj+PFMmDqOxDMPTINXlXtb3p7lePDlpXjlow/QwejGhlWLsS2zBjNmzkQ7kxNvv/xPONuPwl/uuRG6BufbOS1l+OXHb/HT/nLMnvsAurWLYuZ9L0FYiB92WPDci3MRctqZeJLbiiVffoh1hyow5+GHkRAoh81ZbxXI3fYDHp6fie8+egY+lDQ6AzxVBdidnovwyCgYdRpYizPwzntfoe/UB3HPdV2xZuF8LPplPwaPnoixI/qhPDsN29PKcN+fZiFIDTjtVlRUmlF/xu+ZEOdnHcaGrakYMfVPGNAh7CJk0Lov5QShdcufr54jcEUR8E+CIGDNpy9gQ1lbPHzPJGTs3gwYoxEZYkTGjjX4fsNR3H3fLLQJM8HjtMApaWHQaprAguAlCF/MX4DuY25FSkyDnX6t1ARnDXZt+xXlAT1OJQiCFe8/MxfF7W/D3+8fjfyMXZj/7VIkD5uCKaP7Qa2Q4eTBDfjHq5+j/7QHMOuGIVA1MHVYyvOxfXcGknv2QXx4IDPnewnCYizaacPfX5wD01lCDaxVJdi9Lw0duvVBTGjAKc9W1ob/Ysa7h/Hbj/9GQ6pjLjiGHxYvh7ZNH1zbLx5ff/AGTmp64PF5dyM6SI38jD346ptFUIXEQO6sQonZjcQegzH95gkwKmUoK8jGz6uW4ESx9ZzPssVcDrvcgNvuf4QThIv4xHOCcBFg8Us5AhyBy0PAHwlCwYH1eOilb/HUyy9AWZCKBasPYPq8h9FWVoh3P/4SQSnDMfOmcQjUqbB6/hvIVfXBvbeNPGU3f2moeQnCB+99jNCUIYgL0Z9pQXDbkZmVgYCkEacQhJzUlZj39GuY/dZyjIixYP6HH6DSmILZ99xab+UQnEhduwD//mIlrplyL6ZNGICSnAxUWT3QGIOR2CYBQSZDXal6wWnBpqWf4Mc9HvztH08g0mcGAGCtLEF+aRVFNiIgKBQxYcGAsxq/b9oBfWwSeqS0Re7GsxME0ePEiSO7MP9/i1BeVQlFWAISgsIRGRXE1iu6nSgrKcChg4dh08XjgTmz0K97Rxg03lgCu8WM7OPHYLZ5zglz8clM7Ms4jgnT/8wJwkU8jJwgXARY/FKOAEfg8hDwR4Kw4YuX8eQnP6NNuzgoIMeg6+7ErIndsPTr/yLTHYlZM6ehbYR3l521ew1efW8hbnnwOYzt3fbywIKXIHz7w0qMvHUuerU9MwDS46jCxjU/IM2VWEcQBGshXn76CazekYHnP1+B0rVvYnuhHg898hCSY4NPyVoQXDbs/X0p/vPZMrTvOwYpITakZeTCqg7FvXffiS6JcXVr8Nirsfbbf2HBPhce/9vf0S2qnrBk/r4Sn67eBJu5Ep1GTcOfp40FrEV4972vEdpjGKaMG4iC385OECC4cGDLavz73fmIG3Qj5t4+BsePHEXDkMWAwFDIrUVY8P0PqEAYxl87HtcMGgCNaIHzQtGJ5G7JPIQ1Gzaiz9jb0atdOIKCTNCoGzpkLlNUf9DbOUH4gwqWL4sj0BIR8EeC4LJb4fRI2Lfqc3yytRL/fGYOdq76Ch8v3IjouHgEBeggSh6U5hXCLrhRUVaJLkMn4d7JI7Dym0+w8dDxixbFzXPewrwZPRhBeO2Ff6BMCoZGfZrTn22vBdjcRFpuw/0Tu+JEiRXHt6/GhtxqOLZswZ2f/wT5vu+RUV6Do5knz0hppC6SBl6PGcPawiyPQEKYDlk7f8Wi3/Zj0s3T0TO5Td3c7dUV+O6NZ7H0qBtzH3kK4wcm1r0netxwutzY8Pmb2B/QDU/PuhGwFuKtt75AaK8RmDZxsJcg/N/36Nc7hQUpGkKiMGrEUJSlbcGS39MwaOQE9O3aHgaNCkJtqqVvAO+BexLsVWYcy0jFosU/Y/hdf4O490PszD4TXqfDAptLjmCTl8SIkgCPR4BCqYIisB2efPJB9O/c/jICSC9apH55AycIfik2PmmOgH8i4I8EgZmxSzPw6CPPYspj72JMNxMO79mFnXsPYNfm32BKGYrxIwdh2bvz0GbaOxifCPww/1skDBiPrvF6FFXUXLSw2nYahC7tgpC2eyP+t2AFhky5Hz3aeE3uDZtgN2PTusVYf6ACwRo3IjsNg8GSjQHXT8CXcx7BTZ/+hFHtVSgrPIkDu1Kx9vcdSOw9BP26tGfd/PzdO6iOvx2vPDi2rtvjqevx/frduHbqracQhKrSfLz9j3k4JiVhyPAxuP+WcVA2iEOQJAnrP3oVO7Wdz00QXl2Hp+ZNBzkH1Dojkjsmw22ugNoYhsJti/HmjzsQE332LAPRWYMjGcCbX72GrhFGiEodVHAhJzMdWYUO9B/YCwEaJXOJbPryVbz4SyUWffkKTCo5qIZF8clcmO0C4jskQt9w4hctndZzAycIrUfWfKUcgauOgD8SBI+9DP96bA5ORIzB3Ov7wmxzI6FdCtrGKvDe088jdMQdmDKmN9740wBE3/4t7h6aAKvFCo0pGJqzbPobIwS3rQxbtuxGdnYaUncfQY9hE9Au4tSgP0gibDWVOJi6HluP2jD9znsxecJw6BQSVCozHhw1DZM/WY0xSd5d9IkDW/HDyg0YPHEahvVKZn/78rV5yDROwUt/Hn1WgtA5PpTFJESEBuL43jV47f2lGDJ2FApzijDt3vvRPqzezdCQIDx+x0SINQX44INvT7UgnCVI0TfwjgXvYUVBLF54eDLkZ6k45So8gLlPfou5Lz+KHvERzBpCRaoObluLrxauQmBif8yYdiM6xIZhy/xX8cxnKzBl7iuYNb4zjh/agR8WLoEiri/uu2sG2kcFNkYMrf4aThBa/SPAAeAIXDkE/JEgVB5dh7kvfIWAAAP0OgPad+qJiRMnoX2QGS89/z76TbsHY/un4LXZ/RlBuHdkB0CSIEHWqGqHZ0PfYT6Jb778EWePy5dQU1WG7Mx0nCiohs5oQu9RN+HpebdBV5eJUI55I6fWEwRJxN7Nq7Hyt0OYNP1e9OoQzob9+O93o6rtXDw5q99pBGEXho4YAVveYWRYIzHvtmsw/43/Q6Z+EOZc1wE//LAciQOvw6QRfVhGBDUvQXgFm9zRGN8jAXKFDNs2br8ogvDNPg9mXD/grATBXXEc73++A0/95291BME7sIDC44exaNFPCE7ugR5dUlC48Ru8veEY4pRAVMf2KMwrRv+R1+P6CSMQGXhmuuiV+wT410icIPiXvPhsOQJ+jYA/EgTJaUZaTjmiIsIBtx3mGiuMwWFwFezBG/N/w4x770afjgn45321BGFEO5TkZ6OgyI6k7l1gUDdV6WER5tIiZB7LwO49+5BXVIb4DimQLDkoVHQ8rQ7CqQTBaSnHigVfIaPahHvuuxPRRm+A3ntP3QxXn+fw6LQedc/VsR2/4L+LVkGu1EBhiMCkm2+FqSwVr322Evc99SoGtlFh1Q//w/ZcN+646w6kxId76yRIIpa++QwWHKpESvsOmDBxOLatWd9ogrBv9df4dMU2VFbb0CGpHRpWbLZVlaOixgJzdQief/tpdIoOZRYEGtNmMSP/ZC6OZmTgRO5JVLqMSJJnY0lRGJ6ZEIv35y+Bod1A3H/XLUhKiIK6QZlsv/4wXYHJc4JwBUDmQ3AEOAJeBPyRIORlHsT+w+nILyqDw+mGzhiG7t06Inf3rzhoCcbsu25BXJgJL/kIwvBYbFu7FOt3leHeR+ci2nDptRQJMzKjF+Zl4/ChQziSfgxWhwehCckYMngwUuIM+GXZfOyqijsnQRjVToEjO9bhmx83oO91t2PyyF61sQMevDx7PEKmf4IHRvkCDgXs+HkRPvl6KeJ6jsTt02+CpioDb/z7fSSOmYU/zxgLtVxCYeZefPrZ11BEdsPM26eyWglU1fDNx2dityUes/90P4YmB+Dd/5wWpHgeF0NFXhbyy6rw89IlSBhwHa4d2Q9UFdlWWYL1q1egVDKhbUIS+g/qhiCdBh63Azt+XY5dh3Nhttqh1ugQEdMGHTt2QvWeJfgi04jvX52L/ZvXYNnPv8EKPbp0647k5BR0SUlEoIFbEi70vcQJwoUQ4u9zBDgCTYaAPxKEtM0/4ee9mQgJiUJkZCi0CgEZ+1NxNN+GcTfdhmv6dYJGKcfrD45GTaeHcefIBPy2ZiUKpQQ8/NCdZ5xZ0BgwJcGNwtzjOHwkDenpaSiosEBrCEFSchK6piRCLskRYNTCbi7B6qWL4IwbgifvnVxXwhjwWhBu/Ggl2tZsxxf/WwJj8jDcOnEIXJYKuOUq2Euz8O/XPsC9b3+PcUk+n7yIrAO7kJZbgW79+8Oeux+ffz4fyg5j8MjsaYg0arxWfY8D+7auxX+/XgpDfA/MnXc/4oI12Lr6e1hMHWFy5WPH3oPYvfsQtBEJ6Ng2BjV5h7B6bxluvWEEC1KkFhLVBsntE6FVeVglRKpMuX/zOvx2pBqz7rsNJrWMuQ82bN6FmE79MbBHMrS12Rw6YzCydvyEEkQgObEdgowauF0uqFQKbFjwKfagO754cTYow6IgJwPbtm3DgUNHoInpiTtuuRFta+ssNEYerfUaThBaq+T5ujkCVwEBfyQIdnMlqpwCQoKC4baWYsWCz7H7pIjx192Awb071Z2UeODXrzF/1SEYjRoIch2GjrkRYwZ3bqC0Gw+401aJr956GQcrtUjpmITOXbugbXw8oiJCoVU58P7fnkBqvpX5/QMj22LqHbNwTY92DdIYvQRh0vtL4d7+AXZVx+Ke2ybDYM3HihXLsSczD0qlFjEpAzHn7qlMEfuax+ViylohOfDVe28hX5uMe2bciJjTCjV5HBYcTN2ADYeqcOcdNyPMpIPHaYdLEHDiyG4cOJYPQRBY8SQ6GZIyCehkRrWqvv6AKSgYrupqnMw9CbdvAqIbxSUVCI2MZJYOh90Cq8ONAKMJGmV91GebHkMxrl8SlDoT9Bolju75HQsWL0VeuQU2p4Qb73kUNw/rVNurBKfdhtLiQjigRWx0FHS1hZYaL5XWdyUnCK1P5nzFHIGrhoA/EoSGYAluJyrKSuCU6RERGgS1ql5hUdGhsgozBFGCUqWB0RR4yUpIFAWUFRbALdewQ4n0el394UwQUZp/EjVOgaX0afVGhIQEQ9NgLoCAk0ezYIpPhMxWDrfSgJBAA0SXA2azGRa7E3KlCsbAYAQaGpREbLhYSUB5aRkUehOr9XC2RnhYHB4YA+j451qSIUnweNxwey5cwYiyFVxOJ0gRSRf5VNKx20HG+iwKp92CisoquNwC5Eo1QsMjoD9b7YiLHKc1X84JQmuWPl87R+AKI+DvBOEKw8WH4whcVQQ4Qbiq8HsH9zJnH3+WnbXaWQuYJp8CR+CyEeAE4bIh5B1wBK4YApwgXDGoTx2IfIcuSYBTcMNCZjqPnV0QoNSyl1apglKmqDfbXaV58mE5Ak2JACcITYkm74sj0LwIcILQvPjW9S5IIjyiAKfogdXjRJXThkKHGfm2cuTbq1DqqGZFVcLURsToghFnCEG0LgiBaj0MSg20ciWUcgUUsstLmbpCy+XDcATOigAnCPzB4Aj4DwKcIDSTrMhCQKTAJrhgdtlQ7rSi1FmDMmc1CmoJgV1wwS0KEFnMcH0jJ4NaroROoUa4xohoXTAitCaEaQIQoglAkFoPvUIDhYwqtTVVEZZmAoJ3yxFogAAnCPxx4Aj4DwKcIDShrERJgs3jRLXbgXKnBSUOM4odZpQ4qlHhsqLGY4dDcIOKsDakA/XxB2efjBwyaBQqGJVahKgDEK41IVIbyF6hmgAYVVrolWpuXWhCWfKumgcBThCaB1feK0egORDgBOEyUKUjSV2iBxaPkxGBIrIMMCtBDSqdVpjdNkYIREYJLjaJ5+wTI+sCS22Sq5glIVhtQKjGiAiNibkkyOJAhEGtUHLCcBmy5bc2DwKcIDQPrrxXjkBzIMAJwkWiSlYCi9vByAC5CvJsFShyVDGrgU1wwiUKcIuecxAC75nmvka/Xa6DgAiDSq5gLgmDQgOjSocobSBi9RTDEIwYXSAjDNwVcZGC5pc3CwKcIDQLrLxTjkCzIMAJwgVgZXEEHm8cQa6tAjnWMhTaK1HlssEmOOCk6mCicBkWAhkEjwC3y8O4g0qrhFxBToVLa0QYlHI51HIVIwyBah0jCm0N4YjTBSNYY2CxDXQNb5ePAMWaUKNDY2p/9cquNj6EE7NTMeYE4fKfOd4DR+BKIcAJwjmQdgkeZFQV4XB1PvLtFSyewCo4ve4CdpRr07gMXHY3Th4rRUluBURRQvsoPYa20cJiMqFKrYVdoWLEQS5JLMtBksnOiGA438Pic0koIGeEgYIdKUuiS2A8kgMjoVH4qqJfqUfujzKOBFEU4fEIteRAYkf8eoUkQSaXM6sNlZiVyxXsJ2/+eVgTlxtHoLUiwAnCOSRfarPiw93bsTk/EyqdhACDHHqtHCplfebA+RII6Cx4nzvhfNYAwS2itKAKpSerGPGIjTMhJUyNULcVepsVGo+bKR2PSgOnUgWnQgknnfAmV8ItV8Cl0TAS4VAoIci8lgeiEN7R5d7oB6q54JFgs4uw2US47XIMj03E/b0HIMIQ0Fqf/UteNxEDQfB468x7zQdeYnB6qzUpyOQKKJVKRhJau0WBWxAu+bHjN3IErjgCnCCcA3IKQCy325BbVYWDpcU4XFqIQls1HJITcrUAlVoCbb6VKjLp006RiIOvs3pycGqcge+CM60PZD2gRv3Qb+xV26FClKASBagFN5SklCQBSsigFTwwuJ3QupxQeNwQZTK4BQlOhRoVah2KVEZYPGqILgW0Mi2iDSZ0CYtEl/AotA0KRqiO6rvzne3FfOqoRr7H44EosLPnaqNIzkEQGnRMklcolVAolK2aJHCCcDFPG7+WI3B1EeAEoZH4e0QR+TXVyKwoR3ppKbKqyli2gkvmgiB3QaYUodZ4LQynE4amCEY82zRpg0oHw7hFwCkCHjq8xSWD0SUhqaYaSkkBbXI/dI6MRofgUEQbjVAr6g+XaeTS+WW1CNSRA1GsNQ41IAa+AISzRo/UEkKZjFkSWjNJ4ASBf5w4Av6DACcIFykr+qqn+ASby41iqwXHKyvwe3oa1u/fD1EjhzFUB12gBjqDClqNHFq1HEolmZYvP2PBZ812e0Q4nCLsLhEOmwc2swPWcjtULhmGd+2K4Z06IckYgNjcvVClDILKGNKqd60XKeKzXi6JItxkpSFywATh+89FCJbxiVqSoGydsR+cIDTF08j74AhcGQQ4QbhMnCntce2WVLz06deguAXoNZCbdFAF66EJ1kMXpIXepIYhQAWdRgGNWgYlZSk0Mk2BNqYejwinW4LdKcJmdcNmdsJWZYej0g5PpR1CjR0yqxPRJhP+etetmDhsIOSktw5ugJTQBQiMvMxV8tsFdnytN9PE1ySXC1JFNWB3QRYUAFmQ0csC7U6IpVWA2wNZaCBkJgOYQOhN+r9MBpVK3SoDFzlB4J8ljoD/IMAJwmXKigIAf9mcipc++AKlFVXe3ijTQK0EdGpIRBiMGkYWNKEGaIJ00AeoEGBQwqBXQK2kKPf6+AXqjzapFFRotXlgsXpgt7jgqHLAWW6Fs9IOscYBmd3pVUyUHlkbvxAdHoq/3n8HJgwfyJSQ7OCvkOK7AEGcIFyOmFmQp8sJiXBm4SUSpIoaCOt3Q9h2AKixQRYZCsXEgZC3i4Fn2SaI+48xgiBvFwvFpMGQd2kHqMhq4HVLkKtBqVRdzrT88l5OEPxSbHzSrRQBThAuU/CkPNZtScWL7zcgCA37JLKgkEMiN4NKCZleDXmwHvLgAKhDdNCHGhBgVCFA61UeFocAS40b1gob3OU2CJVWSFU2SFYnsQbIKDiOXnU+7/pYOSIIj99/ByYSQSCecngDpPiuQGDEZa6ydd9OGQtuF2WT1HoX7E4Iq7bB89FSSAWlXnmQbGMjIO8QD2HHIcBi9VobNGoorukF5eMzIG9TS9SIIyjkUKvUrc71wwlC6/4s8dX7FwKcIFymvBhB2JyKFxtaEM7XJykZOREGBbMyyA0ayEICoAildEMJQrkFYrkFks3FCIHcI4CZFHznOZ3HNREVHoq/3EcWhEFQQYD8yG+QEroDprDLXGXrvt3jdsNTm25KSEh5JXC//i2En7afGlhChIBiCwTPqYCZAqB+4T4oxvattSK0XjcDJwit+7PEV+9fCHCCcJnyuqAF4Vz9N0htYOmMlG1IO0uyDFxiDaaQ0FDMvHsmhg8dDD0EhGRtgaFNZ8hZkOJlLrQV3+52Ob01D1ikqQzikRNwP/sxxAPHz17/4HSsVEqoHpwK5Z0TAb221gtVn9HQmqDlBKE1SZuv1d8R4AThMiV40RaEyxzvfLeHhIZg+l13ov+gwXB5BBiytsMZ1wWhgUEIV4swKgDFRQTdN+NU/aprij8QfQQBgJiRC/ffP4OwO6PeRXC+XFa1Cqq/TofyljGAVsOYIMtmUKmhaGVpp/5IENxVIt4/JEItZ8Y/dIyUQeaiR1iGER3lcDskHCiV0CdeDqcbWH9IQD7xydOecqdChgd6yiGJwIk8EeVU8YyaAtC6JeTLZOgeDPy4W8A1/ZXoHipDjVXCvmwRpWy8Uxv13z9JjriAK8T+BQcO7NyAFUcEPH3nBDjsDnhYPRBvo3LjcrUGeo0SThedWkv8WYHinDTsS8uE3eUtLEaVRbsPHos2RhHHs47CbBcgiQLkhjAYCrbhcNBoDAstw7IVmzBu1hwkh+lQcCIdew8eRrX9VOscff8GhkSg/+BrEBHAU7ib+ouVE4TLRPSSLQiXOe7ZbicLwvS7ZqLXgCGwu0UEZ21BZXwXiJpQmNQSwtVAiFKEQS5BRV92zTCHP1qX9CVHFoS6wkgUU1JqhvuDJRC+X3emO6Hu27L+JC5ZQhRU/5wDRZ+OXg1Tm8lAQYqcILT8J8aeL+DBfRLuT5ShwiYhzy1DgonEKMOgeBmW7BYQEC3HTcly1NgkfLJWQK+ucoQ3zGR1S3h1v4T5NykZQdieJqASgNksIdMGTEqS4bd0CZlWCVO6K9BGA5jCZTBKwL4cEYWOM3FKzxUxaoASQ6OvDEGoLsvH7tRN+OWYgNlju2Pn7r3ILq6om5ir/BhOGnvh0bEJeP3jH1BurkF0x4GYOKg9cgsqERMVBiKIB35ZhqS7XsSICDt2pabCJimQvW878jQpePzmFDz11JtQJ3TG9KmTEBekRVi7TnCXHMOufQdRaXWfAoSjphJlJWW47v6n0SNa3fIfJj+bIScIlymwlkYQps2cia79h8AtSYg8uhGVCV0BfQQMKgkK2rUCMClEBCslGBScKDRG/G63q76sMt3gESBsPQT3WwsgpWV7Y0TO1fQ6KG8fC+W9kyALNtZeJYNMTi4GThAag//VvoYIwjOZwHitBHWgHLlmCdEmwGkHZBQiZJRhfAc5KM6YEYRfBPTrKUd4wyQVl4SXd0n48iYlBEHCz3sEwCBHZZUIQSPD0PYyZJ0QcagG0AmAQyPDtJ5yRKqBQ/kSjpnP9DsezRUxuv+VIQhUB2TT6u+wYcd+HCkRMWvGNAwc0A9BuvptRs3hlXhiZQU++OsM7Nm+Fek5FZh8yxTozUfxf19uwyP3TEVoUAC+eOVRdL7zNcR7TmDTlh0wBAZh96696D54FLolxmHbkg9xFO1hcJQiKKErJt8wATpbMbbt3IuiqppTHgd7TRUqyiowaTYnCM3xOeEE4TJRJYKwefd+vPT+lzhZWMzOPbhaLSI6GjfePhOde/WD0l6Fdr9/ioqOg+BOHsYsBg33GSqZBL1cQqBCQrBKgurKbEKuFjSXNS4FKFJ55briSGRFsNghrNgKz+crIZ0sBtsWNmz0GOi0UIzqA+WcGyDvGO+1HlCjWBO5DGo1ZTG0LjuOP7oYfAShm0tEeLQCeRUiAnVAUSUQGyFDuzAZDCogMkAGmRtYuVOAGCCDtqFoRYkp/6eGKpib72COiMXpIlJi5Igja0RtdXZrDbC1UMLITnIkhsig8EgorAZqzuJiOJAlICFJgSExMsQGyshT0byt1sWw/LAHT999LT3EULD6Ht7mIwhv/mk8Vi3/EbmOcEweNwRBrhP4cH0JHrhtPEJMOrzxxEOY8n9vI8pdhOWLl2DnsWL07NsDoQa99zMmylCWdwiHiyWMGXMN2kaHwl1djvySCtgpm6hBs5srkJWehs5j78CgzrGICA/iltEmfAo4QWgCMAtLy7F64xb8vnMfMrLzYK6uATHuyzqYpxH1mYmM0AFARpMRMXFxSOnRE90GDEFwWCSCc3aj10d3wdxtFLLvfQfy03gLlWim8sxKGRChkhCpFhGgbJpqj00AaYvqgkosu93u+joItbOTqiwQVm6F5+ufIWUX1KeeEtYGHRQjekM5a6K3BkJdrIFXsAqlghVLam3tj0AQMgtFqBVApQvQqoFIowwBKiDa4FXk5hoJNXIZ4n0Go1pSSJnKBi1gVAJpRRLMLsAUIINBUR+XTORhf56EdlEyxIQAJg9Q5gQC9N7P5oE8CREhMkTqASq74pQBnWNk6BorR3NX1XBUl2LdqoX4fks+7p46lh0KV1xSUvcIuwoOYLsjEY+Oa4sPPv8Bcd0HISY0Bh2CqrF4UxY6doiFVqPE2kWLMHL6DHRKiMGOjZthhwohkWHQ0OJrv6cEwYm0jBNI6twNbeLiYPcRMQAAIABJREFU4KkuhhNK6LRayODBhuWr0fPaG2CUnCgrLobSFIu+fbohsV1M8xOlVvShbTUEgfmS3W44nC7QQUxN2VghHUHEkYIKbDuaixMnjqMgJwdlRcVw2G0QPLUn/9Uq/YslDj6rBPk8yWdNykWr0yIyKhJt27dDfNu2iEloB1NkLFQaHduixm/9Fl2/eAiOhM448rdlEPQhdU5xqvfjFCS4ao8UIJIQpJQQRYGMcEJhL4bCdhySx+rd7l60UaT+sKrz43yu6xp7/6VKsTZSs65cMtUl0EI0JcGOkDOWy/CXBOg0mlNJH/252gpx0354vl4DcW8mJEmALMQExbWDoLxlNORJcYCygQaAxAK7nB7hEispyqBRKaHV+GclRn8mCF0dIhLaKZBdKiHcwDxNKKuW0Lu9HG2DZMzTVGKTsC9TRLYkw+jYM59Pk0kGiqWzOIDMPBElShmSTaea777dKeCNm8kVAThqJGzKFGEIlqF/nBzfbxLgCpLh/q5ybD0q4LhLhjv6yGHS0rdD8zUqMb520cfYlXYS2TYT/jxjIiB5UFZOkRTe5sjdhRV5wZjVVYGFqfkYO2k8LEXVaJMQCaejEnaq4wKgurIKh3bvwo0PPALPsX3YmZEDQ0wCoo31FMdut2DzzmN4+ok5kIty5KXvxqad6ejcfxh6JIfjyek3oPOctzC9dwjW/vIblBGdcP24gTBo6Bg73poKgVZBEARBREbOSazbsRNHjueixmZvUGioofbzKibvYcneY5PPv6f23hsUFIQRY8YhvE0KLG4BNpsNVks1zBXlKCsqRGlhISrLSmGurIKlpho2iwUup5MRB7I01Lsl6lMMyDJA1fZUGg0MAUYEmAKgDFBCHahBeFQYoqIjERwaggCjCRqdHqJcBY/kTcMLdNgx5IdXELdrEaBQI3PuZyjvdzMzCVIjckDWg3pvCH25SFDDAxTtQeiJLxAjpQNiA7vmRZOEczyi5z7Qsqme6Qv30/AbpHZdklyJfE88vs5oi5PVDaPLvE9BsFaDJ+69DZGhRLQaNALR6WaZDcLXayFm5UExeRgUEwZAFhYEKOrdCmwjKUlYtXkblm3cBvGU5+v0Z+10wL2TVijkiI+MwOCeXTC6X29oNZQV4T/NHwmCq1zEd4USyrNEjO6nQIWFNgTeWhYBLglmvQwj28mhVbDimdiRJmC/RUK49lRVtT9fwl+vVSJIDlitEtYcEJAtk6FDQ0sDgIV7RHw6UwWi+i63hJxiCQVWCVqtDBv3irApJbgVMnSOlKF3ghwdQ2XMbdGcjZ7bk5kHkJZ+BDtLjXj2nklnDEcuhr8uL8VzN/TAxh37EN2jD8w5ebA5JBgNUl0pF31IFI78sgzTnn0JOLINC9dthyIkGlHGeoua3VGNXWnFeP2fT0ILCVZzBdIP7EalLBgGoxxfPfUCjP2SIZOHoFef/ujfqwfaxoZ5K5rz1mQI/OEJAjHfFb9vxX++XYSM7JOwOZxNZkGghzEhPgE3TL0ZvfsNhk5Pn/R6Jk9pP+S/drtcrFSv02GHy2mHx+WEy+WG2+mEx+3yHh9ce0KgXCGHQkVleNWQlAKskhlmsRrVUg1EpcB8Akr2vpKVaPZu8Os/fDR+pLkK9y7/LzocPwyZW8LJm/6K3OnPQ67QwCPKYBckX3XmBqH2EmQeBwLzFiA2/RVocJaw6Qs+ds298284gYZjNc24lQ4lPtkbhs/2meAUT/2moRM6775+Ap6+5zaYyFd6OkkQJYjlZsiqbZBFh9TVO6gnmCQlYN/RLMx5+S2cyC9sXA2F0zAnX7VaqUJYcCAmDRuER++Yhphw/ymE5Y8EQRKA0hIBz/4ushTH6X3kOJTnTVUdEgW8lypiSl8FkkNkjHQ7XBLs3oy++uaU8PSvIt6eomSxCU6nhN1HRRyolJAUKUOMXgZ4JPx8VIJSJ8Oc4QooRaC4QsTvWRIOlkqIipChNFfChAFybN8nIEcjw7x+CiQGXyGt2CDN8W/nIAgUpPjanSOwcf0GBHTqCXNOPjwyDcKC5HUEQakPQuqSxbj3lZcgO5mFDb9uQL4sGH06JcKkUwOuCny3dAs69uyOGVMnQu6yIzP9INat+QlpJR50H9wfez79AXPefRSL33kPqpTxuG/6dYgNMVzwG4pfcHEI/KEJArHe7QfTMOv5V5FbWAw6WKmpGn0kUzp2xPQ77kKnrr2gVHl3cudXVVLdrp1d12A+PrsFqXq7x4Lj1enIt51ElbMSIk7/tjnbbtP7JUHvBNqtmL3ie/TOPACFU8CaCbcidcLd6BCUjBBtDLMVnPqV4p21ylWKuPSXEFywGJDRLrppFO/5Mb8SYzRO6uR62Zitw6PrIlBsO/O0RaNej4enT8GD06dAo27g8W34WJFMGXGrPQraZ6GAhPTsk5j76tvYezSrUcGsvm7P/vUvQaNW494br8XLc++DjtVXaPnNHwmC6JTw8nIPBg5UQlUhYp8FaBMApB4V0a6tHN11Er48KuGRUUqkBNV+DkWqti3B4ZFgUANHsiQsKAFeHa2AnFySbkBwS9iWJcIMGUYmybH/kICjchlu7eTNiCivkfDjbhHt28nRJ5JiFSS8v0HEdcMUSKbxD4v4Lk1EfLwcjw9WsHii5mxuew32bPsF63KUmDEwHtu270J1AyOjsyQdGeoejCD874P/YHV6Adp0GIT7Z81A18RQOG3VcEoaVGTvxFtfp+K1Vx6B0iXAZa3At98tQ6eho9C7YxuseOtZVPWYjjtHdmaFSfdv24xNu46g36ix6Nw2FlqFBbMnP4s3N/wX2rIirFn0DZZvz8Kk2+7BreMGNLs1pTkxbml9/6EJQlWNBbOefw0/bdlxTtwb40Q4/XOnVCjQpUtXRg6SU7pBJj97/PDZVN+51KEkeVDjrkCWOR3Hq4/BKTghyXzODp9dgg51kkEpU0Itoy8EOZQyBQQq0SwJcIsCXJIHoiTiul0bcfPGFawy42vT5uBwmyQo5ApE6KLQObgLonWxUCm0kDPnQq2LwZ6Ndvsegr76QAt4TpuSOFxIyt7lEhL7ijV4bF0kDpeRufPM+0KMAbjr+vG4f8q1iAwJYXEE7PnwTbfOheIlCHTAk9Ptxq4jR/H8x19iT0ZmkxLVuIhwvPnYn5k1gebS0ps/EoTUvQLSNDLc1VkOhwsoLxOxt0hEOWS4sbMcQVoZsnIFBEXJEaqufQA8EnYeF7EsXUKNS0JIsAwzeiuQFCxDVaGIDw+cPw6KLEXto+W4tZucHca28ZCIVUdFBIXLMae/AmHkf6jdZFCCjaqZ05AoUPfHz9/AlhNuTLvtLiTorThw6AisDeoWuQoPYZc7Cf+cNR4ZaRnQxbZlh8oFh0ciPFiH8qOb8dbX66HSBGD4xOsRYsvCwrXn/m6m9akCQjB01DiM7pcCeKrw6ZsfYMfRbLQZPBl/u+fauowFX5YRWVd5azoE/tAEYW/6MYx74HHU2O1NhphKqUTX7j1w6213Irljlzq//ukGb9+ADXeBDdWN7++i5IHFbcZJSyZOVB9Dtbu6bq5yyKFTqBCo0iNMY0KCPgwJhlAEKbWQeyRIggilXAGVmmIVlHBLIswuBwpt1SgvOYaJi99GiQJ4a8w0WBReEkCaTC1XI9YQh6TAFIRro6BRaJiC01qOot2+P0FrOV47h6ZU0k0mgmbriFZ7pFSNpzZEIrXw3BkGAVoNhvfqhlvGjUKvjokICTSxoEGSBeFIliq32wOLzY6TRSX4aWsqFq77DTlFJU1KDggIvVaDWTdei3/86W4E6Gq1RrMhdPkd+yNBuPxV8x44Av6JwB+aICzdsBl3PPsyPBQOfJmNVKvq/9n7Ejg5qjr/b/V9TM/03PdMkpncJ7kPAgIBwqWiKC4KKqiry7Kurqj/3dX1XsV1vYVVEDxXwAURo4Am4UpIyEnuYzIzmWTuq6fvq+r9P79XVd3VNd0zPSHHJNT7iDPprnrv1e+9qd/3/Y7vz2zG7Nlz8P4P3s0tBxT0N5YnXHuoHO3coECnKHojp9Eycgh9kR6IjOC4AKtg5qCgzlWKeUV1mFVUjVqXl1dy7O4cxKGDJ3HgQDv6B3ywWi2YOrUaly1uwowZdSgqKuCxCfTM0r6X0Gq14BWbGcf8XRiI+RERYzw4jubjsXrQXDgTzYXTUWgrgj10DNP2fByOULtOWtkD5jJP2NncN6njtCbYUx8Umm1h9LAq2zVj2VOzQbHx7a90xWEFIGwfAyAoRzeUFnmwZNYMLJs7E831dSjmsjcjEo2hu38A+461Ytv+Q2g53YW4Zg/mZ8/Ib8OSNWv9mhX46b99mgOVyd4MgDDZV8iYnyGBtAQuaYDw+Aubcc+XHzgrAIGU4ayZs3Dnhz+CWXMWpdwKerWTX5QDQzjhR1vgGFr9RxHgVgMGshiUO4owq7AGlxU3YGZRJYpsTs6AOOILYfPmvXj8dy9hx+tH4RsOI5EUOcGK02HFtOZq3PaetbjtPVegvr5cTscTk2CCCRFJRGfIhzeGO7DfdxrtoX5ERHIeEruihVsT5pXMQ73kR/Oe++AItaV3iMkBwUJBedonzab46ZYsQIJfqqhE/nVugJAJqFQ1mkui2SSfOS+5v+zqmIlhQKRAzLSplwOEARs+v6kS27ts45NCMDlQzW6x8HgAAmu8mJMoIk4ptfG4wlV/7gpgUFbDuhVL8cgX70eZt2jSv9suVYDwfIuESCaHz1lZi6oCASvrxwe3Z2UwoxNDAjoJGACB6ywGq8UMl90hZwakWvok6y0uxvvv/igWLSFfb9rPle3q8XZZID6Ew8N7cSrUhhhXUgIKLA7MLqzByvJmzPPWwGt3pVRyKBTFnzdsx/f++ykcONCBZEJRajrzRW1tCT5x782464PXorQ08zRJTxJLJnAyNIQdA+3YOdSGnggFQFJfAsocZVhss+Oqlv9CQbhDeQQz7PXrYa1cAcF0rmlYxpPa2f0+ObQf0ZN/BEsEUx2TC+bokBNf2VqP3T2OLFkGGqCTCyON2jv0wbgXa2CMvOfilC4bi41LQSEDhCV45IufNQDC2d0iE+rtcy8kMXz2PJmpsRdUCvjHleecI3FCz2pc/NaRwFscIDA4rDYsnD4NVyxZiKqSEpgtowO9iDMgWliJ2Zcth8UyOlpc+/ofe+swBBPD2De4Ax2Bdkgg4hABlQ4v1pTPwMryaahxFcGqCXqk9Me9e0/gK1/+NTZv3MfBDAXIE597RmCcQt+7cNEUfPNb92DN5XOzBq2RfzyQiOKArwube47gsP804pI8jwYpiA/1PInyuMKOJljhXvDPcE57JwSKUziDdjbN6WcwfM5bYp0vIrDnG2DRQY0Cl+BDNXaZbseAqfFsDjfhvoKhCPa3tOLlXW+gZ9iXEygYAGHCoj0nN7QMEQHW2e+6wAbUFRkWhLMvWaPHfCTwFgYIDA6LBXesvwafuP1WTKmp5qlrepZDkVGFNQEdMQtgzi9Clqz72TIqA4lB7Onfhq7QKX5ypwiGKQUVuLFmARaW1MNjtcPESdnTLRKJ4Ve/3Ij/+MIvEQxEcOXyWoQicew+OIAkgQSdBd7ptOJfv/h3+OjHboSnIHfQWlxxO7zQdRCb+w6DgiUr4oP4SP/TqE7IFdoou8FSMBXmggaiGsxnP426ZrICBDHSBdHfAkgauzCTIBQ1w7Hk6zCXLT6j5z1bN4miiAHfCF7YugPfJw6PjtNZeRMMgHC2JG70Y0jAkIBeAm9ZgEBq+Lrli/HtT38Cc5qnjVLMXEEyoCfGcNAvIJjjdDBWkKJW2NFkCHsGtuJk4IQMDgQTmguqcFvjUswuokyC7OCjr8+Hr3/tt/jZT//CgyS/fu9KLJxeioee2octe3sxEogjRpzJSglhAjjvfs9qfP0bH0ZdXfmYO554GIbiETzfeRAbOnejONaLj/T/AdUJOlWrjZ5QV+npjP+OJpoVMdHrJzAxXlxJF+fAJJiLZ6Bw5QOwVSyZQGfn5lLaf0MjI3j4qT/hO796AgP+zEp2NKoBEM6N7I1eDQkYEgDecgBBVQlOmxUP/duneapaBumNZleEkgz7RoD+hKBhHszcNvlkMRDHwYGhXTji248Epy9maHCV46PNV6K5qBzmMSr6nTjRhU/e9xNs2rgPdosZP7p/LW67opETsBw65cPJ3gCOdoxg694u7Dk6gFAkicWLp+HHD/0T5s+fmlfBqIiYwLMd+7G17S/4UO+TqE6k+dUn5x/JOQIOkwwgyCCVYffhY/js9x7Ci7veGOVqMADC5NyhxqwMCVwKEnjLAQS+aIyhqaYKj331X7F60bysSjTJgJYgw4mQgITOjD8R9UQsiJ2BE9g7sB2BJJ0AGUrtRfjHGeswx1s5pgIn5bBjxzF89O7/RktLDxxWE37wL5fjPVdMhVXl+AdAbpBgQsLP/3IE3/7FHrg8bvzgR/+A69cvhYUKBeXRQskYXj72Aur3fQnl8YE87riULlFWdBICBJJy78AQvvSTh/HwM8+N4tQ0AMKltA+NZzEkMLkk8JYECKR4501rxMP/8Vksnzc7q5IejAMH/MCwNnUpT2SQvozBFxvkroXu8Gl++nOb7fhQ05VYW9nE0xfHavF4Ek8/9Sr+5VM/hZRI4MolVfin9yzA0mmlsGgAAu9DEPD7l1rx+Qe3o38khi988e9w733vgMuVX3AhpQOGBw8h8PLHIQTULAYGwVIAwUIc5zRXbSIiR1rK9HOlHObiRtBHJuh5D/IP+0zLb6zFGS1nlgyDJSmDQcNoN0kBwqDPj68+9Ch+8uQzVE4roxkAYXK9UI3ZGBK4lCTwFgYIU/DIlz6LZXNnjQIIlEV4PAS0huh0numpzhMj8D2SkKI45tuPw8NvIC7GYDNbcUP1Itw2ZXHOmAPt5hoZCeGBbz2OH37/WdRXuvGljy3DO1Y2wJoNWAgCnn6lDZ97cDs6+0O4+uoFeOhnnxw3DiE9HkNy+Ch8L38c4ojMg0DMDI4p74C99koIpvyAxsXyxxHv24Fo65NgnINCARCTFCAMjfjxlQcNgHCx7C1jnoYELhUJGABBBxAoMGwgDhwKAL7E6DPyePQ96sagokv9kS7s6X8Ng7F+/vHC4kYed1DuLMirZvnRI6fwkXu+g907W+F0WLB+dQM+e8dCzKnzwqyvayoAz25px+cefB0dvSEUFbvwrQfuwd/dcVWebgYtQFCYFAULXHP+Ho4pN55xmuNk/UOJdW9BaN93wWKUsaEFCNNRuPLbkyJIUZVdCiD8/hkq+GdYECbrpjLmZUjgEpOAARB0AIGsB2Q5IAuC/mU8kbVPSDEc8e3FoaG9vJCS1+rGB6ddjpUVU8cMSlTHiEZi+OEP/4BvfuMJRKOyYbnAZcY371uF962dBodVjS1Im+ufebUNn3/odZzqCxMLNBYvacIPf3wvFi5symPqDElfCwKvfg5SoBuSFIMk+mD2NMJcUK9Ud8wGj7KwJ44aLds1pJRlkia5ZWNYzM26OBYjY3r4XGMIkMLdSGZJc5xMWQzqcwyO+PFVw4KQxx42LjEkYEjgbErAAAg6gOBPAPv9QL+mjOlEBC67ICj2YACv972MgWgvJyG6omI2bp+yDGWO8WuWU4zEC8/vxL986n/Q1taf0oVmM8PX7l2Je66bAZctMy2SVO3vNrXg3/9nB/p8xM4Izgp5x51vw7e//TEUFhJd8liNQRw5hciOH0EKdEJM+pCMd0ISKbCSAjEmwhmZjyMmn5iBXOAjV2yD9vm0YGYsEKK5Z5K6GAyAMJG/wLN/Lf09Eq35WawWf/YnafQ4qSVAFt98A8Yn04MYAEEDECQGdEXl4ERiT9Sea/MNm6PrkiyBNv8RTooUZwmU2jz4cNPlWFLaCEseJXnD4Rj+7vav89RGSUyfsgkgfOUTK/CR9TPhtpkBClQkUiYA7X1B/Ndv38Djzx9HlHgRlFZc4sZv//fzWHvF/JwZEyweAySR++MTu3+PhO8QGJJIRFuRiJ8E2Bmipcm00/OZyyQFCEYMQj6Ld+6uoWBhKn5mAIRzJ+NLvWdes8Vm4bwlF1MzAIIGIJBePaakNqqLmO0MO15sflQMY3f/K2gLnODWg5Vl0/F3U5ajypVftb2DB0/i5hv+DX19CjGOMqDZwvCFjyzDx2+cjQK7BdtbB7D9UDfaTgfQctqPN44NYdiv4e+nAEuB4T+/+WH8433vyLk5mW8AGOoFvKUQD25CInAMkhRGNLQTyRiVfs5XChPd+vlYGibaZ7br8xyHA4TJF4NgWBDOxh448z7CkTjnozCaIYE3IwGr1YyLrViZARA0ACGYBHaPELtgZlpcnuoltXdG4gPYePqPiIpRuMx23NawHNfWzM4rc4E6eW3rYbz71q/yCo5aFz3FFdxyZSP+86PL0VhWgDhjOHhqGP+7sQW/+8txDI0oJ31N1iBjEr7wH3fgs5+7PTd6DQyDHd4FwVsK1tMBKRlELLwP4cBmiJxVkWgkL5YX5ERXS/Mnz0RYSmahcNV3YC1b+GbeBWf1XsOCcFbFOeHODIAwYZEZN2SRALkYyIpwMTUDICgAgdTfYAx4bVhObaSmzfrPXz0ytAeOYGvPi1yp1jlL8aGmyzG/uJaXZs6ndXcPYd3V96O9dWBUIcCKEgd+9Jm1uO6yWliUTIbDnSP42Ldewp4jCkWyxh/idFnxi19+BjfevCI3KVMsAuzbAhYmi4UAxhKIRQ5BjPcgFtmLZLz7IgII+Ug41zUM1splKFrzPTkwc5I0w4JwYRfCAAgXVv6XyugGQJhkK/n4C5txz5cf4P5DbZOJkjJ5ECj+oC0sxx+MBQaynU+1nzEmYkffS2jxH+H9LC1pwl3TVqE6T/cCzVOSGP77O7/HN772O8RiCjWOEnNX4LLgB/evxa0rGlJsiodP+XDPN1/EvuMKRXIKiDC8932X43vfvxdFRWMER0oS2OGdwEAXFxM9g5joRWjkr4hH9nPA8FZoRArlnHkX3Avug8k6XlDn+ZOIARDOn6yzjWQAhAsr/0tldAMgTLKVnAhAIKvBGyMMpyJCVoCQi0NQfWT1eyJHerHzz+iP9sACM66tno/3TFmKAqttQtLp6hrEXe//FrZtOyb7PxWA0Fzvwfc/tRaXz65IcSH0jETw5V/sxO+eP4E48UIL4MWnqquL8Lsn/x1Llkwfd2zWfhQ4eZgzMoriAELDzyEa2gsGETHBkpIJFZmyCKqZTC05rSASLgSqAUmVozjU0I2bGepJ12UP2dEyLepZF8d9lDO7wGSBtXQeChbdD2vZAl3Wxpl1ebbuMgDC2ZLkmfVjAIQzk5txV6YEDIAwyXbERABCXARe98kkSdlcC1orwVhe7mB8CBs7NyCUDKDA7MSt9Utwfe1c2Mz51URQRZhMinji8Rfxg+//AS3HTkNMiqip8eDd187GP6yfjsrCNLNhXJSw5UgHHnpqG/YdCyEaF9BQ48J777wFd//9u+FyOcZeGaps2HoIrPMEmMOGSGwXQqd+AybGIJYuwmvMC58oC6bCUYapngburtBndsifyKBABgmZAEF/h8MEFJoBq4m+Gc+JM3q07DRW8uij+S9VwJKtH6pm7YStcgWsZfPPuLT1udr+RgzCuZJsfv0aACE/ORlXjS0BAyBMsh0yEYAQTgLbh4ERDdl9vqBA+9iB+CA2nd6AkBhAua0It09ZhTUV00YzH+Yhq8BQL7Zs+C12v7oJ8VgUM5uLsHLZStS562ARSekrp2sTEGEdON62CQeO+xGJCWhqcGHRqqtQNP0GmAqnK0RHOQaNhsH2vwZEgkg64wiOPIt4zxZYyxZDmvUxPDgYwMFgN4+hmFM8E1dWXw6TYM4ACCSrNECQLQjyZ3LTh19QX04TUGJlKLIATjNZPXIJRf/FRDgOclkgNJGcvJQFTXhiIC6PJTwrlxgWhLMixjPuJB+A0Nl2BIMRBikShLu6CU0VbnR3daJ/YAiioxgzptbD47Shv+skjrZ0Yf7qVSgUEujp6ULPwBCSkhPNzY0o9thw7I03ELE4ICaTmD13AaxiBJ2dnRgJRVBUUo3aqhIMnz6CE8MCrFIC9VOnApFh9FNQM0T09AawcPFCuJkf+493w2FlKKhuQm2RFX29vRgeGobgKcX0xlog7EN7dz/i8ShMRXWY11iOZDSEjrYWBG1lmNFQzYvExfx9OHS8DQU1czC92nPGsnwr32gAhEm2+hMBCIEksG0YCOUACOM9mgomCCBsPL0BYTGAWmcZPjB1NRaX1uVVdjk1BpPAwp0QTz8LsfdlJIKdkCQJRJ5osZdAQC1MaAJM5QBLgJmHwNhRSNHjPH6AVJ+JVLLZDqFoNkx1t8BcsRbgRZd0jdwX3SfBWt4AlaWOiUcQHPg9TAVT4J73CUgVq/DTE69j68BRCCYBc4tn4W3VazlA0Kp+2QKg2Ai48YBBEEWYksk0OOA6WVbMlA7sEACrwECWhAKzgAKyJminp6SW8Z4VfU4kVPQ/6p/3xl0aareKK0YdR8UAqotGTVXT/qRrKABF7k2p3UT9pAbM/J4+1t+vzCn1ud0K1JUAjom5lXLtsUyAkAl4jGJN4/1lvvnv8wEIPadaERRNiAz349DxPqy6fD5aDx2Gt6YBHcePoH7ecjR5TTg9HMPGJ36Nd37q3+EJdGLfwcNwVtQh2tUOU9UMzCwMY8OObqxaNBWdLfthq12MOncMp7sHUVFVAU9hKcoLRPzm9xuxZMVSBPs60BVyYu3iKfCHIvB3n8Cekwmsv2419m/6MwpnXgZXYhgnOny44tq3QQwMwe/rxSv7enDTNWtQZGfoGRzGyFA/Dhzrx623XYtgfz/273gVgwVNWLdiIYrtcRw50ob2fdsgzboBN15W8+aF+hbswQAIk2zRJwIQqO4CWRAimfGMGqN5Wh2OZQz3kwWhcwPCyQAa3RW4c+rqCWUwgMANgfxlAAAgAElEQVSBbx/EE7+E5NsHJMMpqaondAYzBMENQSArggQGytMOA0xU5ps28zNS1o5qGSTUvxOwFWWsEksmgAOvASNDnPsgNPIc4qYeuBf8Exy1VyNmsuLR41uwue8QBzmZAEF1GmSCAxrAEoujeF8r/08QJcTNAqwig0mQQCUJKfbArAAJ0q9mMJA6pZ8yhiBlrcQ4EO8T/1hW3BwspJS+TArFJBkopNPVVWWvU+gqmNDmtWf8rlygBxcpc5KioLPmxSvfNZRB+MhVQEnBWfmLMCwIZ0WMZ9xJPgCBALzJZEJgpA9P/uIZzL16KXo6Arhx/RU48soGtFkaceX8Bpjtbvz2u1/GDZ/8Ctjpwzh47ASWr7sJrGM7XmqzwOt/A6Gmm3DLwjKcPPw6/ry7D8uavOgcAco8HsyYNxPmvr349U7gk3esQV9nG557bhve+aE7UGhO4pW/boarZioWNDjxnw//DZ//5AcRHenDpuefw6xrbsescjtC/a14+uUTuPZtK1BZWsj/aLrbD2Dj9lN4z+3rwWJxHNv5Elqlcly5dAGKHcCwP4yjm5/B0JRrDIBwhjvJAAhnKLhzdZseIKQM01myGAggbBsCoprqvzSvfN0M6nUEEMiCEBEDmOKuwF3T1mBecf6IW/IdhnT4AUj+FghMlBVjKgaQzumq8pcVpqyi5QvShncJgqUQTIwAjEwiAgR7KUy1t8DUeBsEe7FyYGbAYA/YkV2AmIQojiAcfw3WpqvgaLwJgq0AMTGJx05sxcaeA1kAgjqyAIFrbXke9P9Wfwi1G7ah5Lm/YdgOPL9yJtYH2lDuGQC2zoBg0sAs5ddRcQhaT0Jqk2hO9vlunFGIbiyIN06n5Irg4EAfy6DcZxLA5jdA+NzbAee5sCBkzs+wIOS7Cc78unwAgtx7BH/6xa8QqFqAudVmdPQBN69bhtbtG7HLX4wb1i5AgcOCn37zixwgOAZOYNvuN9C0eC3ix17Fzv4iFAT2YNoN92F5rRmn2vbjt3/chemlFgjVs7GkxoJXT4Qw19WDPWwBPrRuJgZ7u/DXDRtwzQc+CsfgCWzeewoLLluIKbZ+fOn3B/Glj92K0MggXt74PMoXXYfiRC+OtrRCcpXjiuWLUOhmeO2vW9CbSMBd2oB1K+bynX309Y04HC2WAYLLAiZJ2P7MbwyAcObbiFMtGzwIb0KAZ/tWAgh3f/kBiDnTHO/HsrmzueIb0QAErfrQAwRVEeeaazBBAOFPCCWDmEoWhGmrMa+4Nq9HY8kwpMP/DbH7BUBK8rgBwV4OxIcBiRgSsys2OcRPBQsKcHBNAcw2MP9RnpnAm7UI5oZ3wTzlvfx3JJNAy16wntMyZbMpiWRtMayNl6eqNxJAeLRlCzb1EkAwZVgQVDjAf6qJC8o8bIMjqH/yFZRs3YuoWUBPSSFqxQDspgTYUEGaEyKbgNOdZchNHifzWVMXZNPXKZNCluAGAjQceaXQifzviTLmqdYOdSJmE9jaWcA/rZ+YW2mMHWJYEPL68zlnF+UDEBIjnfj2936GGVe/G+9YOR2HDh1Aa2cCt964Cm2vb8T+ZA2uWTqDU6SrAKHOIaG74wQOHDoMC+IYLpgFS9uL8Ky6C1c3u9HdcQhPbdiL6bVF8E5fjmWznPj5g3/GvGaGPeE5+PitizDY24vNz/8N1931frRtfQl+iweLF18Gd6gN//ro6/jGP7+PA4RtL/0N1SvegVllVohSAs89/jSa3nYNZtWVQ0qICPiHsHUzWRnuQFOxxQAI52A3GQDhHAj1zXSptSBkKNAsFoRAkmH7EBAUc0bKpXWRTo+oaoZ+JqVB/PnkBgSSATS4yvGBaauxsKRuVJDeqOdiDGx4H8SD34QU6pCvNzshFM4BCxwFS8q0y2mjvg4saBUtXWd2QChZBta/VXFDKJYHeznMTR+CqfYGsAgVntgGxOTiTigshjBrCeBMm8ajyQQePr4FL5OLQYlBuKr6ClC6o4ILuNJO2zHkrpxiAo1BP7zRqKyDJUn+mXIPKC4E7ipgANWcIJdC6nf6t3qfcq36Pf2k/ig3Vb2efmZ8r/lOjS1QxuLuCI2bgtgm0/MCBE0/coqpdnzVvaHGO2i+VwAM1syAcM28N7N1U/fS0JTF8NWHHsVPnnyGvDMZzWax4JoVS/CzL9yPMm9+VN5nZWJn2MnFRjVLjzk+QIjjl9/9EerWvRdrZ1Vxa9rJE8dxvLULK6+6Env++iy8s5dh/rR6WExIAYR6B4MoSTy+6ODrW+Gomwl7zy687G/C+9Y2oGXPy2iLl8OLYcRcdVg7uwi/2bAH65eU41ebe/DPH7wO/aePYtMbPtx58yI89+JOFJfXY8UiSmuO4AffehR3feojSAz14aXN23Dtbe+CW6CaEiKe+93TaLrqGkyvKuH7OzQyhFdffB6zDYBwhjt7/NsMgDC+jM7rFROJQaDYAwIIPv0bWJmx9oCqP6yqypEi8WPJQTzdTgAhiGpHCe6YugrLyho4L8GYjSUhtv0vxNZfQUiGZGuBxQVT0QJIvj2AGMsACKpDIdPlkDbykz3BVL4aku8NCImg3B+fggWmmpthnvZBCP3DYKeO80JN/EhfVg1hxiLAkjaNhxNx/PjIS9gxdDwLQCDXQtrBobUouM3AFBdQcBEwi8pGgzTgkgMi064M2aGQKwBSe61yj4WiSc88I4LmE0sAoahs5JFEP771CAGEPyKpmafD6sDbr7gVM6fU4c5b1qLM64DdJgeATtZ2SQKE5BB+8pOnMG32FL5TXAUezJgxHV3H9qPtVD/ctVOxYuEcFBfI6cZPPvwjrL3zH1EqBtF67ChOdA/AXVaLy+ZOR6GLYcOvnoFUWQqr4MLaq1Yj0nMCew4cBhVpbZ6zCHObanF869PYM1QIrw1YvHotyoRh7DlyCiU1TZhOAbIABtr24E8vt6GyxI36RYtRbY3g0KEj8IXicFXUYeXCOTh5dBc6+kKQ4nG4GufgbfPoGYC2/dvQGivCsnkzUOgwcxfDvs0b4K9ZgbWzKybr9prU8zIAwiRbnokAhIQE7PQx9MbysCDoKIDoDruJwW0BRuJD+EPbBviTARRbPXhv4wpcWTV93CqOLBGAePBbkHpfgkAnWlLpZidMxYshDb5GUXjcepByMygWA617QbaSKI2C+bzzeBwCC1LBJUWR8z6vh6l0PQTfMFjAJ5+Qqcpk7TQIU+bIvyvNF4vggQPPoSVEaY4C5mmyGLRcCFqp0e+FFmCqC3CcuZ6cZLvp3E+HDBexOAWEAV39DP3K0tSW+/Hz/3sMD/5eY0FgDLMaZ+MzH/4qvJ5S2KwMJYUMFcUMpUUMRH0xHiY99080eoRLEiBcCEEaY150EjAAwiRbsokABLJWHwownAilA+20oWiZZ8z0g9LVFgFwWxg3HwYTfg4QhuLDcJocuKXuMtxcvwAO89hHaeY/juShbwG+w2kQYLbBVLocUt8rOiYBjQ2DZwJogxfl7zhYsLgglK0C634BTElLFOwVMLuvhyA2AokkBx68mS0QmucDVY0Zq3gq4MM3D/4J/XE/dyssLVuIVZVU10EGEfrDqmpN8VqBaS4Ze4QSsjdAtTYQ3wH/Tw4pkN0Tmp8qH4L6uXZC2T6bZNvujKZDHpPBEeBkD0PPABCNyx4TMkR4nH489cJjeOSZNEAg2b3v+g/h7Ve/P7UWJEOqBTOtVsKUagZbRs7oGU3rrN9kAISzLlKjw4tEAgZAmGQLNT5ASAcpEhjojDDs8mXG0meLfVMfk76jVD2XmcFmlhVdQkrgL6deQFvgJCcSvrJiNu6YugJeu3MM6TCI3ZshHX8QCCv1EHjunx2mshWQejaPSeKTMy5BisPU+D6w7udAAZBEBCS4F8FsvQJClNwImjgGiw3CgtWAx5sxz9d62/HTlk0IiVFYTRZcX/s2NHtl6mYaV2854KBBAEqtQKMTGIgALT6GoFJoUpUZXUMKjRSd+jv/N9E3KGBBBRLq58S4WOECvI7cpEqkVANxcvXIMCk1Du8zk8BJC1hGARUCWBq2yLQr5dyczCkE41gHw7GTQFzHxQEE8MeNj+F/n3s6FYNQ5PLgK/d+H9UVsklYbQQoZjbIAMEyCd07BkCYZC9JYzrnTQIGQDhvoh49EJ2YY0xEnKW9tM9s2oJ//q8fjirWRHfPaqzHd++/F4tmTU9Fm1Mmw96R0VwI6miqOiUSIqtghVUww2Fi3IzOYwx48KKE7b3bsb1vD5jAMLewHh9sWoOpntLc0pHiENufgNj2GwgJP79OtgC4IZQsgtT7cgogpAMi06o5W3YDdz0wEaa6d0GweyGdfhoQXDC710GI18pBgakHYxAKvMCiNRnxBxRA9UT7Lmzo2oO4lITL4sTt094Br132cWYDB6oyr7ABtQ6gZRg4MsgQTACJFMeExlWizEELxEi+qrtEVcxWIlayCJhTBkzzgltrsjWyVhwfYugNEVjTWSYUSwUHDervBFBMo60Z+mvIYELARQU0ZpMApxUodwKus3BSp73VN8Sw+wgQouxUzcNJUhy7DryCvUd3wmpzcKBTXFiKm668HWZTJgrwuIAFzRJ3MxguhrPzQho/SPHsjGP0cmlLwAAIF3B9B5IhbAyfwLFYPyQlVa1v2IeDbSflYke65nbYMYvoT92u1DlYZAyBhIBkjjR5lY/ADhumWRoxy9qIAosF5tTxUr7xVKADfzz5HJJMRJm9EO+fuhory6fK12Vr8RGILQ9DPP0nCFI8zXVgLYFQ2AxpYBtAGkpFBzlKUevBA83GVH45zHPvB+vZDBYcgTlSBxZWsha0AKGuCWiaJ4+jtMFoGA8ffwl7fe1IShIaPXV4Z+ONsJgyNaL6VOrjUdgBgYNSG3B4ADg8KCurCHk00nWndCwT8qCq6NPPIitmuxLLsLASaPYKOQPxBiPAzh6GUJzcPZmlu7Wi53PWLEfqGUZdpKOMVkACgQOvXQYsZa7RVNJn8qeQTDLsPgp09OjLXDFEomHE4hGYeU0PAWazFS5HJjMmPUNdBcOsKRKPQZiMzbAgTMZVMeZ0PiRgAITzIeUsY4hMwt5oNx717URPMpBx+soGDtQuUvpaQ8jDFZRejyv+c1V5mWHCVHMNrnIuRZmlWMMBIPfsiw3j2ZPPYyA6CLvZhhtrFuLmugUotGV/a7P4MMSWRyF1PpvKVuAGcUcNBGcF2NBusJS5W1adaUWqnMZH1UZSyI8LpsCy7Icyr0EiBvj8YN3tQHAknfMvmCDMXgqUV2eQLr0x2InHTryMrihROQNXVC/H0rIlKZ+3VlRa7EPwodEFUCbDvj7ZgkCR9aToCSTkbhoEpKAhiyBw901cYiArwvJqAY1FuV0MXUGG17toHAE2C0NATv5Qmrb/0bPQghMVrGi3An1Pz+C0yO6KAivDkmoB5WexMnT3AMPrBzPdDPn+WZF7oblOwrRaBuskdC/QcxgAId/VNK671CRgAIQLtKJJMutHOvDo8E4MEXugXidojt4Z/DjZDvT6yERVtaSz3riZud5agWucy1BpoZQfNXuAfAyUyRDDzoGdODC0jxMhz/bU4sPNl2OKpzQ7HwKvvdAFqe0ZSBRQKPbL17mncj4DyX9IyWCQJzNajaqfp8/dqfRHkwPmxQ/AVLZUvoii4SJBsJ4OoPcUBw2CuxBYsAawaStEini8fQde6N6PmJSA0+zAe6bejDJneQZjIp+PTo52kxygaGHA7l6G48Py0G6brPjiindjPPGTmd9lFRBJMiQloNAGrKoVUF2Q/cROS9TmY9jVAx7zQKZ/cgUE4unsjvTypoGWHjZoq1JqwQXltxfaBCQkhnACqPcAS6sFFKXF9qb+AmTOA+C1AwyRDGCTu1ttZgutQ5GbYWYDQ3kxg1pAlOIyojFKnRR4Gt0EC4u+qWfS33wxAoRoLAFR65I7qxIxOnurSIBYFAkkXEwtGo0hGIpA8AdCzE5J1BdhI4CwTQEIw1qAoGggDgpURU/qXOvw1tiyU9eNddAkEzMD6izlWOdazgGCVtHFRIral9AZbsfWnpcREcM8uO/OqWtwddVM2HJlM1A2QccxsFPHwBIjFO4I2JIQI4/zVEVtpoIMEuRR9WmPqeVLPYMA84Ivwlx9XYYmp1gJIRwEhnoAij8oTit+srq0+Pvx2IlXcTzYw8eY4ZmCGxuuT/m8M+IPVDkrgxdaGKY4gbgoYEcXQ7tfCUQE4LEBfh6wmClkLS5TT+puazoDgu4ocwKragRu0s/WSBEeHiSrBQOtA7Uiu4CoCEQTcsUnrRsmTZ6lMSHp5iXLmIpK0dwFhEWGqGIFmVEMLK4SuEVhIi0pAoEwuBuATvocYDFgOADsOcYwTMYd7X4d1bl2A2u5L+S7XA6GuVNlkEDepK5+Aaf7BV47avYUOQ3yQsUnXIwAQZIYYvFEVlflRNbduPatKwFyDdpslvEJ8yaZiC4ZgEAWhJ8P78SwRMpUAwK4wBXqwyyugxSr76h7sqyUokdIOdebCSAsQ5WFFKs8RlJivBqkxASEkiPY0bcFJ4Pt/O0/q7AO9zSvRUNBsS72X7mdAEL7EbDOE7wuAldM5mEkQz9PVy7MoAWWQYI2QDH7v5Mwz/wkzFPelxFfMNY+DCXj+NPpffhL1z6Ek1GYBTNuaViHaYVNqjTln1lMAHY6xVoZahwCjwPY3sXQHZSvpRMyuQusZgHhhKzMZIJoTdAHT+0T4LCAX8PTI5XJ1nqAZdUCvDlO7HTI29MrxzzQfcrKw2MHIhQkqVguchiJsqpkymSwmRgPSAzGAGXafE4LyoEFFULOgMlcMu7sB944zuC2A1VlAsq8clXKI21AL7Fq54qBYRKSYpJfazZbYDblPo14XAzeAmDID4RjFLAqEyg1VjPMaJBABScvRLsYAcKFkJMxpiGBySCBSwcghDvwc58MEDKOX6qUdUdUjeEgpUm050j1NrUGEf8u9eIW0MAtCKqLQU4KoNNlUpKDASQmoj1wFDv7tiNCKYKCGe9uWI6b6ubDns2KIElgrQcgUOllYjYk6mXrAMTgo6nyAJnnxtEAITVnTW0GKuFsnvp+mGf8A6CLeM+2ASnA8/BID37T9hpaAj38kmmeRtxYdzVsFmcaAacYFNOKmPggnCbGyzZXOQUMhgkgAINR7cldNv2Ty4Cn8ykPpcqeUhltZoYwB1qZroRmOrFXCjmzBuIi8Ho345kT2uUmxejigENhZ84eZpKB7lUrBgEVylAJJWhN089K8RA0l5mlueMhssmXrAfbDjB09aczLNxOme+ArArZLNmCIMHn70dHdzsGfQOcmrewoAgVJdUo8VbA7fRkxIWM9WIh0DB7qoRy74WxIhgAYTK89o05GBLITwKXDEDgLgYCCEklBkGvTdXjpFYuuY6S+hOcHFqQUiAmJqBeAQhVlgp+Wo0mGWKSTD1MV8sBecPY0bcdJwIn+Uu9xlWCjzZfgdne6tHUywQQTuwDKDaA1y1gYLZ+iAECCPLDaFkH1DTAHIfN9LVMgqlqHcwLvwjosg/0W4T6GogG8cypvXip9xCiUgJuixPraq5AU+G0VP0FPhed9YAH75kYJ43ymIFKB9AZFLCtU05x1C4HxXBQbAHJTD3pU59kXaB+yD2gtRyo85xfBsyvkIMWszWKO9jezdDhzxyPxrab6aTPeJCk9oSulZ8WNFIaJY1DJ29yKZDxQfsMHiuwtEoOmJyIuX5whOHlPQABhfEajeewA25nGH/c+BR+8+c/IBSjst7g2QzlxVW4bPYKrF5wBeqrm8bkylDHIpfG9DoJU2suDE+CARDGW3Xje0MCk0cClwxA2K5aELLEIGRod72zO5vbQb8+umsoHqDeWo51FKRoLkdMFBDjtYXkkzIpQAdXSEmc8J/A1p4dGI77udJe6G3E3dMvR5VTV1iHAMLxvUDf6TRAcA4iOfzIqPNuGijkqu+YaV0QihfBuvS7nHhprBZJJvBi71H84dRuDMeDHBDM9c7A5VUr4LKkU+r0CpGe12mWQRH9TiyKZTagfQTY1kWxCJkAi+ZAJ2by66v+fE40pYADOSs1HaOgnuYXVwKzywQ+TrZGKY5kQSAOBLWpy019U6ok3Up1N9TSCmpAonZb0HUEEMgloZ271sJU6pDdHVWagEkV1KhMkKMAGAMOnGA4cjK/F4DTDjTVAgVOP/7rUR3VstKFy+7EjavX4c63fwSxZMG4xSiJ86GxSnYzUEzC+W4GQDjfEjfGMyRw5hK4pAACWRCGyMVATfM2JxOxx2RHgkmIEM+AxqxtEywoFGwIsBjiZNpXdJMZAtwmGy+OE2EJzq2g6iUeg0AWBOcylAjlPAhOdm/L/nSK4ndaZEUWSgSxrW8XDgwfRUJKwgwz1lXPxW2NS1GkSXtkFHdwdDcw0K2QBTBIBcMQB37KIUdGtLou9iDb8vPrlahLwT0FlpX/A8HqyblTiBRp71AnfndyG06G+vl1lc4yXFm9CrWu2nT1Rp1yJkBAz0t+elWtE/+B1yLg2BDDzp5sZn1Z+XOFnQoPEbgyJpA1SrFywCVnDDR7c5/YOwPAjm4Gny4DQO1RTVEk94YaxKgFEqTYaU6qFYOuy2xp0FLtlgFCiUKQSVYJf1J2Q5D7wSbIsQkqnTT1Qy6V7fsZegaz+Dh0I9FcmuuJ0EtAMJy7mqPZZMLVy5bga/d+DoMjxQjoknhUoEXAwGlnKC0EqssYyrzszdSTOuM3jgEQzlh0xo2GBM67BC5dgKCIkgK6lrvqcVPhLHQkRrBh5DB6xSD/1iaY+ef0/a5wJ/44cghxJnKlNc9RhfWFMxGTknjStw/dSrllXhRRENBgLsfbHMtQJFQgyY+8sua0UtEmfgKV/03jD0YH8GL3VnQEuyBBgsvswA01C/H2+oVwWpRosXgU7MguYFhWztSkomGIPQQQ0lqZqyhN/YW0ytKrMmV8smo4SmFZ8VMITuI5yN4oa+EXJ7bgeKCbz9FjKcCqyiWY6Z0Bm0k+amYzpdtIqZpkSmNqpBArHQIcAnCwn2H/wOigO1VapIgp9ZEUsUyipAZdyk+lNelTiiNxINQV5khxZEDbCLCLSJIoYyFHIxcIxRUQQNAGLapuD1ovDvgy4ybl51f6JDk0FsouhgLlFE7kWv0xxkm2CJDSs3GCJ4HBRnEVJgZJFNDexXC6X85YoFIYudwTHiewcr4Ar4dqNPjx1Qezl3s2m01Yt3wJfvz/Poshvxcne0zcQ6VtFJBYWyGhohgodDMeoKipx5VbWOfgGwMgnAOhGl0aEjhHErhkAEJGmqPmlBtnEu4vvwLXeJrRlRjBI4M7sD1yip/IK80F+EzFWsx2VqI1Noiv92xGXzIIu2DG271zcJt3ARf7d3pfwa7wqfTpVgDqzBVYY1uGUlN56sxLSrLAQsogc7UopbDV34EXu7dgOE4pjBTp78L11QuwvnYeCqw2mZvgyB7AT8dLYuQxQ/IOQuz8aQatXsq9ILAMc3LOegyk2GweWJZ8H0LRrNHbiAGtwQE8dmILjhE4YCIHBAtL5mBp+aKUayGbIuPK1iS7FtRGvxOLIpME7O0Fjg/ndoOQoqY+yDRPCjutlNNUy9Qv6TuiNCaAUOHODhAouO/4ELBHk+KozkkfakLuDFojCoSksemkT5U4iZ+Bajho4w2y/d3RM6oBk3YlxZHu7Ysxfi9ffkVgKjWzDKTkFNlEHPCHgJ5Bht5ByjIYPUpjFbB0tsAV+bgAYcUSPPyFzyKW8OJwu4mnNmpbCYGZ2SJ3KUwkXuJcvHMMgHAupGr0aUjg3Ejg0gIIvp3wUXljrYeBAdd7puPOksVoiQ3i54M7cIp4BiioTrDg7pKluNLThC3Bdjw0uJ1bDEjZrnY34I6SRby+w4/6X0NrfDClqEkfVpvLsca2HOXmcn6ypHtcFqrLMNpBThTO4aSIg8OH8FrvNoiMwvcZPBYX1lXPww218+CNx8GO7QUCMquQYHdC9PZCPPmQrlqjvBEyg+vSY6YIktRr6CtLASzz/wOmijUZu4jmddTXi5+feAUd5FbgxZIENHkasbZqJYrVmgv6GAxFCZLlgMzpauN1GIhF0QFERQE7uxlO+vVzla+mrAJSpgQMyKxP4IBcDHLTVqeU768tELCsGijOQSFMdR4ODgAHBmRSJT3Pgtqn+ig0Pj0vAQvKqqAAR9WioAUWck+ZdhoCFHNKgYUVacrnqMgwEAOYYkqR94TcSCYUb0GN4ivNJtmqQNvgWAdw/JQO7AnA4hnAtDr5pnwAwiNf/CxMQhEOtpowHEgnjtLcvR4JK+ZduNRG7aYzAMK5eZEbvRoSOBcSuLQAgsKDoBcUvSSLTHbEWBIRSWG5UaiJKRCv1OzEoBgBUTarb3W6R45bEBFlRJKiqi75Z425HKtty1Fhli0ITjMpvczqhnQdj4IXKcOBlKCIo76D2N73OpJMtoM7zFasKpuBWwrrUd3ZDlNILtaEgkJIng6IrT9T1FP2fAVtkJ363BnxB6RsLW5YZtwLU8M7+CXUUyQZx+sD7XiifTv64wGukk0wY2phPdZWrkCJvUwuwZwFHNBHpPAIIKjf81gC3ruAZhfgj6U5ENIylWdIp3XCAhSgqE0nJB89mej1J34aj7IFtCZ9/RpTX28otM5agJheNRk6qaqe9DiBDZLVUFSOHRgN7eS7Vcmr31M8xMIKOWBSbaEkwxAnY5JlYFJGozAQspJk4EYlRVQSGTpOC2jtyLSyUBerFwioUSg2hkb8+MpYLoYVS0AAwWIpwsETJgyMZD5JcQGwfK7IMyIudDMAwoVeAWN8QwL5S+DSAgiU5qinWta+4eV3d+ZbP4/PuM9fI1NuQTBVYI19GSpMFTzuwKWJO0hdSqZzYmHj4EDuQ4KII76D2N2/GxGaK2OwmCxYYy3BbUkbKnjeHwMq6yFZD0JsIRdDGhzoyZC0oFOyEOIAACAASURBVEC/7CpTIDPbYZ56J8xNH0JMEtEVHsFLvUfxav8x+BNhJS3TgsaCWlxetRzlDqKPzg4O6HMVHKhxBypIoBM4KcNmt4CBMHiK41A03Q9dT8qVp4WKmQRJZPan78mioD6uNlZhejGwqFImUMrWiJSJ4g9O+LKZ0WVYoJIy8dgAXk+BSJvACZ1k60GmpSDX1iGGR7JmTClK7wqqBOoX5R7UTwkcqLEIqSuVvUTPFksAp7uAU6fSHAvqLBbPAqbVTtSC4MWBVoFbELStyA0sniWC+BaIE+JCNgMgXEjpG2MbEpiYBC4ZgJBKc5RkF0PGK3LUBxohKYo7pYK1N6rf6U/RTOBUy2s5QCjnZYj1cQc0AnH2U8BbKqdf0T8MSRwbOYoDQwfgi/l41ccFsOMuFKEOFh7YGG+eD2v4JQhtxIOgBQjaE63qq880yatPn1KJJguSNTfDN+XDOOTvx8u9x9AS7OHWEZqSw2RDU1EjlpUtQqmjTDaqZzlO00ek8LRxB+p1qtIvtjLUOwR0h4DXNBwIKjhQMwhUi4N2GGIrpO/JXZBeMpm/gKomzi8XMlwa2q3ui8opjqcDaQIi9XutBYDcAwQOyLVA8QYUTOq2Mk7/TCBurK2iAgZiclxTC1S407MfjCvpk8pHHByQd0cpwpkCcsr3ND6xO3Z3A6c7WUZgIV0ypRq4bJbswsjHxTBWDILNAlSUME6OVFTAQOmTKYrnib0v3vTVFytAoL/B7Da8Ny0So4NLXALyn3z2d+pkf/RLBiCkiJKyWBBGUy/rl0VzctSCgkxHf4rCmc6+M2zluMlNWQzlkNVsZiP/PoEDOplmnB6VPikOoSfShUPDB3E61IXZooA7UYgKmDHIktheVYWmyG7U9v8FBVIEZowug6gnTso8A8tpjjE40Gv2oqVgMfa5FuJYcADBJIEoOk+bUGIvwhzvdMwrmQOnxS2fgPWASHk0OaUxHXegXkeKlawkxCJZbZdJkk6OAFs75XgAUnJkdSD3wejUwbTcCERQXQOyLoiaNAKyLhClMfn9c3EM9CsWiwGyWIxaDXl9qR+V34BAiNrIKkGxFJT9kI2gSQUGar9UvfGKerk2AzWa6kAciKtuCspkIHDAYzqUUTRWKMpeGAkCIyPA4DBDMJhhJOI3eFzAynn6LIY/8rRbbeNZDCuW4MefpyyGYpzsEUZlMfB9IcjWkgKXXKOhoZJdkJLQFyNAoFoMyaSYKiM/2V/qxvwmnwSoaBwVaqIMuIupXRIAgWIHdkZO42HfDgwmw7KhWHOSy1qcSV0ldb3GOx5o1pUU8xx7Oe4qkV0MfXGiWU6f7GWFyeSqhZp+tVuDfid3gy8+jNZAK4r8XbgpJqGY6gkIUTxsCqGR+VAv9qFSCqKG+VEqBeAhlc+SsBJgoIJLCjqlZxRhRgIWhAULhgQP+k0enBS8aDcVo0MoRICsE1xZCJwhsb6gBrOKmtFQUA/rGKmMKvAgcECR+KrCURUnBRcmKUWRAQ1OmSipZZhxkiRSyPQfAQMVHIx1SidFTYqMaJFV0ZFJn2iNKXMgV+sKAFs6ScmnBa7+Rid5OkWTsqa5aoMR1TUh6wX9TuPmauq8qYrjmrq0u4OeazCh0Gwr1it93IH6XvAHgd5+hmEfEI4AYg5GRcpeaK4TMLMRCKV4ELIDhKuXyjwIA34vguHxX0DFHoYFzQxez3ib/uy/yi5GgGBUczz7++Ct2KPdZoWFXoYXUbskAAKR67wR6cb/DG9Hn8JxoLUVZ1Rp1C1OhnVBG8WmakV64avVIFXQoQCEu0uXodlegUCCoTcuwM9z+dNxBxrPQKYVQTeHmBSF29eOeYNtsCQi+AOC+BOC8LIoRMEEJphQzOIoYWH+WSHisLM4zBBhZYxfQ1aMOIED2DAi2DAkuDEsuOATrDwgUDWeO8x2VLsq0FTYyIFBkbUoJwlSStVQkSUyzZuVmgqUcUAKUWRIMCp/nDbN19vJBQEcGwYODcpkSGRZoEJWahBj9mIZ6hxlkikipiKGSrqJKkAuqgAv85ytUb9EkrSzRwFlCmiSuRRkFwJZBggcqNTOlK1htabNfpwHwSZbA8j0n55NpkWCQAbFQ1DAJAEZahQ3MZxIp2nq4w5UcEDzPNUFtLTKG2o89UxBhU21AjwuP/7r54/iwd8/k2lHYuQucOK6lVfj7lv/Pi8mRVrTmnKGOVMlw4KQ54s6HIkblRzzlJVxWW4JWC1yRceLqV0SAIFbEKKn8fDwDgyKFHSnafrjqubfqV/1b2rV46A9jCkXqyd2siDcU7oMMxwVHBREJKA7CvTGGKfy1RLtZLgYNFNLOTYooj7Yh+aegzAlwni60IVXIz0Ixwa4ck8KpIlkh4IZEsw844D+Syfv0fTInkD/UaKmalvgio4UicWBOnc1pnoaUOuuRqG1kAdHqm6KXDEHdD/ZHSi4UDWXn+5LYsPWCE71J7nCTdeKYBwc0Lyo/gKZ7MlawX37KbQ03gmXSJdIcTOIVPgKskujyE61EfQLIqM4enYiWhqJUbpgOviRO1EEBjLvkc+fQIcaiOhymrB0ngv1VVYIPE5AjnUgdwOVqY4rSELnZeJzmVcGzKMUR2U6xKdA4JCek2SkUk7z2WmmTF2OBIA39mUGJY71wiDuApc9jGc2PYHH/vh7BIkvgzGYzBbUltdh+fzLsXbxOtRUNKoMDGO+f4xaDBN/PRsAYeIyM+4YLQFyMdgNgHD+t0ZESuBvoeP43cg+ToucUrzqMTCbTtJGrqWUP5nJlS/G0GOkTOY7KjlAaLJTUJ/cyKVwOsJwMiz722X1lW5aZaFSDNMFZKHwhgbR3LMfVjGGXfVL0GMiBsZ+tPnbMRgfRigRRlIiD/R4504lSE8wwWm2o8hWiFpXFQcGXpsXTosTVl7VMT2zscABDy4UlLgDAQhHGZ5+KYzfbQohkRw9m+wem4wV0UEk9Z/jP5dennocmN/Ok+dCwGXmVDtuvMIDjztt9iMAQFYPAnn6yoo0Q075XEVESbL1gbZLMCn/R43uV2WglSuBBwIIxHJ46AjD4JAu1mMMvwvBvWF/H6/mODTSD1FMwFNQisqSKpSXVMPpoGqOmRuW/uVxy+sTiZAFR54fVXMk6wFRLV8Id+jF6GIwAEJ+f1nGVWNLwAAIF2CH0AuwJxnAz4d3YFe0M3MGZPqm4CK9ZlHoks1WMz+tpkh9M46Lmn8o16vv8EKTDTcXzsItRXPgUnz36sD0Iu6KMpwIySAhq/VAo0U51wBjqB5ux5T+ozBJEg41LIOvoByMCjhBRCgZhi82jP7oAAajQzzrIbPJpnT1MT02Nyqd5Si1F6PYXgqLiZ5TrucwFmhR+0wpOCUokdwLqjLpHRTxjV+P4PDJMZz1o/ZBNoCg/SwXgDi3G8pmFXDn24tRX63QXSvDUaAkxQDwOAhdZkOBFVhZC9R5ZCmpNRgiSSEjKFGrfKkPFTDSPUNDDIePpeMPCIR5CuTsjWhkNDW1PC2yjij/KXEktJ65gp4KnMBlM2Tug8ERAd2DcvpjTRnDzAYJtsxHPreC1vRuAITzJmpjoEkmAQMgXIAFGRGjeDZwBM8FjyHByLhuglOwo8pciuiOATzyg0cgkQ05ozHMbqzHd+6/F4tmTh+Xf1ZvTLAIJl7IiX5ma3Ty7IkxtIaA2BgEPLxfii5PxjCt7zCqfKd4d8erF6C7uJGr88yofdWRoCrUNNLQZjSQ0hCUudEVGVYMzYRTJEejmBkVjgBBjiFQ50CK7kh7Al/+5QiGRvQgRa/k9baE8UCCPLHxocJY1ogsZqExLC6UKfGua71YNFumZ9QCI7dVSJXx1pY2KHFQBoOQYnTkboOEHICZ8oBoMhZIZtwNo5E7WRGOHmcYHgaKqHhSJVDsFRCJAMdbGfyB8eMTtGBOb3uhNEayElBRJpX3gMpLx+LyWjpzsFGejz9fAyCcDykbY0xGCRgA4QKsSlhK4kA4jK64CLIVmGGCXbCiwOTCK5tfxtf+82ujAAKdxOZNm4JHvvRZLJs765ykntCJsScKnIrIMQl6X7aWsKkg7kdz934UhYf4XE+VT0dH+Qw55VDj/qB/jDYky6fLDAWnII98wIF2ybQKMsV3oMFApNh2HY3jW78dgT+kVZu5rAHjWQnGhwNntqXy65cyCK5bXYC1y9KlrFVp0vMTBTMFNmpLPle4gKsbqeCTLC0OEIhDQYk30INJ7lbQLL4KCgkMkLWg0MNgoWBJBaBQlkNrO8OQ78yenFycMxslNFRdmGqN483aAAjjScj4/lKVgAEQLsDKRiWgJWJCkCLedW3zpk346n9+9YIABJqKDBIYOkgZaEBCxomeAhRD/WjqOYCYxY6k2Y6ww4NTCkBInRSVm7IBhDTzvhLKqJxgx7McaE+hWtFRSCRlLOhJfsgysu1QHP/9+AgCGQBhrIXPz3JwAbYOjwd423I3rl5VwF0J+pmSa4WCFikIkSwEdPqmFMe3Ncg1K6gRGVYwQVECow1RatxBhpw165htfegz3wjD7gOjuRHykZHFTCWiJTRWGwAhH3nlc40Rg5CPlIxrxpOAARDGk9A5+N6XFHAiYsrw8arDbLrAAIHmQYGL3VGG0xGZTEjVQqnUNwEo83ejdqgNXSVTEbO6uMvB56lI0/bmBAd6y4F84ZlaDuheMhhQaWJt3AF9TiNRvYMdh+P4/hNjAQSt2suWHqL2dg42Q9Yuc1sxCCBcudyNa1YV5LTpU/Etq5nxYk60ZrNKgOU16WekNSUAoX/SbK4FrUtHnZV+rain9lNA68nRD0PuArU+Bv2MRMMwmRwpd5K69hSAOK9JQmGmYeR8CXzMcQwLwqRYBmMSF0ACBkC4AELvjgnoiGWPBZgMAIFEQnnylN3QGR0duEjavCTQi+JgP3qLGxGxF8i1DNUYglHgQFVOme4G2XSdNlVnnFqVf4yVraAqF6orwcsS6wwyxHUQTQrYfTSGH2gAAinCQpeAaq9Zw/Ovt+boYwO0GyX9PPrtk8r0GGNfaRWtDD1G96fCJppFMCqhd0RCPElplMC1K91Yt7qAExaRlUANRNVSQZOrgXYYAQGqwTC7NP18ZBnSu5BoHjytUjNvLThQZa39qf4eTwD7DjOMKDW71C5oPcpLAG+RDBIILBxqaUUoUgaXozBDQmRFmDdNQn0l48GWk6ldqgAhERrCsY4+TGmeBQfiGOztQ8LiQlVVCaIjg+gaDKO+vhoOqwWn249CcFegtrwI/qEh+AIJlFWWw2WT0NbaAUdpDaq9ToT8A+gZjqK6thbmeAjdvcPwVpajyO3MwhY6mVbZmEs2CRgA4QLsi9aoCf0J5YWdOsbJ/960eSO++o0L52LQioOUSGuIoZ9KAmv0J/3qivlR5u/BkKcSYWcRv01W+HIPudwKasa//mSaDzjIZt42CzLfgb5iNblKEpz+mGIQMgECKdUbFtvxvjUuuB16YPDmNoTe5J+tt9EAIfuY/DoGHOhI4NcvhdHeL/LnuesaNz5wrYfXZYgkGc9cIE4FAgM89kDZU8TmSL8urwbqC+Xn5CmEFPynqR3Bw0iVwMTUOmiCFrPJna+x8gVRLx84AiR1zNqUjTB9ClBZLshKnwEtJ09hy64gqstnZTw0dVVXKWF+E+M1FyZTu1QBwpY/PYZnXmvFmpvuwOXT7Hjyl49DrJyJW9ZfjpZtL+KlvS1Y+873Y1V5AN95+El4a2fjtrdfgwOvPI+tR/y4+V03oVLqwW/+8DckKxfhM3deg81/+CVe74jhmuuvR2HwFP7yt+2Ytuo63LR2IVxUUMRoF5UEDIBwAZbrcNiMQA662o3kYvgGBSlmKq7zEaSoFwUpDn+C4UgQCFHVP37al8PbzUyEKxZE3OJAwmpXwIGs+rKrXPle1WqggojxlI92Tvpr6d9OJe5Ae51MGy3TKJNJniwIWhcDpebdusKBj13rhseZz3FVa03ItmH0hAC5rlevG4NAINW9cg0Ddp6I48HngmjtkwHCfTe68el3eFJKXaWEJnBAoCGcYAgkBESTckbHrFIBhUrZZJIJrSW5kVR5quCAj6gDgvmsT3cvw/FWYqrMvL+sGJg+TYBH4zaIx2L41R+2oqJ0Oew2F39ash6UFjFMqWaoKDYsCGfjlZRPDMKLT/4QP/7DTrz77/8frmky42ff+wniNYvwwQ/cjMMvPI3/e+kA3vXxf8ZV1SHc/+XvoLhpDe798NuxbcMTeG73MO665/1oNHXhgZ/8BsLMdfj2J27Ehl//CH855Mft7/8AvL6j+NUTf8OCG9+H269bBrcBEM7G0p7XPgyAcF7FLZ/gDoTMnMUwW5MBwuSwIND8SHn0xIDjIYVgiFj/1MwE5ajK89r5/7TqRFZw6XNrOhhRpRPOR/mkTrQaYamWCqrQqK9ISVOKS3K6Hz8xM2D3kRi+p3MxFLlMKC8ywayYHtR5qhBHflpKQJV/U58mTbOUWfpZfVb1Pj01c/pzlUdRa2tI/67Cq5TyJjdBREK/n1wM5FJg+OSNbnzmnUQ0NHoHqXEEXOkr7gcKWlTdL8TMSACBqKRpcTjfgXKd1iqgdq3/qb1GBXkEDKh4U3efHKxIqYnU95Q6YGq9ALNZA0YkCZte3Yn9x0RcNm8FvG6gqoxxgOB2yFwOk61dqhaESGAYAyNheEsr4LIy+IaGIVkc8BZ5EA/5MRKKoaikBC4L0NvXD7PdjRJvAcIBP4JREV5vEWxCEv2DPggODyq8boT8wwhERRR5vTCJMYyMBOHwFMHjduYsWjbZ1tuYT1oCBkA4z7uBm4zD2QECvYwJIHxlEgEEGSQwHA6AF3hSsIAmlVHrVtBrrLQ1QU+PnAsc6JWU9qytvYfiDvjhX4dJuGuBrAeK9mLkYjiSaUHQL3l2i0f2jZHdNqAqeK3Sz6K8R7lext98mYGEcn2IsQDCeD0SaKAiXSSnFJjI4h7Kd33U8ThWJPruKDgnQjTOUOKVORM4OZIM1/j/Dh45iv999mXc94H3oarMBSvFS0xkEcZ7yLP8/aUKEM6ymIzuLkEJGADhPC8qvUcPhswIp6gS0ypgNEBIq8dcLgb1bjoxkiKXmJy+Ro30J+fYp8Oi8gI+0/cw8fYf8LN0KWjVR521X/nDdCpjusAQfZOP5UB/vlZPq/ST4g5cdCrVPQwpP7IeqOCAvuY8COMAhOxbQO08U0Wf+XYZ3Z/MJamFHNnGygQdMkAoyGlBSM9PY0LR5CtQ4CYBBNonVCxLtrSMXh91541aqxz7KNu+4p9pYhmUMASc6urC08/9FR++9SaUFXvPXKTn6U4DIJwnQRvDTDoJGADhAizJkbAJ/iwcCPRCpSyGL49jQVg6dxYvbETpahScFhQZAkkBMV6pUDZu03/EDUDcOC6zgAIrQ4FZgNMsVznkoGECz06KhOo1dEY1RvaUWyG7ElVhgqzIZXWYLzjQT029j9dZoLgD3eQJIJHlgCs8zbPxGASdiyF16h31/HpYMr7CzuxibAtCfteO7kP7qOQO+MQNbnzqHR4O/ug79afAkoAYA5JBsESA/0TMB5YMIp6IIxyhypFmMJsddnchYCsEs3jArB7A7AJM9lHph+qcVWWvBWra58lYjiwBjqn7GTA0PIy/vrIFN16xCmWU4jDJmwEQJvkCGdM7ZxIwAMI5E23ujlsjJgwmMzWc6uPetGnjmADhoS9+FnNmzeKleum/AOkERY9pX+KpF7tGx1FRHo8VKLECRVaBn8L1inYscYSSwOEg4yfQTItEbqUm8+7LroYMamXNQPmkMnLFJAB2k1yESSs9Mm8TOOC1A3TAJxtAoMvcNgFFBaZR2Q8XYDuMOySZ631huVQ1WUk+fL0bf3+zh1uITEjCKoZhSw7BGjkFU6AFCLaChbsBqqyZCKF3KInth4kPwgR/yITKUjOWzrFg4SwXyirKAHcdRE8zpIJpkBw1YFYvBJMDvGRklsDFnMBAQQ/q2mT9KQDBUAhbdu7CmoXzUEI+iEneDIAwyRfImN45k4ABEM6ZaHN3TDwIp+N0vtd7mOUYhGwWBLvVisuXLcWnP/4xeGvqERXlksS5TnQZilLjyOf56KQgzUCZTUCJXf49H2sCnV7JgnA6qtD0ph4xEyBkKAYl8+FsgAOrIAclav3V9GjE2Z+gPEwdOKB5qC4GbZAiPcfV8+x410on3PZ8nvwCbBJlSHq+w6cSeHJrBKeH5CyGuzlAcANxHyyBo7AGDsE6chCWcAeEZACQKN9Q3hynB0148I9WPPWSlRdAovspa4CIiW5ZncBHb0xgWg2DYLJBshVDKmiGWDQXUuFsSO6pgJVSEBSgoBODXnL6DAj93uTfU3XNUBi73tiHJXNmwlvouXDCzXNkAyDkKSjjsktOAgZAuABLSkyKbcSkqFOw9P7UAwT6rNDjwfKlS7F+/XrMnj0PVruDv/9HWQxyWBL05l/1XqIlLrIAVQ4BxdbRXAJ60VD3/gR41ceQpE1nTI+QCQ7GdivoT6ejFIo6ASoOpVgP9MFsqbiDHC4TClIkF8N3NVkMlOb4ntVO3H21Cx7n5AYIJII9JxL4yXMhtPQmuYK/Z52Af1zbBsvAVthG9sMU7YEgRbkiFywuwFYMwVGOCCvEA/9zED97KopgWBGQBpNSgaSbVyfxxQ+bUFtKtaIjvA9mcUNyN0IsXgyxbAUkdzMHENo2YXCgWdxIOIxd+/ZjMQEEKgk5yZsBECb5AhnTO2cSMADCORNt7o6pFgO5GSJqQJ2GSU8LEOglXFpSjOuuuQbXXrce1TX1MJtlspFsai11gkuZ2jUne80NVExJe9pzmYBqB1DhELgiHqtR/jwVc+qOZV6VBgbKb+PVVtA9hHZY/RTIx06uBQI0GszALSg8pTGXPBQLgh4g0H21JSZMr7JqSHnUUVVzi/anPKoqzXRoocY0kzXYUHWvqKGI2rDEbONkWmLUZx0MSDjenUQoxnh64j8s3YtPzXscptApgMpom2wQHBUwFc2EUDgdcNUC9nJseOEY/ulTv0Z/Pyl+pQmAxWKCKEo8i4FKKH/yQ3X49EcXwplsB/O3gMWHeb8cKHimQyxfA7H8bWDW4owYhVSX2r2VHiY9ZHpL8M9C4RC279mL5fPmoNiwIJyTN1A+PAjnZGCj00tKAlaLGTaqpnYRtWg0hmAoAsEfCDG7PfNkczE8B8UMdMVN6EsoWfYKTaFsQdiILylBikWeArzrnbdi/fobUVxSxl/OufS33pog/1tJdNe9oNVqi1pZEaFglQOocQpjxiVQhsRgHGgPM7lOg0YhyMOkTf25lH6+MQfUFa+zIChxB9oOFTKkscABzUaNQdBaENQ5Z1oj9JIdHaCYMXw2Xa79jMSg6yI35Bhj1ypLqLIjEkC4b86z+NTcX4MxMwR3A0wVa2AqXQzBVQvBWgiYbRgYCOKeu7+Dv/3tjXTUKoDKMicuX1qHbXs70dkT5gNPmVqCXz52HxbPr4AUbIPUvw1s4HWw2BDfQ8xSBKl4EZINt0HyEAOixmKUBRyoYCr1U7P/6Fef34/Nr23H1csXo9QIUjwnr6xYPIkk+d6MZkjgDCXAY75sVpjV+utn2M/5vu2iBwikKAKigPaoCXENhzEHCBtlgGB3OHHrLbfg3e+9HYWFxZkhfprDrh4Y6F/KoxW4drkyyX6onkGdE6i0C2MG7xHRDmU0DCdU+h+lH0Xz05zyAQd6lZzxb8UCoboW9P5tStcj2WUDTBmKXGFSnFg1R63Usmdo5N70WkuE/iq9lYK+1/eftlPId6e/l1NZBdw3+xl8+rJnIVRdC1P1NTC5GwCLOxVUSHe98PxO3Pn+BxAIRLmMXA4L5s4owZ03zMbl82vw8J/245fPHkEwLMJut+Dfv3gHPv0v7+bxCyzhAxs5ArHzOUiDuwExCpisED0zkWx4L6SSZUrGQyZATOFDnatLfWr1Z0//AP60cTNuu+4qI83xHL09KS2arEQiIWSjGRKYoATozUrA4GIDB/SYFz1AoIegdMTuuAkDiUzqOAII//H1r2LNmtX49Kc/gwIPgYMsLgXV5661cqsR55qjqpJEkJV1T6+KaBy3BWhwCii15Q5c5BaQSJZgxbNQeCmlZJT0PWJLVE/6qoIhP3xMWxwiw/yf+ZdAJ2/iQfju4yPwhyg5NBMg5SyJmHIoTPAvS+MuylSfo+0HaafF+HMi98qceisGQsC7pu3+/+ydB3Qc1dn3fzOzTb0Xy5YbuFcMxjamE1oIhFAS0khe3jRSSL4U0nghiRMgpJEKKdSEJNSEktASAzHNNsYFd1uSJVm97kpabZuZ79yZnd3Z1a6KLQfL7D3Hx9rdmTv3Pndmnv/9P40vvzcfqWgJkiJyKCfOSiiHL33pN9z1u+eYUpnLZWcdx0nHF7NkdjnVJTk4gdb+ALc+tJW7H92OLCm87/JTuPveryBbqQyFiSHkQ2t5HrX2L+hhrwFAtKzJRKZ/GK3iTJAEe2eaTZLv0XQpmwWkrKlv4M9PPMN1H76C0qJMmONY77DM8RkJZCSQXgLHBECwWISDQZmASHsbbcLE8Os7fsPNt91G9dSZ5qvX2kRGNfqQXXOyg17ScUN26oK2tsnX2PHbDhIOizOyzTDIdM0yM4ixWyzGaJkDq89ULIM9fFKAg1R+B0adhaTxpxqn6EtsoLbuDfLjv5gAYfTNgk+jPWM45mC0fSQDBXPxC3Nlrlrt4cOneQipEj19GicdLxBcKv4EDhxo40NX3cLWLXWcv3oyv//K2RR7FKOWRqxJOn995QCf/eGLhCMyZ529mAcf/jZZWYkmO11T0XrfQt39S/T+eiP9opY9hciMj6KVnYYkm0UeElgC+2WS4Yuus2HbNn730N/58Vc/n8mDcCi3RuacjAQyEkgrgWMCIIjZibj9DsMXwcxqJ9orr7xMW0c75737EmQ5Gn9o04bJjoj2lyOrMQAAIABJREFUl3Pci85WGCmFGJOZg2Q9I5wCp3gkw3ExXZ4EkQtB+CH0iqqUIzgkGmOMKo1UrEVMn9iAjnBKtNdZMM4znBKF3BIz/1kYKpWSEufsawhxyx976ewdC0CwJDtaE0MqQGGf7ej6EeMVm3hh9nPKEtVlClee4uGSk5wU5QjaTzF2+QnK3vC10AgGw3R1+bj3nuf4za+eMkpa3/aF1Vy4dDIiRDS5HfSF+OPavdz+xy2sXL3QAAgeTwqfHgEK+mpR99+F1rXJNEPkHUdk+kfQSlbEQELsXoymTIwBRmvtDROJxgNPPM3f177EH77z9QxAyLzoMxLISGBcJXDMAAQhFRHJ0BaSEaGP4hVef7CR7IIisrNsJfCi4rN26qn2mdZ3Cbv4FBvMVGyCeW6igstTYGa2yMCY2tQgfAAaA9AuSkEP53OQgGBsG1j7nKLHWGNL9juwvreSISWzB/br22VkndfeHeEnf/GxvS40TL6HQ2EMRqf0R3P3K7JErkeiJE+iokChIEeiPF/izIUuVsxy4nZKBggQ/5yieIEISJRlhDmht3eA3bsb2P7WAda/vpvnn99MV6ePy887nl9+YTX5jtTOrSIfREsgwvlf+BsrTlvGH+7+8jA2Rx3dV0ek5l60rjdACxqOi+rMayBvLrqkJITdpmOTREbH/3frz2jp7OKuDEAYza2ROSYjgYwExiCBYwogCBUzoJogQTguDka0GJtg6e3Y5i+Jkzc+2rRjwkvZZpZIRUSnYadjyyA2gcIXQbAI0YKHCUtkVXlsDphMSLzeYeJKJl8naQoxbGJ9L66V0u8gmi0xmQNID3hMYCP+BYI6T6wb4KEXBhg0wjNTK/YkS84YbsmkOSdZhYbrSFxTpMJeMsPJqQtcnHScwrQyBUfUvOJxgtNp2noEOBCAwGoCIKiqzgsvbObWm//Krp1NBAIh4ztx3LSqXG761MlcunwqHsMTOXGGe1v7uPdf+7jniV18+Wvv52vXv3/4OWsqum8vkdr7TSYBGa3iLNQZV4OnMkYTpQMHovOmtlau+PK3mVRWyl03XZ9hEA75LsucmJFARgKpJHBMAQRDXeminoJkhD52hc0Sy1az0+8J39nY6+QXsl1ohwIOxPnivEIHzMwx6zekat0haBgEkdfBOifh2sMwGPZ5WX8LFea21Vmwvhfdx+osJA0kAXBYVLbtGAtENXVEeGlLgPYeEfqVKnJgqMxTHWWKPZEzMS8bV752LmIkICbOLNRlzjjeyaqlCjk5JjMQiZhptCxTgvhf/LNAgjhG/B0Kqjzy4DpuvPFeurv9Q+ies0+u4q6vn0NZjgtE1ihr7JLE/S/s5yu3v0x+YR73/elrnHbaopHfOFoIrfMNIrV/NMCCqOGgzrwabcp7DafF4cCBuPYTa1/i2u//mBVLFnDXjRmAMLLAM0dkJJCRwFgkcMwBBDF5AQoagxLNQdmsxmjf7EWlE6fP4yrIeCEbaYaH7opN98H496mVlV3FWh7p5jmC6p+VI1GYJqLBH4FavwA3KcIabd2mZA1S5Pi36izYwYYYiTBnCL+D4YBPcrXKZEUlQFggpBG0qlnZZZoMKGxJB5PHbn0ejhmxuouvVyoAFQ8xlcMSUpeOOxKhYrpObqHTYAAEALD7GojvLLOC+DvoV9nyagt33Pk3nn7hFUKh6ELY7p050/J5+PsXMLMszwAIsfkoMt+9/01+8uctXPK+lfzil5+luHiUdREiA0YIpHrgIfRAh+GPoM7/KuTOHrbeRjAU5DPfuZVH1q7jXStPzACEsbz1MsdmJJCRwKgkMKEAQkjs8lLEIotdqF2lC4DQEFDoDsfz2gidb+lF68Vu7V0Tz06UW+Iu11Z9MY14zXGYZSATIYVuOCuWmo7qCWBDnKNqusEgiIJRQ46IORxGy0tGO44RH7E/IEtxUuBy4pFN50O7UhY1FgRASAcO7Eo4prxThIUaHh4pGAY7GDH+HgbYjMRWxIFBfLLpwJF5XRPYCYAXGYT+vW0E2lSmLy8ir0TG4XDE/A4M6UcBgvi7vzfMK09284f7H+K1rRsZCAzGzU22G6u6Mpu/3XIB8yZZ4YTRHxWFb/xhA4+sq+ee+69n9eqFyMl5rNM+jjr6YBvq/vtQW18EPYI2+SL02Z8DyfSPSCWrjdu2c9mXvkmvfzADEEb1qssclJFARgJjlcCEAghv9nTzYnsrfRFVWGzRRL78GDRIVPeibLPY4Ma1raktYyZ+681r6LpEO0Ts09A/0srXDjrs+t+wi8shiuQBcmTNKO5jmb51XcKne+hVs4xTRFSBWU0ySrQndGoOJhF0mGO3hqlIMgsLy1hZVkWO0xkPl5PMfoOqVQvSnEYij5BcVdI8JjGzhDjGxqIkSSMdI2C/VjIbMRyIiHUfLVJljTo5MDMZ2EhaCFfdowR2baah60qqVi2gYqaEZMheMDsyqoh2Cet423Xq3nTwny3P8tM77iUUCQ9d4+jEplRk8bdbLmT+pCR2wKFwy0PbKJi7iP/9xLtxu03FPuqma2idG4jsuQNdpHx25qMuvRkK5ieQWZas/IN+vv6jX3H3U88gKzLvWpFhEEYt68yBGQlkJDBqCUw4gPDn+jr62ls5//En6Csu5l/nvQt/fgveshfI6T2Rov7FrCopo9Dp5sWONryhUBo3ulHLKI4x0ihE6+tEa7r5rSCiFzibuNCzg1JlIKGHoO7g5eBM/hWYP0RZWzghhbUjoQ/7NYUeW1JczvmTZ1Lk8pggQOQviIIDe2qjdODArsyHgIM0zMFo+rL6TbUbjl/ThD8J/UWzU8UZjUSIZDIHFnQw/5QDTeTtvBln3x4CoQL29N+Gq2wqpVM12vZL9BwUqSODdAah3+XmsivcPPL4P/nqV36PanqJ2tCT+Cwb4ZLTJrl5eM2FzK3IN+8pK5mVLLGfIqqWryA7x5T7WJse7kfd9zvUpudAC6FXXYg294tIRgKl6JCi81y3cRMf+/b3ae31GpESGYAwVmlnjs9IICOB0UhgQgGE+oEB7q7bz+C2LXzplh9S3tTM9b/9FXuWHKRp5s8o6DmF41s/wccnncSJRcX8vnY/6zs7RwQIdiWbSsmnAwB2gsLG8qdQ4BqSrsX2+pbSN00eMsbW1hZEkWo8cX4kUX/ZxyAmOqegiIumHEdFVq6ZU0H4C1j5DixFk3RnJPscREeVcNRwZoWY8k9GClE9azdXJCu7uC6OK/5YNynMGIlmhjg4iIEZXcPT9jTZdXchB3uQCmYhLf4pjbtzaanXaXeo+OlhflEn/Y587t+cxQ+vLmT31t187KM/orlJ1EyIwpSsPNSSaeRXTOHzl07hrJMns2z+ZCOnRPeut/DV7KJswTLyK6uQ8vLpUQpZt0djXpXMlGIJj1MygEUKsQx9NoWfRNdGIjt/jj7YYkQyaCfcDNnTE0IevT4f1/3gxzz20muomoqsSJy74qSMD8Jo3nYT4BiR2VSEzArGzxZkMwFGPoGGGK1LI4KRRPK4UVsDJ9AUx2uoEwog9IRCPFBfx5sdbczf/haVrS28ePqZDOSGGczfiRLJI7t/NtWefKbn5LLT56UrFEojqwTVmuKFHaXzk9Mwp0MTUR+HBGVgHCsRaO3Bt6sZ1S/GYl1XQnIo5M4oJXd2le365gXs++RkBWP3pTCOjnYp6POqrBzeUz2L6jzTTi58DsJqojNCql18shJPVMTxiwz53jZy0wlwqAliLGaFBEYkaeLxj4n1KuLgAKSIj5y63+JuW4ukR1Dmfg5HtYgKkGjp1fnek0Ee2BDhwrkKt1zp5o19QSYVySyqivCDNX/i3nv/jV91oFYtIDL7bNSyWTidWXz7PCfXv8eJHAnRs3sHgd0PkavUEco9k7wTL8ddUsbvX4zwrb8HmVQgcfIMhYsXO1g2TaaqUEbkTBoJKOiRASJv3YrW8ZqRilmf/XmYcklMwoOBAPf//Sl+eM8DtPZ4je8zDMJ4vQrfvn7EPe8PQ3u/zqYmnVcbNfZ16XT4xbP79o3rWLyyeAaznFCVJzG/XOK0aeb/JVkS0QjoY3HahzynCQUQgqrK+u5Odvd5Cek6uiQha7rhnZ6c38AkhqO+ZknOevGyRHFlHd/Jmtte42Ue4/lT2Out3XgiH25+mwQqIr5Bgq1edOEEYDtekiVcpXm4K0ybtr0rU+nFMysmr3AqZTM44IdQiCWTZ1KaV4SqS0YJ52Smw+orFXMwRJlHzQqprpcKaMT6tuSTxskueb6J8jeBRjowYpkVEkBN1JdEGdhHzv5f4/RuN8o2O066DTmn2hjN5gMqX3owxH9qVT6wVOHHH3CT64YdDRFOnuVgz94mbvjh0zx/IIfg9NWo2aXmLHSYmifx+GdkKgcb8Tfvo9i5EXdwL30sRi0+B616Hh/9o8wLtVqMuSnOglOPV7jyRAdnznFQWSAZWR2Ha2rjE0R2/wb0MJSfjrbgG0Z2RRGq+drmrXz7F7/lzT37zeicDEA45Bff0XKiYAsO+nT+VaPx1G6Npr7E0OyjZZzH8jgWVUhcuUDm5CkSZTkjwfhjWRJD5zahAIJQdKqgYg0tlrr6YKrlG48lH7aPEX5M/bOYTQoWI8o6pKMXrVA9K8mP1bdwVezq7KK1tZWs8sko+cWEtWiYZ0qHRPPMZCWc+Dl1tMKQ+QwBYOYqjJY5GDKOtMxBdLzG7+b6x4Gc+FvD1fGiYV5QAs1G6WbHkpuQZCeiWu8Tb4b5wkMhmn06/3Oygx9c7jaU9kBAx+WE9fsj/Oif/Ty7Vydks/2Lqwm9fu3Cfr64tJ3JC6rRO15DbXoFZcYl+AfLeLnOwSefLabLSB4VbyJZ1eQCifctcfDxU5wsmiIPCxJ03z7Cm29AD3RC3kz0RTegZ1Wzu/YAt939J578z6v4g3FWzGQQhInha5lESRPs3S3Yge3tOn/covL6QZ2gLYJpgk1lwg9XpDa5eI7M+xfKTCscD40x4UViTGBCAQRLkSgOBTlN1hyhX4ORCKFIJCG+ITF8wVw8u3q2qG2nopDtdKbtf3yWXUcLtqAO1gzpTsKBVzmOPd0BI/TR3sSUK3Jz8QUCDIr5JeGLgYEBeru7UfIK0LPyDAdJ6xjTh0DCIcuU5xdSlC18FOIgazwcEpNBQSqGIfnRG/I59oUFYJJMFvYy2NGfYkyCHsLT+FeyGh9GUn04Zl+LMuMqQ4S9Azq//FeIW/8Vxh/S+eRKJ2suc1NRYJ69rV7lpidCPLNbjSWrSl6cmdlB7v6Yh1Pmuwg3vIh6cB3O2VcQyZvD9ff7+N22LNIxwjlOuGi+wvUXuFg2TRR7Sn0n6SEvkS3fQevZCu4ymPsFBnKXcdcjj/Oj+/5Kp68vEYBkAML4PJL/5V6Er4EAB3duUNnUoiM+Z9rbKwHxjL7rOJmPnZABCdZKTDiAIAbuMIrspH7DarrOfxoaWXuwkYFweAgIsCZuqR3Thi/235LhrLKwuJgr5syhwB1LWHAE7lod1b8fte/NoX1LDjqUk3i9pZ9IDCDETSEzigrp9PvpC4qtaqIMQqEQA319qIoTKTsn5vxoKm6zD6fiYHppORUFxTEQlLzTj9H7JtNvtFTmCAsQWODKrvSGAo7UYozjgXiyI6tfe1CnSRrEWQ+LObBLQI74yK4V/gfPGnN3LF2DUnayMYUDHRpffyTIo9tUNE3nM6c4+e6lbsoLJLr6dL70YIBHt6gMDmPzdStw7SkOvnOxhuvgP1EP/htl1gfYJ63i4/epbGkRjqjpm0eB8+Yo3HyZm/lVokhUimO1CJFdv0Q9+CQ4cmDmR+gtOJdbfvdHfvPw4yRvMjM+CEfg8fwvdNncp/Ojl1VeaciAg/+CuEd9iTw3XD5f5sOLFYqzR33aMXvghAQI4qWoCPfwFE28oB/evZvvvPEGjX5/XLsZICC9kjKj4+HUygp+efrpHFdYeEQXXdcCoCaGPUYHS2e/xFt1LagpthVuh4OIpqFqGg6HQnFBLu1dpsOaAAg93d2ERbGf/CIkhyMKISxNbyZP8ihOAyiYGspu67d9jkZAuN0uXC4nfX0D1uFxHwsB1hwOsrI9DPT7zWyFJpxIzC0hHIM8LiZXVeBwOqJHxMUbtRjEvkjNMiRWnUwO/xTnKIEmsmvvwNn5KpK7DMeyHyDnH2+Eeb5Rq/LpPwUNJS5olWtXO/nOpW6Kc+CXz4W56ekQfSlSINhvAnGNBeUSP70kwCrl70hNzxOZdgX31r+LNf920jU4HDwwexIg49JFCj+7ys2kgtT3sFr/GJHdvwLZjVx9Ed6yK/n+7//Krx9+fAhDIZ6Fc1ecyB8yqZaP6PM6np2LJJ1/3qby240a4u9MO7okUJkLXz5F4cyZcsraOUfXaI/saCYkQBDsgWAR0rUNzc186qWX2OPzsbiomLZBPw0D/ihASKSsE17pksSSoiLuOP10VlXZIwuO7CIk9759TwN3PfpvgqGktIpWoqcod5Cfm8VJC4/jhfXbDVOCUaY4EDAAhOzJQheljK3O7eEBtgtavyf/bH1fUV5CaXE+O/cciBU3sp+Tl5vD9GlV7NtfTzAYr/CY6P4JVZPKeP/73kVufl4suZPdmhAzE0TBhXm+BTRsZbCTzQrWXCRw9O8hu+YOHD3bjPBG55IbkbInG/4H/9ga5uP3BekV5nsbg9Dh07n8zkH2dI+s3MWlBA350QXd/N+cBykaeJnWnPO4buNlPHMgzwhPG03Lc8G3z3fx5fMFUBtKI2gd6wlv/obge5ArzsA3+X9Y84eH0zIIGYAwGqkfPce0D+j8798iNCdai46eAb7DRyKY5HfPlvjsyQoVuWlsge8QGU1IgCAc9RyKoGhTL17bwAAfeOZZwprKY++5iA0trXzp5ZeZlp/PKRUVtrjX6H5Xgtda2ni+uYkZubn8cMUKrpwz5227BQYDITp7+pKqDZo7aFFd0GoCKLldTsTxoqlqhO6uTvoHA8glFShukbQnLiO7KcHgCizKPuqoYI9StM4y2BpFJhKODKl2aahwWYQHOQgbv0fVum1ZYv04HWTlZRt5ASy7RdxsYez/kRCgz4IqeiyLoxinZVJIa7oQAMG3jez9d+Lw7UIuWYpj4TeRssoJhOHOtSG+/FgQXTz9ms6nVpkmht++GOJ7z4YMf43RtoW5Hfx40Z85s2w9z7afyle2XcV+f/FoTzeutKBC4o4PeVg9a6g/gubdQ/j1aw0ziVyyHN/Ua1lz12MZE8OoJXx0H/jELo3vvaiOmJ/laJ7FnFLJyNUgcqxkRXRq+60ssEfzqEc/tvIciZvPVThh0ujfC6PvfeIcOTEBglAnwzgqCifFz73wAuva2rjvnHMQfgmfXLuW9kCAEpdZJc9qlrrtDYdpC4Yocrv4+pIlfO3EExMcFe2lgdMu7xgiK4a7RTZtr+X2+54yduRWO3HBcWRnudmwbR/BULTIhH0LbtQX0AxFHVFVJIcTZCVmDrDvj8Vpwg6/4sT5dHsHqKltTFu22QABSUmcrDGN+tHRYdqUMj5/WQHljq2gJ/KquqOYQMH5hD0ClJnBqakyJNoSOQ5R5wJsOHrfJLvmTpS+fcilJ+JY+A0kTyl9gzrffDjEr18Nm5PRdD6xwsnnznLyqT8H2SgyK46h5cpBPjl1LdfN+ie/rrmQ39afTZ86tgyKWQ64ermDWy93U5gUWqX11xF+5RoTIBQvwzf1c6y5++8ZgDCGNTqaD/3qsxFeqB0dY3W0zEPg6o+cKBvF5mblSfQHwUjW2qOzPgSbtmt4ymRWJxGvi8skHtyhsa5hYs1XyP2GMxTeM0d+R+dHmJAAQSzecH4Iwj7/yy1bWLPpTfJcDvIdTvb19REYRWoyjyzziblz+MGqVeS7TEfFnkCA2t5eA/Gnu83F9wUul+G7ICIFDqd1e/vZd6DZiGKwlHBRfg6KotDt7TOUe6omQIzP66XX2wv5xcjZeZaqHRLOKDwyigvzjWgPvz9anCjqzGgCAhvzEP3TAgrBsEZfSKXAo+BSZEOuwrNA/O8WiaE0DSFHMUpRlUDwAjnZHmZUOXFLvbHMTnF840JzVqLJeca0YrEVtvBJ4XNgBySpzBMO75sGg5AMEDr6dD7yu0Ge2x8FAprOx5c7WTFDZs2zYYTD2FiauPayvAN8aMrL/KP9BF7qmo86AgNhyc5+HeHP8Iur3Jw115HgsKj11RF+9RpDcnLJCfimfj4DEMayQEf5sRf/SdxzR/kgk4anyBI3nifT4dXJV+Cvu3VWz5CYVybh69R4YJeO4pZYXpG4bVhRJfH4bo11jWN7xo4G6Vy9VOaaZQrCcfGd2iYsQBCleoWZIaWiBJ6qreXTL71ElsPB2VVVvNHRwY7eXtyKoHRT7X1FpUPVcP67dNo0bj3lFGYWmNkIX2tu5tq1aw0FmHCbRz9Y1SRPKinh12edRaS/30hsk64JRe5UNFzOoR5KAsMMhkTlQQGCFMrKygxHwNE00W9nZyctLS1oheUoheVGRj5rtnYTg6mIE7Wu/Tj79eziEmzMzlY/a2t6WXlcAXPKs2lUNSY7ZDojKpUOhXY1Qq4sE9B043+PJJElSbhk0xE03l8yFLFyJ0joojKjBRXSgYOEvsDh3UpWjTAx7DZNDIu+aSRLEhEM7/31INvaogumwQeWOijwwAObIwyM4JyYSvYeKcJ0TyddkRw6wiawGWsr9MAXznAaoY+5nvg9aZoYPhM3MVR/ljV3Z0wMY5Xv0Xr8yt+FJ1yGxFy3xLmzJC6YIbGhSTdyeYg8DiW5sLlFZ09HfPckfhPZCoXV8YwZkpEI6vUGnb5Q+g3W0bhWF8+V+OJKhaKsUXOlR+M0DmtMExYgCCXvFKUR07TtHR185PnnmVtczI9Wr+bZ+nrWvPEGKyoryXfFC+DYT6/1elnX2sqK8nJuW7XKcFQUt8ae7m7OeuwxWoy0zUlZgawOdJ3qrCyee/e72b9xI93d3cMuTGXRINPL+4akaIyoEjsbi/EHFLKysjj77LMpKSkZ9SL39vZy8GAj4exCHCVVSMLMkCppUSx+Mc3OPHrFZCw1EFL505vt/GV7F2ctLOLqJWVUepyIZ0ioXxE3YQX7CYgkMl76o0xISIJyRTbAgmW4GMIKjBDKmIo5sITj6N9NlvBB8G5Fzp+NI+qkuK1B47I7BqnpjSE6LpitEAiZaW1FFc1DaYIjETDmUPdGIg/8BfMUbrvMbdRvsJrWuZHwputBdiKXn4av6hrW3PVIxsRwKIt0FJ5z8p3haNXWo3BwaYYk0oefP1OiOg9espkLFpZJrO8ER0RncqXEFDCyQS6eLNHeo9OrQY4ML9Vo7PdNLD+Fi+ZIfGmVQnEGICD5+gZ0EdI2kZoACOkcFUWugA8/9xz1/f18ZsECGvr6eLCmhpMrKgxTQKzZ3u71fT7+09rKrIICbl6xgktmzjTMBaKv9z31FC93dhrXS6cQHLrOS5dcQqnfj0haZCjmFGyF+KooN0RFYSC2m7Zc81RNoqE9i0BQxeF0MnXqVHJzcuLDlRyENcnwq0jVxHWbDh4kqLhxllcbfggJSlgS6X5FdUJbJkJbRwlYOQUWavYG+fkrzWxqGWBJRTbXrpjEnLKsYfMkCGcmkbaqUVUpFOYXHcoctggLuyulVSFRjGmUzIE1fGXwINk1v8HR9TqSpwLnsu8j5R3Hy3tUPviHAAf74wDhlKkyrT6NA763N7Xt3DKJW9/n5uIljqgDJ6gNTxDZdTsoLpTJ78Zb/gHW/P6vGYAwkV5Ow4z1vHvDdA1OvMkIj/5vniHzx81xRH3lQpk/bNLY36VTNVnixBwIBCWWTpdQQzotfmjo1NncquOfYCGdVy2S+dRJisE0vlPbhGUQxIIJE4MwNaRqYVXl8y+8yF3791HidBHRNXrCYZPiTnGCpW7FPVzhdnPDsmV8YuFCPA4H/nCY6158gbv27U8LEAyyXFX549ln8+F58xIiEFKNT4CEdMRVJNBCxPuqkY/fqDMRc/eX8CnzeKPTjTeYmATKuoYwbfT7fIiqxXJuIZKhkONBjAJUzSgtp7KgyHDCjO/lk5iEpMFZH/sDEXa2++n2myaUJZNymFzgTlkRLRGYiNLXGGxCr6qRL0vkifWLexzEyBljTEn4J7kvE33ZEjmJ+yHSi6f2tzhanwfJgfOE7yOXnsSz2yJ89N4AHdZLWYdZRRIdft0Me3wbW74bvnmeiy+e6yTLKaELM9eeX6M2/N1IlKTM/BDewvNY89s/ZQDC27hO43npzzwRYWPTofJO4zmSsfWV5Za4eIlMVUTnhQadOZMlTqmUuP11jQNenRXTJKYVSWTp4PGILK66kYNkwz6Nnb1ikzCxmsiFcPkCGc/oLLwTa3KjHO2EBghiJyycFdO1OzZv5rrXX8cty1RlZ9M4MDDEUTGmY2zKRjjaXbdoEd866SQK3W4jv8CPN73Bt9/YNMxNLjh2ja8uWMBtp5+eltkYzbpooW5U/84h3v5CIw4q1ez1ORkQBj6rWe8aYwg63d1dDAaCKMXlyCKawfYuEqCqMr+Q4pzc2BiTgUoC6WFmaI7pY9GXINbFgy/+CZpcODAlFsAyT4hxLQYYir4wjAqTOo2RCFMcDrKFe/RozQpJPgfW9MXVRDeKHsJV/wCOxkeR1D4cc65DmX45/9ga4WP3BugKxEWW54CACmEhG0FxRDdFbgfkuU0v7UDEdNU0qmfGoy9NYCLyF4yDaVK8ez6+0sH33utmUqGEHu4jsvW7aF2bkdwlRjXKXs8S1tx5XwYgjObhmQDH3POmyq/WH6Jd622aX3G+xMpKiZJCWFIisbdNZ2aRRCiss7kDvAGdYBg0l8SyMtAkied2qgQkieMLoaVHp6Zv4pgYBHD/wbscrKqOJ2h7m0T/tl52QgMEsQMWjnzp8tqvazrIuY8/wRUzZvCpRYv4y9693LdvH4PCAzBepMAR/b5XAAAgAElEQVTcisYoe1MbfOT447l51Sqq80wHtH/s38+H1q7Fpw7Dk0kSF06axN8uugiR8fBQW1NrJ69s2m46OsaUk6mNdBQjIY8YrsftZNrkcvbWNRlK21DJOvT29iBKAysFpUhOG0CI6jRFkhPSLCeMM0npFeTmkJvjobmtK+VhHreLkpJC2tq7Y46ZQ/wEdCgsyGX5srl4PCZf16dptERUJjkcFERBnnHeGM0KFgNi1nXXUNr+jbPmbqTBVuTKM3Au/j/++ZbO1fcG6QrEkVIMD2pwzUoHZ801TTEuBUThlv5Q6lK7Qr41HRr3rw9T23OoKxw/T1zz3DkKt13uYkm1gohgiGz+Jgx2QO50HItvoEctYc2d92QAwuGL+6joobZH4+OPqofkHPt2TUC4e4kEXwKIuxySEUnlkMxnRIBssVkQAEFUls+PWnC9gxhMpniexGtTFLOdKLzJ6qkSX1mtvOMLN01ogCAeluH8EBp8Pk595FGWV5TzizPO4Ln6en63fTuLysoo9mTZtsWmZhK1D7Z3dfFCczOnVlTwk9WrWVpebhy3v7uH0/9mOSrGN4/JN/yJhYU8ecklTLL5DYz1od5T18zDT79qZlKMpjw2MIzVUVSJitDBxXOm8tqWvXErgq4TCgUJDAaQsrKQo6Ga9t32SOOxY4TS4kKKC3PZV3vQvL41nijDn5OdZaRQPlDfRCicJhxAh/KyIt5z/qlk55oJzkVfA2Ksmk6xopgpTQ8BHIi+xIvKOF/Skfv24NzzK2TfLqSsCpwn/ZQXD5Tx4bsDtAykeD2pOjdf7OYrF7piVRZtZFJKUTX3aqx5Msjdr0VQ06HTkYRs+31xlcxPr3Bx9lwHevMzhHf+zGCP5NKVOJb8H939QdbcYQIEIWGTmTFXKVOLYQyCPkoO9Yfh9tdUHt0xsViEo0R8R3wYIkfJF0+RuXSegvPwItaP+FiP9AWOaYDgDQT4yDPP8HxrK0sKC+mLhOlTNVZXVFKZHQUINgmLvAP7fV5ebGlhem4uPz/tNM6dOtV4FQciEZY/+CDbfb6ENbGUqaV6pmdl87cLL2BpRcUhr52v309jc6dR2tpqudkeg8rvGwjEHBTFr8KGbwVfGkfrOn0+Hx3CoTKvCEd+UQwIWWM1FKAOBXnZlOZFcEimcT6BSZc9qEoxkuQyGBphTzTOt5sbomfFf49Lw/SxiEMN4UdhFdiy+unXdA6GVaocMoXJzpQ2RJOKybe+E8DAYPutcYV7ce67A6X9JZERCcf8L/NW+FyuuDNAjXcoQBDSu2CWwmNfyMLjHJ3NYCCoc/e6MN/7R4hOm9liuAW3g45kACKo2tsuc3HJYhVp5w9R29cZgnbM/jTK9Cvo9vr4XhQgZIo1HfJjddScKO7C/V0aX31G5WDi6+SoGeM7dSCCITl7pswXVshMiVZ6fafKQsx7wgOE4RImhVWNb7/yMnfs3s01s2cboOCevXvZZ5XMjW/ETI1pcwas9Hj44cqVfGD2bCN3gmifePYZ/nawybTdG+faOzBvozyHwu/OOJN3CWAx3O5SD6NrqT3ktu9v5+5HXiBgq8WwaM5Ustwutuw6QCjqf2BzPTCuHXO0VCMGg6DLCrLbYyr4pLtcREGsWnY8Fy3tJk9qSP6ViHMa/twz0Zwmg2JgA5v+tKvSIWo1Zp43VaEJFOz0ftyuJwCbX9colRWcNl+EVNe0YQbjTwHuBfWZeH0NR9MTOOruQwr2GImGWqd+hyv/4GS9LWOiWFGRAGVOqcwnTnHw8TOdONJUCE1+QQg69V87Ilz/WIhtI1RwFOcK3CEqw3X7oz4PSR1W5Urc/F4n75+1A2Xvz9D9TUYGSMcJZrGpLq8vxiBkAMKx8boW1PwLdRo/f02lbcBm4Tw2pjchZyHMlIsqzBoMy6pGt1mYkBMdw6AnPEAYNmGSrvPArl1cv349t6xYwbKyMm7dtIk/19YmarsUAst3OPjWCSdw7aJF5EdLP7/cdJCtXd2Gohx6+0QpX0nitKoq5hYVDQMQRLnnWtT+bUP60SUHWvZKvIOuGDMghidqLgifi4ARvTC8JS8wOEhTUxNhxYGrQgCVRJ7MHKmOx+Mix6UiS9E6CwYKiDIJkhOkLCMawFDyCeAgrvDjECBuHzAPtX6JCzdV+uRBTcerqRTIMtm2pE7JgMS+RKJn8U/Qf1IKkCYN1OHa9UNk3z4jisM/6wa+/9py/rpZN0IJc51QXShx+iyFS5Y6WFidvq5HumeprkPj24+FeHhLZETvbJGedvVMhVcOaPTa/CCsvkuzJb57QYiPVPwZd9s/QAuiVJ2LMu+LSI6sDEAYwwttIh0qTA3P79e4f4tGoy9T9vntXDunAosrJD5+gsKqqXbu8+0c1dt/7QkPEIzCTSIfQhpZbu9o5/wnnqQ6P5/FJSW80trKzl5vSg90+z5X7GY/OXcuNyxfHvMnELtuI//AMADBUo1CmadvOupgPZp/19BDJAeO/JORHGYWx0NpwWCQAwcO4I9ouKccjyxKO9uaNbJUQ4z9ZgsHHS1zkNzfUJbBVpXRxCiGGaVTpGaWSDAzpBOfBQ6EX2OKQohmOmw1gLP+LzgbH0FSB9GKlrOv8Itsai3D5QCR9OW4cpnyAskwKxyKG8FgSOf258L86F8heoLDr1KJB65e4eBvW1Xqe4fCu2IP3Lh6Bx8r+R1ZoQPgzDMqUcrFJxhANsMgHMpTMDHOCUTg1QaNJ/dobGvV8QYmjiPfxJDwyKMU5Z1XTJF533zZYBAyLS6BiQ8QBM08TMKkvlCI1Q89xPa+PoOSFgreqmI43I0g6ToXV1fzo1NXM6uoeDwi2hIuN1Lxp2HNEyPcwSL6QQAE34Afz7Q5yI54YqgEpZ3CZGAHCAbYSWNWsIBQbChJoGk04MACZK2qatRyKItGpKR7RO3gwIiOTCEHQf8L2coDtbh332bUZcCRh3L81TiqLzGyE45HE9d5ZluErz8WZHv78IxOWY7ETRc5Db8FkZY2+ehiV4ibFj3C1VOeIEsOIFedh3PedaCYER8ZgDAeK3b09iHupQavzoaDAiRATbdO24BuRNKoGT/GcV84Eakkkh9V5UkcXyxx4mTJAAgi9XmmJUpgwgMEMR2HosQc4JIXWLyMP/zPf/JIQwPV2dlGFsGGgQHD3m0UVYomEYp5hovQHU1jUFVZVFjInWeeycmVlTFzgfgt8RVv4x3s+QZEtsJD2ZqOwx0qFGRDQwNdXV14ps1GccczMSYr/WRFbzdGJOQ/SDGumIIeFhxE5TNMhkQBEIRPQHmakFU7EDCcEoVpwTYeawXEUsbrWEVwNv0NV80fkDQNqWA2jtmfQC5abNQ4GI+2v1XjhseCPL9HNUJPrRbWYND2eXK+xO3vd3H7syFePajHI2qjJ5S7+vje/Pu5qnotWXmVOBZ9DblwQYzDyQCE8Vito78Pce+2D+g0+3S6B0GYINLUZTv6J3MUj1CYJnNdUJojMSVfekdnShxpmY4JgDCco6IQwG0bN/Lzt97im8uWUZGTw707d1KVm8uCkpKoEjedDQ1Fo+vs7+3lsbo6I3LhnnPO4cLp0w0wIbIzPnPgALujlR0ThWtkEDK23NkOB+dMmcK8MdRQGGmhxvp7c3Mzra2tuKpm4MwtjJ0+khkgWenb/QmsThJ27gngwEiHFL+W5Zw4DDgQB9dEIgaDMN0pKjkktgSTRzRiIe5LaHMSNcwV5rkxYBPqwL37pyhd65EUF1LZKhzH/w9SztTU4oyEoV8kjE90BdRlmRp/IfW98dGJMQTCsH6/Sk171H4cTadR26WxoUk1g8aB40okfvF+N7f+I8QrjdqQl/40Txc3L7yXS6ZswDPrwzimXRZjD8T5cYDwhJGy2t4yYY5jfTIyx2ckkJHAaCVwTAAEET5nJExKM+snamr4/H/+wzXz5nHapEncsX07O71ew/kw4ZyovvEFg9QPDBiJf36y6hSuWbjAqAoZUlV+uGEDP9+501ZsxXxhG+AiupUtcrv55pIlXDVzJv5oTYbRLkiq48TccnNzY0mGRtOXqOooWARnaRWu4mjIZZqdvkXdW/ty0/EvNYWfzkQRP94UQgxYpCrZbJEK0diGTk01/AmKbaGOyWtpZEqUYjrXBkJMXGbstGx4wTxfR/btwb3z+0iDTYZfhzzl3SjTLkfyDC2ApQ8OoNftRurrTegft4efHVjMnZvkmHI3+tfNRDGCBo5lWxT5HUI6PSL8MTqJ6UUSVy1z8MibEWp6hpoYFuQ18KPF93L2whycs/8XOXtygvQzDMJo7vjMMRkJZCQw3hI4JgCC4aiopPdE39LWxpXPPENnOEyZ00lbMEifqiZEGdgMBQaLIHSNIkl8bs4cvrNqFUUeDxFN4697dvO/L7xIaBjzQa7DwaeOP57Lc3J4c8OGEesyDLeoYiz5+fmsXLmS2bNnp609kdxHX18f+/fvR84tIKtqxpBL2BVwKrNCMkCw5DO8WcGCBVFNHQUHljJNNguIa/h1nYNqhCJZNkwM9mZnD4RZQYAEMdbk8E7BHER9R4c6kOoajvbnce77NVK4H8mVjzz1CpTqS4y/7U0PBdHr9yG1Nhhps2PNk82N+5dz88tmpsqRWvIhRjimLBJxiUqXiU38dkHFJm455WUWLn8PcuHCISYQO0AwEyXFW4ZBGGk1Mr9nJJCRwKFK4BgBCKYfQjrHvua+fj7wzDO0BQZ5/8yZ7PN6ebqpib5IxKwRkCZsULyIz5s0id+fc46Rclko61eam7n4H/+gd5iUyx5Z5qrpM/j63Dn0tbej2o5NHqMI0zTTRSfume2fnU4nFRUVRtnn0TovBgIB9uzZg+7ykF09O0GrJND2tjtnuFBG6zAzVDFRBdrNEGZVBtMR1GAmLNrffh3b3wF0ArpGnizjTMgRaFOC0YiFuISs3AomcyD+DecvIal+nA0P4mh8GNQAOPNRpl+JMuUiJJeIFon2LIDhQD9acz2drb14+0SuCo28fA+/blrCrS+Pv03YI0f40qI3+Ma7PRRMXg6Ke8iznGEQDvX1ljkvI4GMBA5HAscGQDBSzqZ3VBSRDF9+8UX29/dz2ymn0Nzfz7fXr2eHV4Q7pjZMmLtenUUFhdx/7rksLisz9Mje7m6ueuYZtohzUzbJoMLPrqjge/Pn01tXR29vnLK2nyLAQXV1NcuWLcMdzbVwOItpPzccDrNv3z6Cqkb2tDlItlDHuEkhjhuGi1YQ/aZnDuLcS7JZwWIO7Ofbpa1JOg0R1cjXPssZD8VMYDckM5VyKt+JmFOi7YTk1bRMDVKwA8fBR1BankMK+5Cc+ciTLzT/5UwBW66ISETlvpcC3LE2iNevMaVIIi8vi3/sG+o/cDjrJca2oHSQmy/yc9GJpcjORGdSq+8MQDgcKWfOzUggI4FDlcAxARDE5M2duEg8PLQFVZU7t27lls2bOWvyZMN08OzBg3SGRCZDu3Fh6LmT3G7uPfsc3jVtquHQ2NTXx/9bt46HDxxIqEKYTCsvKSriJ8tOIK/Xi9frTbnzF2xAaWmpYTrIyhqa+vlQF1WcJ1iL2tpa+gb8ZE+bjewyY3gscJBA91uJIVP4HSTIM/rBzkBYY4wDiHiSEcEepDIrGNhLAq+qGiaGSQLcpciimN7vQHA+omBM4oBTg4PoCIUPQ7AVp6j02LYWQgK0KchlK1GmXoqUPwvJkWMABeFTcN8rYW56KsRBn+l8arEih7MmyecWuEUlR4VvXOiisiB9ZEU6gCDuOWFae9eKE7nrxuspLTz03BnjOa/h+nLZgOB/65qZ62QkkJHAoUngGAIIkhHCmIqCF8l4nj9Qzweee84o9ywUT8gIV0ydlMQOGVxI/Oa00/jY/HlGJEN3IMAtGzfys+3bGaauI8fl5vLTVau4cNq0YX0Q0pkYDm0542eJEtWNjY10dnWRXT0LJTs3pqwTGIQ0u+8hytb4Iv7tkGiFmGNjlEcYARx0qiphXSdbkihK4WAq8ILllJgKkJj5DlLVhjBlkAxsxGeHpOEOtUHL82gt/0b3N5sOldlVKJVnIZUsR8qbgS5n8dgmlW89HmJfZ9JEDndhoueLgjBnz1a48SIXJ80QACl9xxkGYZyEnukmI4GMBMYkgWMGIAznqCj0yFsdHXz42efQZImTy8vY0d3D1p4eAyjEVUoKDzRd5xtLlvDdlStxKQr+cJh7duzgWxs2DFv6udzj5sYTlvHZpUvHPcnSaFZY+Eu0tbbS1NxMdtUMo2hTsqIdjyRIpjJOzEaYjjkQ1xfSboxEcEkSWRIGOLA3C4dY7EFacGA7aSTmQBwqnAFdMrhlEXrQi9bxOmrTs+je3UZqY0nJgvxZyCXLoGAxzx+o5vonPWxvjdMuiqgWKUqMR3MxiNztDiOfhlkTQoy5LwjeoBkum3LhRelrD5w7V+HaM12sPl4xsjsO1zIAYTR3/JE75ul2aExTlCvfAeeVQXFy/i1dZTAYAslFlnv4vBsDvZ0Mak4KCvJxqv009MlMLUltbgr42unRcqksyD6kDKBHTkpHf8/tfhiIQHWeabYUTQuDMBYXjSJ/mlhOwTtWxPPOHf2TPswRHkMAQSTQkdN6+df7fHxt3TrDee7ry5bx78ZGgwVoDwg3uXTNDGx/75TJ/OXCC8lyOo0kSk/V1vL5detoDphvjaGbP4kch8Jn583je6tWxYo9HeZaRcP5dIO5sGL+RWUG0cKa+N7c1wuWRKQubujpJdDYgL+0ivKiMmPHnmUrJGEVLxTPhhW1kWgSsGIUra26Fb5ozSRqTohGFxjfpmAOjDBEzJTKog1oGjOcDqMSZSqmYjhwYPgd2CBdfCRDpWsHQEKpZynx9MwiHbPu24vW+h+09nXowS4zckGYGbKnsNc/h4f3Hk+LWoUzpwynOweP04Hb4cChSLgcEk5Fx63ouGQVjxJGUX20dTSxq8HL7t5yGvyl9KtZaJqCJCvkZjtYWOngrLkKFyxUmF+lxEpMD3dvZKo5Hu6Tc3jnX/Um1PgT+xCAU9xTbhl+vQjm5yb+rof9bN78JgNyIdPLc6ivbyQgYmLFsxCJIEDBios+SFWOzpbXX0PKK2HevDkooQ7uu3stl3/6AwirU8jfT92+vTR2mT5PvQd382YbnLF0tmFSdTjdVFROgf42mnr6RYUSyotz6PH1EY6oaKpGW3sfV374Ut6JiQI7/bAzCu5a+6E5AMcVQkEUlM93wJOdcFEVNPjBWuZACIrcUCRDq2o6J/eFYLcflkcL5BYrZkK0wagCmayASH8iXlBBFaqyIEeHgxHoCAq/NIw1nUjtmAEIQujDJUzqGhzkljfe4Mn6es6vrqZ5YIDnm5vxhUXgWLxZCsuW3YC5ubm8ePnlVGRnGzvDXT09/H7HDtqDZrB7KnbYKcmcWlnBB2fPJts5Cnia5q4RQMCraXg1nQFNxwKvImGOuNdCOnhkyYgWcIvdrMgEKQoxyTId/QP01tbQn1dEWfkUBqLmFXEP92o6hbKET9WocMh0qjpFssSgrhsRBS6hUEVkgSjTLLS+cBqwRS9EDQmxsELjsxVNYAMJoj9RrdGnacb4RN8eSTIYBDu4spgD0xSQOirBMAlZ+aiS5JXaJGIOSqyQ2OULgJBwnK6hh3pNoNCyFq3rDfRgtxFmGNLd+MI5qEo2iqcYOascxVOC4spFkl1G5k5JQDLBPkT6kEMdEGgjNOilzx+mJ+ShK5RPd6iEoHsmzoqTKJ80k6oiN5MKJXLdo68BkUmU9Pa+Ut+9ATpshVfFPTQzG8pdsKMfbl8Ai/KSAIKm0ly7jU01vRx33CyDNRJh0qKF/AOsf/ohln3sJo6TD/KvV3cjOR0o2iADg4P8/S+PcP4HP2jkaSnOziLQ3YHn+BOYUqCw7rm/0+eczvmnL2bPm9sorHSzq7OYi0/I5T8bdpNfOo2l02XufWonl16wEiLdPPz4Rq7/+rVGMrJ3WhPZKPd2wV4JVuRBQDOLvAk2UbRSBXZ3gztXsJnECq91eEFYF9u8cNIUyJHhYBfsB5blg68f+iQQdRy2tMLKKigNwSM+OL8YarwgfI4XZ0OfBs/Vw5JKODGes25CLMUxBRDES1uEO6ZqlmngO2+8QVGWh2zFwX6fjwF7CGIKnwTxMihzufjnRRdxYmWl0bVgEbzBIJFoUHwqgCC+84gERy7XmFIui1oRwqu/JqySJUvsDkWY41SMHb74bIEAMUvLJdOqSyCuKb4z9vsSBIMh9u7eheb0kDv1+Fjoofhd5AoUfQhWQeQvFKyDoMuDRg4IEXqoG+AjpOtRkCDQr2SkFHbLknG+uK7w0RByyJElA3QIkNFh1FYQnzXje+FnkC3LBnshriHGmchUxKtIGvS94TQZD2W01tPwOziEBE7iXSBYXuulMOT+0FUDGOi+/YbpQevZjD7YDmrQFKTxz2HmJzD+RUdvoEgNNFVUiDL/GfyGhOTIhpypaCUroXg5cm41DlfOmO4Fa5wZgPD2vkuTAUKhA04pAm8ENnrhzkVDAYJxZ6gh/INhnG4PblEuMNqCA33864HfMOOKrzK45SmeebOFCy99LzNLPEbxsltvvoEvfuv7RnVTp6JQt+0NmjpaaZaqOWlOCQ2vv0Ftbw/HLT4Jb802Tr70Y+R469jd2MncE1dQHtjN7U918/mPnEak6VV+9aLON6454+0V4tt0dfGKbuqATTK8t3ToIF5vgyZN5CIxQYDVWntgTwiOc8EjnVCtw/KpsL0FBhUM8+ikHJjmgMe64YPV4OiFP4fgyiLY3QVlxTAtCwYCcEcNXHkcTJtgNM6xBRCEfThNPn+B3v9RV8f31q/nQ3Pncv7Uqdz0+us81dQU80MQr/1kc4P4LltRuOPUU/no/PlH7DYXLwahjJ/xh1nidNCsaZzodhi6KOVuexQjEY6KO3fuNBR9/vS5yFHwlNpmb8sHYct+aKg7XdBoumHH7xe7IEky2AjRBEAQDEG5LNOsakx3KnSqmhGZIHp0i3oXtugJ62/78C2rh5EIyZ550XaQZVoY1t8gqbiU/brZwryQWPV6qAQFo6CFDHCge3eh92xB69kBwTZ0zVYS2zjTdqdYbIjshpxq5OKlSEVLkPOPR3IVgSz2bsN4IY6wll29PtbccQ+/eeTxhNLSmSiGUTwE43CIAAi5UVzYOAgn5EOVB9Z2gS8Cdy8ZChA6mut48i93IU1ZzsWnL+DmX/2RyeVlZHvcREJBOhr2866PfJraF++l1rmI919yMQunmFEoN3z7S3zrB7eTLUBGoIfn1r7CgD9ETX0jDTsaqFy+nM9+9HR++7NHueqy5bz0Vgdlbi/PvboZT85U3rPEycNvepk1qZiBg5uokRfwqQ9dyfL5VeMgjQnWhahv4YPHvSLDqWBxoFQIFpibByfkwd074Kq5sL4ZdqlQ5IK+QajMgmoVGt3Q0wbBXLFZhJXFMNgPraISZycEnNAbhK9XwU96YKYLWgbgnMmwMhseOwjLKmFurrkpm0jtmAIIIzkqrm9pMUIUF5aU8LG5c7njrbd4tL6eYMxRMfXSiV351xYu4AerVxt+DuPZBDDo13T2hSOGIp7pcpAvUkePU6GnvXv30ucfJH/6HBSXmYRnqJKNG1ZMqt+ESql8K+ymgJhZwSaQBGYgjU5MdYw9YiGZXRAgxUiGlHSdIWyCPXOj7VjxUIqogeEiBYasqWBSBCOgDqIH2tD7G9AHWwyTBJFBkymQHEZopOQuQcqZjJQ9FcTfomKkyKswTmvY0NLGjb/6Aw888+8hkTOZTIrj+TSm7ksABOFrcHkl7B6AEhe81g114jYgNUAQ39dufIGaXpWlC6r5xaOv8YWPXEZ5UTx7p9fbQ+vel9nb62BSxSQa9u6irauf5599kjPOv5iC3AJOPvNcsvsbeO3119iy7yB5BYUU5Obh8LfQUX0uN75/NY0HdvObe+5hwfJTcfVEWLh0IcfPmWbCWDXMnpf/zMvek/jsFScceWEdZVcYjMCdO2BlGUQkGAzBdJFlPQIVOVDghN9sg6vmwd52KCuE46L+ocK86x+Af7aDNwytEkzOMl2VhElpaQ680gJKNoYz89WLwB3dN9T2QqMfluTBS/1wWhlUTkDnxmMMIAzvqFjT28vXX3mFpw8epMTloiscxj9MRsTYva7rXFpdzR/PP98wGYxXG9R02iJmLoBSRabUoRi79PFsItSxvaOT3OqZOHPyU+5jY5R/kkK3ewlYwMAi+Y1zLKUdpV6GAwcWO5PqGMvha0g2xGjxo1R+B7Hx2PIuW30n4xLhjOmxWQYOR75mme44e2CG1R46OzDSWCKqytr1b/KNX/yWLftqbYeb8CgDEEaS4OH/bpkYhN/B+aWwpQ829MYdhVMxCHGAEGHhnMn8+m/rue7qy2MAIRwO0ucL4g7Vs3b7QWbMOyUlg9DT0URNbQ2TZ59IeWEOgZZtvNFdwKnzpyITobtrgJKyPNa9/iotbQfxd8gUePyEnR5CEYFRdYpdPlo8Z3DNe+YdvjAmWA8dnfCoF1ZkgZIH5TKEglA7CG8Nwv/OgHu3wyWzoL4HKm0A4bUWCEowvwDKs8A/CHsEg1QEg6qJ/+u7TRPF5lZYNSnqpCiYVsFAuOGMSdAXgEK3aeacaO2YAghC+GKHL16aqVrn4CC3btzIr3bsQDOc7+Kvertpwa5ozH20zrzcXJ659FIqc5PclQ9xxQVr0B5RDVv/HJfTsLsfidbR0UF9QyM5lVPwFJXFLpG8G7fruGhdy/hwLOdDm2NhMnswFubAMikImYs1sEwL4oLJYhDsQaqIwYTj0pglLNUt6r+n9T84EkIfpz7DkQi1jc38/IGHue+p5xhMcqg17vdMoqRxknb6bq7YBPWD5r3pkYXfDoafkGjis/BBWJDkpCh+279xLVvrOpgxdRIP/mcPX/nEBygvzjd8Ver2bRwVPnkAACAASURBVOLptS187L0zWbu9keLyOUwtchoeLD/7yff5zFduIAuZrNw8WvftZEd9MwtPWo5W+2+eairnA6cvRAu38uiDu/jm/32Udev+zeuvv8ZAqIQr3vceFs6fjr+3k7ZuL2+9/BTSkvdz8ZJJR1xWR9sFdgqfgSzIFgyADLNyoEXEKjqhwgEF2fCnHTBXsArC0TsXpmebLMGLLXDBZPhnPZwzFfoHYIsfTi2GnT1Qngv5OrzaDzU++PpCcOnQE4Q9fWYRtxX58EQnrC6HSUOzqB9t4hoynmMOIAznqCjKN/+zro7HampiDoaWUkoACFGnfbvCEp73wsRQlZfiTTDGZRZ2/KawhtjZThPey0cIHIhhiSyO+2tqIKcALSsv6vw3dMBD2ILoIVGXx1i+yTiTkFiSIQaqhjMrxICG2bnBQCT5HVgjsxiHdMWRrHElI4pULIIAB0dSxmNc/hEPF/ei8Gbfc6CRp156lb+/+DJdfSKEbWjLAIQRxXnYB/ylGWoGUncj4uevnATlKV7++7ZvZOtb+5h/wlJe2/AWi+bPIifLY/iz9LTVMJgzn9NmKWzc30xw0IlTDxg+Jrt3vcWseYtQJIWSSVMpcYd5a8cuZE8e9LfSNOhhWlkBmtZPbQNc+4n3sK+uDn+gn3CvxpRp1VRWldJWs4Ntda34fH5WnnsBk/MOPZrqsIX4NnfgC8PuPrDSWQgTgZX7YN1BmFsKPj/sCkO+U4Siiuy8cGIR1Pqgx64gomGMs/Kg1CGixqA3AFPzMbK77veCV4IZWVAxAUGBfamOOYAgKN90tmZBD4u6DL2BACJawK6MRnP/CvZAxMEfbtsWDFOhKIZZ4UgrLr/fz959+9jd0Mzzb24nFLHyP8ZzG0TVdcK0EvW8jcc3jop/HnKchSASvD2TZG2LArBnZEwcR6pr2vIyxLq0jyDulRD7NsYupJvDaO6C5HNT3QGp3FuTj7N7TaSLxzDP8Q4MsLv+IPXNrQhgm65lAMLhPo1H7nxvn88Iiy7ML6CtsYbGtm4i0QQmnuwcZs1bgEcboHcgiCc7nxz32N4tmhakqbGH6mlmdFWmZSQw3hI45gBCJBLB5/USEoamo6wJlVCnOFFCISaLkMwjyBxYUxc1Gbq6unl5y3Zuvv8hegainlVjkM3wqmy4jpLPPPSexjDctKGQiX2YNTztzMlYrpH62PGbn+gpuTR0qmtmAMLhr1qmh4wEMhJILYFjDiCIKoYtLS30R9G7vdTy230ThGSZThTK9QiOdNz5OA/SUDSaxls1B/jOXX+luSd1ZUlx2fFTb+M8iQnQ3WhlN/JxFnAZHXrMAIQJcHNkhpiRwASVwDEHEASlFwgEEEzCuk1b+ekDD6MaYYyjoYnHshse44rrGurcOXCgEcXIwPjfa0LlDAwG2NfYQiCFo9vYRjKyihtbf4d3dKqESofX45E6+8jILQMQjtR6ZfrNSCAjgWMOINiX9MHnXuCT3/sRIlQsuY3GYjx+t4dwj/Wgi5LOXh+ScJFNk5Rp/K6Z2JOYrxmid3jt7VDIo1Gtwx0zmvPT3R/D7ePNfkfX+2iOGs0xyePMAITDu58zZ2ckkJFAegkc0wDhoedf5Jrv/NAACMMptkN5MY/pphJRERXlIiYNqa3NdHU9JtuhS3Kot8LQVMtjFZmk6xS5nZxUkkdZljue5jjZV1B0bIVNWH9bCM763v67NZBU6MGOwdKdkw6nJY9huOOiYxDlwhccN4P/fd9F5ObloucVQGEJHEb9j7HKeSzHu5xjc8QbS9+ZYzMSyEhgfCVwTAOEf2/YxPu+ciMhg1Y/dOV1uCI3rlxaij7oRxpIKgt3uJ0f5vlvn1QOc+ApTjfTNJtFkMS8ipwOfnnKPM6tKiHHIapDJCVaSKXMRwsU0lELyX1a47RbuJL/jvZl5pYwfxRVR2O3bLo+bSmsJRGTJSvouXnoy1aiz5wD4xBxM96rlAEI4y3RTH8ZCRw5CRzTAKG+pY33fPGb7G84mLak839LQepTpiB5vdDXN+6r+d+m/f9bMhuLoByyhMdhFrWyTCnTczw8c8FJTPK4ExmCsXScfGwqVmDY/nR0TUUPB43iT7qmIzmcSE4PkiLi0o2akPhkFx2yB7/kQEGjWAtSogXxGAWghmnJ41EU9MUnoi092TBrHW0tAxCOthXJjCcjgfQSOKYBQjAU5s5HHufmux/AK9JgvZ1NVIL0ec18nSO0/7bCH2k8R/vvYrOd4xIMgcRASBS7NtvsnCyeu2g5VVme8QMIYxKGjhbyo/Y2ofa2oA16jcqPkjsXpaACpWgKkewS3nKV8rRnOq+7J9GiZBugYH64i/MCDbwr0EiRKCk92utmAMJoJZU5LiOBjARGkMAxDRDE3Nu7e7jtvr/y8PMv0t7TOy6Oeod0V1VUoPv90N+PsI2Lln4nfjTu0Q9p1v+Vk0RhqxyXYlRq84fjSYVm53p4/qKThwcIY2YERj8lAQ4ibXuIdNSgh/yxlNEGAFSc6EXVbJ1+FrdXnsNazxR8kjMGbkQK6tkRL58e2MnVA7so0EKju3AGIIxOTpmjMhLISGBECRzzAEFIoLG1nX+8/DovbdrK3oaD+AOBGFAQdHRE1RLMvaPerVniHY0zWkkxkriOYBFEacJ05w7nFJe8nCMda01Eh3AkTG9ffzTkM7HmQTpfuBHvnhQH2C455Nfx1sUel4uivDwjc6ZL1tF0iZBZjdpoMzwuHjhlFpXucSqwNdIE7L9rKpHuA4Qat6AHTPYqGfa1am5+Wn4+f1r+SQZyRTL4xCajsyDcyxrv61wUqB/KIqQaTwYgHMptmzknI4GMBFJI4B0BEAQIEKCgo8dLT18fYZFuOLqLF7paFF8J6JKRB91syZrXKl9k9y6zv/LN7+NZ+aLHxcomSyC8t0U0QyRic5iPq4zRghK7ArafMxznoOsae2truf3e++gwEiXFzxwNtjFlMjTOIFUVw2SAMBxgGNUTKUWjGaIitVZA7MJXL13CN675uAHwWltbcHs8lJeXx7rNHuxn6fbX8IismumU+0hKP/mWGNWgQQ/7CTVuJdy2b8ilrUtu6lX5rH8eey75KsxYkLIqZL4e5tP9u/iWbyN5unC2HaFlAMJIEnrH/D4eYc1Hq7DMKqqZdqQl8I4ACCMJUSidkC4xqEkEdRHZnk5tWipxGLdyiySOVT40FWvyLj3V7W2HJalUcsp52PV2CmLC6FPX2Lz9La77/hoOtnfaukkFK5JBkHW4dWw6viF5RqkARRxGJc5lpGvaj46aZ3R4z+mn8Yfv3UQorFJ3oI6snGymT50Wy4kl+brIeeIvyAPRQkf2ZU2xxCL4dGePn8fqOgmJUmxWOevo5fXkBQKK3U6uOr6MquxElkIL+AjVbSDS04R4mSVLQ1QDfLYtzBfaKui64iuw5Mw49WGbrkvXuGKwjlu8rzJZFfOIyjndXDIAYaTH/Zj+fThQMJEBw3CAIAMWjtwtnQEINtmKOiqDmsygLqFFQYLgDhI8BpJfzEkh9PalSgcCkpfTrh6T1bCoeDikiXC+MdgFRKrlLTsEQPg+je3ttu7ik4nPMxmapFbeQirmWO3ysbq2uBTT3TKexdL+e5qJxUaXKAnzOvHvBAEkAMJd373JKEBVd6CWrJwcpldPi/UgeTvJefKvcYCQvDhJQxCGpk0d/dyzu42AAAhJzVLz9pGVZzm5dsEkpuUmRgwIgBCs24BqAwj22QuA8HRrmOvayum+/MtwwlkgDS1TLgDCZVGAUG0HCOneCRmAcOTelkd5z3YAkAwGJjI4iD03SaxBMjDIAIXxv0EzACFJphabMCBMDrqwAsdbXNWZ3xox99bPQzbjyVv7FHAhCRmMJ2lm70sAhM1JACE9s54CAaUMyE8U3FCgYN9u21XqcJx+ImAxoUqaFbABBGEyqj1QS3YUIMTE6u0i50kbg5Dq+UmarlDcYYE+RiI1or+Ld5ZTklCS76OQMDFsIdy+L3qnDL34xh6VT/XPoe59X0OfsTBl6ahcPcKnBnZxgzAxWI6Kw2GuDEAY/7fkBOjRAgDp/jeepXHIpPp2isICAOn+N97JGdPDuC5RBiCkEafwSxjUZUJRkJCg/1Mx86n6Sd4k27T2WBiA4VZ8NKBC000G4Qtr0jMIqd0W0/WeSgBDuI8RklMNxyAk95ViL6/rXGxjEARAyMrKYdrUaYYPqNj/K74u8gVA8PfHpzcM8yJ+avYHebNzADXmSJqMFBLnnuOUWV6WR6ErMUOgyH0Q6TpAuGELeigxxNbqoVVz8eOy8/nTyZ9mMLd4yDILeDon4uUW4aQ4WGeHo8noLA5oMgBhXF+QR3tnqQCB/Tvxd/IxR/uchjztNqUvAID1zwIEdsCQAQjju7oZgDCMPEWKGmFyEA6MgiqPqYaknb/JJoyyDbeBTtHFqPtNtzu2+SB8Yc0aGts7RjVQc5iJRneL5LfmG9e19lGmQkXJLIDJDQz1HEwUTnrzhXjpRX0QvnMTQdU0MXiyspk6dbo5Px2Uvk4TIAwMDPU7TSEFYWLY2N7H73a2EBBUwghNHFGZ7eS6xZOZnmRiEKdqoQHCLbtQO+vQwwHDMVYXyFCXzDDHgkq2HHcBP5p0Li+7KuiXHEbSJNGEaWGKOsD/+Hfzuf6t5GtxF9phh5UBCCMt2zHz+3BAQLCGdnAw0Sdt+PFEGRALIIg043aQkAwcJvqcj4bxZwDCCKsgdqIGSNASzQ2HsniHpeztFzRSCg/TkkCIYBCEk2IcIFg+AnYKPxEMxLSsjSA3VeZwO3/THXNk1WpFhdj7GzqjxGkkojLxsrjo9NP5fRQg1NfV4snOZtrU6bHrxxgEy0kxGdkkyUlcwReKcHAgmBCJOpyoXbLE1FwPWY6h/gNCVkaipO4GM1FSSKTZ1pAcHpTc0v/f3rn9xnHdd/y7N5LLpUhKFEVKsmVasmXLVq3IcCo3RZqidYukAQrnMQ9FX4oCRZEAfSnQC/rQIoD70D8gaIE+Fm3QugjSGgHatAhsx3Br2I5l2ZYlyyIlWbzfdpdL7mXa38yc3dnZ2Z0zs7O7HO53AEES91y/Z5a/z/md3zkH6ZkFVHIzeG/0FF7Nnsc7mZPYTo4hbVSxUMnjpdIiXi7dwbQclKQLlgSEMF/N2OXxggMFBAIH7Qxn7DrqaLDqnxN8BAoEFJyeBScoxLm/h6HtBASNUVCehH0NSOgWAiR/TY7mdZjZQGV6GBL5Qr374XV893vfw1LTLgYvA+2OnXCRiScktPMgdPNzVa/3Oo3szPjmV7+K7//Fn2O/WsNd2cUwPo5zj56rNzi5s4Gpf/tHpIoRnaKpuuNPQE1vlVGrWAclCSAYhnXM8mgOiZS180F+nW8lR7GUnjABIWNUcbaSx5lqEWnz0wAPASGAWPFN6jaW8n/lNRADmUqlTMOpZtnx7Wlry1VfK5WK6VVoBwkKko5S3/vdFwKCpuImJFST5jbIjvN3D2uua+B387v42Tvv4tbdu6h6RNFrNtXrG4UHqyv44X//FDuFgueWS49VE8/q2sXHOVEjdDtdGTvF4knSpxYew8u/+jXzfoP87jZS6Qwm5LIiW/CTtTJ+t7aBSft67aja1bYcpxPGEyLaRT5aJXotxGi12QkuBAQtyeKcqBMcCBCk0+kjCQbuMTMPuatUUK1WCQk9eqEJCAGElWXpQi1VXycOkNU3qXgNfvCj1/C3//TPeLC61jAW7QIdO8UJetQmX6Li/n4jYMmRxg0wnRcROgf4+3Y0QIJOMCLFpFNpjI/KNc7AWDqJmmGgJOct20FNT4yP4NVfe866rCnIk0oCablIKRkguCRIBR5pPcezBlQq5v0NGus2VqEEhC4H4nBndy8tiNdA/RGvQSaTGapIfgUJAgrKY+JccpDRZOBi+HeagBBQO/EgFGVng5qmBszfLvneXhF//Mrf4If/9VOUqz43+EVU52Esxn1Rlc7FVdZdDGlUjBqKBw3trLsYruFMtg0gOAlE/VsCn8aypqFFVQIDHbjU2QHQkNO9SuPpQvIJKpD3K50yz7sw8o4bQP1iEQgIh/G1jqxNbu+BggMxggIHR3FJwU880aRcLpugpJZX3DEJfmXwc28FCAgB3wxZEZaARdnZYE4v/X5htynfna2Q38V3/+oV/PiNt8yZsO7jNfHUzdvvdOHa6p+r82VN13BmfFR/Bm4CwhggkLa/35DIDRPySadwjU7i6sQyiBdkZBSJkREYuzv+Q6XaR0Dw1yqmKdp5D+TnAgfiQRjWR+BAIEG0UPEX3NXQ/dtAQAihYdn2IlQ1vQg6MQj5kICgmu9vRkN0tE0WnVl9t7VpTcLtShqAYKBYbngQTo9l8A+/fhUvnJySxQK90ycFELLj1t0Z5tomrChpGWv7BMuOw95hsO0djvrSpNJIVKsdAaHF4zI2BuPqizCevgxkIrqkSr/FvilHRFc+oRRwAoJzaUEM4cjIiJ4rXYIZzcA+ify3KLdSqSGdtuDCkO2RdpSV10RFHRsu37l6OVJGrYa0C1Asb4dst7S6q1z/7s5LXwqFApaXl5HP582+nDlzBpOTk4E8IgcHB2Y8gtTjhASpj8sMoV45EBBC6Cbvu/Ii2FcJWV+ugEcgO6sWD8J3QngQgjVfHyPCQoB+DcFa3il10l5ikF9YhYPmK7cen8ji64/M4PyxcWTsfdMte0TdDhv5RZe2DNmZkyfwK19+HsdyOfP/TZ4flxsokUwgWf/F62ixjijuNKpNlTIgAasu8JCP90slPFxbx8LZM2bchZHJwJg5BZw+ay2T6J/OEd1g+JREQAgvtdfyghhE8R5IYKLOU8lv4PYXmzg+O4/ZqRwSiXW89h+L+MZLV839NCtf3MfK5h6mJ8dR2N1B1aghny9hYmIcqVQSE7kc1rdLuPDIcTxY3cH07Byy5Q28c3sHX7v2LA5KRcgqn8QF7Rd3sbKygoNaCkalhONnn8Kjs9b3SD3SfgEDSZfL5TA2NmZ6Ara2tjA1NYVz586Z/dN5pCzJy2UGHbX00hAQ9HRqSVWRy52MJORv9fitNgixmzRtJ3SeCioehO/8ZfAlhpDNH0A2HSsZrlkiZzaTRjqVwF652nqkrFRt7w1vtfKuOp2DaBj4yuVLeOVP/giPnp73bZyclJEy10F9k3aXQE6KNGpYWVs3A0+vPnOpu/L6mJuAEF5sJyA4PQijEqir4Fej+Ief30Q+NYFzp+cxkt50AAJQOSjg/sM1ZCemMZXLIpOp4ic/eQ8vvfRLZsnVgyJWV1ewn8ihtH4fyWNT2Hr4ACfmF3Bqbh6rn76Fe4VxTKQrSGZGkEylMHv6HPYefoTixEVcXjje1MLNzU188cUX5i2s4j3Y2Ngw+3L+/HksLS1henoaZ8+e1eiVdZS0eBG8lhnoQdCSsCURASGcbqYbTgIWS0bSdB2Y5s/HMHSKyi8U8qYH4bXXf4Za/ZjfkI07AtmC4oS5ZJ9KQlyfjccP2SRlc3BB09VThoFfvPQU/vQPfg/zszN2se1G0UBKliNq1par1gCFRuBBo2/NwQgOdmy6kLtZC+sUyWqtiuzYGGZnZjCiOcM6DK8FASH8KLgBQWbM8jOZdWsZQKOKYiGPza0dZManMDN9DKnKMl79z7v41jeumeevFHa2sFc2MDmVxdLSBs6ensSbb94wAUE+395YR1lisHY3sbG9jamZWXP5bn3pE2Qe+2VMbP0c65hFzihgXzbhlA8wcfwU9tfuIDF3Bc893gwI9+7dQ6lUMpcUBBQEdq5fv45r166Zxn51dRWXL8s9Jf4PAcFfo6ApCAhBFXOkl22PJcPa9ui3NdCvmvLBAf76+3+Hv//XHyFf3NPe1eZXrvW5jqHUK2mYUo0kk/id3/pN/Nkf/j5OHJ9uBKW2XN5sKSyHGgU+2GiYBJUjpBmDEHrEvQBBChNA0HpqFezuruKDmyu4sLCAudkp7C/fxL+8fhe//fJvIIsKNh4u4cF6Eacfm8Pnn63g4oV5vP3Ge3j2yiUk0yMo5zewupHH9PEJFPJ5HJ+dMwFhbfEjJM6+iNzW+1itnEAusYeykUR2YgKPLlxAfvF9rKUfw7OPyfeo8SwuLppxA7KUIEDw+eefm8DwzDPPoFgsQj6/cuWKVvck0b69ldsdqKgFUNq1DE9CAkIXY628CAdGysNkeBfsnCU2mW7DwIeffIIf/PuPceOzu/ZpiipFoyzL1FulWMcat7otrJ+49+Q1rl52t8E9i1Z5nSWrexm858+tByxb6awSVJt1Pe+qd41e62wXcM7Gm70CXlp4j06jhclkAo+fnsO3v/l1PP8Ll5HJpH3G2EDGBAQvVOziJTtiWQkI4Qe0a0Awqy7igxtLmJs5gWNTx3H/w7ewk8xiYv4JXDw9hf2dddxbXsfY9DEs3d3ApYun8fabP8fVFy4jlRlDsnqAe4uLODF/Cqv3PkNi8hS21nYxd8zAyPxlYOV97E9cwNjBGla2SkglDjA5M4fCcmcPwsLCggkKH3zwAZ544gkzQFG8B0E8CASE8O9Wu5wEhC41lRgEWWaoObwIbvPkVYXTCS0eafm/fEEkOGcnn7cuWrEzuk1fkCarMhRUWHnVdcbOYAgvp34DP8x/NdlpwxED5zb9hrVjwPyxjSv2/5t9Lc0udqtt9s/cnVedNn/urLsVooLoIw01dyi4FgVkxpEbz2Lm+HGtICnp1wiq5myKT3sFCAjh3452MQjaSww2ILz77sfY3S5gfm4ay1sGXvjSeXz80ae4dOUqjPwabnx8E5jIobALXHnmUfzP25/UYxC2NzZw68Z1nFw4j/z6KrIzJ7B4Zw1f/tKT2NnOY3fjDpZLk5jNGdguVsyTTR85O4f1xc4xCPPz88hms7h16xaefPJJs6W3b99mDEL41yWSnASELmUUeyU7GiqwLnPymyWrz9VSuYIDZzM8y/CypSqTg0ikDbJGrTuP9Wtvl/K0ze4EJKft76o9TZl1RqMJSVrGz61hp7YlUMNo0HsTeiXuIS6XgBB+cNy7GFQMQpAzEGqlTbx//TYy2SzW1zbx9PPP49REFmv37uD+9gEuPH4a+fV1bBUL+OzOMuZPTeHu3WU8/fR5pNJpjI0fw8qdm5iYnsJ6Ebh48XF8euMmXnjhCv73jddx9SsvolapYXvtAZY393Hh4lOYyo3gwafvYGPkAi67lhicuxjEayAxCBKAKZ6DoLsYOp2FwCWGcO8dASGcbk255FyEfQEEjw3yYlTcMKDjYdBpVt07YP/DhAMNSNEp252mnQPfyShqFu7+WZj6PMMmPM6l8gKNMPW5+asJBpwD1qbwDKqwFpr4dFKAgBD+/fA6B0EMrKy3y9kBWo9hoFqrYe3BfYycmMF0Lmd+1WqVMjbXV1EdncTs1Lg5yVAnE0rQtCy5ySPnJ+wXd7C5s4vxyRlM5cawsnQLy5sFIHsSz118BEa1jN3tLZRTOUyP1nB36T62dks4/+wlTI+2tjOqcxDkuGX547ysSoEBAUHr7WhJREAIp1tTLvkylSBbHpN1D4J8n7y8A91U5wSCbkyRjjOiddGgebbdTT+a8josfLOx7xZ1WvN35Z2wG+0FJLK8kObygtYrQUDQkskzkRsQ5P8CCPLIzHuYjaDzuGUBJucNjxbYRPHtDz92cc1JQIho5CpIoGLPIbVeRY1ZaVRA4NdFL++AVh/8Claf24XZm0F1c2mni6qt7cpp5/ExxycBpIwaUmYUCh8/BQgIfgq1/9x91LK69lggQQ5K0j1QKHwLDm9Ot/fAeRcDASH8uBEQwmvX7EUAcGACQnint9eSQbvmOY1Ru7XyIGvobWWwu1M/5MmZUAL8zP83m/5u5/4urvBYNtGvwWpf67mQbqPf0SPjIKi67gp65Ox31OwIlIhepiNcDAGhu8H18iKIi15+LpCge6Jid604XLkFkAQQ1AFJ9B5ENz4EhIi0FAMj5yGIF8HvUcbJDQQqnzOAv2Mwv50hkplrh0LUR4IB8m+vUx8UKlhxEI3CvEAmPEK1KuvX93azf3dJJnJ0ciFYnGHjkPW3YIflPehmwcfvbTlanxMQuh/Pdjc6SskCCMrF3n1Nh78EJxyo657pPYhu3AgI0Wlpmoly3YvQXLBpQhy7C+pw0KZ+P8MXuNktBTZm4X51yf4M9UdBglf9Cg6sLZ8WRnid0+DX9iAA4QYQd19afA0+IORl6ttBRoJLC35D2fI5ASGwZC0ZvG51VMsNklgAQR0U1H1th7MEFX+hdnKoi6DU3wxOjGbcCAjR6FgvxfIiWDsanMYm8jmmcnG72q/vfO/cceUpMO8XsM29H0ioElVfFSioMyKcF1sFkb2lXo2GOFYFOlbVtGTgM0jOamVbY9Jg3EGQcZS0BISginmnbwcJyrug3OzOWXU0NQ+uFAVB7pssnVCg7qRwXvU8uBbHv2YCQsRjKDZGYhF0r4Juqt7D8HnbQhsDnFNbj364Z75t4cGjHFlXDwoGnbwKUres1CuTavbLUa8K+NOw/WY17iZ7zfJ1btfUrc/ZN0E/Cw4ix76I38bDVxwBIbox8QpaVEbUCQrR1Xg4SpK+KQBwwoHTa8BdC9GMFQEhGh2bSpHTFcumU957mt9qlJymO7gPIIhL3rO7DusqRk/AoBdR+RYkJFBLWOcNtj8mutFKtwl2egbMZntcsR3G6LfTxTwR0vGYiyeG+In4hFGAgBBGtfZ5vCDB/G7JSayuP9HW3P/SnF4BBQbmZCGRqG9jpOcg2nEhIESrp234YC4zyNbHxlw3iElphgS3u7x+WWDAtrctp84xBtJG7yPyFSgYCQuilPfAGQRYV8DDu6GtpI+Hpdnw+4spywoSd6Bdv3+RQ5eCgBD9kDshwQkH6t+qRpUu+hb0p0R3XIEbDBQs9Kc1w1ELAaFH41yzAxZ1zUlwo+PtaXAiiV/X6vZTrikewHa9IJNaugAABsdJREFUBig09kcE18G7l9rlaEGELCmo1vqpys87KUBA6N374QUKztriDAjuJQOvIEQuK0T/bhEQote0XmI9YNF1ToBulZbt8t9t4DaGTq94k9fAPqq4Xr9dtBg/iQ6wbpPo/6N2OxiJBOSPuW6g89jG3UztZ+id6zAdutm61dFAosZ4A53h0ElDQNBRKXwaNwTEGQraqeAFAoSD8O9Mp5wEhN7oapYqdkju9xNQ0Flv92qKp91rihnwyGVfvKhuFlSI4bWeb4LBIXGbW0sNaoukggRNWGj728S+/NEupsXv0hYsJNZAlhQGA009fC0HWjQBoffyH0UoCAILvVd4eGogIPR4rAUMJBZB5uftAMDr506jXjeRXdpKNdG2/paWCRyEOamgt6JZJlnFJqhFEzuo0WXQozpi3ZJWHVQhf9ejI3rb2SErnYAwuAGPMzjQQzCY94aA0AfdxUHd8CLUTZF3sFtACHAuIehktcytPTsOdYxRHwRzVKFgwWIGtbHQ7qlaW/BbXmjbZNs7YEjRNZMP6DHo7fgSEHqrL0unAlEqQECIUs0OZZnb+8Q0m1Pezjvo3fauneHXAQJ3k47CHv76DRDmUopjKUJXkPqygY0f5l9cSujHV4GA0A+VWQcViEYBAkI0OmqV0nwOQHtr1gQIHvv8tSpzJFI+C8tzcFRd506vQgeFCANBX59I0xMQIpWThVGBnipAQOipvN6FK0+CuvooaBN0J8qWW948NYUn/wUVmel7ogABoSeyslAq0BMFCAg9kVWvUHNjoR213zDmrXkDAUGT50CC7dSNCHptYioq0EsFCAi9VJdlU4FoFSAgRKtnqNIasQlJ7/387YLwPCP6rUh8iXiwIvH5UIHDowAB4fCMBVtCBfwUICD4KdSnz+tb++zIfNO023v4Oht5FYlvw8CRjTHo00Cwmp4qQEDoqbwsnApEqgABIVI5oyvMAgRVnrXroRUUHNv0GIUfnfgsqWcKEBB6Ji0LpgKRK0BAiFxSFkgFqEA7BQgIfDeoQHwUICDEZ6zYUioQewUICLEfQnZgiBQgIAzRYLOrVGDQChAQBj0CrJ8K6CtAQNDXiimpABXoUgECQpcCMjsV6KMCBIQ+is2qqMCwK0BAGPY3gP2PkwIEhDiNFttKBWKuAAEh5gPI5g+VAgSEoRpudpYKDFYBAsJg9WftVCCIAgSEIGoxLRWgAl0pQEDoSj5mpgJ9VYCA0Fe5WRkVGG4FCAjDPf7sfbwUICDEa7zYWioQawUICLEePjZ+yBQgIAzZgLO7VGCQChAQBqk+66YCwRQgIATTi6mpABXoQgECQhfiMSsV6LMCBIQ+C87qqMAwK0BAGObRZ9/jpgABIW4jxvZSgRgrQECI8eCx6UOnAAFh6IacHaYCg1OAgDA47VkzFQiqAAEhqGJMTwWoQGgFCAihpWNGKtB3BQgIfZecFVKB4VWAgDC8Y8+ex08BAkL8xowtpgKxVYCAENuhY8OHUAECwhAOOrtMBQalAAFhUMqzXioQXAECQnDNmIMKUIGQChAQQgrHbFRgAAoQEAYgOqukAsOqAAFhWEee/Y6jAgSEOI4a20wFYqoAASGmA8dmD6UCBIShHHZ2mgoMRgECwmB0Z61UIIwCBIQwqjEPFaACoRQgIISSjZmowEAUICAMRHZWSgWGUwECwnCOO3sdTwUEEAqFPSR2dgvG6OhIPHvBVlMBKhALBQgIsRgmNpIKmAqYgFAkIPB1oAJUoA8KEBD6IDKroAIRKWABQokehIj0ZDFUgAp0UICAwNeDCsRHAQJCfMaKLaUCsVeAgBD7IWQHhkgBAsIQDTa7SgUGrQABYdAjwPqpgL4CBAR9rZiSClCBLhUgIHQpILNTgT4qQEDoo9isigoMuwIEhGF/A9j/OClAQIjTaLGtVCDmChAQYj6AbP5QKSCAUNzb5y6GoRp1dpYKDEgBAsKAhGe1VCCEAnVA2M0XjZGRTIgimIUKUAEqoKcAAUFPJ6aiAodBgVLpAMW9EhIEhMMwHGwDFTjaChAQjvb4sndHSwEBhL3SPgHhaA0re0MFDqcCBITDOS5sFRXwUqC0f4A9iUGgB4EvCBWgAr1WgIDQa4VZPhWITgECQnRasiQqQAV8FCAg8BWhAvFRQABBlhkS+cKekcmk49NytpQKUIHYKUBAiN2QscFDqoBhGOZFTZVKlYAwpO8Au00F+qoAAaGvcrMyKhBKAYGDg3IZpVIZ8u/Ezm7BSCaTZmHyA/fj9bNQNTMTFaACQ6tAKplEIjG03WfHqcAhVMD+Qjq+l9VKDdVaFYICif//wv4f9UEoW32akYsAAAAASUVORK5CYII=;" vertex="1" parent="2">
                    <mxGeometry x="410" y="280" width="1006.98" height="610" as="geometry"/>
                </mxCell>
                <mxCell id="29" value="" style="shape=image;verticalLabelPosition=bottom;labelBackgroundColor=#ffffff;verticalAlign=top;aspect=fixed;imageAspect=0;image=data:image/png,iVBORw0KGgoAAAANSUhEUgAAAkMAAAI+CAYAAAC/hQ6EAAAgAElEQVR4Aey995Mcx5W2O//WF/vFRty4N27cG98Puxur/XZXEkl4gDCk6HWllcSVl0jKUDSiaIHxM7AkQQKE994bAoMBxs/AexrR4Nx4zslTndPosRgATc7piIysysrMqn67MP3gPSerax7c3CeL2q9I7emrRV135rpQFrWX2uhj+1e1L8drT18bNK72tM1Te+aqFKWY94rUnbH+Rb/TtF210nGtGEM/SkPnDZ2fa/N+ut1xTeo6rklD142ivb7julBs7FWp67gqDV3Xpb6Tea/oNvt1nTYX7X6sLh2v7bgq9V3XpbH7ho73OajrO6/rsQaOdV7TeejLnA2d16Wx64aOY7so6Tj9ir5+DVxH5xVp6Lwqjd2c87o09TAHc3HdV/WYzk9bzw1p6OI9W18f43VTmoN+jb03tL9u99hYbeu9oecozpPO5XNQN3RdlSb69TLO9qkbe64VhWNaUntTD9d+XVr6bkiznvua1s2pX0vfTfFtjns/78tY5vd5vKYfY6n1eO91aeG6uq9KU881bbc+19P8nJfCtVhf6qZe5rYxeizNw1zNaZ7W/hs6t/W7qtvMRZ+iX+91ae27ocXbbLy1F+fM5qcfY7zW/jrvNWnt49h1adX+tt/Se00W95fOwT6lueeq9l3M+VN/tpcM3JRWn6/3uuTHdS7OzViug7n1fNdkSR99rbT2XZPWXvpYod2PL+m/IUsHbug+bUuYo/eq1r7t+0vTcR3be9X6cQ7O38MYK+yzbf05diUdu5bV1/S491nad1WWMqb3qixjnu7LVnquFO1L0jbHl/Vds75ZzXE9luZYSv9UlvWyzZyXUn1ZaKMs6bqUzpfqrouyrPuyrGBM16VUX5RlPZd1fzlzdl3SPvRbxnm77diSThtrfdN292VZ3nO56K/bPp6666Ks4Hw9V7Tfcvp3M78dW8qcnReF2soFHbOcsZ0XZTnjueaOC7Ks84Ks6LokyxlzxrZXpG2Oc0wL42inrfOiluWMZ4zuW237bFtZ3nFe3uW41hdkBePPnJflp89p7dvsv5sdW3b6rB6n9uJ9qb0sax8QLacGZHkaw7Fl7Wd1vzjeflbbVpw+K0tP9emY5acZk8Yzz6n+oixnPtra+mRZW38qbFtZ2tYrS09aKdqy/eXM1danfZa39cmKtL/sZK9oYZ60vfREj811okfbdF7a2D/RK0s+7tai+yd7ZcnxLllyvFuWM/5Eryw93iNLP+6Rxce7ZPGxLmk91pn6dMnS4916jP6M53jLkQ5ZfKxTt5mr9Wjqf6xLlp/olWXHe2TJUWun3xL6HumUJfRjfsYf6ZDWw2e0jWMU9in5Nn1pazl0WpoPndaabe/rdcvhM4OO06fpQLs0Uw7a2KaD7dpGux47eFpKbacGHWvaf0rHNu5vEy86bv8p4ZiXxn1t0rD3pNTvOSFsz2xcJ3NaNsqcpg1S8+DmXll46ooWYMfAIwcdAyKDIYBoMBQZRNk4hyrabB6ry/cdbAAXAAZ4qGNMO3AA0CRg8WMOTGeu6fl1XAIm+joIUet5O0rAA8gYzBj86NwKNwYWgBJtfl6gRqGpA6Cz63G4GTS2E1hzGLpmMJTBEaDFca8VaorjBjoF8AA+XdcKKAKGKNqW2hsUVLjm1C/1cZBRwElj2KbYeIMsxgM5zb03CyDyMT6Hg5mPpx1gcTjRbQDH4SWBiYKSAoodA5RKwGNzMNaLzpdAqYCs7qsKPpXO4eDVAkgxD+Cl24NBRQEFwNHzGwSxTQFyABEABzjStrStEAM8ZaDjfRS8uDYFkARY2bbBTand973O4cnnAIAAHmClABsFoByMHIgMhIAhwASwAXgUhHyMgt+1EvSkfZ/bYAjQAGZKZXEvUHRDQYVtgMWgpQQ8ywZuylLOxziHHR13XWEFEPIxOQQBOLT7cQWmPhtTQFMBVSVQWtrnQOSAxDG2rwjHFIiAp1TyfYclhSKOA0xZP992IOJ4AUPACDAEQCTY0n4JlrRvAjCgCRDS/kADsJPBjIGPw9FFBSPgyCFpaVcao22XZdkg8ClBlAGSAQ9ARD+FImAoQZLBTuoDvGg/AOj2NvoWpeOCwo6DDlBDAYAUjhR8zifISW1ARyoKP8zRYX1oZ5saOHm384KVSsCj4GJwlEPQ0lMDOlbBCXjykmAH4LGSQOj0OQUgoMiPsb0UmFHYAXw4Rk1bvwHPKasL+GH/VL+saB+QdwGs9gFZCtgAMAmYdNvb2voE4FmWAxKgUrSXIMrByUGIGvjR8YCIA1ECIY47yCxJgAT4LD3RK8tP9ikMKRAl0KGvwVKXzrX0WJdCkAGSHQOG2AeMKPQBgJYe67aaOY4mwDnSYRB0NMEOY2ljbAIkhR8FJBsDKAE3DkJel4DojLQeMnCiTQswdLAESy1sA0EH2rXWbeAn3weKEvRwvICdBFG+DwzRT+s0BvDx0rAvwdD+NpnVtF5haHbzBql5aAvOkAOPQ81giHHIqVMnCHcnOTyZc1S0FSBkfQAIg6HkGiWXp5gzg5oSQBl0FS5PgibGlNqY1/ZtHOczsOGc9eocGYywzTEHHsBEISXV2h+3ByhKwMJxBxmHKY77dj5HAUUFxJTcIXWMACwHpwQsDioASAFFgI47PzkMlY1ReCmDIYWnDKoK0OkyGGKMQw5ARH/tkztSyV3i2hyaHE7cmfHagSjfV1dJHSJzc+ij45Nz5PuMcbcnByTaFJTKnag03iDHoIq+1v+qgk0luLH+5hK5y+OQY7WDUckBUhcngZG6SgmiSiBjLo/DjgIYkMV7yiAp33ZXR9syhwegcefHtwEl4EVBKTlK7OscOj/ujrlD6vaUgVB+TOdO56MvsOKAYu6MOUQ5uLjL47UBjoESbXk7ULO0/0ZyiZLTA+jRL4GVzX1F970dR8lKCYLcNcIBAnwWAyYJgmzf4GipujVXDWKSwwO0ADUOQQ44AMzirgx4gKnkDmn/Ltyfq7JE6yuynHOnNp/DawcnnCJAyJ0chSJ1dgYDEfBTcofYLjk/uEOMd9hRZ4f+ODtdVkqAVAIcByEHHq0TALkL5HDk+0s7L4iXJWfOy1Igp+OCLAUw3PUBnM5YmztGS08DNsCROUDuCllt4LMc8Ok0IFp25pyC0NLM4XE3KK+BH6DH29jHIfJ2d4vU7aGvgoy7PlY7JOUQNAiGTg3oOfQ8CkPmAOVwoyB0qt+AJ7k/BbjQ7q5P5vgUx71/AqACdGhP7o/WqZ87Pwo3aV7gRvs45LjrkwPQ8W5zgnCDvN3rj3sKxwhYUrcngY66P5lbBAi1Hu0w1+hYl4INDhJApK6Qt1GrG5QcoeT85DDkoKP96JvcIwekcqeogB/coUPmGCn4AEXMT1sCG0BIgSbVtHMcaHJnh+PqHiXIydsVgBx63CFi37ezGiDCIZrdtEFmNKxVIKqZsrVfYaUERO7+DO0A3QZFDkcFLDkA4dCY0+PwQ23bwJGXHGwMaOxYPo9tA0PAT0NygSw0htNCSK0EXOrKFKEzG1s4SIBPCqMBOOoOuROkkGHuEMDj8FPAURlIOTy5o6T7mSNEyM37KBCpY5SgB8hhP0GQjTXnJ4eZcpfIwcehCKBiDqAqhxw9nkJhCkJlYTKHI2qHHwOWm8lFsvAU7kheCF0pBGUOEeNyMPJQWg4+7hg58BjAGDABNgU4JdeI/kWbujoWviNE5nM1Ev5Sh8fcHz2mIT3CYinclcEK0OIuEXCSh8VygGHbXR0Pc+VtBjEpzJYgSOfuNnChr0MQtcGNOT8eGtMQVwqV6fE0xubOwmapj8+n4xM0ufujYKShsBQq03BYKQynblSCGQeUEpQY7Pi+Q0/h+Ci8JMhJbo6DkNbJ8fHxDjYAkYfEKrWZQ1QCIgeh1p7LGjpbrO4SYGQgpHWPhckUUlLYzN0hwEfhp/eqLMfFGhQGS8CU3CB1fRyitM3AiHkVkMr6LQFSui/J8uQIlTtB6g5p2MqcHaDGQmSlcJruM2+CId1XByeFuxII6disPYcetnPXx0GncHwyd8ihiTAZx5fi/nDcYSg5Qey7M6R9kmvkbQCQukXqHp3X0Jc7RAARIAQEeQ3oePHwVimUdU7BJ28vwCc5Q77PHECShsNOn0sQdVbe1bCb1bg+DkfUy5N7BAhxzB0dHJ5i22GmjbbeCu0eGsscnkphrxQWK8DHAYoaaEmw5CBTOD0JaByGgBkNj6VwmDs/1Cu4xgJ8LFxGOw4P0OM12wo4uEja31yh1iOd2l4cV0fI3CEcIsJjDjY4PGw72JRCZLSVHCMAx10iHwskeehLQ2F5uCy5O0WILIFR6+EOaQWKkiOUw5C3mduTIGl/BkIZOAE2uD4ORuoAOfgkOFL4SX2AI3eHcIYIlQFFCkMGKO4OGQTVquvjbdRe0vHThKwcVgxQzAECgHBZLH8Hx8jyi6zvovbLFspSx8hhqFRzLerUdJCz5GBkoTB3jmx+O6fBkUGQtXOe0jh1cxSgaCuF5RxavC+ws+j05UFuEH3cHaIGjIANByO9zixcVgCRt7kblPKIGKtOkQOS5hqlthSeczgCbjRslTlFCkGpvTjmDpLn/3j/5PIY8PCl73k/WQguG9Pcg9PyiTkzGYwwDlABanB+gCLdB5BSHpE7QnoOwmVpvDo3mntk+UAKNtkxoMrnd+hhjIbAcIkUVuza6Ud4zJ0dD20VcyYXykNpQFHu1uQQlMMQ7Xk/gxhry9utXx4uIyxlYMUYhx8DMHOJHF4KEHJASdCiLlCW7+MQ5M6QuzweHgN4vM2BSvfTvGzTl5ri520hlNVnoS8AJ4ccgAT40TYAIoXCWrstzOWAQx8DmlIIzfsu678hy/otn4g+wNZgCCo5QbcDUnJ8Uk6QukE6/opwDcy3VGEMmLkqS7RYnpDCjgNNBWcIsKGPOkepH23L+67Jir7rWhR+irwhAybtr6Ev3B6DL5yaJZ0XFHDysFgR8kphNgcehaWUQ0SujwFOCokBOuQSqXtkLpE6QWmfY+4aaW4QkMS5ARnCWJo/NDhUprAD5FCSG0Qb4AQMDQ5/Jfhx6ElukTlBBkv0V5dIQaiUDwTwuEtEfyCJ8JjBkIXJ1DFK4bL3OJ7gyAEIwMHJod3bFF4UfAiPWQ4QfRSMinygBEYJhjhOSMwdIhtnrtAyYAiHSPN/+lJ4bEBDYDg8gNHSk6ku4CiFxvx4qsn/IXRW7gxpqCsDIODGHSUAqHCC3M3xNuAnOUgKSmkfiGEf2FEQ0rBYCW4cirxfAUM4Qowl3KWQZLXmCQFDyTECYBSA6ENJoKTOD2GxDHjUAUqhMAcdP17ATgIehxzgxpwgC4kV7bg7B9oLZ8idnQJ+PKcnAc6g4xzL2lsOnBYKbQ5AHv5SB4icoARHDkU4QAZDVpMv5PszG9YJITLyhoowGaCxqMgduiK4PxQHJYUa3z+VHBiFoRyEAKXLmv/jEFJ/5rpQDGSuC5ClpXCFOJcBDGMXnbqccoaY16CGudwJYruALg25WXgL0KFPfRZ2s74OSpZHpP0ShAA7AE5RUu7QoNAWLk+H5QQ1UJPTlHKOFJTU3SmFxWhzKNLjDkQOQinR2sDIQcgAxduK0JkmTJtzpHDkYbQceHIYykJhzOXOD8Cgrg1A5GGxdFxdqXxcN9dvoScApCiASTdf/gY2tBdzAkVFzlDpuJ+3oeuKjvMwF2OBHo67OwT4KGil3CKHGgColCPkyddZfo+H1gASB6kit2hw6KqJa8xLWQjMoWZQnYW/DKLKgIhcGw9VpURnhSB3ebIwlQOKQ1I+zkGINo4ryCRoUhhK52EODXmlnCOfU50hQCbBkM9D0nSROJ1yeCxXCAiyMFmRR5RAyIDGQmLuEincFOAEpFiCs9elXB/P+cldIWsrAVIJjjwUhrsDuJibY9uLu9jPIAg4chgCMLIwmY3Lkqm7UoJ1Cnup25NBjwPPYsCkLKEaAFraDcAQ2roi7/ZdK/KDFGIS+FgozHKDgB93g7zdw16AjcJMBjvM48c1ETrBkYfHSJI2QDIQMsgp5fy4O5RDkvbxMBh1AiigxsNiDjyeF5RDjx7rSH0z14hQ2LsAleYEnStcIqDIXCPgysJkCka4NVnSs287FDn4lEJbJbfIQSk/5i6Pw447Qeb8EAIz8MEVUvhhvy21EZLT5OhSvpCBUMkRUoApAyDaljjoOCwlp0ehKNs2B8hyhhSIHH5yOErwA+QALlrT72NLeM7bcYPID1KgSm6R5QZ1a+4PYS8/pgnTDjfa1xwiwEfdm5QAjYOjMFPkC3lILOUCMUcKebkjBMzoOBKiU1I0cyocZWEuhR5ygrLi4TGcH477Po5PXpoPkCdkuULu7JgblCCoDJQcjBrJCXKnJwuNAT4ORdTMWbThFu1r0+RpBaK9J2UWrlDzBnm4dZPUPLixRyFInaBTV2RRG0BypYCWfFvDYzhE9HOo0brk7JAEDdxoIXdH4YT9azonY4vjp/PjaYyvHCubg3mYG0DSbUAphcsMlq6VzpVcp6KfXkdKqtZVagleyCvKQlqe15PDUH0aayGu6wpDmo+U3B7aOX89YbeszbfVzVFAKgOeBDp23BKqNdyV+nrIDKeosRyCFKwMbHRMBk0AkIJQ9w3RFWYKPWlVWLe5O+rwKOiUVpcp3KhThPtFqIfrBR6uJQjClTEAyt0YhyUHIwOmEsDYvISsSmN1fAIiH+9ukro/HCsSpHkfBlgORdS27QnHpQTmkVZ0uStEDRjl7o9DkLlA5vx4m9ceMnP4WNx/M8GQhaTop8eAswQ1BehkDhLHFIaKPiUIAnAceugH4BRz4iSlJGrG5zDkTpBfm56DL3YcI1yllDxN3dqDwwOUWLu5RZZTpM4OcJLl/xjI5BCDU2T7pWPmHnnojOP5MeZ1d2lpryVTK9yQHK0w5EBkDpDCkAIQydBWPIyl/VMoizb2tRRAlcJdWc6Q5/1o/wRG3kauEO3Uy3GDcIa6cYZSLlByeQAkhZ60DwRZiMzazQEq5f+UXB5WgGUApGEwS4r2Me4UORBpndwgc3mSG5S10e7hMO2TJ0B7+MvDYskJAoR8RVkBQ4TACoeInKALspw2zR0iN8iTqC1HyJOlDYIsTAY0se/wUzg7yfEBhjwHyGuFnrI8I4BIQ16+siw5Q+4AedjMEqOTE6S5RSUIchgyUCqtGtNwmYOO5/Q4CAEvDj60JeDBGXIXyB0drxWkTianR8eW8nscjACdonAOhSByfjwnyNwf7cM5EzDh/BTJ1Me7K64es5VgKXcnJVPTVnKBPK/H6y5ZThgtJUg7JDnkuPtDOwBE7SvJCqcngxtNns5WiwE93s8BqLRPcrQVdX/Y9oRqhSQLgzUdsJVh6hxlzlABOZoHZCvECncpOUW+SszdoqYEQLfvE1o7qavIFIia1hsMFW6Ng04bUJRKAqMciujvcGMuD/sGKhYGy+AotQMMwIvCUlodljs/HANeHGCotX+CnnxsASCpD8cciPw6qHFyqPXcyfXxse7yGLQACQZIGgJLAIQLBAwxB7VCEsDTwXXiVqUVZdS+TeK1rkK7Ko0aLuN9pSX0vu/L5rO6SKLGtUqlAcAiNOcwlRycPIRWjEvhM0DI+zfxnjquCrW2J8AxGLKl8gWMqLuTgU/qC3QoFBX5OzauCIGlfCLP1QFcbocWS4wuwmll4S8HJb8WH89c5Q4Rx7RfOo/n9TjUqPuUoAMwycNWvk/fHIZ8rAOP1jhCPWm1V08JuvR8af4SoGQwphCU+gM8Cke8D5tLASiFxryN2qEGV8jhx477NTAXAMPcCYgSePlyefq7q6RtvIduHB5bQWYrxmwO2rwARhTAyCDJQMihqAihpcRogyCHIRygPCxWcozKYajkDFnoqwh7eQguuUDaXsCPO0PmGim8pJBXK05LghoFmbKEaQcd75Pv4wYtzxwhhSGcIIcghaK0RF5Xil2RJZ2lROhScrQlRrNPYrS7QjkEqQukq7xwewyICtfH84QUai4pMPmx5VxPyvcBdDyB2pOjy/OHChhi1VnKEXJHSKGnI4W+cvDJASkBj7k9tvTec4N0lVhHqc3Bx47jChE+K60mA3zc3XEoIjnaQ2O0aZ9sJRgOkB/Pwce3HX6orc3zglgWf1YdohXMyzbOUJu1kyztkOP1YChKrk4CoRVlq8Js5ViWHJ2OqzuDs1PuEiUXSEEpuUQKTwmKGKfAk1aSlVaJlUJiuDPLUujLw2OWH9SteUK2WsxcIA15ZUvsPSwGFC1NS+VZLk/h2DJdPUYOEEvmzekBWByAHIKoFx8h5MWqr3at2fY2tpccwfUBakqFdi/l7ew3HWjT4seaFYpsfPNBHKE2oaYdJ8jDZrc7RqU8IU2e9jwhdYRwgQx4DIg8r4gxdswSqNfLzIa1WmqmbO4rXKCSO2TOkALQKQtrORw5CAFDdacJe1lfhxXb99CXwY87Og43DkFeOyhR01YAU4IcbcucoIYzfMl7SMzGOKDYeEJ1BkOARQlUSo4Q/bxd3Z+UE8Qzhxx+mtIqMAWt3PUZBD8GTMyl/RLAmMsDpAFSnKsER3UdCY4SpORwYzCT4EXPmWAoAVFTtzk/Pn9RF04TobxrCkAKQyRVK4QBOuYmWajMoALXyZ0XrbtwNAxeHDyAocYEJgWwFHBk4TOgpb7jssJLATOFg2N5QIzVsFgCGrY9NKaJ0AopBlN67hR6Y26fk20cHQW0lO+jcOPhL5wWBRneB9CQQEX7lpwgB6LBAGTuTDN5UQmEgBnmaE1OlcENS9wNeAyObN/HeH+HJa+L4w4tBWw5KDFP2tbzGkzh8LR0kcNjS+F9W8FIHZ7k6KQxDlGAEGMGAxF5QZlTlLbNITK3CPghPNbSfUWLOjophFYCmswlAuAUuDw05sfMGfIx1FauyOIi5HV10HYpLJbgR2Enc32y5wvlMOSQtATHpsz1KfY9dJYcJQ+P6QoyhyBqdX8ccmzJPZBkrpDtO/RYnS+bH7w0XkNhgMltsEPSNHCVVo9pfo+5RwZD6Xga6+MBHl0RBriwxB9gKnOKACENjZ0+r+Exd38AIy1ppVieSO3ODzXhMguZUZtLxL4CVnKKckjKtzV36PRZWQKMFKvBzC0CdHCEtE7g46DkThHHBsOP5Ql5G7XmCZFPVCRMEwo7K8szAMIRWsJKrQRJnieU5/2Yq1N6dpBCjS97T0ADxLgr5MfdFXLnR52eBDZ+zNtYNVZsZzlB2pbCZe4aafgsJT9r+EudnlJoTF0ijntYjFwgnieEawTUpDCX5wUV7lBa9aWQdNyX1ZtTRBsgZOBjYGTJ0pZT5PADuGg/dX4MjoCi22DoILlBBkPm+iQ36BBQ46DDs4RsnzaFIXeJ3DlSELJQGTDkobUilObhsxQKMxjy0JmFwxr0WUI5EDkgec1qsvUaKsMdqnloY2/hAtUS/kpFHZ8UCtM2nCINo5VCaApPbaV98oscjnS85iFd1jyiQYCjLlByifKwWHKP3OnROuUTOWw18mDFFEIDaAY5SeromKNkYJLCYB7qSk6Rgktye+iXuz/qJCU3yWGpmEvdJZKwyxyh5BSpW5TAA/ixfXN3dFtDaaWQGLAC3AyGFjueH9Nt+rrDAxhpsb4aFkvHvI+P4RjApJCVj0/zaT/gJIXDgAyAQwEICMpDZR4yy2qFE3dr+OJNzyUymLH8I9q8ONQoGDkUAUEKPgYruBsezspdG98e3De5PB72SlDEHOqSAEOp+HgAKN8ugAhYK0AoJSL35iGqwQ6Qu1LUzEdxWPLaz+1A5PPTnm8DQdbX8pzMHTK3xqDHkpwVbrpwYszNAVy8FE5Pco4MagyUOGbAYrU5QAZG+fyeTM1YYMhCWwY3mmyt4OMPTKQ9AVBq99AZNYnPwI8nQluIzEJgQM+y3utaHIDojyukdZZD5PlApZyi9Awh8mqyxOh8uwCgDHxoo4+HxNgHohSGshwhzRVK8EOozHKHCINRHGCs9lVlGlrjXA43KUmapGvPDSqW06djJFYrEAE4PBjRl9v76q8chICfBD4OQzkEATwOQaVwl0ENAMRxgEadovx5Qr6kHtcmFQUh+niYTVeMGRix5N5XjuEEmRtkq8c02TmFtizPJz3/JwuDKfRky+vdDXqX82UukW97fpCHzajd8XkXMAOCEhjhCrkjRE3Oj+/nzxTSZwelMJjmD3mYDGfIXZ4UzvJ9QMgToh14HJJo95VieiyFuTSp2fOHAKHyksJl6hLx4MMMbjw5GjcIyCmcoJTbAwAV/RMcGeykJOqUK6RgdDQlTh8tOUmA0uLDHeoUAUIUQmTuFJFcTTGHB/fHk6ItSRrnRkGJpOn8eUEe9kqrxHBzCpDJVoDl4S0/bsnR7dKSu0EJejxERuIzzo6Oz0JglcJhmiuUltCXH8c14jgQhDM0o36N1DywoVsWtl3Wkrs/OQwBSb7vsKR9y9t12fxlA6LimAOSJUYXLs8ZVqexssyOAxyAiAOOQw77RVI2OUIpNObHFZLcNeokUdsAySAn5REl8DEgscRsBx0DluQeubvjeUApFKYwlEJmOs7DZMl10oTpdFydKHeRyqGpCIEBU6Xwl4OLg4zCTYIkB53iWAq1eSjMaz1ewT0aBEEJgNxN0vOm8+AaWY6RAVABQQmUfJ8aoKHOtwvIyRwkHVOAUikZ28d7GMxWfnF+gyCt3elJeT2MceDQEJfm2libgxNAAQA1asJ2miv1A1gcenwe31cwURgpAQnwQju15e+UoMjOlydSJ7hyBynNpW4Szk3+XCCd16EpuUu0pfOpC6SJzTwM0UJaywY+KYAHSHFnxxwic3/IC6K/OTwlAHLQ0ZVfrDpL8OT5QjZfCqPpMVtF5lDktfYrnh/kuT8GQsCOL3/3nCCvFYY0V8iAyiEJ6MlhyIGI2oo5QwBL6VlBllNUgE7K8QFmFGoS+DjkeL/bIIl+Gv6IYk4AACAASURBVFIrhdmKEFgXS+GvKvjQBuQAQQo1GQgVoS+ehwRoJGhyGCrqBDrsM0bDZ2m1mCVWl1wjHCl1fpL7s5SwFHNnUFQ4TWnlGMc8fEYekPbPwmAOQQCOQg7zeW5QATsl8HEgKoHQBVkKgBRAxP7ZAojUOUp5QqUQ1+AQGe2aGJ1ASfcBl5TwDODos4ZSm4GQPTBR4Se1Ex4jiZqEaJyfwvVhSb6Hx1LyNO6RFhKRT6bVZGllWQFAZTlCRWJ0AqLCCUqQxL63FXUGQrg95TDk+T8ORpYIbau/Bh1Ljo/CC0+JTs8J8idH25OhE8xkic4e+iLEVQ5DgI25SOmYQlNKrGYOfaBiSm4mtKUhMaDIQmM4PIuPpJCXPiMIJ8ifPG0PTASINA9I4cccH/bVHeIp1Gkbl8gACLfHS3sRAnMAAlqKQr8U0rJk6OxY1k/zgRyMqCl73f2xJ07TpwRE5hYBQx4iM2dokzlDAFEBQ+4QJdenDocohcvUDSpAx0Jo2qZ9U3jMQ2eaWzQ4VKYOkTs7Kdl6UBvhKwUem8sdIWoHIbYb/blCRVK1OTH5XD4P4OTQ40Ck8JVylwAcBZoU/qKPA5DnDdHH51Dg8ZyhtMKs6FcAj+X+aE6S92ElmYfG1Dm6UoS0vD0HFG0rXCB3g7hWD6MNhqpyMNLQXOYAMc6dqHwOztnSc7M4Biw5GHlNOI3wGYCj7o+7QwmWKsFQ0Zb6MM6gxpwohynPAQI+ACT6FCDFeRSEgClzX4AZgASAAJw8tEStoJQASre1n7ktvk9trpG1F45MFrYquTYGSA5HCk7Mn4oDk9fW75oeNxiyEBvtWrKVZ3kbuUQ2lvdjgOMwBOA4xCjwpCdCexjMXR8HH2qcI9svOUiASJ4HZKCSHqSYQMndID+fnjs5RPR3JyjfNhhKYKTg4+Ew6+9gpK5RnheUthV+UtjMkqAtT0ihxt0b76u5ROnJ0snVyWEIKFL3p3hadMkNMkfIE6UvyeKui+oK0a6rylLitLk8pQRqYAcYsoctkjuU5Qapg5RyiQblA5lzZKBkIS8Lf1koDBfI84cAHM0PKiAouUkZBDkQLcHJSYCk4MO2Q5C3O+Q49DAmhcwsNGYujwMStYfJrM1yf0oAhBtEmwGVtiewWZZAx4GH2rcVdsjXSQ9O9H0DHM/7Scvsk7uDU4TDRK0rwxgL4DAPz/pJ7o8eS1Dk7o/WOSi12RzAkB2zn8wAenCNdLVYeoo0bZ4b5I4PYLP0ZOl5QbqPm5OgCPhxR6gIhZU7Qb7vdeYOKQzl7SnkhStkMORL5dNS+JTzo6Gx5BBZgrOFvBR+UkistI3bY/lAy/iZD4Um4IifzbD8H0JgecjL3KBS3s9ifTgiD0CkzRwiC5uV+igUEQrTXJ9TRY6R5wVpfeCUtFA0RGZ5QS0Hra2ZPCJ1fAyA2KavOTgnpGm/OUJWl0Jf9CsV/9mNBEMKRAZDhUvEsnoKy+33nChcIYWhaVv6BefnnZOXFIYGuUBtVwQQMhi6ov3YZszUzX1FzfaUTb0ydUuvTN/WJ9O29sv0rQNarG+vTNtye5m+lTmsfca2fpm5Y0BmbGestc/Y2ie0z9pxVmZuH5Cpm3u0/9StvTJr1zmZvr1fpmzu0XMyhkL/6WmumYzbMSCzdp6VaVv7dHva1l6Zsb1Px1BzPq+59lk7B2TmzgGZsaNf6zm7OU+fTNvWq8dm7zonFPpo3x39MmvX2UHbjJm5o1/HMQ/H5+w5L3P3XpA5exjP3H0ya1e/zNlzVmvfn717QB7ee07bOebH5+wesO2dfVp7H/ozD4VtH8N8vs/5fN65+87r/Iz344yhnfrhtM0+xyl+nfP2X5B5B87Jw/sGZO7+s0VN2/yD54tj8/af1eO00dcL+wsOXSj6ztnbXxxjm+PMO//AOWEOH69taa75B5m7X+btH5AFbO/tkwUHzmqhbd4BKwsOnSu2aZu7r0/mHxgoCmPmM4eP3dcv8/b1yyMHz9lce/v0OH1op9h26XzzUxtz6PEDA/LooXPyCNe1r0/m7evTa1xwYEB+cOSCPHLorJYFBwfk0cPntMw/0K9tjx4+K48cHJAF+/rkBwfPyiP7++XR/f3y2KFzMn9vr+7Txj7HHz98Xvuy/yjn5Ryp9j7082OPcp79zNMrPzjYL48e6NPy2KEBbXt0f5+OfwQNitInj+4f0H3mfvzQgDx2kLZerR872F/s05YXO9YvPzjAvL1aP07//b3y+P4+eeJAv9ZsUx7b1ytP7O+TJw/2y1OHBuSJA7T3yhMHKLZd6tsjj+/v0WNPHugVyhP7e+Txfd1aP3WwT7cf29slFI75NvWT+3vkB3s6tQ9jHt3doX2ePtQvT+7tlh9yDft65On9PfLk3i55fPcZLT882CtP7++Sx3adlif2dMiTezvlqb098sTuTnmS/VSe3tclT+3tlMd3ndY29p/Wvp3yxO4z8tSeTt1/ek+nPLnrjBa2KU/t7tB9aitn5PEd7fLEztNaHt9xujjOWNqf2k3dLo/vOCVP7zojT9O2o13rJ7efkie2tek+209tbxdq+jy9o12eYntHuzyT7T+5rU20bG3T496Hfk9vb5dndpySZ7adlB9ub5MnNx+XJzYdk6e3ntA29jlGoY39p7d8LE9uOiZPbflYnqEf7ZuOaf3DrSflqc3HtdDONv19zNMc23RM+z+x8ajWT286LpRnNn0sT244Kk+sPyJPbTym5YdbTsgzmz/W47Tlx5/ccFie2nBEqJ9cf0ie2nBYnmZ73UGt2aY8s/GIPMXxVDju20+sOyAU2p5ca+WJj/ZLqeyTJ9cc0P3HV+8bVD9F/48OaHli9X6hPMnY1fvk8VV75YlV++TxD/fKYx/ukR98sEdr2p5ctU+e+HBvUbNN+cH7uwbVj63cLY++t1Me/2CPHuP4I+9ukx+8v0MeX7lLHnt/hzz63nZ5fOVOLY++u00eWbFVC222v0X32fbjC5Zv0bE63tuXbxHaKd6X7fnLNmuZu2SjzuP7C5ZtkflLNsmCpZu1nrd4o8xbsrFom9u6QR5uWS9zWzeKHuP44o2i7c3rZU7zunR8g7W1eBv7G+XhFsZvKIGRL7enTuDTsBcISjCUoIjwGEVhCJABcNwVolYgSvlBup/lBeECATjxCgVCgVAgFAgFQoFQoFoUaNjzceEm4SrhJNmqMn6Y1Qp9rJyQ6bUfyYzaj2RWw1oSqHssH4jQlxZCYqUcIQcjdYcUmi4LY+IVCoQCoUAoEAqEAqFAtShgK8jMAdIQ256PpX7PcQWiprTUvoCh3R/LzNrVMqvuI61rHtzQVQqPpWcLOQBRu2OUbwcMVctHH9cRCoQCoUAoEAqEAijQmC2nt5AYLtBxacQx0nJCGjVUZu7QrLrVMrv+I6GumbqxV2r9AYttV2ThSRKpPZnat702x4jQWrxCgVAgFAgFQoFQIBSoFgWa9hrsOPBQA0ENux2ISvsNu47L7DoDoTkNa6RmWhkMFTlCCkiXEyhdlkUnbRuHaOqm3mp573EdoUAoEAqEAqFAKBAKSNPek6JAlDtBt22fkPpdxwQYmpXCZApDUzf0SG0GOhoiYxUZSdPUp67qtte04SbFKxQIBUKBUCAUCAVCgWpRABAaGoZKDhEwRJm+8AOZsWi1KAxNWd9t0JOBj0IQMJQgCTDSksBoesBQtXz2cR2hQCgQCoQCoUAoIJJAKAuF7T5ehMgIlXkBhOp2HpMZiz6Uae+slJkLV0mNw1ABQITHgKBU2PZ9gKi+/apM3xQ5Q3HnhQKhQCgQCoQCoUD1KKCu0O6SA+Tw47XnD7FPsvXM2lUKRECRwZDDTwqNKQCduFRAULlDRGgtXqFAKBAKhAKhQCgQClSLAqVVY756zMDIYchr+jXtOaEgpKvJaldJzUPrumRRAT4WGlt0IjlDHipL4TLcI8BoWsBQtXz2cR2hQCgQCoQCoUAooEvrgSALkzkYOQBVqt0Zmokz9NBagyEgp+5kyhNKMFTkCp1MCdXqIF0JGIrbLhQIBUKBUCAUCAWqSgEDIIMhnB8KbYNASFeSWQL1rNpVMu3t90VhaEqCoTpgiETpk1fUKao9UdqnLS9T13VXlQBxMaFAKBAKhAKhQCgwuRXIYSh3hhpTHhFQlMPRjIUfyMyFH8psfejium6DnwRDQBBhM2pPonZQ0v0TlwWAilcoEAqEAqFAKBAKhALVokAjsJOKgs/u41K/k2cKWdFjmVOEMwQIza7lCdTrugeBjwNPDkMWQivBUThD1fLRx3WEAqFAKBAKhAKhAAo4AGl4LC2lB4YUiMpAiTZgCHeIOsHQJXOBcIM8XyiFxnxfa0JnJ6/I9A3x0MW49UKBUCAUCAVCgVCgehTwMFgRCkuOkDpD/swhah66yHOGFn4g099ZWYIhD4stOnFRFn18UWpPXJL6svwhc4csdyjCZNXz4ceVhAKhQCgQCoQCoYBIAyGxzBGq23nUQmRl4TKHI3WFFq0yGJqyptPcIHWFLhUwpHlCrB5LbpHvUzMmXqFAKBAKhAKhQCgQClSLAp4bdFuduUE4Qg5JuEIUXU02bW2XFKCTgKj244tSp0nUJFJfkjoNj122+sRlmR6ryarls4/rCAVCgVAgFAgFQoGUM+TOkIfCNF9o1zFp3GXhMW/HRZrx9sqi1ABD9eQHOQglCHJAAoYKIEp9ZqyPJ1DHnRcKhAKhQCgQCoQC1aOAJ1ArEKW8IA2d7TwmjRRyiFJCNfuz3vlA5ixaJTPeel9qpnzUUQKhlC+EM0RRSNKHMZI4ncqJywJAxSsUCAVCgVAgFAgFQoFqUQDQYfm8QhFOkAKQ1fU7jkjDjqNSv+OoNJBLtPOYzOYZQws/lGlvvGswpPBDOAzg4TlDxy9oKRyhk5eTe2R9whmqlo8+riMUCAVCgVAgFAgFUIBQWA5D6gaRVA0A7ThqoTKFIQub4QzhCikMkf+jOUGsIMvCZeU5Q/UJlOg7Y208gTpuvVAgFAgFQoFQIBSoHgVKobAjyf0BgnCEjmiIrIlnDQFHO49qDQhRpr/5ntRM1TAZSdKWKF1PsjR5QscvSt3HVus27R9bv+lrIkxWPR9/XEkoEAqEAqFAKBAKNOwEggaXuu2Hta1x51Fp0kRqYMhgaSYJ1AmIaqasOmPOUAIdBx6tadP2y6KQlOBo2kextD5uu1AgFAgFQoFQIBSoHgUUcpIT5I6Qw1H9jsPmEu08IoCRJVC/L9PeXCHT3lghCkM4P4uOXTA3KDlDFjqzHCJziy7rcfpGmKx6Pvy4klAgFAgFQoFQIBQQhRyFoMwdAnxowyECiCjeNusdQmQrtNRMW9UhtQmEPBwG/NR/TLkkdcfTc4aSK0QILcJkcduFAqFAKBAKhAKhQDUpAOSoA1S4P6WcIXeKHIio5yz6QGa+/Z7MeHOF1MxY3anQA/wUIbGPL0tDAUMXDYhSDhGOUYTJqunjj2sJBUKBUCAUCAVCAUJi7vzoM4V2HJHabYfUFQKGHJQadhyWuu2HBGdo1tvvyex33peaaR+ekXrcH2Dn+EV1hAAhL9p+zI7VHruoobLpkTMUd10oEAqEAqFAKBAKVJECHv6ibiRURliM8FgKkdVtO5RWl1n+0OyFK2XmW+8qEKkz1HDC4KcO6Engo2B0/JI5RFpfsmPHLsqMgKEq+vjjUkKBe6/A1598Il9eunjvTzzCGW99/rl8df36CL3icCgQCnwbFbDcIAeeEgzhArkb5Nvsz1m4UkNk099YLjXTV3WoM4QTVLhACYrcMSpcogRKuEnxCgVCgUmowNdfy7X166T9oe/JmXlz5IuzZydMhK9v3pSbe/eIfP31uOb8/HS7dCx4eMKva1wXE4NCgVDgniugoTCW0uvKMQuF5fDjQOT5Q8AQzhBFYUghiBBZFi4jqdpdIochPz5jVcc9f5NxwlAgFLj/CgAs3T/5kZz813/S0vuLZwU35k5fzNv321/Jye/8s/T/8Xn5+tNPxzTlrS+/lIEX/1RcV89Pfyxff/rJmOYo74zDdH37Vrm+edOI5cbuXbfp8OnHx0cc53N/3hWPKynXP/ZDgbEq4HlCOQwRImPfawch2oAgkqcVhmZ82CENxy9JvYfIjl2wfXKIjhkgcbzh+GWDpWMXZdrK02O9xugfCoQCZQr0/+G54svb4eJu1ace+E/5rO1k2RWMb/ezU23SPuX7du3f+We52NoscuvW+CZLoz473S7t0x4s9Oh88jH5YmBgTHN+eeWydDw6b8KuC73QbTSfyenZM24LG47l873Y0jSm9xqdQ4FQ4HYFGnnG0PbDQm4QjpAXgyN7ErW7R8CRg5CGyWau6lTQaWT1GAnSR8wRqj9+UaEIEPJcIocixsQrFAgF7kyBsXxZjuYLebg+EwlDvOtrGzdI2//+VwWFU9/9d/n0+LE7E0NEcEcIc/n7AI7GOi9ujANM2398R27u2zvu6woYGrd0MTAUuC8KaOI0T5lmib1D0bZDyRWyHCJzhiyEBgx5qZn+wRmFIAMdHKDkAhVOUUqqPmqQxPFZq+PnOO7LJx0n/VYp4DDU9p//JjgDHjIZqj7/1hsFKPQ9/7sR+zMP/YCLkWCIkBIJ0aMtX5w7K72//oUAHJdam+XLC+dHPXa48NWXly5J1//3dPE+ue4bO3eM/nO/dUsuNjfq+LZ/+xc5v+idcecg5TA0lHPjn+FwzlD3j39YMWSH1ozj8xlq/tG/8egZCoQCOECsImvi1+r1YYsGPQpGOEU4RqnUbzsk019fLjPfWCEz9TlDH3YUzk8pVHZRASnfr0swRNus1eEMxW0XCtypAv5FOhKo+Hlu7NheQMJovzzpNxoY8n7uytzNeqRrJ1en52f/VbzXjgVz5cuLF+WrmzdGBVyfd5wRAIR8n1HB3eXLQs5R+StgqFyR2A8FqlsBW05voTLPE7IE6iPmFG09KEAQ4TSFob8tMxji5zhwhgiDER7zAvA04AwBQEcthwhHSMNlRy9IhMmq+4aIq/tmKBAwNPTnREJ1z7M/kTMPz9LwGT1dr4kGtaFgNGBo6M8njoQC1agA+ULmAqVnC/FcIcJlWw8p/ABABkOHtR1HaNab7yoQ1cz8sENqj5xXEAJ4AKFBMJRyiEigpgBHkUBdjbdBXNM3TQH/ch/qy7j8/dwrZ4hw3FChuvG24wYRDgRkRnKG/H2zouzLy5d9N2CoUCI2QoFQoJICgA+ujyVSm/tDm5dyKCJENuP15TL1r0ukZur77YX7AwQVThDb6hadt7Z0DHBiBVq8QoFQ4M4UqFYYArom+jUal2Wkc45mqfrVtWukY74lYY82F4twWqUHNY7mmv0zjJyhkT69OB4K3H0FNGcorShTAMq3ExQ5EFFP/9syBSHqmmnvny6FxHCBCI05BLF/5EKRYN2o7tAlmRWrye7+pxpn+NYr4F+k1eYM3Q8Y+uTQQbm2aeO4k539ZiE5m3whHKjR6upjy+uAoXJFYj8UqG4FACAPhZW7QcCPlYNSu+WA1G09qDAECE17banUTF95WmoPn5dFh89pnTtD7hRpm4fPWE0WzlB13xFxdd8IBXIY4snLIyX7Xl2zukgqPr/w7RH7Mx/9RgMGeQL1vYahT098bM8t4oGLf3hO+KmP8b4ChsarXIwLBb75Crjr4yDkNYCUw5AC09ZDMu2VxTLtr0s0VFYzk6X1OECHz2upPWRQ5HlDDUcv6nH6sE1i9eyAoW/+XRPv4L4r4DA00QnBleYbySW5nzDE0nmuz6+bZw2N94nMAUP3/baOCwgF7psCwE/u/rDvK8dwgswRSsvrtxyQGX9dKjNfXy5TXl0sNdPfa1fIaWQFWQY+wJECkEOQ10cvysz34wnU9+3TjhN/axQIGCp9lMAPK8cciICj69u3jfnJ1gFDJU1jKxSYbAq4M1TPD7MCQpondEga1Bmy0BhQROHYzNeWyYy/LpGpf10sNbNWnpEGQCcVd4i8Bogaj10ShyWAKWBost1i8X7vhgIOQ3zxT+YwmWtb/sBFHpp4oaGu4jOAfEx5HTBUrkjshwKTRwGHIQuPHSpygxq2l5bWmzt0QBq2HpI5b6yQ6a8ulmnqDL17ysJfhMBSuCwHI90+elFhCCgCjqa/e2ryqBvvNBS4SwrkMESy7kive7W0/l7nDOXvm+X0/c//3hyicfzu2Z3CUB4udJfqXtcjhTRzvWI7FAgFSgo0bjss9VsOKug08owhXKAtB8whIoF6CxB0UJ0iYGjma0vVGZr2SqvUzHivvcgJKkJjWbjMc4UchNgPZ6gkfmyFAuNVoFphiETtkZK5x3oc58vzgkZ6zhBPgz735t/kQn3tmFwhPoeAofHejTEuFPjmKwDg5KU+gRBglMMRfdifzc9x/G2pzGJpvcOQJkdn4TJ1hA5bYjXbQJDDUsDQN/+miXdw/xWoVhi6207ISDA03Ccz0rOGxvqcoRu7d8mtzz8vTknukj9Ykuv0B0UO9Vtw/jtq7VO+L1c+eL8Yyxx+jOcecV0+r9f0Zxx6D5p/iOceFRcZG6FAKFBRAQOeHIhwiQ5K/dbkCCksHRQgiYIzNO3VVg2V1cx8t13DY/UkTB8+P2jb2xoJkx25qMfrDp0XxsQrFAgF7kwBh6H2h74nn50e+d/UvQqTVTMMuWYTdY2VHpbon2o8Z8iViDoU+GYo4K4QUGQAlINRCptt3q/hMkJmhMemvNQs00mgnrHilNQeOCtATsPhlEh9+ILCjzpCtKWisHT4gsxZGU+g/mbcGnGV1ayAf7EP94WcX/9dhaHGenUoRpvMfTfDZPl7Lt92zQKGypWJ/VAgFHAYUjeIBysmB6iSY1S7aZ88+GKjTH+lVWZoAvXyNqk9eFYLQDQIilhJdsQSq90lApBmvRdL6+O2CwXuRIGvP/tMun/yIwWQSiEWD6XkNb8Z5hAwKKyyedNtIRgfRz/GjJSU65AxUr/xvufRuCw+9xcD/frwxU+PHb3tidQj/XL93/t6peuZJ4v3POIqvSuXbzuHX8dortl1qwS0fownYpPLVP4CKBnH53MnocPyeWM/FJisCmhyNAnSWanbvF/3AaImX26fIMlBiFqdIXd+ACHAiH2HIOCHMFnTsUvSpOGyCzIrwmST9V6L9z1BCuSJvg44d7MeDnJuffWV9P7ml/qlXOlLfYLe8qin4flCJ7/zz3o9Ay/9edTj6JjrOtx7Hs2kdwJDOewGDI1G7egTCty5AuQBldyhFBZL4OOA1JiSp+mLIzTt5RZ1h2pmLDspjRoGOy91CkKEy85nobPzUn/onDRoGO281rNWxNL6O//YYobJrMBXV69KxyPz9Av/bkKQzz0cGPDzF57s2/nkY/LVjRv39aM5+9eXTZfv/LNc27BuTNcyoTB08kSxAu7KyvcqXoe7P+UQmV8HDiBwVP4KZ6hckdgPBe5MAQceX0JPXbtpf5Ew7WEz+hEmA4SmvNSkdQ1gk4OOAtGh2wEIYGpktdnh8zI7nKE7+8Ri9KRX4MsL5+X0rGn6pd/7i2eF/ZHycO7Wb5Pl19Lz85/Jrb///b59PoAYQAbEnZ4xRb7o7xvTteQQMhwAjmbSPEdrqGcvDQVDOezSp9IrYKiSKtEWCoxfAcsNKq0WUzhKzhDhMl1Ftnm/glABQ39pspyhmcvbDIbc+eE3ynCIEhCV3KILyUG6IOEMjf/DipGhAArkIZiBP/9xVKLkX86jzTGhH2AxHBh8cuRwsYQcV+Z+vj49fkxOffffDRJ/80shhDeW10TCEG4Q2rG8Ho0qvYaCISAOmGP8+XfeqjRU4TdyhipKE42hwLgUIASmOULp4YoaNkvbHAOAajfukwbathwokqenvtQsGiYrgOfQeQUeD5sBRGw3kUTtbtHh8/Lw+2fGdaExKBQIBUyB61s36xclX5aXliwelSx3C4b8S59rubpuzaiu5W51cnjjWoYKTQ137omEIQ/XtU99cMgfjh0Khm7u3ydt//tf9TMeStNwhob7JONYKDB2BXCCgJ4CghL0AEiAEHXdpv0KQvQjZ+ihFxstTEbOkIbJgJ0DZ6Xh4Dlp5JlDh84VuULsax+OHTovs5a3jf0qY0QoEAoUCuAW8IVPojAP/hvN627AUJ48PZx7NJrru9M+PPyw59mfqC6ssPu8Y+z/6ZooGMrnGS6PaigYAnD5fIdzlQKG7vSOifGhwGAFclcI58fBCDgCgrwARhwnZwhXCCCqmbUshckOnlMYAog0P4ik6oPnpAln6PCF4hhQNGfFyA+IG3yJsRcKhAKuwNc3b0rX00/ol+VY8mLuBgyxjN1zl4b70vdrv5s1T3/GhQEihlqBNdL5c4i5E7jLr4XHE8itWxVPXQmGcsA8M2eGfHnhQsWxAUMVZYnGUGDcCujDFhP4EA5TOErJ0oCQu0N6bNN+mf3qEpn51yWWMzSt9XjhCAFCdQfO2j45RAfPaanbn9oSMM1eHqvJxv1pxcBJr0CeFzOWL/27AUOEcNSh+td/kgu1C+/rZ5OH64bKsxnpAicKhnJdhgvXVYKhHDB5ZMFQeU8BQyN9mnE8FBibAk3bs98gA34SEGniNKvKNh8oQmV1G/fJtBebZMYrreoO1cxcakvrcX80V4g8oVQ8NAYUaQgtteMmxSsUCAXGocCtW3L21ZcKABltIjRnmmgYyh0qkpaBtPv1YgUbK9lGCi2NdH0TAUOjDdflDlC+tH60IBUwNNKnGcdDgbEpQOjL84Ko3Qlq2HxAKAAQgORlxkstMvPlVnnwzw0WJgN+gB0NkSnwXJCGAwmANIfIQmXAEX1mLjk5tiuM3qFAKKAKfN7RIe3TLBQ01ryYscIQv/7e99tfK2BUChnx46H+cENydfIfLL3XH1celuL5SyxN91f+vt3Fmug61yd37nJdbu7ZrU/GHnjxT0LB9Wn7j++ovjyniec15YA5Ugg0arElSAAAIABJREFUX3E2Fih2XaIOBUKBwQo0bjmouUCeG+Rg1LB5vzSSTI1btGGv5g5RT/1zo7pDOEQ1M5eckLr9A1rq9581CNKa7VLIDGACkGibvTScocEfQeyFAiMrAJz0//H5whXq+/1vhwyhVJoth4L8y5MnNvf+8r/1C9q/qKk7H3ukgJ3yFVFfnD0rZ+bNMSfmf/+r8EV/P1+XVywvdEGjPEcnf98TDUE+n8NQDpCAYv7Qx8+yhzD6OK/982CVoK8iyz/fmwf260o9/5kUan/qN3P4+Pv5GcS5Q4FvugIKQzhAKVka+MENorBdnxXaZr2yWKb/pVndoZrpLccVchoPnhctCj1nFY5KAGSryBoPWAhtVjhD3/R7Jq7/PijwyeFDxfN8xhOWyqEg//Ic7kvav6x5sGPh/Hz99aBQ3aBj90GXPCxVDiBczmftp24DvRz6JmL77GuvyBcDA/LJwQOF29P51OPy1fVrhSKEtfjds9Mzp0rbv/2LgiYJ0oAcEKVP8v7hUwp15Z8vKwbdhfPPxOvyvsUJYyMUCAXGpIDDEC4Q4AMAER5jG/jRNkJmaR8Qwh2a/hecocXmDLnrAxDh/lA0d8ghKdW0MyZeoUAoMEYFbt2Si63N+qV47rVXB7kfo5lpKBjKc0/8C7aov/PP0vOz/5IvL10adAoAinAdobrPTt1fp5fQEnB3eua0cT11etAbu8MdoIZEcsJfuDxjffF8ITQlPMlc/sofsll8Nv/6T9L+0Pfk2sYNY74XfN6oQ4FQoKRADju+Ta2hseQOOQjRTr4QQDSdMBkuDyDkEOShMqBHtwmZsZpsv7lFAUMl4WMrFBirAnxBXmpt1p/fGOvY4fqTgAwUlRcSiod6AURXVn041OF7337rlroreYjs3l+EKJigTQ4zY7mOzzs75O89PWMZEn1DgVBgAhQAdDQ3KLk/5ArlITK2dT+14whNexFnqFlqZjZ/LI0JeIAed4jYbgSSqNNxDZMdPC8PL42l9RPwucUUoUAoEAqEAqFAKDBBChjoeFhsrzRs2ieNmwmVAUV7pHbDbqndsEe36zaSQF0v015skOl/aZSa2a0npIkQWIIeBx8FI4ekfQMFEDXsG5C5AUMT9NHFNKFAKBAKhAKhQCgwEQq486P1hj1Sv9GACAAChAAghyJqYGjqn+q01Mxq+Vjq9w1oKKyJBGmW1O+1/ZIzdM5couQUMSZeoUAoEAqEAqFAKBAKVIsCAI4Bz16pcwdIQcjcIAOi0va0P9fL9BcpDVIzo+mYwRBAlKBIXaID5wrHyNu9fnhxPGeoWj78uI5QIBQIBUKBUCAUEAMhhSAcIHOBNFS2hWX1+9Qpwi2i4BbNfLlZXaEpf6yVmjmtJ9QVath3VmGoyfOE9lmukLpDqU1haN+ABAzFbRcKhAKhQCgQCoQC1aRAPQnSGyjmDAE9RVgMSNqwR/OIvJ0QGSCkMDSr+bjCEG6QgxDQU7+3X+HIc4kchKgBqHiFAqFAKBAKhAKhQChQLQqUQCg5QylXqH6j5Q9pmCy1LVq3SyGIUNkMEqgVhjxElhKlASCHIc0jSvsORgFD1fLRx3WEAqFAKBAKhAKhAAq440NNYSUZzhDgMziHaLfUrt+tITLyhYaFIcDH3aB8m7bZkUAdd14oEAqEAqFAKBAKVJECvpReE6lTSMySqs0ZUiBK4TLaASFCZApDswmT4QilHKGm/eekEado74A0ETrbf1ZaDpzXwjZ9cZPiFQqEAqFAKBAKhAKhQLUogBsEELkz5Nte+/EGfrl+3W556PmFMuWFRTLtj3VSM6fpuMJP494BoTQBRfuszmGoef85BSP6zGo4Wi3vPa4jFAgFQoFQIBQIBUIBBSHAB9hxIKLGBfJ8obr1uzVkBgwBQdP/VK+lZnbjsRIM4RAlKFIgSs4Q20XZOyCMiVcoEAqEAqFAKBAKhALVooA7PxYO4yGLtoKM/KA6HrpIiIztBEQz+SmOP9UnZ6gxOUMJhBr29IsXXCJ3itwZ4ljAULV89HEdoUAoEAqEAqFAKIACDSlxGncI8AGCalPydD3763ZpeMyBiBDZ1D/UmjM0q+6INO7pTyU5QLo/II17klNEnblD81piaX3ceqFAKBAKhAKhQChQPQpYeCw9YVpBaLcAQY2bLEeI0JjDEUAECDkQ1cyuP2rQA/AkVwgIcleoibDZngF1izR0tu+sBAxVz4cfVxIKhAKhQCgQCoQCouAD8PiqMUDIQ2NFe3KLPGcIIKLUzKw9rLAD9DTs7iu2HYLUHQKUdpt7RPvcpvhtsrjxQoFQIBQIBUKBUKB6FAB+CgDK84PWm0PkYLRo7U51iNwZYlVZzYxFhxSCACEvBQDhFCVAyt2iOQ2RQF09H39cSSgQCoQCoUAoEAp4YjTQo1CUIMgAyRKnDYQsXOYwpEvrZyw0GNJQWAKiUg6Rw1CWU0QCdX0srY/bLhQIBUKBUCAUCAWqRwF3fjxBmv08PObtnkiNIzT1hUUy/YVaqZmlYbJ+acQBUheoX5pS/hAhsbw0s7psz4A8HM5Q9Xz6cSWhQCgQCoQCoUAoYPlB5Ayl5Ok6tkmaTmExg6BdaX+3TAGGnrNSM6f+aAE/7gg5DOVwRJuC0Z4BmRc5Q3HbhQKhQCgQCoQCoUAVKVDvq8UIj63fLQ3r90gD7hAwtHancLxu7S4t7E95bqE89Lu3tdTMrjuS8oJSKCy5Q4CRApBD0N4BwRlq3ns2nKEq+vDjUkKBUCAUCAVCgVBAFH40FLZut0IQ8AMQuTtUwFByi6b/oU6mPb/IYGgmCdS7UohMQ2UpZMazhrKwGa6QwtC+szK3MX6bLG68UCAUCAVCgVAgFKgeBYAenCB1hJIrxLZC0LrdhTPkTpGHyKhr5vDQRZbNkzy9qze5QVkO0a4+adrdL804RAmQHo4E6ur59ONKQoG7pMDp06elra1NPv/887t0hpg2FAgFQoGJU6CB8FiCHocgrz085i4R+4NgaPY7h6QRZ2hnr9YtewaEAgCVSp/BENC0q0/mLDo8cVdf5TPd+vQzufbEU/JpS+uQV/r3nbvkwv/4n3Lj988P2eduHfDrG+256cf1jvTyeXlfXkZ7jpHmjuPVr8DZs2fl2LFjQj3Sq7u7e9h+N27ckBMnTgzbZ6hzXLp0SY4fPz6usUPNGe2hwEQpwL8P7m3ucf4djOc/D9zjzEEdrztTwEEI4AF2atfs0FyhAoS0bafUrrEy5ffvZDlDCw2GGnb2CgXYadptxbaBor5B7ZMJhr6+dEku/8f3hgQIP375378rlC9PnRrx0wSsACyA405fDi2jARX63nz5FYUbByKu99L/+78K4HHwofY+d3qNMb76FOAPN7BTXmh3eCk/xj5gUv5HmzGV2v1d+3yjASsfk9c4VP6Fk7ePZZs5Kr0fb+M9xCsUGKsCOQwxlvtsuH8LleYPGKqkyvjaBkHP2p2DkqU1NJYgyEBpp0xNMAQU1Ty86LDBToIhBaKdvdIEFKXSnLlEzbsHZG7d5HnOELAwHOQAIQ42bI8GSr44fEQBazR9/ZZw9ymHldFsA3IAW/7ivADQUODGuSqNy+eI7W+HAuV/iAmJ8b/bcvjw9qH+5zscsIwEQ1wDXyAOJmOtudYLFy7oNVcay7UN9Rrp2oYaF+2hAAqUw5C3+T031H86uE8dwMv/DYay41dAISetHHP4UUAqVpHtlEUf7TDHaM1Omf7cQpnyu7flwd+8KTWz3z5oITJcoR2psJ0KQKShs90D0pLK3EVHxn+135CR7viUA0cOEUBFDg0+ZriQmr/9sfRlDICSn9vnGc4ZGgpqGHP9p8/K5xs2+jSD6qHGDeoUO98KBfhjngPOUFDDH+5yQMoFcKjwL4FKx4Zyhob7MuC8/qWRz+nblb6MKs3nMFc+V6W+PnfUoQD3VyXAHk1b/u9lqPsPheMenLj7zBOjCwDiF+s9ZAYkrSnBUN1ac4amPfeOTPndWwZDDTt6ChBq2mmOkIJRcohwhvLy8MLJkzME8FRycMpByD9OQGK0IaaxQAd9JwqG/FqHqsdyXUPNEe3fDAWAFwcY/iifPHlSOjo6RvwCyP/Q+zvli4Ox/OHPXw5K44Gh8+fPK4TlEOPXybyVYIi+OeBxLUNdQ6Xx+bXH9uRWYKT7I78Xh1OqHIb8fhwJqsrv4+HOEcfEcoES9PgKMk+YtjwhXCEPnwFDb8m0596Wab9/W2pweRSAgKCygjvkcFQcI4H6nUOTQnd3b4ADf7kTA5gQPit3jtgHlEYDRMzr/X3+oeq7AUPD5QtVel+0jcb1Guo9RHt1KTDU/0jLYaJ8f6QviPJ36X/4GTfci/MAWX5d3j//wgHc+ALp7+9X8PI+Pq+fi7nyF+2AHnPlL/o5DObtsR0KoMBI97rfq+X3Vbl65TCUH+cclfKM8v+o5P1je2gFDHTMAVJ3yENma3YITpA7Q7a9Q2EIIHrot29Izbzao6WQGPCzAwCynCF3jEpAZOEzQmuT4QUsXJ01R0NU1F/19Wl+UCWnqFwPB40cpMr7ODRVcnzK+zo4DQUpQ7XnYTw/H309z6n8POxzrnxcpT7R9s1XABDI/2fqbg/t+f9Iy/f9C6Knp2fQ+HIwcYX4ouCPPfMM9cohxrfz+XyO/LoAIocnn5dz+PvwNupKX1rDfUHlY2N78irg9zr3ZKVXpfuq0pjh7rVK/TlXwFAlxYdvc9fH84XY1xVlrCpL25YzhDu0Q10hQMhgaOGRFCLrMRDa0SvNySFqTOEzAKmZ3KHdAwpKcyYJDPmqLxKegSGcIl45VAAW5eDg7tFwLoq7TvRhPspwr4l0hvx9cZ2VXgFDlVT5drU5cPj/SPmjjnNCO0CRQ1Kl7Rw4fK4cXnK1aGeO4RwYzunXks/nXyKMrzR/Dj8OTPn1+pz5+/Nry8/jbVGHArkCfu/m9xTbfl+V30N+v5bf697O/Vr+yu/h/FjAUK7G6LZxfLwAQe4AGSSVwMj67JApv3tTHvj13+TBX78uNXPfPmTwgyOUQKgFGCKZersBEvsAktcPv/Xtd4ZyoHGHKIchB538GG2UfOxQH2EON/n2aPrnffxclWBqKKgJGMoVnJzb/KHN/6jnsMAf59yBKd/nC2IsMMR4zpWPyVX3Lwr/AvEvGP8C8nYfk1+Pj+3r69NrZoz35z1xTuqhvtT8HNTMG69QIFeA+yb/t8Ax2hyG/P6jrfxYPo/3q3SP5fdzPob72O/lvD22h1bAQcghCPenUqlfZ9CEI/Tgb143Zwiw0dBYgiEFoh2DYaj8OAD1bX+5c1MefiK8xEqsO4GhcoAp36+k7VDANNzYgKFKSkYbsIEL1NvbW8DC3YQh/qB3dnZKe3v7bTk75Z9GDi3lX0Let9KXhH9pcQ7/AslhyMdWqh2+Kn1RVeofbZNHgUqgwr3mYJ9DznD3Ud4vV8/b/Z71Y0O1+/GoKyvgMFQKjfky+u0pXEZt24s+2q4QRM7QVFaTzX/nsDRt71EXCCfI3aByAGrZ1a/OEO0Pv3mg8pV8S1tz94e3OFSYbLTOUCWwqdSWy8nxcjAbzX55CI85y50hz28abr5K8+TXF9vfPAVyWLhbMJSfgy+W8j/6rppDkAMQ4/jfd+7c+Lb/r9zH5nUOSvm58z7l2/4lxjXEKxTIFah0z+YwRF8HJkDc7998DrYdbuibv/w+L7/3huqfj43t2xWoBEM4Qw5AbANBlIWrt8qU374pU3/3pkz9DQnUbx+ykNi27kEg1Lyjt4Af39Yw2Y5emTsJwmS5zJVgaLzOkDtOlcJatFVq51qGgqXhnKH8PeTblWBouAdLcu6AoVzBb8d2DgtsT1TOEHPhOvHyLwr+uOfncAX9j/5QXyLeb7R1JRjiWoYDKz9e/oU02nNGv2+vAtxP5QDDvjtDvHPuG0A9h3QHbB/r97kDPTXHmD+fy5X0/j7e26MeXoFyGKojbygr9awo+2i71K7eLotWb5OHfvO6gtCDv3xNaua8sV+doaYdpQRqd4eAoEoFN2kyvXLnxMNkuYvioDAaZwjY8f7lGjooAR+jfY0GhsphJmBotOp+u/sNBUPlXwD8Qc5hpfx/xv6Hn3b68oeeOZifL4gcMsrnHknhsX4pMD+FV/7+hjtPpescrn8cmxwK5Pd1/o65v8r/PTjceD8fy38wHIDKoWe4+26s972fd7LXljRtAFSfIAjw8W0Fo4+2KyABRVMSDD30y78ZDCn8pGRpwmCNySVyECKMRvF93KRv+ysHIMAnBxiAZjzOEGNGWkY/lAM0lN6jgSHOm19/DkOfvf+BUMIZGkrhb2+7/zHO/1g7QOQAM1oY8nkY63/MHUxcRZ+fuvyVg4wf83nK/4c8VHs+x3Dn8vmpR9svHxPb334FuI8dYLiv/P7OHSD6VGof6Z7iOPOU//twVR2myu97Px51ZQUGuUDAkLpA27QuQCg5Q0DS9N+9JdN++6ZMYTXZnNf3GfxsM+Bp2j40DGke0fYewU2aTK/RhslcEwcUByba2QaqRuP6lMOLzztUDZwN9dwgv5Y8/Kbz//t3FczY5v0FDA2l7re3vdIf7PwLwN/5SDDkXwj+xcE4/sjn+z4XNfNVOpaDjPcfCnqGas+/tPiSyr+4fM7yeqjrKe8X+5NHgaHur1wBv9ccWPJ7nn8TuXuUj/N/L/Qf6kWf0dy7Q42frO05DDWwzJ7nC622sFip3iaLVm3VAggVMPTw6/ulcWu3NBUw1JNtl8Jk7g5RP/xGJFADEbzKQYk2D3d5H0BktCDkNzFjRnKRvK+fLw/d5dvl85RfT7kLlo/17dxZ8vNG/e1SwL8Ayv9IOwzxkEP/X7B/AaAA7SSPMp4X40f6Q55/cbiKtPn8o63z6/Bz+/VXgj36+P/K83OUz+PXFPXkVIB7xHPoKinA/VIJ6Gn3+6rSPeUgRJ2/Kt37fh/n/WJ7eAUqhcPcEQKAaldv05LDEK7QlF+9LjXAECBkQNRt+UOExYCjbT3SvL1XS74/781v/3OGcsnLgQeYuPnyKxp6AhbY5wX8lMMDbeMFCZ9vNG5Sfr3DbbtTlM8ZztBwik2eYyN9AYxGiaG+JCqN5Y99pS+USn3L2xzcKn3hlPeN/VAgFJgcChAWs9CYuUEOQu4KOQQBRfRzV0jDZLNf22sglAFQ49au29wiYIl2oGj+JFtNNjluo3iXoUAoEAqEAqHAN1cBh6HKtYXM1CFahUO0XUicxhWa9ps3pWbOX/dK09ZuacEBwg1y6NnKdskh0u2tPdpvwVvf/gTqb+7tEFceCoQCoUAoEApMPgUGuUIpUToHo9pVli+kztDq7TIFGPrl32Tqr96Qmrmv7TMY2tYjLQmGAKJmhaFuPda0pUtr2uiz4I3JFSabfLdUvONQIBQIBUKBUOCbpUApLGa5QR4eA4LqSKQmcfrDrcI+Zdqv35CHfvGaAtFtMOQQpOCzvdccI8BoS5c0bulSSJr/+uRKoP5m3Q5xtaFAKBAKhAKhwORTAOCp+2iHgY9upwcskjydAMhgiP2tMvVXr8uDP/+rTPnF39wZMufHHSFAiNIKDJFErfvJJdraLXNf2zv5VI53HAqEAqFAKBAKhAJVq4DCkC6lLzlBQI+DUO2HJWcIKMIVeujnyRma97f96vp4KAwgMigiVGaFY0CRlq09wph4hQKhQCgQCoQCoUAoUC0KAD11q7arM+RhsUEwRJjsgy0WLvtgS5EzBBTVDIIhcoM0FFaCIN9vSflCuEWPRM5QtXz2cR2hQCgQCoQCoUAoIKIOkLtDDkMOPwZFW8XdIdo9X0hh6OFX90jj5k5p3tolAI86RAmIWpIzhEOEKwQIURZEzlDceKFAKBAKhAKhQChQRQoMBiGSpC0sBvhYKe0vXLlF84Ue+O9Xta6Z88puadzUWThCOQz5ttcOROEMVdGnH5cSCoQCoUAoEAqEAik3aGsRKnM3aCEwRL6QQ1HKHSJ5+vvPvqJlEAwp9GzukmacoVRwh1q2dOt+C7lDW7tlwWuRMxT3XSgQCoQCoUAoEApUjwIOP1on+LHkaVs9BgwRJqvTlWWeQM1qstekZu4re6Rpc6c04Q6luhkgSkUBCAjKyoK/7qued/8tu5K/b9wkN557Qa5MnyWX/p//JRf+4R/tJz7+4R91n3aO0y9eocA3SYHr16/r75idOXNGf4bDf8OJmp/loJ3fOaNfvEKBb5ICw93bcX/fu09yEPjkK8cSBJVgyUJoD/38r0KZ+su/Sc38V/caCAFDmzqlmZJASAFpU2cGQt3SurVHAoYm9sO9dfOmfPLa3wx+/sf/LH7fzH/nbKgaWGIc4+MVClSjAl9//bWcO3fuNvjJQajSNnDEOMbHKxSoRgXGe287HMX9PfGfqobCeKiiPljRl9GnFWSp3UNl9Pn+z16WB559RYGoZh7OUAIhhaHN5gIBRPl+7gwBUPGaGAU+e+/9MUNQORwBRcwTr1CgmhS4cuXKmCGoHIyAIuaJVyhQTQpMxL3tUBT398R9sh4e8xVjvu/hsYUrNxd5Qw5DDzoMzX15t0JP48YOoQBAgE8BQ+wDSOoW4Rp1yiN/DRiaiI+PcFc52NzJPvPFKxSoBgUId5WDzZ3sM1+8QoFqUGCi723+XcT9PTGfbOEIfbBFHHy0rcwVcnfowWdfVWfowf9+VWoWvLpXWjZ1SZODUAIfBSDyhIAgByQNo3XIo5EzdMef3PWfPjuhIOQQxbzxCgXupwK9vb0TCkIOUcwbr1Dgfipwt+5t7vG4v+/8k9XE6HzVWFo9BhABRwtXbiqcIYCIEBmhMkrN/Jf3KAwBPK1burU0bbTcIdvvUSBiWwFpU6cseGXPnV/1JJ5hoh0hByGvwyGaxDfXfX7rd+N/zQ5D8T/o+/zhTvLT3+17O+7vO7/B3PEpr2s/sLyh3C2iz/d++pKCEA6RwhAgBADhENl2h+0nVwjXiGOt6hR1yvyXd9/5VU/SGcjtcWgZbX35u9+Xr86cka/Pn5er8x8Z1fjIIZqkN9h9fNvkPuTgMtR2V1eXfPrpp4OSo0lGvXHjhq4oG2qct0eOxX38kCfpqUd7b7e1tcnVq1flq6++KpRimzaO+T08XB33dyHdmDcAHAWelfaQRRwhByN3h3yffg5DOEQ1c/68owyEAKMOaU5w1EKILN/GGQoYGvOHxABWfely+bGsGPunf5Ev9u4VuXVrTDDEeWKV2bg+phg0DgWAGZKdh/sjz7Hz588XEMSYzz//XP7+97/LrVu39KxffPGFAEvDzcN5GBuvUOBeKDDae7u9vV0hn2vifua+zu/tzz77TOgz3L3Nsbi/x/+pan5QcoGAHn+ekDtCtDkgvbNyU7Ga7AHCZHP/vNNcn83d5gwRIgN+CgDq0u1SW8DQeD8qlsGP1g2i35UZs+XL48cVhDjnWJwhxnO+eIUC90IBlgmP9Eee5wgBO7w++eSTQV8M3d3dg46NNBfni1cocC8UGM29zf166dIlhSCcoDykRi7Ql19+qZc6Wocp7u/xfbIKQ+nHWHMAAoLYJ2eIkFntB1sEGHrwZ6/IQ8++KlP/mx9qfXGXNG04UwBQCXq6DJI2WU2YTF2iTZ3y6Cuxmmw8H9VoXaFL//Qv8tniJXLrxg07Df8LHqMzBAxxvniFAvdCgdG6QvyPmS+Lnp6e2+DpwoULxZdJpeM5IHG+eIUC90KB0dzbp06dUheI67l27dpt9zZtvHBCP/7449uO5/c223F/j++TzWEI2DEA2mxu0Mot8s57G6V25RYtC9/fJA/85CWFodnP10nN/L/szkCoQ5o2WIgMKGolTyjBUCurzAiZbeqU+S/tHN+VTuJRPDF6tK7QJ2+9LcL/oPni6O2Vz95fqftjdYY4XzypehLfdPforfP03fI/5pX2/X/OfCFUOs7/oAlJUEazaieeVH2PPuBJfJrR3tuEdgmJAfpnz5697f72PCCc0Y6OjtuOV/r3EPf32G88HB8vi8gb0rJZFvF8oVSAoHe0bJTpv3xD5vyhQeb9udnCZO4GAUIaHkuhMgcj2po3npGWTSRSd8q8v+wY+1VO8hFjWUH2yRtvyVf9/fLpwkVy8f/8v8XhaDwwFCvLJvmNdw/efh4SqPRHfbRt5BPhHI0WhjhvvEKBu6nARNzbOEHkC/EiPDzafw9xf4/9k3XXhxroWfQ+YTFzgkqQZGCEizTz94tk3p+aZM5ztVIz/887pXnDGcsLSjCkbpDnDWkNJNHnjLTiDL24fexXOclH8Jtio3WGyvvdCQxx3niFAndTAXKBRvsHfqh+fGGwwowX/8Mm7DBUX2/nvPEKBe6mAnd6b+NwOgiV5xL5fTxUHff32D9Z4AcHqIAikqhJqF65uRQi+2Cr1K/eIQ1rd8ucP9TLzN++LVNYWj/vTzukJUEQUORg1JIASUNlhMxYXk/bhjOy4MV77wyd++9fyPn/4/8aN1CUA8Y3af9OYIj3iW7dP/qvEb9chvpHGe3HQrtjd1cDlh7jClEuXrwYet9lvePf9N29n/v6+gateASEBgYGJsV9zX9s7perpTCEG5TCY+4KFe26mmybNK3fI43r9sj0X78lDz37isHQw3/YZgAEEGVQ1LQe8MER6pBWdYfOGBBtvPcwBAh9k+Bloq/1TmHIryeA6O7+AYwvmPHpC/wAQbxu3rw5qgTT0Hp8Wodu90Y3VoORG0ch7MuLe5y8ucnyGdwPIFJHKOUNOQBREzLjGI5Qy6YD0rRujy67f/CnLwvloZ+9IjXAEOBTuEIkUKsDlOBoQ4IhdY1Oa6js0b/c2wTqyeoIOcRMFAyh42T5hxjv89780b9TnT2pmi+L8uX2dzp3jP9m3APf9s+Jhy0C+bwAo4nIQ/omaIZDdK9fuRMEAHkhkbpx7S5pTSBUv3q7hs6+/19/EcqDP3lJaub9cYc0rTsjLevPSOuGTnODslpdIYWSrRohAAAgAElEQVSj0xoia914Rn7w0q57+h4Dhmx12XgSqB2oqAOG4suhWv6I8oeS5ca5IzTaJ/RWy3uI64h/T6O9B8j/8WdsjXaF2mjnrtZ+9wWG0rJ53CAPldWt2i6Na3dL07q9yRHaLnU8mXrlZnWFHvivv8hDP+G3yf5oOUNAj4LP+jPStO60FgBJywZAie3TWh79873NGYow2cTAUITJ4o93NfzhzP+nDAwBRfzhrIZri2uIfyN36x7A+eSFS3S3zlFN896PMJkvn9f6/c36gMWGNbsUgqh5IjXHallm//4m+d6PX5Tv/+hFg6G5L2wr4EeBCFcoQVDzujPSvA4ASjC0wWBo/h+33VNniJNFAvUXY34CtbtCOEIBQvFHvhr+UAI9HjIAhEb7RN5quPa4hvg3NNQ9QI4QSdKUoR4Y6qvKvu0wxL/x+wFCcILmDCV3iJAZjlDzhn3SuGaXLHp/syx6LzlGadn993/8ojz4Xy8pENXM+8N2hR3AZzAEJRDKHCFWkuEQ3Q8Yuuf0NcEnHMtzhhxivL6TnKF4ztAEf5Ax3W0KjCUHwh8kBwjd6aqx+/UH9zYBouFbq8Bo720ACBDidfny5ducH35uxn+So9LxSpAV9/fYbyt1ffQ3ybZL04a9CkINq3YoBL29YoMsfHejbgNFOEMP/PgvCkK4QzU4Q4CQ5wsRIsMNal3fIYs3dCr8AECLMyh65E/xnKGxfkxjeQK1Q5DXdwJD8QTqsX5S0X+sCow2B4L/PQNBFJbSV/oCGEubg9VYrzf6hwKjVWC09zb3rTueQE/+BHXyhVhVxou8oc7OzlHd+3F/j/ZTKvUjYZoVYyybp+iPsqaQ2DvvblQYqk0O0TsrNigIORDVLHhhu7TgCqVSQND6DmklPLYeMDotLQBScoYeDRgqqT+GrdH+NplDkNfjhaH4bbIxfDjR9Y4UGM3vN3nOxEgnGs0TqOO3m0ZSMY5PlAKjubeBISDHoQfg5+Gh+dJ6nKPROk1xf4/v02tYs9OeIbR2t/0gq4bMLD8IJ0gdofc2ydvL1ysYOQhRKwwBQFpwiPKScoWAoea17QZE609LwND4Pqix/mr9ncJQ/Gr9+D6nGDV2BXB9hnN1+D0mX00z0uyjgSHOF69Q4F4oMNK9nd/3LA7A9fSQGdfH/Xzjxg0Zy9Os4/4e3yerK8bW7pH6VdtLITGHoJQnRLjsrWXrFIiAoO/9f3/WUjP/+W3SvBbYsdKy9rQCkTpFa3GE2kvOkDpE7TL/hS3ju9JJPurWzZv6S/IOOXezxhXifPEKBe6FAvzBH+3/oPMvj/Fscx7OF69Q4F4ocC/vbf49xP09/k9VH6b44TZLlGY1GU+ifm+TECLDGcIR0m1yht6znKEHfsxqspekZu7vt0jzmnaFoaY15v44ELWykmxtu1Dn5dH7sJps/PJU18jP3nv/njxNm/PEKxS4lwrcq5Vh/gvg9/K9xbkmtwL36t4GhuL+Hv+9xsMVC9jhoYspT8gTp72uA5Le31SWM/T8NlEIckcINyjbbl5zSoFIoYhQ2dp2eeSFreO/2hgpd7KybDRuUqwgi5vsfikw2pyI8ThCjIkVNvfrk43z3u17O+7vO7/HFibHB9DxRGkAiGRp2nybmvKfz/xRvvvDP+mqspoFz29T+AGAvKhTlCAIGMpdIbYXPB9hsjv92K7/9Nm74hAxb7xCgfupQL6SZrzQU2kc88YrFLifCtyte5v7Pe7vO/9k3RUCdAiDac12KkARxWHo+z/8k1C++/QfpObh326Spo9OaajMHCELieEAUZo+apOWtQmI1rbL4vVnwhm6889MZ5hohygcoQn6YGKaO1Zgov8XHY7QHX8kMcEEKTDR93Y4QhP0wYhoiMxhBycoB6KFQFCCIaCJbUDoARKon/mj1Mx/bquGyXCDcH0AINygpjVt0pLcIdqXsKw+HX/k+QiTTdTHR27PeJfce8iM8ZEjNFGfSMwzUQqQ+3CnSdWMjxyKifpEYp6JUmAi7m0gKO7vifpEbB53ft55d0MBRrTVathskzlEJFQnKBoEQ488t01aSKBe0yatuEFrTknzR21aFIZIqiZU5onUa9tlwe83T+w7mOSzseqLZfBjhSL6My5WjU3yG6iK3z4rcVgmPFYooj/jYtVYFX+4k/zSxntvOwTF/T3xNxBOkLtBGgpLbhBhMneFqN9etk7eWb6+cIYe5AnU836zSZpWl+BHoQfwWXtalvCcIZKpdd+gCDB6NJyhif8U04w8MZpw15XpswyO/uEfLbfoH/5R92nneDxZ+q59BDHxXVKAJ+oSYuB5K+VwxD7tHI8n796lDyCmvWsKDHdvO/zE/X3X5C8mBnTy/CDfVyeIBy2m4+4MTfnpqzLjV2/JvD80Sc383222cBghMcJjqwmPDXaIcIoMiACj0wFDhfSxEQqEAqFAKBAKhALVoIA7QECPA49uL1+vkEQbfWo/2CoNq3fIjF+/LTN//bZM++WbUkPIy8NgQJDCEEnTq9ukdU27LAaMAKSPTuk2bY/8dlM1vO+4hlAgFAgFQoFQIBQIBVSBWn6VniX0CXqotehqMvvF+rpV26Xho53SuGa3wtD0n78uDxAmm/+7TYUz1JzCZQ5B1K0fndICFFGW4Az9LnKG4t4LBUKBUCAUCAVCgepRgFwgD5N5rcvr39+sTlDT2j3CU6pxhXgO0ffS0npWlNUs+M1Gc35wgj46ZY6Q1wmAvF3doo9OyaPhDFXPpx9XEgqEAqFAKBAKhAIKQoUbxCqyD7aqA8RvljWu3S11H2wrkqeBpYf4bbJn/iiaQA0MtWYhMQ+LuSPk4TJcIoehCJPFXRcKhAKhQCgQCoQC1aSAuUCb9IdaG9bsEpyg+lU7pP7D7aI/wZGtKgOGcIR44KI+dHHer9YXzpDmBpEf5C7RqtK2h8giZ6iaPvq4llAgFAgFQoFQIBRAAcJf5AM1rLZS9+H24gda31y6Vl0hQmnuHvnTp//zqRcsTNb04Qlp/OBECYLIHfrwpDSvOlm0ec4Q9WO/j5/jiFsvFAgFQoFQIBQIBapHAZwgQKjuw22aE+Srx3imkD9biO23AKOla+W7T74g//H4c1pqHvEwWeYIeYhM69VtsjitJFtCQvXqNnnk1xuq593HlYQCoUAoEAqEAqHApFegll+t9wctsryehytmBQBif1E69u+P/V6B6HtP/UFq5qcwGeCD65ODEBA0qB0wWtMujz8XP8cx6e+6ECAUCAVCgVAgFKgiBcgDAobUBVIIWi8LlxsUvb3UIWh9AUjuDH3/aX6b7FfrLYHanSHyhdJ2y6oUKiNc5vlDOEO/2VhFbz8uJRQIBUKBUCAUCAUmuwKAz6LlGxIAAT3rZdGKjbJwuW3jChkcrRfgCGfoe0+9IApDD/98jZAzRH6QFw+PebvDkbtEj8dzhib7PRfvPxQIBUKBUCAUqCoFFIYUfhyI8jCZOUKEygAh6gee+ZOGyf7t0d9Kzdyfr5HmD05I66qTWlo+OCGLCYfhEK2ysmT1qbR/UuvHfxsPXayqOyAuJhQIBUKBUCAUmOQK4ARRgCIDHmDIIAhXyCHorSWWQE2uEAnU//nE81Kz4BfrDII+NBhanADI4ciA6KS0puPsP/6b+DmOSX7PxdsPBUKBUCAUCAWqSgFgx+GHbYceT5wu1eYMkTNEiOzBH/1Fah755XppWvmxukO4Qu4GUZfcIUCpTXCIlnzULk/8LpbWV9UdEBcTCoQCoUAoEApMcgV05ZgCkUOR5Qa5IwQMvblkjUISoAQMPfTjl2TuC01SM++/10g5BBkQmVOUw9GS1W2yZFWbPParSKCe5PdcvP1QIBQIBUKBUKCqFAB6LEHanB8PmVmIbK1CEG2A0DvLNsiUn74qc19okIefb7AwWcuHJ80dWnlCWj8wF8hcoZMKPwAQYTJqg6F4zlBV3QFxMaFAKBAKhAKhwCRXwMNkDkQOQThCeiy5Rhznd8rmPt8g815olJm/eltqHvn5OmlZeUKL5gV9eFLIG6IAPppDlEDI2k/KY78KGJrk91y8/VAgFAgFQoFQoKoUMBiyEJkDkYfGtG79SN5Zul7qP9gujR/tlrnPNcjUn70mU370ssEQEESoDCjCGcohiH0No7HKTPOG2gSAilcoEAqEAqFAKBAKhALVooCGxVg9RrhsmecL2coxYGjR8o3S+OEOad2wX5rW7JHpz76uIPTAM3+WmvnPppwhwmOpmANkobFSG46RlUd/ETBULR9+XEcoEAqEAqFAKBAKiD1ZmlCYPkfI8oZwi95eAghtUEeodeNBafxol9S+v0Ue+tHL8r2n/n/23vNNjupa++7/6Xx7PzzPh+fYgMIokDUaRYTiJImck7EPDvgAmjyanHqSNNLMKCMhkESWQAnbGIxJtsHGxz4kG9Z73WvvVb2n6Ima0F19z3VtVXVVdVX13bu7f7rXWns/LbdU/lxSpY8elZ7hy9J94JJzgFBCr1AEl+iK9FmIzG+Ha7STYTL2OypABagAFaACVCCHFAD0AIQiZ6j/qOzpOyIte09I58Gzkj7+hnRhItfhF6V16KQU3/G0rNr5C7m5/L+8M+RzhgBFaC6HyC0BRL2WWO0hqYLOUA69/bwVKkAFqAAVoAJUADBkQIQlQAjQ0zl6RjCjvYLQgVPSjCk7Bp+XWyqeilpqx8OHowTq9PBldYMAQJY/BGco89i5ReWPHaXqVIAKUAEqQAWoABXIGQU0PBYAEZKoO0bPSOehl3XZgqk69p2IwmlwhAyIUqWPHInCYj0HLgkaoMg1g6Kx4bKyR4/kzIvnjVABKkAFqAAVoAJUIHSGMEErnKCuI69qrhAgSGe192E0gBNA6Kayn0nxHb+SVNmjR70L5McYQihMw2aXfXjsivSNvCN9CJf5VvEonSF2OypABagAFaACVCB3FLAQGUJjKJ1HaKxt/ykdiBFwhGRqHXDRJ1UDhm4s+5mU3POMpMoVhnwC9fAV6cc4QwCiAw6G+lFqDxgavhK1SsJQ7rz7vBMqQAWoABWgAlRAE6dRJYawGGCodegFAQSh6cjTfUc0j8jyiW6t/Lms2vVLKb7raUlVPHIsgpxe5Ax5CAL86OPhy9I/ckUGUFXmwajiEYbJ2O+oABWgAlSAClCB3FEAVWKoGkN4DFCERGkDIQOgxt4jYq14168EYwxpmKz84SMaDlP4OXBZ0gcuKRwBgAyGzBXCNjQ6Q7nz5vNOqAAVoAJUgApQAZEuOEIGQhh8EQMv+qoyABCqy/C4sfewLjHGUMldv5ZbK38hqbKHDjvo8SDknKHLDoiC0JgBEZY7OQI1+x0VoAJUgApQASqQQwoAhpAvhNGmMRErkqQBQGgAoIb0IW14jGk5Su54WoorfyG3lmGcoQcOamgMjhCajinkQ2PqFg17MMIAjB6OCEM59O7zVqgAFaACVIAKUAENibk5yZ53jhDcIA2LHVYYMjByc5g9L6sqfyG3lP5Mbt7xU0mVPnBI0vsvSXroovQqDCFv6FLUAED9vvUpGF2WSuYMsdtRASpABagAFaACOaQA8oMAQ4CdxvRhaeo9oq0xfUisNfVhlGo3fxkg6KbtTyoQpcoAQ0MZ+DEQAhyhOQCCK5SBpPKHDuXQy+etUAEqQAWoABWgAoWugIXGNE/IgxCACCC0J31YXSI3MOMxXTcQgjuUKr3/oKT3e1fIO0IGPrYdj+EOOTC6LGUPHix0zfn6qQAVoAJUgApQgRxSAGMIufwgHx7rOTTGHYpcISRRpw+rKwR3SMNkFagmGxMWQzUZ8oQuj4GkCIwOXJLSB0Zz6OXzVqgAFaACVIAKUIFCV6DJV4sBepArtAdVYwiL6RQdx3Q+sub+Y4IGGLq1/ClZVfFzWVXxFHKGRhV6LGfIXCADJH0MWEJO0dBF6T9wSXY+dLjQNefrpwJUgApQASpABXJIAUCPaw54FHwGjmliddvQC9I2dFLa9p2UVm0nZP39VbL23t2y9r7dktp+37DmBhkMGQSpE4Tw2f5LMjj8jgxiFOr9DooqHmCYLIfef94KFaACVIAKUIGCV0DnIvODLnZjzCGs+4bBGDF7PVrH8GnpHDkjGx+pl40P18r6B2uQMzTqKsn2X1LXB+4PoMfAB8uB4SvabHvlg0ygLvheRwGoABWgAlSACuSQAu0HXpT2/aek/cApcU7QC9I5clo6ht125wqdkJZBtOel+I6nZTXanU9Lasd9I9K73wEQQmBoBj227rZf1n1YpzOUQ+8+b4UKUAEqQAWoABXQZGmtGvNl9RYy0/yh9GFXXt9zSBrR0oc0cRoVZWipsvtGJL3vguYDmRtk+UEKRT5fKAQiOkPsdVSAClABKkAFqEAuKbDHjyfU0H1Qwahl4HlNoAb4YJuNNWSPb9z2RARECkMGP+HS3CEFpH0XpW/IuUb9+y9J5QMMk+VSB+C9UAEqQAWoABUodAUAOXCGdLBFTaZG1Vgw4CLGHOpxYAQ4snGGbtj6xFhnyGBIwcfnEGFdt++7KL37Lkr/0CXZSRgq9D7H108FqAAVoAJUIKcUsBGnrYoM5fMGQxY+M4fIYOjGbT8RhaFKzE2276KkB9/WZR8SqFFGj9CZOkIOgMJtlfezmiynegBvhgpQASpABahAgSsAGNI8oYFjbm4yjDqdPhyFyABABkNwiG7x03EoDJXfOyLpvW8rDGVAKANDcILUHfKukHOGCEMF3uf48qkAFaACVIAK5JQCe9JHpCkYVNHCZpYwrSDkE6gbukbl5u1Pyo1bn9CWKrtnWEEIQAQYcvDj3KFwPQqdaZiMMJRTPYA3QwWoABWgAlSgwBWAK6SjT/vwmIXGsNRwWVBJBjACCN2w5TG5cevj4mBoL0JkCItdiIAIIbKwqWuEsNm+i1Jx73CBS86XTwWoABWgAlSACuSSAsgV0olZe5BInUmcVmeo52CUPG1J1DchX2jL49oUhroH3tJQmQFRL8JmBkh+CQhy7W2puPdALr1+3gsVoAJUgApQASpQ4ApoArVWlPlSepTT+zwhhMVcztCobqvvGpHrNz+WgaEdd+2XnsG3BACkCdPqCF2Q3r0ugdptuyD9GkK7IH373pbK++gMFXif48unAlSAClABKpBTCqgrZPADEArK6AFDBkZwjRq6RmTFpkc0VAaHKFV6135JD7wlvagmAwANvu0dIOcE9SNxWpOnAUQOinZx1vqc6gC8GSpABagAFaACha5AY4+rHKv34KPwA0cobB6SsM85Q4+Jg6E797sE6kFXUWZQlAmLwQ1yIARXqG/oghCGCr3L8fVTASpABagAFcgtBRq7DwlaQ5cvodf1UUFIzMJkgCBtPYc0cRo5Q6gqS5XeuV/dIIwzFDlEkTuEUBmcItew3rv3LSm/Z39uKcC7oQJUgApQASpABQpagYYugyEHRD+EIwdJ5hTBEQIIqTNUdtcBhaEeJFH7cJkLi11U8AH8AIb64Q6h2gw5Q0ygLugOxxdPBagAFaACVCDXFGjsPqzOEJb1nQfVIVKnyOcRwSGq7xzRRGqsuzGGUE32mKQMhgBCBkMIiwF6AELW+ve9LQMKRG/LzntYTZZrnYD3QwWoABWgAlSgkBVwITK4Qj5UhnAZ1n3oDCCkMNQ1qkvkDEWDLlqYrN8nT2sCNQZgRBt8S1v/XjhDHob2vi2VdzNMVsgdjq+dClABKkAFqECuKeDcIAMhtzSHyEJjBkRwhpAvFMFQ2Z37pQ+VZCivR5hMQ2WoLnMNQAQQ0qWHIjpDudYFeD9UgApQASpABQpbgQz4HNQwmT3GMnSELKEaILTy9ke1xD5VbjA0cF56wxbAUNwhojNU2B2Or54KUAEqQAWoQK4p4KAHpfQGQwiHudwhhSHkDgVl9nCGAEPLb3tYUmV3DEXOEKDHOUTnxzhB/RYuG3xbEDKruGso1zTg/VABKkAFqAAVoAIFrICW1GuekAGQQZF3hroPZsrsu0Z1nCHA0MrbHwEM7YsAKHSGorAYQmOAIA9CAKOKOwlDBdzf+NKpABWgAlSACuScApY4Xd/p3CEHRy6h2sJkdZ3DUcjMgZAPk5XdsVfS/eckHYTIMutvSd/AeQEAha2SMJRznYA3RAWoABWgAlSgkBVoTB+JQmQOjDLjDmniNErrtbx+WKfjWHnbI3Lj5sfl+k2PwhlyMARXqE8TqGO5QwpDzhmyYwhDhdzd+NqpABWgAlSACuSeAs2DJ6QxfVTceEOHpRGDMPoye4UhlNZ7IGroHJEbNj0qN295Qm68HeMM7RqUdP956UWDO2RL7xQBkAaiUBmcordk510src+9bsA7ogJUgApQASpQuAq0HzgtHcNnpH3oRWkZeN5NzYEEal9NVt8xLNoARR3DCkM3bX5c0FKllQMuTNZ/zoFQAEYAnzA8BihCIwwVbmfjK6cCVIAKUAEqkIsKNKWPSsvAcWnb94K0H3hJAEetgydkjw+fwQ2qbx+WOm0HZOXGh+XG2x9VKErtqOhXGNIQmQch5BBZSAzbM1DkwmW77uYI1LnYEXhPVIAKUAEqQAUKVQENi3Ufkqbeo9Lc/7y07X1BWveejFpz3zF1izRk1j6sMAQguv42VJPtHIxyhRSC+mO5Qz5s1o/cIe8U7WQCdaH2Nb5uKkAFqAAVoAI5qYDlBzV0jkp9x4jmCzX1HpPWwZPSuu+UtAyelOaB56Wp76g09R6Rm7Y8oSCE3CGFIc0T6j//g3AZ4AfVZH39ACEPQwNvSeWuvTkpBG+KClABKkAFqAAVKEwFAEEKQu0jmiekuULtyA8a0Sqzpr5j0jZ0StoPvCjtQ6ekZNfTctO2J+WmLZYz1PempPvedDlDujw3Bn5CEMJ65a6BwlSar5oKUAEqQAWoABXISQUAQo0YfRrwY2DU4WAo3IYJXeEQrb+/VjY93iTr76+WVBkSqAFDvW+qAxS6QLY+gHGG1BmCO3SOMJST3YA3RQWoABWgAlSgcBUwGApByNaRNF3blqkmw/Ybt/5Ubi3/pay961lJlVcOSC/cIO8IGQABftz6W2Iw1Nf/JmGocPsZXzkVoAJUgApQgZxVAGExQA5coHofHtP1jhEFIcBQbdsBrSjD+vW3PSY33P6E3Lztp2NhCPBjrVdL7c9JX781B0IMk+VsP+CNUQEqQAWoABUoWAU0R6hjREvnFYYMiNoz21xZvXOJAEMrNz4qKzY8IqmKnYMaIkv3vqHukMEQlnCLdLt3hMwZ2nnHYMGKzRdOBagAFaACVIAK5J4CUcK0JlCPZtwhQJEHI4MhPL5h0+OycuMj6hApDFmYzEJjCkQYgVrDZ28IIKjPr+OYXbsIQ7nXDXhHVIAKUAEqQAUKV4HGniNSj9GmgzCZhs08DBkIae5Q+4i6QsvXPyxoqR1lvZEjpOMIRYnS56W//5z0wxUyGOp9Q7ft3MlqssLtbnzlVIAKUAEqQAVyT4G2oRe1dL4NYwoNnBAMsohRqTH+kIEQloAhLBEeQ5hs2bqHJFVW0R+Fw+D+KPh4+AlhCOsDA+e10RnKvU7AO6ICVIAKUAEqUMgKNPUf15L5ZoDQwAkHROF6//PiZrY/JPWdoxoeAwyhpUrL+zQvKJ1+Q/r60N6UXuQP9bp1c4XMIcKSzlAhdze+dipABagAFaACuaeA5gVh/rHOgzofGQZZBBTplBz7Tknrvhd0NGpM1YF9t5T+XG7e8ZTcuOWnkiot65Pe3gwAGQgZDBkcmWsEh6iysj/3VOAdUQEqQAWoABWgAgWrQJQr5HOEXCm9H1+o86C6QnCPWgZPSNv+F2Xjw42y4YE6WXN3laRKS9PqAqXTrwuawRDWDYAMjMwdIgwVbF/jC6cCVIAKUAEqkJMKRDAUJFDDLUJ+EPbVYglQ8mMR3XT7T+Tmbf8lqyufHgtDBj0GRAY/CJ/pPk2gflN2MYE6JzsCb4oKUAEqQAWoQKEqgNAXcoIauw/r7PRaaq8DLQ5LHUafNhhqH5Ha1gOybO1DsmL9I26codLSnsgNghNkYTGAkDpDSKq21v+mDPSfkztYWl+ofY2vmwpQASpABahATirQfuAlrSbDDPU6Uz1mqx88oflBmL1+DyrLeo5IQ9chbTdt/onCUNGa+yVVVtaj4bEwRAYnSAGo3+USRTDkq812JjBn6PPPP5crV67I66+/Lq+99lpeNtx/vt477zs/+xzft7l7386dOyfvvPOO4LspV/7+8Y9/yHvvvSeXLl1iS6gGeH/xPufjX/uB04LWMXxaukbOSufoWek6+IouO4bP6D6U37fudYnUJbuekeKKp+WmHU9JaseObunufjUCIoMi5wy9Ib0+j6jPh8jgDCUtTIYP9oULF+TDDz/UL56//vWvko8NP0y477/97W9s1IB9IAF94P3335eLFy8qFC30jxN+IPEfrk8//VS++OILtoRqgPcX73M+AhGqxDC+EGAH0NNx4LR0jpwRBaHhM9I18rJ0jpyVDgWll2XzE62y5SftsuXJDklt397lEqcBPT6JGuCDFoKQbYNrVFHeu9Cfy1m7Pv7XBRD67LPP8hKAQmgDDH355Zfy9ddfyzfffMNGDdgH8rQP4DP81VdfyT//+U/9XgIQLbRDBMeAIFQYEIj3Ge93vv01WOI0kqYxsKLOUj8iOoFr1yHZ03NEEC5DbhHCZ2vu2i3r76uV2x7e45yhEHoseVqdIJ8rpGDkxx7C/vKynnzTaNz7vXz5sjpCIVTk6zpg6F//+pd8//33bNSAfSABfeDf//63/ufmgw8+WHB3CA46HaHCgCG8z3i/8+2vtnVYE6ORKA0QQpK0Nr9ep3OWHZSGjlHB+krMWr/pCblx85OSKi+LldZ7dwjhsqiazJwiBaLXpbIsOc4QcoTwP658BaDwvgFD+PLkHxWgAslR4LvvvlOX6Pz58wv6oghDhQNC+QpDdW2oEstAkDpDHoRqWvY7UH8Kq28AACAASURBVIJb1DYseLx09f2yYt3DsmzNg5IqK+2Rnu5XtWm+UPr1aN0cIUumtlDZzorkwJDl2YRQka/rhKEF/a3gxanAnCgAp/fbb7/V4og5ucAUT0oYIgxNsass2GEOhIalptk5QgZDOtZQDIqwDxC0fO1D2pwz5POFLGfIoEjDZxh8Ec4QnKJetDdkZ3l6wV7sbF+YMDTbivJ8VIAKzLYCCH/ju2oh/whDhKGF7H9TuXYEQy0HpKblgDinCOv7paZ5KAqbYR3uUFHJAxkYKt3RreEw5ALBIQIIKQxZAjVgSNtr0pd2bRdhKCfDanSGpvJx4TFUIP8UQPibMFRYMLLQ+Vn5mjNkoTKDIUBPlDtkOUR+CWcIQBSFyQBC6Z7XIhiC+2NtoPdNGehDw7bXpT/9uuxMUAI1naH8+2HgHVOBQlOAMEQQmm84ykcYAghZg0sEIApBCKExNNuGnCE0haEd27tcCb0PlcEFGgAMYRZ7DY1lIAgwhH10hnJzHCI6Q4X2E8nXWygKEIYIQ4ShyT/t1c1IkgbwZKAoGxBZMjXyhZBADXcoVbajR6En3f2q9Ha/qs4P3B80hMV6e17VJUAIj7F9VwVzhnIxyZowNPmHhUdQgXxUgDBEGCIMTf7JNRiy3CFd+soxc4OwrG4e0rak+D5BgzuUKtvWJb3dDnoAQwo8PhymMOQhCVDkEqhfl4odnZPfVZ4cwTBZnrxRvE0qUMAKEIYIQ4Shyb8AUEUWNQ2R+ZAYQmNtwwpAVU37NEwGIEJ4DCBUBBiqLE1rflDoAmG9L/2qukKhW+S2v8acoXGm68Ao1hi586OPPpp2+/jjj+XPf/7zVY15RGdo8g8Lj6AC+agAYYgwRBia/JPrSuqttB4g5GAI1WNoACGDIThEi269J+MMAYb6ejKVYnCAotAY8oj8Y+QKoQGSKnd0TX5XeXLEbDlDAJlXX31VRkZGZHR0dNoNzzt+/LiOMjvTEBxhKE86HW+TCkxTAcIQYYgwNPmHpr79oAKQuUO1Lc4NggsECFIosjL7lv2ybPUDrpU8KKkdW9qkt/sVzRfq7jwraawjJKY5Q69KuusVDZ0N+NBZf89rsnNH9+R3lSdHzBYM/fGPf5RDhw6pM/TJJ5/IdBscJWTvnzlzRh2imQARYShPOh1vkwpMUwHCEGGIMDT5h6Zt6CVp6j0u9Z2AIldJZm4QQAjbdMyhpiGpBQz50nrNGSrd2q7Ag3CYNQuHhY8HUGXm267S5MxNNhswhOk83n33XTl69KjOMA2X5/Dhw1NuBw8elFOnTgmG2z979qwgZEYYmrzj8wgqUCgKEIYIQ4ShyT/tXYdek/bhs9IyeEoa00eloevQmFJ6gJC5RJYzhEqyxavuRQJ1h7pB5ghhiRYCEdwgdYpQbdbzmhCGxpbWGwwdOXJE3nzzTR0c7U9/+pNMtf3ud7+TV155RZ9HGJq8w/MIKlBoChCGCEOEock/9a1DL0nnwVclfexN6Tn6prTvPy2N3Ue11L7GV5HBKdq9Z6+GzFaue0SKiu+XpavukxScoZ6ul6PwmOULmSvUizCZL7nHNqwThsaHoXPnzikQTcfZ+cMf/qD5RnCpCEOTd3geQQUKTQHCEGGIMDT5p77r4CvSMXJWmgdfkLahF6X7yOsKRp2jr0hz//NRmAyuEMJmyBlafMs9ulQYUldIy+otV+g1B0DeEYIr1I8KMw9DlduZQB3CTugMEYYm77A8ggpQgekpQBgiDBGGJv/M7Ok5Ks39JwS5Q12jr0jb0Gld7xg+K50HX9HWOnhSw2c1zfvVEYqcIU2gxsCKPa8JXCANifW8pnlESJ6GG4RtACFzhphATWdo8m7JI6gAFZgtBZIOQ0gpuOuuu6Srq0viP/o///nPBS2+nY/nFhDzcToOVI81dB7S0FjzwElpGYBD9JKGy9oPnJHOkbPSOfqydAyfEUDRDZt/KkUlD8qSW+91YTKrJjPnx6AHEISkaThD2GYhM8JQYcDQ5cuXpbGxUVAph7+vv/5a+vr65KWXXprSd7wdj+dgPf43PDwsra2t8ve//z2+a1qPcZ+1tbVjGraFf7gGrhXfHh7DdSqQqwoQhhYeht566y1ZtGhRVmADmJ08eTJR0JaPMFTThNnp3cCLta0jsid9TFr3npLWwVPqGLUMnBSFIrhEo6/IhgcbZFXFr+XGLT+V1PbNrZHrk+582ZXS+3AYAAjbQscIwFS5nSNQF0KYDNATgkwcjib74ZjoeIOTicAKz49DTrbHgKrJ/ux6IQwB8gB72c4ZHheeG9fKdvx42yZ6feF5uU4FJlIgaTAEp+c//uM/rqql02mFk5meB2ADwMl2L3Cp4FaZ+2TOFa4V32fHYGgVnNNcLIOnqd7feOe18092vtWrVwvyT+34q13mOwwBiqpRQt/moAgOUefwWWkdfMFB0uBJ2fpkp5T9elC2PNkhqR23BzDU9YqkkUztw2PqBgVhsj4dfwgJ1MwZSjoMxeFhMpcn/CKfCDIMDrAcDyBCAAvPG65PBFrhcbYefz3YjvuEW2TOF7ZlO87OgSVgaCrwZXrZ6w3PwXUqMF0FkgZD8R9qg43phsmyPQ/QUFxcrKADOAAkwLUJr4ljtm3blhUeADMGNPYcPB+g8/LLL48bzsOxOA7wk+11hOcaD1zwvGzwZOBm54gv8bzJYCr+nMke5yMMAX5CdwiPq7CtGWMOjUhj9xFp3fuCtA+fkbZ9L8qtpb+QGzf/VDY8UC+pHZta1PnRUBkgKGjmFGEfIAnLgfRrcmcpB11MOgwBNsIQFh6PBy/hdoDM73//+x9ARggHEwEHQGM2YWg8JwfbCUPT/Unm8QulQNJhaLIfZuzHD34cUiaDIdsfhyE8DuEB5zWAicOQOTJ2jvjj+L1PBiY4z3gwFJ4rfh/YN95zsx0bnmsm6/kIQ3WYfqPFTceh4TKEzazBKcKs9m0j0tB9RKvL1t9bI2vvrZF1d1dLqnxrhwKQhcMUhvyI1FjX7d2vSD8cIl2+IpVb2xfqO2HWrzubgy5inKEkVJOF4ALB44/HexMAGONBRngOuCXjAQ+eP96+8LrTdYYM5rC0P8KQKcFlriuQRBjCD7gBBn6sAREGJPbjHTo7cGUAESFIGOzE3ZTQScF14ufFY2y369gxdj473q5vj+34yYDIjsu2HA9owmPtuqE+2I/7CCEO2+L3HJ7natbzEYYsXwgABFfInCJ1iPYMSVXjPm2oJMMo1cUVT0vJXbtl3b01ktp2W7MCD0JjAJ8eTMnR9bIro0eVGQZgxGOMN9T1igz0vCq7mDM0ZoTopJXWGzhYiAfL0CXCD4eBj/2IACyQf4PnZoMMgyEA40SJzCEMmYMUOk9TXbd7t/vDYzx3NmBoqveA4+L3YffDJRWYjgJJgyH8gOOHHtCCJX7ksY68m/AHHFCAcBbgI/zhN0jIBgI41sJkeA7OHYJP/Dn2GOe0dTzHgCR8bnhvBkQ4NtweX8f+EGBwnRDo4sfjMZ6T7Rhsj99PXKNs55vJtnyEoao9GQACGOExAEihyOcQIWyGCVzhEq3Y8JjctPW/ZN3dVZLavqlF0p1nnTuk+UI+YRoQ5J0guEIGQ1i/gxO1JhaGDFrsh9wehxCBL/E4DIUQMxEMGRzgfLYe/ijEzxvuC9fx/LDSLdwXX7fXgNeELxO7brb7NACLv14751Tvz65p17Lnc0kFZqJA0mDIfpwBBnB1QifH9mEZB5twH9ZDeLF98efgGiGMGORgO54TPrZ1QBmeg+8LO2+2pV3/qaeeinJ94q8F5wivPxkM2T1kuzZAKA5Dk50v231PZVs+wlAtKsma9kcOEEBoN9ygPZY3NCz17aNafl/fPiLL1j7kZq3HCNRIoHYJ0y4nSBOoFY5e9mGxV9UNQogMQIQlw2TJLa0HBOBDiDbRD/lEUJANMuJwgHnYzEkKfxwmOm943HRgCPeD14PrYQkowvOz3edkMBTeA9epwHwpkEQYMpAADNkPPD6f8ZBXtscGHHYOPM9+4OMwFH8chwfAh7lPBiIGSjgn7i3bPWBbeF0cG78WtuGY6cBQtuuZPljGrxk/v+lwtct8hKHQGcL67sa9mkCN5Ok6D0ENfmZ7uEXX3Xy3XHfTXbLo5rslVbalXZ2hdJcLj2HZqy0TGlNnyIfLsL5zW8d8fQfM+XWYM5SR2EAAoIK8nRCGDGYAK/gLoQXrYZ4PIAPgAeiIt/CcWJ8s/Ja5u7Fr04Eh3F8YnsNzLVSHJe7X/kwDHGN/WI+/jpk8Ds9p5+aSCkxFgaTBEGADMIFQENbDsFb4Iw64APjEAcCOMRiKw4rBEo6zYwxw4vBg14ifY7xr2rWzLacKQ/Fr2f2aLvYY1wAAodnriD83fJwttJbtPqeyLR9hyCrJEAZTB6jjkNS3H5QaJFb75GoLne1uGNSpOCIYKt/WISiZd9ViCJE5CEJuEBrgxxKn3TpzhsJKMqwnJWcIP9YAFAOfEFywLwxLhTBksGA/9tkcl2zntG04l/2F57Vt2Zbx+8l2DLbhXvCl9uGHH0YAZMdmu89sMGTH2xK6hPBn27mkAnOlQJJgyH7UDTbij8MfaoMDc0bCfVjP9tzxgCQECrt2/Hx4bO4QjsFzzNUJ13GcQZRBlm2Lgx3OY+fAMTg+G7TYa2lqahoDh7guGp47UcN1sp13oudMtC8vYQiVZC3DWjEGGKprG9HHyBOyJGosNXTWuFcnaQUMYX6yVNnmVgWgdMcZXcIVQg6RhcTUFdLwWAaMyje3ztVnft7PS2foh5IbpIQwBEgJASCEFjve9meDDDsmPCeuHIcaO68B1kwcGHsOXJ+hoSEFvGyQY6CEffaX7Tjbh+Vk+8NjuU4FZkuBJMFQ/AcYP/RwN0JgsGOw79FHHx13TCADiBBussGQbQNoTAYMBkOAFjRzaeIQkw0+7DpY2muYKgzZ8fFzTAeGsmlo553uMh9hCC4QGlwgAJBWj2m4zFWRaeisYa+rKGvaL4tvuU+KijEdx/2oJmuS7vbT0usBCEtbD5OmzRXCktVkyc0Zwpd3HFwADfH8HoMW+7I3eMFyOjCE5+NcgKT4de3c2ZZxiMp2DM6HcwNgskEMzmEAZ8+PH4f7wjnsz7Qw4JpsGT+/nYdLKjAdBZIIQwYygJN9+/b9AFIsl8cGOgSMxH/Q7RyTwRCeZ9CFZfw8ABBAD6CsqqpK7wXXMzDC+W0d2+268XOFIIP7xuPZgiG7/zAsZuvYh1boMFTXfkgHWDQXyEJitrRkalsuuvleBSIsU3B5zAkC/KQ7z4i6RB6OsA2hM2t4vJPjDCW2mgxf0HEoAQzEf9SxLYQEew62TReG7EfBzhF3j2x/uJwKDIXHxyEH++KvAdvix2U7JjzvROtX89yJzst9hadA0mDI4MNcmhAiDFRCiAjXbT+WBiXYb+c0QMDSXB0DGWwLocqeH0KEHWvHGWjYsXateDgM92OvAw4UroVj4/eO89rrDl+Lrds5sMQ2u77tH29JGBJp6j+hk7QiVAYAsgEXtaqsYW807pA5RtfddI8AhK69EQnUt7vS+p52B0EKPxhrSCvKxobLLGRWsbktMd9Gsx0me+ONN+SFF17Q8A9+sKfS8BwAAO7l7Nmz8vHHH4+BrXiO0niP8Xx8aV7tXwglcTiwc2f7ocdrRWjqnXfe0SWgyP7Cc9q2+HIqx9hzrhaGxntd8e14nVOBM7svW07ntdhzuKQC4ymQJBgyqMCPt/2wxwEg/tgABWBhzwFUhOBjQBN/rl1vPAfKzmdLu5bBEK5p8GLAAdix69nzsLR7MgjDtvmEoVDT8L5msp6PYbLG7qPS1Pu8NKaPuVwhHyJ7rmFQ0OAImWuEcYiWrXlEVm78idx4+88yzpDCT1BS7xKpXTK1JlDDIYJb1Pmy7NrKarIQSCyB+tixYzoVBexRgMlU26uvviqo4Lp48WLOwdB4X87ZYMiOnakzFAcRO1+2JQAlTOjOdky4LX5uPB/ghu3hXwgx8eeEx022Pl1Ym+x83F/YCiQJhrL9MANgbK4wrAMmQvDBcww0DFKynQfbQhgysDGYwf4QbrKdI3x+tv0GV/H7s3PHIWkmMGQhO4O9ySDHXme2e8r2GqayLR9hCIBT33lY9vQeVyDC1BsYXNHCYthf1zaqeUUNnYcUhJZveFxWbnxCUjtua3Kl9T5XSMNh8byhzrPSjyRqHYX6rFRsbknMNxOAJQSbmawbDB0/flw+++wz+eSTT37QAAgXLlxQ1yTbfnzAfvOb3+QFDBkwAIiy/eG1TqW0Pv7ciQAC++L5OdNxbEKwsfvDObP94bx2rWzAFD4nPNaeY8vxzh8+n+tUYCoKJB2GzHHBfyQBAuP9+OPH3sJP4/2gG8xYqCoEIXsOzp9tO/YDtsbbN5X9OMaAyWBmKku7pt0/ljgX7jWbHtgWnteej+fMRstHGNLQGICo64g0D77ggMhK69tGIggCCCHRGhC0bO0jUlTykKRKNzVHo0sjROam33BTcEQA1PmyukK9nWekv+usVG5hNVkITSEMhdttHYD029/+VkZHR+XUqVPy6aefZgUwHJNrYTL7ojYAsh/6iVyZqThD8fPZeacDOHZvU1mGMDSRqzWVc/EYKjDfCiQRhgxs8IOOH3JASDZHKP7DPplDBIgwZyXu0oTnwvUNIOJggX12nRA4xlvHseG5k7CelzCkM9Tv12oyhMzah89K29BpFzrrPupGnm4bFYxUXdd8QBbfeI9ce8PdQc5QxxmfI+QTpb0zZDDklnCHzkp/98uyaxtzhgx0sJwMhrD//fff13l3Tp8+re5R+HxbzxUYmu8vel6PClCBiRVIIgwlARiS/BryEYbg+DR2HZGGriOyp/uoOkOt+16U1sFTUt9xyJXa+9L63fWDsujGe6TolvsdDG3fuEddH6sgQ5jM5Q85N6hPq8oyINSnzhDDZAYwtoQbgvls/vKXv2R1fQBEcIT+/Oc/j7sfYZUzZ86Me4xda7zlbCVQT/y1zL1UgArMtwKEodkJ/SQZXmb7teUjDOk4Q20HpbZlWOpah6WuZVjq2w7KnvQxzSOq6zio4w9pEnXjPoUgV1F2t8sZ0rGFAEHqEJ1xIbGOs9LbcdaX2Z+RgZ5XZECn5ECYjDAUBxJADhKhR0ZGNByGkNh0Gp6HnCNUYsXPPdXHhKH5/oni9ajA/ChAGCIMzTbsTHa+fIQhJEhrOT3K6hszra51RN0iVJo1dB7WsvvdDXu1rB4DLuo4Q3CG4AQBhHraT48ZZ8jCYv3dCI95d6gLCdTN8/MNMA9XmY0EaoMV5AbB/fnoo4+m3VBOD6CCg2Tnm+6SMDQPHYaXoAILoABhiDA0GbzM9v58hKEqhMAa9km2ZXXT/giI6jsOSk3zfll8871yzQ13yaIb7paUhcl0ctbOM4IwGBKl0x0YlfqM9GKaDiyDRhgaOwL1dKFlro4nDC3ArxQvSQXmQQHCEGFotmFnsvPlKwxVN+5TV8hB0T7BY8DRc3UDAjcIzlBz3wlp7DoqRaselCU336eJ1KnSTU2RI2TAAxBKwyUyIArgCLBEGCIMzcP3Py9BBaiAV4AwRBiaDF5me38+wlDNniEPPwCgjEMEIELCNKBIgajjkDT3Pi+3bP+VLF31oCy+6V7kDO2RnvaXtBn8KAx5EEKozCAJIEQYyk0QgttEZ4i/nVQgmQoQhghDsw07k50vL2EoyBMC/DgAciBkMAQgAjQh2RowtLriGVmx5lGMM7RHHaAxIKQTt44NjQGCAEZ9nWek4vamxHzjzGbO0FyFv6Z6XsJQYrolXwgVGKMAYYgwNBm8zPb+fIQhFxKz0JhzhyxMZnlE9rh6z5CsXP+4rCr7tbZU+e1N6vbAHepue1HDY3CCAD+hI2TbAEPlm/aM+aDm8wPCUD6/e7x3KlAYChCGCEOzDTuTnS8fYQgVZICd2qb96v4Y+Fj+EJY4Rt2hxiFZest9smLdY7Kq/L8lVXpbowIQQAhAZA6RukBdmURqc4YAReW3EYam6tbM53F0hgrjh5GvsvAUIAwRhiaDl9nen48wZKExhMHQAD8OiFz+kO238Nl119+lAy8uW/2QpMo2YdDFMy5huv30GEfInKEQkAa6XyYM/TU384YIQ4X3I8lXXBgKEIYIQ7MNO5OdLz9hyErrLYE6vtybSaSuHxSFoRvuViCKnCF1hVBB5vOFAEDYZkCEJUJk/Z1npWITc4bm0/GZ6rUIQ4Xxw8hXWXgKEIYIQ5PBy2zvz3cYMheo2rtD0WMttXdO0bUr79QxhjBHWWr7hvoogdqASJ0ilNejoqzDQRBAyK2flkomUM94YMSpgs1MjiMMFd6PJF9xYShAGCIMzTbsTHa+fIWhap83lMkTcm6RwRDyhTDmEPbDGUIDFKV2bGyIwmSAIQUiX1YfJVFj4EUFo9PS2/6SVNzOnKGZwMpcP4cwVBg/jHyVhacAYYgwNBm8zPb+fIUhB0FjAUhzhOqxzYXJ9HHDXgWhJTfdK9esuMPBkDlCIQxpuExdISupdyAEKCrbWJ+Yb6PXX3/9qqbAmGvAmc75CUOJ6ZZ8IVRgjAKAoXPnzo3ZNt8P8OM42z+4PF/uQl4+whBAyByg5+rcOEP2ONznyuz36sjTCJHBHdIwWVhJBggyOOptPy39Gh5zINTX6R5XJsgZwkzxH374YU6GvaYDQjiWMDTfPw+8HhWYHwUw3yEmcV7IP8JQ7oLLXEBlPsKQAx/n/jxXO/CDQRddeMw5RAAizElmTcNkyA2yirHeTuQJAX5c01whlNy3v6jbAUdJgiFMjHrhwgXBJKvThY9cO54wtJA/Fbw2FZgbBb799lu5ePGiOthzc4WpnfW9997Tiajn4oeX58wt0MKE43i/8+3Phb9cBZnOReZHocY6nCK3dJCEdYAQ8oXUGSrb1CjpDuQKYcDFFwUwlEbuEAZg1EEYX9Q8IeQKocEdKr+tId80mvB+QcAAIjhEVzNr/ELDEWFowreZO6lA3inw8ccfC76fFtoVgnD/+Mc/5MqVKwSiL3ILXGYbJAFCeJ/xfufbnwuFwRnK5AdZnpAtDZKwNBDyYbI6hSCDob4uTMNxWnraTul2ABIACG6RwlL7S4nKGbI3GxCEDoAcIkBFPjbcfz7eN+85P/sb37e5fd/Onz+vEITvplz5ww8kHAMAGlsyNcD7m48ghM9IBoaQL5QBIoAP9hkQmYMEZyiqJtu2vka6206pM2RABGcIrpC5QWElGYBox/raXPls8j6oABWgAlSAClABKqAA5CDIJVIDgpA7FLpBllCNJZKn4Q5paX0IQwAdC43p0sJkHaedO+QhqXRDHWWnAlSAClABKkAFqEDOKADAcblBmUoyBaI6lycUgZCvNIMr9ANnCPAThcay5QsF4wyVJ6i0PmfeRd4IFaACVIAKUAEqMGMFssFQGBozGLJKsx8t3+mcIZTWmzMUhcR8ovQYZ8iqyXwCdUXCEqhnrDyfSAWoABWgAlSACuSEArtRMVbrm1aPOYfI3KGq+kzZPbb9ePkuufb6u2TxzfdKatu6as0ZiuDHXCEfIgtDZwpMqCajM5QTbzxvggpQASpABagAFXAKKOwoDCFXyEJmY0NklkOE5Y+W7dQw2dJVD0pq+/oazRNCiKy79QXpbj2l4TI8BvwAhmy9rwODLp6Wnbc3UnsqQAWoABWgAlSACuSMAuYMYRk2VJLBCVJYsqTq2gG5Zvkd6gwtXfWQpDC1BqDHwZADIXODLHQG16i3/UUFIcDQrgSNQJ0z7yJvhApQASpABagAFZixApozpNVjCJUNyG5tgwpBAKEqQFItmtt33Yo7ZcmN98ry4oclhTJ5AyELlSkEWQWZjkb9kpgr1N9xWiqZMzTjN4tPpAJUgApQASpABWZfAZTVuzCYg6GqeoDQ2HUFIe8cXQsYuvk+WXrL/ZLavq4mCo0ZDAGO1A0KKsjgDPVhhOr2F6V8A8cZmv23kWekAlSAClABKkAFZqoAYMg1FyYDCGm4rBYhMucQAYZs+6Lr75altzwgWCoMGfyES+QOKRwBgjowFQdyiE4pEJVvqJnpvfJ5VIAKUAEqQAWoABWYdQXgCo2pGEM4rM5DkHeDnqvp1zAZjlt68/1SVPyQLFqJ0vq11VHCNBKoHRBlkqjTmkgNR8iBUH8HnCHC0Ky/izwhFaACVIAKUAEqMGMFnqsJ4MfnBjlHKJNQbTCE/KKiWx6QJTffL9cZDIUVZICfnrYXJN2OucngDr0wxhVCqKyCYbIZv1l8IhWgAlSAClABKjD7CmjStCVJ29ISqfXxgDzrnSGE05be8qCC0LXL73AJ1C4k5uGn3cOQTtSagSGXL+RCZYSh2X8TeUYqQAWoABWgAlRg5gogJAZ3KIKiukGFH7hBug2VZho6cxO3Il8IIPTjop3IGXJhMnOCuttORq4QHKKetpPSi1CZhsuYMzTzt4nPpAJUgApQASpABeZKAZTNa6gMITLvDAF+otCYhyGMO1TTOKQ5Q9cs2+VhaH2VAIBCCAIYAYR0G8JkWl32gqRbHRhVbGQ12Vy9mTwvFaACVIAKUAEqMH0FnPvjQEghyJwgn0htsFTVOKQwhDGGMs6QwVDrSeluDV2hk84V0sRpFx4DFCFcVnkbZ62f/tvEZ1ABKkAFqAAVoAJzpUA0oGIQLhsLRQ6UavbsF7hDGHQRTXOGtq3bHTlDgKEoeRpJ1N4JisJkbaekv/Ml2bmpfq5eC89LBagAFaACVIAKUIFpK2Dgo7lDGh5DiMy3oMweMIQEauQK/XjZTkGoLLVlzbPqCFmoTN0hgJBvIQiZM8Qw2bTfIz6BClABKkAFqAAVmEMFNEyGXCHf8NhVj7kpOPAYjpDOVYaJWpdWatME6s0lzygMuWRplyfU3XIiU1JvydNBAjVhaA7fTZ6aClABKkAFqAAVmLYCBkNVIVuCBQAAIABJREFUdXulqn6fVo4BhnS7L7GvaTogz9W7KjNAEEJk6gxtXftc5AzZuEI9CJchf8gcIr+OgRcx6GLlbUygnva7xCdQASpABagAFaACc6aAhcQiZ8iX2UeQ1LBXapr2q3OECjNAUJQzFMFQCD8+X0gHXNRKMlSRvSB9HobK11fP2YvhiakAFaACVIAKUAEqMF0FrKwe8GNNK8jgCtUPSnXjkIbINKeopl/+c0mFAtGYMJlLnh47ppDOR6al9Sivz4xEXb6BMDTdN4nHUwEqQAWoABWgAnOngFaToZLMSupj6wiR6dxlPpcIMKRJ1Bh00SVQn9CKMh1gMSylx+SsBkN+olY8JgzN3ZvJM1MBKkAFqAAVoALTV8BcIHOINFzmB2DUgRabDoxJrjYQCqrJHAyl205qKAzhMKyjRe5QAEaEoem/SXwGFaACVIAKUAEqMHcKKAxhsladpBUVZK6KDG4QQmQYddpcIywBQ6gog0MUOUNwhQyAbNnTeiKapNUcIoASE6jn7s3kmakAFaACVIAKUIHpKxDCENwhVJKhwRXSfKF6H0LzFWZwhABECkNb12KcIVdKj0EWAUAGQ+oMaUWZS6A2IKIzNP03ic+gAlSAClABKkAF5k4Bc30UiiyJumZAqhr3SfWeIZ2jzI4BJNlUHHCHUg6GXCk9QAhjDCkQaXXZSR2FOnwMICpbXzV3r4ZnpgJUgApQASpABajANBXQ0nodTyhIoq4fdBVkcIVq+mV3BEn9cg3GGULDCNTb1+9WZyhyhABB1nTGeoxGnQmhMYF6mu8OD6cCVIAKUAEqQAXmXAELjSkU+Wk4qhuGpLphn5bWA4TCpiDkgSi1bR0GXfRukEFPDIYAQAAiAJPCEJ2hOX9TeQEqQAWoABWgAlRg6gqE4TGsV9UOatI0coYcBDlnSN0hhMmKdso1Syt1mdqxbrdzfgyAdOnyhhSCLI/I78e2io01U787HkkFqAAVoAJUgApQgTlWAPBjSdRYx5QcqCDTsYXgFFX3ybNVvdp2YwTqpZXy46UVcp2GydY+K+kgadrygwA9CkPeEdIZ7P1YQxUcdHGO31KengpQASpABagAFZiOArtRVu8bYKi6fp8CkYKRhchQYVbVK8/V9CkM/WhxufwYpfU7MDdZkDStk7SaG2Q5Q+Ya+TBaEp2hzz77TC5fviyvv/66vPbaa3nZrly5kpf3na96877z83PC943vWyH3gXPnzsk777wjn3/++XQ4Iy+ORYL0s9WuIW9I5yGr3+vGFvLJ05YzhGOvXebCZHCIUtvXPKu5QIAga5ZAre5QMACjJVKXr9+dF8JM9SYvXbokFy5ckA8//FA7yF//+lfJx4YPOO77b3/7Gxs1YB9gH2AfYB/I2gfef/99uXjxokLRVH8n8+E4LZuvGZBnqvs1YboWM9TXuRnqAT9WVo8lSuuvw4z1ljO0reQZhSGEx7qbn8+4RG1IlkYVGfKHXOttd1VlZeuezQddpnSPcIQAQljmIwCF9wwY+vLLL+Xrr7+Wb775ho0asA+wD7APsA9EfQC/DV999ZX885//1N87AFGSHCKXGD0gcIWQNF27Z78mTmtYrLrPldVrmKxPy+yRKzQGhjQ0BvBpPTkGhgyCxixbT0j5+uemBBr5cBBCY3CEQqjI13XA0L/+9S/5/vvv2agB+wD7APsA+0DWPvDvf/9b/9P8wQcfJModQr7Qc1WuYgyJ09X1e6WqdkCbjjEEdwjhMh8yQ64QYEgTqLeuflq6W56Xntbnffn889Kt694N8q6Q239Ck61L1z6TD5wzpXtEjhDIOF8BKLxvwBA6Of+oABWgAlSACkykwHfffacu0fnz5yc6LK/2RcnTcIWahzNjCgGCqp0bpOEyD0RInrby+tTm4l96EMqEw+AExUNk6TbAkoOhJIXJLM8mhIp8XScM5dXnljdLBagAFVgwBRBB+Pbbb7XoZsFuYpYv/BxyhVBF1rBPahqGosoy3a5VZs4ZshJ7gBBcISxT29Y840vrx8JQGBpTV0jL75PnDBGGZrk38nRUgApQASqQFwogrQK/gUn5Q4gMYwvVNh6QGh1ocTACInONECKDO4Q8Ipcv5Add3Fryaw2TITQG6OlqPqYtCou1YXRq5wr1qmN0QugM5Wa1GZ2hpHyk+TqoABWgAnOvANIqEgVD1f3qCOlAizoAo59+Ixp/yEFQOM5QlECtMNSKKrLjrvl1DZVp9VgmdwgwhAEak5QzRGdo7j9wvAIVoAJUgArkngKJgyGMLYTEabhC3gGKcoQw6KLlDqGyrKZfB1u8ZmmFLFp+h6S2ljytzs8YGPIuURgqAwj1tZ8ULHes+e/ce1dneEeEoRkKx6dRASpABahAXiuQNBjCiNPIFcL0G1HCtJ+CA48BQBEkVbsRqOEMRTAUVo8pFMEdCoBI97caDJ2kM5SjgzIyTJbX30u8eSpABajAvCqQNBiqadwfJU5rCb13gxSCasdO0go4QuI0yutRVZbatgY5Q8cF1WKWM2Q5Qljaehp5Q77RGWLO0Lx+YnkxKkAFqAAVmHUFkgZDGGixqmGvJkgrDPnxhDDWUDQNR3VfNO4QXCEba8jBUJQzdEy6W49HAORGnM7kDOmErgkbdJFhsln/fPGEVIAKUAEqkAcKJA2GNFeoDiNQ+4EVg+Uzu9PRbPUWKoMjpBO1Lq2Q1Pa1/x0lT0cukB9ocWzOEPKFMEo1E6hzdRwihsny4NuHt0gFqAAVyBEFkgZDVfWDkQOkTpBPmAb8PONnqo9yiWr6NVcI+UJuBOoSjEDt3CA4QQCi7pZj0tNqobPjUXjMwmSla3+dI2/l1d8GnaGr15BnoAJUgApQgfxTIGkwhAEXMZ5QVe2gVNU5MIq7RK6s3o01hDAZQGgMDIWJ026soaPS3XrM5xIdk96257UBiMrXJ2c6jpnA0F/+8heZ6zYT94nOUP59GfGOqQAVoAILpUDSYAgAhNGmtQWDK8IVstAYYEhziHxpvSVR+wTqYz6J+oRWkbm8IecM6TQccIlaHQyhtL5QYQhzmL3//vvyyiuvzHnDdaY7ZxphaKG+UnhdKkAFqED+KZA0GMqMMo0xhfy4QjU2J5kvrQ8qzABCQZjsl+oAwQVCeMyWCJOh6TaEzVqOSbr1uI4zVLHh2fx718e54+k4Q7///e+loaFB6uvrdYn1uWh1dXV6DVxvOg4RYWicN5mbqQAVoAJU4AcKJA6GagflOT/atM5ej7nK4BTBGcJ6TX80i/3u2n651s9LpqX1W0scDEXwAygKmtt+TLqbHRAhXFaIzhBcmkOHDklTU5P8+c9/nhakTAdocOxHH32k18H1puMOEYZ+8FnnBipABagAFRhHgaTBEKrJECrTnCGAkYJQnzxX1acwhH2YswwNAzMuuuFuWXLDPXIdRqDetuZXkfvjZqbHPGRjmzpEzQ6IAEOFmEANKGlra5Oenp45BSEDJ1wH1yMMjfMp5mYqQAWoABW4KgWSBkOYiqNmj2tuSo4BgUOkLlEtpurYL7VNB6S+eVjqmodlxeqHZVnxQ7L0lvsxHccvpavZJUvb0g3A6MNkPnxmYTLkDhGG5n7QxYWEoeHhYUGbjb8//vGP0tjYKJcvXx5zur///e/S1dUl2H+1f7jX1tZWwTnjf19//bXs27dvVq4TPzcfUwEqQAXyWYGkwRAcIFSPAYQcGO1363v2S13zAan1DSBU3zIsK9c8KssNhras/oWDoRbMVn80alGukE+etjAZoGjHmqfz+f0fc+9TzRkqFGcIQAGweOmll8boBOCora2dtPX19QkAxP5wnvFAZSKIMYiKXzMOVXhsx8T34R5wL7gnAJmB11Rfy0TntdeH5WTni2sZPpfrVIAKUIGFUiBpMIRKsWerLWG6XzDuEBrgp6H9kNS3HZT61lGpaxlWMFq++mFZvvoRdYdSm4t/HgGQhsNaHRRFydS+vN6V1p/QBOqydYU3UStgaGRkRI4cOTIvYTJcB9eb7zAZgCIEh6v5kBqInDhxQoHE4GIqyzhAAGQAVQY0uC87P2AE9z0edNlx4+0PzxW/LvYZIGa7b1x7vD97XjZIG+853E4FqAAVmC8FkgZDSJDWEno4RFUueRr5Q7WNQ1LfOuJgqO2gNHYcloa2g7Js1UNyfcljsqL4EVEYMhcoM67QcU2iVjhChZmvJLPy+rJ1hTno4gcffKA/xpbXM5dL/OjjetO5xmwkUGdzOWYKRxMBylQ+7NAAoTRARTYYwr2GTlT8cXiNycDEgCkbDIXnyXYf4z0327HhubhOBagAFVhIBZIGQ5hyA00TpmuQL4Ry+gFNmK5vGXFA1DqqIAQgumHdE3LDmsflhjWPuZwhK6e3MBlyhsKKsgwMYbyh4wVZTTYelHz22Wfy4YcfyscffyxYD4+Dq/PJJ58o1GCZzeX505/+pNVjs1GhdrUwZMAAIEALQcP2ZXNHbFt4vAHCRM7JZF8CIQzFwQr3l83pmQiIJrqe3e9kMBTXBec0beIOUPyeJ7o+91EBKkAF5luBpMFQFcrqYxVkACJUjyFUpsnTLSO6DqdoefHDsvzWh7Sltq99WsFHk6f9OENwhAyIOpuOaBgNuUJo3c1HZfuaX873ezZn15tqzlAIObYOkHn11Vfl8OHD8vzzz8u5c+ciIAL4/Pa3vxWEiI4ePSovvPCC/O53vxsDRNh/6tQpfe7JkyflvffeG7PfrjPV5dXCUAgY8R/98X7w7Y2JHw8QACQZDBlsGDhNtMS58IdzGGCFYIH9E7lVuGY2ULJ7xTL+euz+7NrhsbZuz4kfg+3ZksFxnL1+OweXVIAKUIFcUSBpMATwMSAKQ2aWN6TuUPNIBEUrVz8i15c8KiuKH5bU7aueUtiB+2PVZKFTpK4QnKKWo9rSrcdkx1rCEFygixcvaqk9gAdANDQ0JL/5zW/UHYKrcfz4cdm/f7+cPn1afxQBPHCRADeffvqpjI6Oal7Qiy++KP39/Xo8tk8VfuLHXS0MhR9Q/JAbiGC7gQCgJNtfeLyBRQhD2Z4z2bbwnLZ+/vz5SUEH58V9trS06Ptj4BWCSfz12D3jOuP9YV82yMoWDpvK+ca7DrdTASpABeZDgaTB0G4kT2u+kFs+u9sPtqhl9UPqCJlDhDL75ZYztOohHyYLKskAP4AhS6bGeroN4TFsc0C0fc0v5uN9mpdrzNQZgisEtwc/sICSP/zhDwpE+MHEY0ARYOeNN97Qx1hiEEW4QdiP6TYGBwfl0qVL6ga9/fbbCh8GS3HQmcrjXIEhAxeUtIcAMt03FOex59s5ARn4A4DAHTLQCZfZgAXnsXPh+dOFoWzXM3cK+yy3yV5j/Py2nUsqQAWoQK4okDQY0klYNU8IYwu5gRY1kRrhs9oBqW3c7wddHNJl0U33y/JbHpIl198jKZTWKwAFQAQQsuYGYMTjo5JuAxgdE8LQX3UUasxRNjAwoIDz1ltv6Y/t66+/HsEO3CKEyABGWOIxIAhgA+jBc+EaYdoNuEuAB4w+PRXwyXbM1cIQgCOEinAd4UBAxmTOECAA0GFLAxBzSsJzjreO+8Afnhs/JhvoTOWLBeeye8HxcVgZ7/7wnHCfnSN0g6BJ/D7jj+01TeVeeQwVoAJUYD4USBoMhaExm4YDo1DbiNTYj3U9rnZAZ6tfvPwuQdNBFyMnyFeOGRxh6XKJjqozBHcI4TLC0F/VzQHYHDx4UA4cOKA/tAAagxnMao+QDvYDgrAEMGE7QAZhtpdfflnDZNi3d+9ePd72Z4OdybZdLQyFH764E2PwEP+RDx+HYTWcKw4g4flnso57MiCDKwMIMccmhDRcd7J7sddjzzPgyQYtOAbnC52uEIYmei12nWznneh53EcFqAAVmGsFkghDmJFeZ6X3c5LV1O+NAEj3BUnWi5ftkv+8rkyuW3YHSuv/S7oR/mp1Ay5amMy5QCixP+pcIYTLWo9Jb9txKVtfeIMuZgMRAA2ACInTCHPFS+FRIfbuu+9qbhGW8YoxhNquXLmiz8cyvj/bNSfaNpswBKAA6MShYjofzrmAIdwPAANLnD8OMePBR/xe7LipwJC95vAc04Uhu46di0sqQAWowEIrkDQYwujTz1X3iYbLavqkGvOURfDj8oeQR4SJW9GuXVKpbekKdYYw6CIqxo64JGmFH+cAKQi1+fWWI84dYphsxmGsiUBmNvbNFgwZYGDgRzgx5moAAOCOYH/4Nx4YhPCA4/E4dJLGWw/BwZ6D+8D9GJyZSwSowbptx3Mtlye8R7sX3DtCfrMFQzjXeLlL2G77w9cU3hfXqQAVoAILpUDiYKga4wr165QcyBEyhyiasd6DkYbJqvvlmsUVERCltpZkYEiByLtEVj1mrpG5QlgWYjUZSuWR94NQ2GyAy2TnwHVwvWxjE4333NmCoRBuQriAc4VEYYMj+wADNLAd+8M/AxDbFn9s220ZAgquC1gKISKEnvg9Wi7ReNfAdoAcoAnHImcLSzu/AWD8tdm9YRmeO7x+eEx8HcdZSC++j4+pABWgAgupQOJgyCrJkBtUt9ePRg0XyJXcu0oz9xhABBj68aJybakd636lSdFaKearxRSEPBTZdix725/XMNnW1U8t5Ps3q9cGQIwHF+F2QEmhzFofQgfEBgQYJIRwhH3xx+GbE8KDnQfbxvsLYSjbMeF92bHYZsAxXpK3gQ7gyq5vz58PGAJ04R75RwWoABXIJQWSBkPq+NTAERqMBl+EK+RCYyi373XJ03CPqvpkUdEuuW7pToWiMc5Qj5bRo4Q+0wBG6gp5EEIuUaE6Q4UAQ3FIyPbBNTia7NjZhqH4+eL3BrAxhyjcl+0+49sMmAz6wufbOq4fhvayhePsWFvifNnuyfZzSQWoABVYKAWSBkOWPG0wZOMMOUdo7BhEAKP/vLZUfnRdmVyzuBzVZD/3ydMubyjMHcJ6Z9PhTFm9H2tox9rCG2eoEJwhAwL86Id/5ryEIDDeevjDH4eXOEyMdw5za8J7sHsbD1Ym22/nwrnHu+542+2a4euBJtkcn2xa2fPtHrikAlSACuSCAkmDIecM9bukae/+uGRpl0uE/UioBiQ9s7tHrllcJouX7ZRrl1RgnKGn1Aly1WRBIjUcIT+uEJwhOEQaMivQ0nrAEAZNbGpqisrnwzDabK6jPB/XwfXmM2doPGdlph/aEB5wjvjj+Hnjbk0cLAAfyEtC3s944BJut6Tq+HX4mApQASpABUSSB0MDURhMk6f9LPaaQF3tZrHHulWYAYIiGNLS+haU1btqMiytubJ6jEh9VLqxv/mIAlGhjjOEwRHr6+ulrq5OGhoa5qzh/LgOrjcdyJqtBGp+SVABKkAFqEDyFUgeDDngySRK+xwhD0LYrjBUiwlde+XHi8vk2iXlct3SCsxN9jMNhUUAhDnI/NhCCkF47CEIDhHcoUIMkwFK4NJgXCGMPD3XDdeZjiuE+yMMJf/Li6+QClABKjBbCiQNhhASs3GEEBILc4U0RGbl9thX3SuLiiplUdFOWbL8Dp8zFHOGuluOODfIT8GBKjKEzDDgokugLrycodChwSjRc93C6011nTA0W18RPA8VoAJUIPkKJA+GXG5QNL4QwmQYiRrNh8ye2Z3WqrLq2gEFoUXLdukydXvxk9LVfEi6Wg5LdytCZIekE4+bD+nj7lafQK1l9xh4Ec7QzxPTS6ZaWj9VIFnI4whDiemWfCFUgApQgTlXIIkw5BKme+VZHXPIxhQa0MfYVl076AZjrOlXCHJjDZVJavPqn2ZAqOWwrgOM0BSKWg5LTxtCZw6UulsOy/Y1hTfO0EJCzlSvTRia8+8OXoAKUAEqkBgFkgdDbsoNhMcwJYcLmTlXyE3Qmkmw3l3dpyX1yBlasnynpLaU/CxyhtQh8i4RQAgNEKStxWDoCJ2hv/51WonNU4WZqz2OMJSY7yi+ECpABajAnCuQOBjSyVkRKgP0DLiqsdoBwWStNfWDgtBYleYSudJ6gJA1DZMZ+MRDZREItR6WrubD0t2MkNkROkOEoTn/kPICVIAKUAEqMLcKJBGG3FhDA/KcB6Lqur06YaurJOuNYOi5qrT8eFGpjjWEpXOGYuExhMI6m8K8IZTdHxZNrG4+LFtX/2xu36F5PDtzhuZRbF6KClABKkAFckaBpMFQVf1enYoDIbExYbFqNxXHs5o8ndayepTWY9BFB0TlY8NkzglyIAT4sbAZtsMRssacIYbJcubTzBuhAlSAClCBGSmQOBiqHYyqxrSKzM9FhtCYC4+ldeRpgBAaxhdCmAxQFIXJLEQG8BkbNnNVZgZECJURhghDM/rk8UlUgApQASqQMwokDYYAQLsxsGKVLR30ICSmAFSDQRcz2wBCcIZ+dJ2FyYJy+rC0PgQkg6F021EpW//LnHkzr/ZGGCa7WgX5fCpABagAFchHBRIHQxEE2ZQbfYLQGOYhMwjaDSCqcWEzOEJwh3503Y4gZygYW6irxeULwSHKjDfkqsoQKttW8l/5+L5nvWfCUFZZuJEKUAEqQAUSrkDSYKhKnSHnCmHdxhzCMoKhapdEXVXbr+Gx/7x2u4OhrWt+limftzL6YGljDMEZgitEGMrNEBnK8llan/BvLr48KkAFqMAsKpA0GEJ4LAQigyBbAog0f6jW5RBZAjUma3WDLvrxhFxYzCdO+xGpAUFoug/TdLQcli3FT87i27Gwp6IztLD68+pUgApQASqwMAokEYae290ru9UJwlQcLkdIYciHxtQhCsJkyBvCHGWZQRcViCxZ2gFRdyum6bBQmRtjCM5Q6TpOx3G1AyTOxfPpDC3MFwqvSgWoABXIRwWSB0O9zhlCKb2fg0xzhKoxLUdaXSHAkDlFgKCxgy42HcyMQt2CUacxHYeDICzDx1jfviY5OUOvv/76tGeHnwuQmY1zEoby8euI90wFqAAVWBgFAEPnzp1bmIvPwVXhBCEMps5QlVu3snosbZwhwBDWESazUFlq06qfRHOQdTYfVAjSyrE2nyPUhhCZuUPYhhGokwNDly9flg8//DAnp9eYLiARhubg08VTUgEqQAUSqsBHH30k77zzTmJenYMgHyaLJmp1rhAACO6Qa84dAgjBHbpmcbmkNpc8qTlBSI6G69MZuUTOEVJXKKoqw6StR2T72uRM1Pr555/LhQsX5LPPPst7ICIMJeYzzRdCBagAFZhTBb799lu5ePGiRkbm9ELzeHIkT1fVDEh1zYCGwlBSb26Q5Qqpc4ScoepeDZGhtB4ttXn1k5JxhGzUaRc2AxiF+yxctrUkOdNx4H364IMPFIjgEAGOpuvI5MrxhKF5/NTxUlSAClCBPFXg448/lkuXLiXKFcJb4QZcdGMIZZwg5whZ7pAtAUkYcBEg5BOofyodTaMOeqIkaoOiTHjMQAghtG0JCpNZXwYEXblyRZBDBKjIx4b7z8f75j3nZ3/j+8b3jX0g//rA+fPnFYLwm5e0PwdANsK0hyAtp0f+UAhJLmcIYwwtXoYwmU7H8ZNoDjI3+nTGDbK5ySxnyAZg3LEuOWGypHUGvh4qQAWoABWgAoWogMLQ7sxErFEOUQREKLd3Yw1h6SZpLZNrAUMIk/0AgqySzI8/hBJ7OEPqDrUekh0JKq0vxA7D10wFqAAVoAJUIGkKONBxLhCcIFdJ5h4DjNw2v7+2XxYhX2hJubbUplVPaIgMoIPkaAUj5Ar5RGoFICRQ+xJ7gNG2NcnKGUpah+DroQJUgApQASpQaApgbKEQiKp1pOk4DCHJ2oESYMiawlAYDjP40cRpX0WmYAS3qOWgOBj6aaFpzNdLBagAFaACVIAK5LACACENjdkS5fRB2MwgSI+r7o1coWsWbZfIGQL8OAByYw1ZnpDCkYbNbAyiQ7J9bXLGGcrh95W3RgWoABWgAlSACkxRAQMhQE8IRvrYjzNkeUQYbwi5QgiT/fi67ZLacPOjWk3mkqOd+2MglAmN+XwhdYcAQwyTTfG94WFUgApQASpABajAPCjgQmQuSTqEIQMgtx9VZWl1kABCizElBxKob1v1eKa03ofCFIY8+IwFIyRSY9BFwtA8vK+8BBWgAlSAClABKjBFBSIA0mRpD0WYtFUnbnUl9zrOkG5Ly3VL4AyhmqxUUhsNhppGpcuHyjqaR6SzeVRzhJAnZLlCyBfqaTss29cRhqb43vAwKkAFqAAVoAJUYB4UyEy34cvrPQjFc4XcY+QMlcqPr9sm1y7eARh6TDq0cuygdLUelE605lHpbBoZA0EGQoSheXhHeQkqQAWoABWgAlRgWgq4meqDcYb8mEKWQ6RTcfjJXLFtcVG5ghCgKHXb6selvWlEOgA/EQw5N8gcIThGaAAirSZby2qyab1DPJgKUAEqQAWoABWYUwU0TOYHWLQ8ITfWkCunr6kd8KX3vbK7pldB6NolpeoQpTaVPCEdzaPSjtBYi3OGIghCiCyAIAuZbSMMzekbypNTASpABagAFaAC01OgKhhXKISgjDPkq8wUmBwMLVpapg6ROkOAIAMiLDMl9hh8cSQCIoMk5gxN7w3i0VSAClABKkAFqMDcKlBVOyDhQIsKQUECdVUNkqjTgiXakiIMulimLbWx+FF1hQBBSJw2GIoSqDWp2iVXE4bm9o3k2akAFaACVIAKUIGZKeBgaMDDjp92o8ZVlWk5vXeEAELVNb2ydFmFLCkqdzCkOUO+esxgSKvJvCNk+UK69CNQb1nzk5ndKZ9FBagAFaACVIAKUIE5UEBDY8gLqunzDlF/tHRjDDlnaHeVc4eQOI1KMk2gRs6QC5O5JGoLmVl4rMuX2CNx2pyhLWuemIOXwVNSASpABagAFaACVGBmCuxGpZgmSbu5x1zIzIAoEyJDqAwNEGTN5QxpOT3yhnyYDI998rQlTRsM4fHWtXSGZvZW8VlUgApQASpABajAXCiACrJM4nS/ZBJjiW/GAAAgAElEQVSqM46QgZDBEMrr0VIbix+LxhZCeb1CUOuhMUnUFirT8YeaR4XO0Fy8jTwnFaACVIAKUAEqMFMFtJzez0i/W3OFLG/IwxAcIR8iQ96QJU9rmExhqOWgjjWkk7XaWEN+5GkDISw1qbp5VDavfnym98rnUQEqQAWoABWgAlRg1hVweUFuTCHnCvUG1WWZMJkmUNf2KQxhKg43az1yhjRM5qbfgDOkjzVUNqoDMWIwRoTHOn2i9e2rH5v1F8ETUgEqQAWoABWgAlRgpgq4EJm5QVi6EvpM8rR7bNstX0idoU0lj7vBFuEE+VwhhaEW5A8NS1crgAighOk5XLt99aMzvVc+jwpQASpABagAFaACs66AwZCNRI1Rpg18qmozcGTOECrJ0FzO0Go3zlBny6iHolHpbMU68odGpFtdIUzcOqwNQLRlDcNks/4u8oRUgApQASpABajAjBWIwxCgx4BIK8sUiBwUVdf2aSVZBEMbVj0s7U3D0t7sWlvTcARCCIuZG+RCZMP6mDA04/eKT6QCVIAKUAEqQAXmQAGMOJ1pyBcK3CBbr7UxiHrVEUKIzFeTPRKBkEKRwZC5QwZEQahscwlzhubgfeQpqQAVoAJUgApQgRkqEIXEfHgMMBQCEdZravulps4lWS9ZVqlJ1ApDt2mYzDtD3iHSEBlgyPKFgiUcIjpDM3yn+DQqQAWoABWgAlRgThTQsnmUzle5EnqMJaShsuq0QpGBkMJQbZ8sWV4pi5dVOGcIMITBFi1UplNxIF+o1eUMxZOnkTtEZ2hO3keelApQASpABagAFZihAoAgawAjbR6IxrhEPlS2qKhcrsNErW7QxUcUhNqaDggacofgDEVQ5BOpQyiiMzTDd4pPowJUgApQASpABeZEgRpMwIrJWIOBFc0ZMpcIj5FMjYbwGNoYGAIEhTAUhsqwronUPlxGZ2hO3keelApQASpABagAFZihAjU1fQIgsjCZ5RDZFByZx5i1vk+WLKuQohWVsqSoQlKoJnNzkrlQmTpCljzt84YUjJBITRia4VvEp1EBKkAFqAAVoAJzqYA6Q4Ch6l55rqonM8ZQON4Qyu2RQwQYWlImRQCiZR6GfhAaax2RjpZhHXRRXSEPQVZqv2UNq8nm8g3luakAFaACVIAKUIHpKVAdQE8YFotCZQifIYxWnVYHafGSMlm8pFSK4AxtLHal9ZYw7ZwhJFAPZ5qORO1CZQCizSUcgXp6bxGPpgJUgApQASpABeZSAcAQKsYMfiwsplVkGGfIJ1gjrwghNUAQgAgOUcpK6zH1hoXLXL7QsHS1OShqbz6gOUM2GjVhaC7fTp6bClABKkAFqAAVmK4CBj+aI+RdIM0jwthCYXJ1lXOGli2rVBBatLhUUreveTwadFFdISurR2m9NlSXuQozG416U/HD073HnD/+iyOH5d0tt8nF//d/5ML//f/YqAH7APsA+wD7QOL6AH7j8FuH37yk/Y0JjfmqMoMgc4MAR1hHU2docalzhjateVTzg2w6Dpc/NNYV0pBZC6bicNNxbC55JFEafrL7WbmycqlcXnqdvLOySN65fhkbNWAfYB9gH2AfSF4fWFmkv3X4zcNvX5L+4AxZ3hBgB2ExW7pKM1dtZoBkMLR0abmkNhQ/KAiDxRsSqAFBtnTuEGaxxwjUyUmgBh2jUxCCCICEYPYB9gH2gYLpAyuL9LcvSQ6RgQ+WBjzhEusGSDgGEIR8oaVLyyS1cfVDEQgBfAyKMgnUmWRqgBDa5jXJSaCGXaiOEP8HlLz/AfE95XvKPsA+wD4wbh/Abx9+A5PyZzAE6Mk0Fxazx7t390RABAhasqRUlhSVZpyhEIQARHgcuUK+1B7bdTqOtcmBIcRP6Qrxf4MF879B/jCM+8PAPsDvgYLrAyuLNE82KTBkrg/Ax8Ao3IZQGR6jvL6mtleWLitTEFpsMBQHIXOHHAxlKsoAQgiX3b46OQnUSJYuuA8AfxD5nrMPsA+wD7APXL9ME8STAkMhAJkTpPDjq8cUkmoAQxh0Ma0gtGTpDlm8dIekbit52CdQZ/KGXIjMDbxoYKSuEBKoW0dkU/FDSdFOOwJhiP8jZB9gH2AfYB8oxD4AQyApfwZAgCKXMB3kCCkE9UhVdY/U+PWlRaWCtnjJdpczZCGx0CGy5GlAkO2PcoYSVE1GZ4hfgIX4BcjXzH7PPsA+gD6QLBhCtdjYijEHRqgyc24QlgZDgCA0AFFqw+qHImfIoAdLgyFb6j4fJktSaT1hiF8I/FFgH2AfYB8o1D6QNBiqqoIblHGEIrfIwxBACPlCtXV9ghAZ2vIVmJvMl9YDdsaExFrdWENuFOoR6Wh1+zVniM4QY83MN2AfYB9gH2AfyPs+kCQYCvOD4AiZCwQA0nVAUC1CaA6IipaVybLl5RlnqB0glAWGMAI1YKirbVSXBkwbix9MSoiROUP8Msv7L7NC/R8tXzfdHPaBq+8DSYIhTZCuBvC46TfUAQL81How8usWJkN4DECElrptzSNRmEyTpP0UHOYSOSAa9VNzuMoyjE2UlD+Gya7+w8QvJGrIPsA+wD6Qn30gSTAE90crxXRWepcbZC4QgEibzxmCQ2TJ0wpDG0sejlwhyxVyILRfOloORDPXY5vbPyKoQEvKH2EoPz/A/OLl+8Y+wD7APnD1fSBJMBSGwyL4CZ0hHx4zQDJnSBOoN65xI1C3Ne/XnCELhbU3Z2AIINTW5PYjoXrLuuRMx0EYuvoPE7+QqCH7APsA+0B+9oGkwRAcH7QwXwjl9FVV3S5fCHDkc4iQPA0QQt5QakOJzU0G2HEABEcIAATwQXNOkduGfZvXJGeiVsJQfn6A+cXL9419gH2AfeDq+0CiYCgWCjPoiZahS1TbG1WTrVhZ6WCooxUhMMCOc38c/OxXEOpqw7Qcbj/ACI83rWGYjB/Cq/8QUkNqyD7APsA+sLB9IFEw5POBXO5Qzxh3yEJjljcE9wi5QnCHMs5QC8JgQxEMIWTmwmbOKRoLR8gZYgI1P8AL+wGm/tSffYB9gH3g6vtAkmAIEBRvCkEekswhslDa0mWlCkMrVmKcIYTJxsCQC5e1tx7Q7RYqC92hjatZWs8P4dV/CKkhNZyrPvDb1bfIRz//mTasz9V1eF724XzvA0mCoZratOYFYUBFAx5zhOrq+7WazKbjwDHLlqOsvlSWryiXlCZQI0Tm84QQKmtrHhLAEAZazITQMmE0whC/APL9C4D3n+w+/MdHHpR/ff6ZNqzz/U72+833d+bvb5JgCAAUOUE+kRrQg20KRwEk1db1ypKi7VK0DEnUOwJnqHnIQRDyhgBGCkIYjNFBkMspcknUDJPNvOPxQ0vtcqUPABI+eebpWW/zCR/2Gv5w9x1jgAfbCUP8rOXKZy2X7yNJMGQukAGROkSAIYOkWow87cAIS0AQ3CGFoXXF92t+kOUJWe6QTr9hjpEfb8hyhzYUP5CUYYY4AjVHoB7zI5rLX1qzfW//+9b5Ofkc47yzfa/jnc9ewxdHj4y5JmGIIDRen+H2sX0jUTDkS+pdWX1m6o3aGr/uYQggBGACCKEtWbpdUutXPxDBkIXKLD/IQmYIlSF3yLazmmxsZ+KHi3rkYx/44vAh+fr99yZs//77FwpMWE52rO3HeedLj8lgSL77Tr776iv57ssvs7avfvubebvX+dKE1+H30XT6QJJgSMNkfvTpMGeoqro7Ez6zZOratOYKWd6Q5gzBFWptQpjMJ08HYwy5bS485lyjA8KcIX7YpvNh47H5218MNubT7ZlOf7H7G88ZIgzlb9+bTj/gsTN/n5MIQxhgEU0doFpM0eFhyDtC1TU9mkNkydMAIq0mQ8K0g6GhIJHa5QopDGGcIT8AIxwi5gzNvOPxQ0vt8qkPGGzkKwwhb2g+c5jy6b3lvfK7CH0gSTCE0JeGyKp9wjSSqOswJ1kmTwgg5HKL0lElmZbWu5whJEz7hjL7KInaKsoyo1ADhm5fyxGo+UXCL5JC6AOEIfbzQujnhfwaEwVDsRGoESoD/IQABDCqq++Turo+WbGiXJYvL5MVmI5j7ar7fM5Qxh0CDGl5vVaV+bJ7P+4Q8oboDPELspC/PArptRsMfXnlsnzz0UfyPy++IO/eviFn8mzs/sYLk9EZ4ndVIX1eZ/JakwRDliekuUM6KWs4c71bj46pSUsRRp8uKnUwtH71/RoacwDkRp4OnSEbb0i3NbO0fiadjc/hF3K+9gGDDSQhy/ffu2TqL76Qv7S1LAgQ/W10eEwi9Pfffqv39P0334zZrvf73XcyWc6QJVbjvPn6HvG++f1yNX0gSTCE8JfCDkJjGjJzuUEWKrNwGR7jOIDQ8mVlCkWpDSUorfe5QlGIzDlDbc37pL3FBmAECA1pRdmW9Y/OSUnuQpwUHeFqOhKfyy+iJPcBgyEs/zZ8QL773/91H9Pvv5cvL16QP9x71w8+P3/paJN//8//jIWTcaq5DEamssQ5v3rnyqyfF9cmDPFznOTP8USvLUkwpI6QT5JW8PFQ5CApyCPyFWXLl5dHFWWp9avvk/ZW7whF4wrt120oqQcMOVgako5WVJsNyW0lnI5jos7FffxiTUofCGEIrwnw89Vv3olcIsARICmc8uKz3h75/l//mvX/2+CcOPdUtP3wyccVnP5x9syUjp/KOXkMP9dJ7ANJhKEoFOYTqBWSAEDVPVIL98g7SFpWv7xUfAL1vdLeglGn0Rz4AH5cc86QPVaXqHlINhTfN+tfdAt1QjpD/IJL4hfcbL2mOAzZef/S1SH//sc/Ipfo63d/Jx8+/oiCx3vlO+TjX/9y1ke2xjlxbrsHW/7xofs1lwlL24aRteH4fPPHD6Jtto9LfubZBzJ9IPEwBCCy8Jlfh1NUh1nri3ZIUVGphstSa1fdI61N+7QBejrbDmgLXaE4DG1cff9CscusX5cwlPlQ8AuCWsT7wHgwhOMAH4CgKJfo718oAMXPMZePAUcY7BF/X//hffn9ttsVfiaDoQ+feFTgGmWDq7m8X56bn7Fc6wNJhCGEyAA8aPV1fdoMiABB5hRZvtCyZaWoJgMM7c0AUdO+KCyWcYr8NoTJWvYLYYgf6Fz7QPN+5qZPTgRD0BzhMU1q/vpr+eerr8yrC6Mg9N57CmP//uIL+XT3s9H1J4IhgNA3H3+kz/vq3d/lVHUc+/Hc9GPqOr6uSYIhdXzq+3RsIZTOG/gAiDR05h0hB0ZubjK4Q26i1jUPuCTpIEQWhyBNpG7drzPYw0XasJphMn64xv9wUZvkaDMZDNl7/cH998wrVCB36WsPQv/6/HP55L9/FYEQ7mk8GPpTXbUAnPD33T//KX9qrB/zPHs9XCanD/O9nPi9TBIMWa6QjjDtnSEDIoASIEiXtb06zhBGoF55faUmUac2rsHcZBhjCO6P5Qi5dTy2hiRrlNnj2PXF9+qXSRL+YZhs4g8Kv0gKW5+pwtB89pPI2RGRf332mXz0s5/8AGjiMAQH64sjh+X7b7/Rr624kzSf989rFfZnKtfe/yTBkIJPlkRpJE5XY3oOD0QGSEigRvL08hXlklpfcl+UOO0cIeQP7Y0gyPKFsAQQIZdoA3OGfvDlm2sdnPfDL9zZ6AO5BkNwoL79058UaBDqAhhle50hDH1a9ax8+8knLrfp++/l69+/q/lO2Z7HbfzcFFofSBIMwRmykJiBDx4b/FjeUK3mFPVoeAzuEEJlqXWr71X4adkz6MJlmhfkwEerx7Ts3iVY43Fn27DctuaBJJhC+hroDPHLr9C+/KbzenMNhnDvn/f2yP++/daEyc8YJfvzgT759k+fRgne2YYBmI4WPJbfFUnsA4mCoSAnyJwgC4sBhOrqEB5DqKxbAERIoMZUHDodx/o190fhL4WfYFwh5xRlyuzNJVrP0vqs/xtN4geFr6mwfwByEYYm6pN/uPsO+fuxoy4vyI+YjdDYP86ezjpA5ETn4r7C7vuF8v4nCYYAQGiWOxQ5Qagqq++PYAggBDACDKEtXbpNUmuKrbQ+U1HmSu3d4zaFo0zpPQBpHXOGCEPX84uyEL4scx2GUFH2l/ZW+d/z58YAEMr9MQ7S348fm9BBKoT3kK+R31UT9YEkwZDBD9wgbdV+hvogcToMn61cUSHLlu2QZcu2S2r1rXdJqyZKD8lY8HHl9M4NcusKSc17ZX3JPQyTEQYIhAXQB3INhlA19uWli/Ltp5/Id19/HYXA9AvJAxDA6NPq3eyfBdA/J/qR576pQWCSYCgKiQVjCVkeEZwhDZX5gReRRwQYgiukMFSy6i5Nlh7jBvnqMpdIjXnLkEOUaZvWM2eIH7SpfdCoU37rhLGDMJLzfI8hNF6/wSjUNvI1Jmn999/+Jl9eviSf9/cKQmTjPY/b87sf8v2bu/cvUTCE6TZio0wbBBkURRVnNd0KQcgXWrpkO8JkcIb2qivk5ijLzEXmIAgl9UPS0eYa1jeu5ThD/HDO3YeT2lLbifoAKsg4cjT7yER9hPum3j+SBEMKPpoP5KbbsNGnrZoMSxxjxy1dulUw+nTR0h0ZGLJyeixRWabjDgXJ1G0tCJUNCpbrVt/NMBktaP4vnH2AfYB9gH0gz/tAkmCopgbOUI/U16PE3pXZmzOEEBpgyMAIITNNnl6yXa5fWSmp9WvuVcBpax0SbTpJqxtsUYEIAzG2omH/Pm0b1nDQRf7PY+r/86BW1Ip9gH2AfSA3+0CSYAiAoxBUn5mc1cYdUgjyE7Y2oLKs1lWTwR1asaLUOUMtTYPS3DQgrXB+mvepM6SjUXsIAgy1Ne+NoIjOUG52an7Z8H1hH2AfYB9gH5hOH0gSDAFw4oMsjkmqtolbfahsWREGXNwuy5dvl9Ta1XcrBAGIkDukQNTinaAWlNQDkABCqDbbp43OED9s0/mw8Vj2F/YB9gH2gdzsA0mCISRJA4hCFwjbrJwezhGm5tBlTVoAQ3CFioq2Sapk1Z0eggBCGFvIwQ8AKAQjwJA5RCytz81OzS8bvi/sA+wD7APsA9PpA0mDoR8Akc8V0nBZMDcZBl1cubJMrr++XG64ocKcIVSTuXygFoTLmgYc+MAZ0tCZAyNbX1t8FxOo8zxpbjofFh7LL1f2AfYB9oFk9oEkwRAcIbhALjSW1ik3kFBt029oYnW9m5IDo1DDFcIYQwCi1Opb73DAg7wgrRhzYAQnCOX0kSPkQ2Q4hmGyZH4o+GXH95V9gH2AfaCw+kCSYMhcISzdZKyYqb7bVZd5CAIQYX4yLAFBaMuX7zBnKJMvlAmNeTjyjpHlCwGOOOhiYX1Y+OXI95t9gH2AfSCZfSBJMKS5QrVwhFyJvblC5gy5svu0NDT0SkNDn0JQ5AwV37JLnSFAkIFQtI7BGH0VWUfbfi2rxz7mDCXzQ8EvO76v7APsA+wDhdUHEgVDdS40BufHnCFzgVyIzEAIgy8iTLZd28qVwaCLljPkxhty+UMZN8gNuOgqzgYZJmO+EAdaYx9gH2AfYB9IQB9IEgyZE2ShMDhCgCEHR5jN3rW6OgzM6GDo+utLZfnybZkwGcAH1WQAnrDMHtVl6hjplB0udIaBGpPyd/H//R95Z2URP9QJ+FDzf7SF9T9avt98v9kHrrIPrCwS/AYm5Q9ukAERlmgOhNwSAIRtWKLBEQIIKQxhAEU3vpBLnHYhMlsfW0WmUNSarATqd7fcJpeXXkcYIgyxD7APsA+wDxRUH8BvH34Dk/JnjpDBDpwgS6A2KAIwmVu0bJkDoWXLtkpqXck9WkVmEAQwamvZK60tg641h6NTu1GoN65LzkStXxw5LFdWLqU7xC/BgvoS5P+or/J/1Py88POS731gZZH+9uE3MCl/BjouPyhTNZaBJFdlZo8xvhCqyZBE7UegduEx5xANSlsrmhuE0eYjC/OH1pUkZ5whdIJPdj+rnUIdIobM+CWX719yvH/2YfYB9oHx+sDKIo2GwATAb1+S/gxyzPkxNwjukOUPAZhQSYZjMejiihU7ZMmSLTZrvbk/A9LS7OYoQwk9QCias8wGYGwZlPVrkjNrvXUE0DHsQsRPkVDGRg3YB9gH2AfYB5LWB/Abh9+6JDlC9jsO0AHkGBRhiW0uf8iWlkfUrblCqCgrKtrinCFAT2uzAyG4QgiRwQlqb3Pzkalj1DLoQKllQNaW3GnX5pIKUAEqQAWoABWgAguugHOCXE6QQZELnTkown7bjrwiJE6vXIlRqLc6Z0hhKIIdB0NWRp+pLsuEzwhDC/6e8waoABWgAlSAClCBQAEDHecGxaEoMy2HgyJXTQZnCOX1qeJbd0ozQmPmCLU6BwjhMtfc6NRhUvW6NcnKGQq05CoVoAJUgApQASqQhwqMdX5cuAyAZNuRK2Ql91gCglBeDyBKrSm5U0EIQOTyhZAzNKBJ1Fi65ivLUGHWPCDr1yYvZygP33feMhWgAlSAClABKuAVAOAAfMLcIVs3IAIcIZkaZfeAIMCQjkC9ds1dCkHNTf0KRZoz5GEIFWXuscshQvk9gIkwxL5HBagAFaACVIAK5JIC5gKFUORyhlzytI05ZO6QDbiIirLU6lU7nfuDpGmEyswN8o+1xN47QtiPRhjKpbef90IFqAAVoAJUgAo4CII7hNGnnftjAzDaNjzGPjwe4wwh/0cHWPQ5QwpD0YCLCJ31R+EzgyEmULPTUQEqQAWoABWgArmkQE1Nl4IOZqUH9AB4QgiybQZIqCSzvKFUcfEuTaDWnKGWQZdM7V2hTBK15Q4NKDitWX1HLr1+3gsVoAJUgApQASpQ4ArEwcegJ76041BSD3dIE6hvvbVSmpr6IyCKJ1KraxQkV8MdIgwVeI/jy6cCVIAKUAEqkGMKGPRYiAzQY9vCJfbDRXLjDO1wpfUlJXeOASHAEJKprbLMQmMIn9k2hslyrAfwdqgAFaACVIAKFLgClgtkzk8IRVg3ILJ1OENjwmStmIes1YXIWjD4ok+Y1pGow1wiX2VGGCrwHseXTwWoABWgAlQgxxSIO0EGRYAgrNtjO84SqG+4oUyinCGEysJw2RgQGpNQPSAlxbtyTALeDhWgAlSAClABKlDIChjkuJGoM1Vj2B5PqgYgAYYQKnMjUAcJ1GNgyJfRWxK15Q4hhEZnqJC7G187FaACVIAKUIHcUwDAkwEizEOWcYSw3ZqFyyxEpnOTWTWZhcc0RIbQGAZcbNvnpukIxh5C7hATqHOvE/COqAAVoAJUgAoUsgIh7ACMDI4sRwj7kThtMITwGMrr4Q6lVq++w5XTewBC7lBLy4A0N6PCzFWZWeK0jUFEZ6iQuxtfOxWgAlSAClCB3FPAIMdAyB5jCRAKH2MdYbLrr/dzk5kzZOMMKQgBhloMhvoVjjRMprlDA8KJWnOvE/COqAAVoAJUgAoUsgJx2MHjxsY+dYjgDhkQOaeoR1au3CYrVqCibHvGGdKSepTVo7UMSEvr2Kaw5MvrmUBdyN2Nr50KUAEqQAWoQO4pUFeH8nnnABn4AIiwDgAyIHL7MB3HVlm+fIvccMMOV02GxOk9e/qCajLnCrW2Dgga4CiEJcxnxj8qQAWoABWgAlSACuSKAhkYygARwAcNoTNzjjCDPY4FCAUwtFNzg5qaAEN9Hnr6pakZ6z5U5kNmLpdoQIpXVebKa+d9UAEqQAWoABWgAlRAGhpQQQYQyuQHmSvk3CBXYQYoqq3FCNSbFYY0TFa8utLBUAg/zQ6G9jT1KhQhZKY5RB6KVhcThtjvqAAVoAJUgApQgdxRwJwfW4YAFEIRnKH6+m7NGYIzhNyhFGAodIHMIWpq6lVIstwhS6jG45ISDrqYO28/74QKUAEqQAWoABUw4MkGQ84NQhJ1Jq8IuUKAIeQOpVYVV0QwlBl08f9v70yX4ziSLY3nuyNxAcFd6unWQlFSt3Rt5lmuSNSGQi0ACBIkRfX75djnx09kVJH9e8oMTrOwyIwtEwcw42fHPSIzTNbtKOth6Pk3lTNUf3alQClQCpQCpUApcDgKjEnSCoednvbhMhKoOWNIQAQUAUOAUDhDT5/9PuAC9e4QuUJ2hlre0PImdpiRUP3NtwVDh/PrrzcpBUqBUqAUKAVKAdwfu0PaOeaPs9oNUg0IUR4+/FeUgKEnT3/7LFEaMGqAhDvUFWDo279VmKz+7EqBUqAUKAVKgVLgcBTA9cH9oSgcBvyoOLnatZ0hgCi21oczRPJ0hsRImo7E6cwZor3lDbG77PxmIM+o/pUCpUApUAqUAqVAKXAoChiEtJtMEGQXyG0GJdrZReZyRMgrXCBCZQlC88V1C5OdrwRDDpcBRgVDh/Krr/coBUqBUqAUKAVKARQAcIAd5wWN2+wVHuOeMXaQCI85b0gwlGExO0IOkUUeUTpDhiGcocoZqj+8UqAUKAVKgVKgFDgkBQw5Do0JfEiivooziBwiUy1niDCZcoae/d7OGTIEOYHa95FDlOcQ4RRVztAh/frrXUqBUqAUKAVKgVLAsAP8AEKGIWocI/o9hjZCZIAQQHT0hN1kOEN96fKGHDqjtjtUzlD90ZUCpUApUAqUAqXAISlg0PncGZI7NIbNdA8M3bv3s2Do8dPflTDd7SALMOqBaPkuxkSSdSVQH9Lvvt6lFCgFSoFSoBQoBYYhd44BOoIdOUNjvpAhyf0+Yyh2k8kZ4pDFm2GeSdSGod4NatfnNwMHNda/UqAUKAVKgVKgFCgFDkWBEXbGnWRj2whIDp8BQU6iPnrGt8nOdeJ0wFB+nNVhs3CD8ltlDpPVbrJD+dXXe5QCpUApUAqUAqUACkym2klmABqdIbtDyiPyjrMdGPrmb/+3wZA+zLq7ld6gJDgSND37ppyh+tMrBUqBUqAUKAVKgcNRQDB0OUxncoacI2QnyOExJ1KTM0SoLMNkv7WcIcOQ3aCo0zUChmKX2fJmKBg6nF9+vUkpUAqUAqVAKVAKkHKBESgAACAASURBVDOUINRgSFvqDUXUBiFqQmR8qDVg6NGTfw6LpU6dFgzxnTJ9q4w8IhXtNhMMvRuePf+9dC8FSoFSoBQoBUqBUuBgFAhHKEBoDJf18KPwmQ9efNO21uMQHT19ztZ6ARBQxDVQJDDa3XJfMHQwv/N6kVKgFCgFSoFSoBToFAB8RiBSfpBhyO4Q984lcpgsDl0EhuZn14IgYCg/ykodxS5Rt9OsdpN16tdlKVAKlAKlQClQCvx/V2A2e7MDQz5oEUcIAKIEMOXWe/KFvL3+6Ok3/92coYCiHQh6GyE07yxzThE70OpfKVAKlAKlQClQCpQCh6KAEqf/UwK1YKgHIxyhtrX+6fP/FvCcvwuHSKEywmMCoR3XKE6pJoG6YOhQfvn1HqVAKVAKlAKlQCmQhy52ydNti/3elvvTyeVAefDgl+HBg5+Hh4/+ORw92csZmmfe0Nn5OyVWd1DknKLn3xYM1R9eKVAKlAKlQClQChyOAr3rw84yb7WPenYV91yfTi7i+vjBy+HBCTD063D0+Nm/MhSWIbHzdwMghDOEK+QSIJR9z7+tc4YO59dfb1IKlAKlQClQCpQCzgtygvQsd5YZigKWwiVSKO3+8U+DgejoyfPfdsAH6FmubgKQdkAokqvfRd/Tb2prff3ZlQKlQClQCpQCpcDhKDCZjFvqcYZmc84VuhqTqrtr2nGFTh7+EkAUMGTocb3vCnHvsBn1s3KGDue3X29SCpQCpUApUAqUAjp0MZ0fh8YAojiMcT9sNr2M8BghMoDo6NHTf7bEaVwhlz6BGkgyILGj7Ju//Z+SvRQoBUqBUqAUKAVKgYNRINygdH9aaCxDZfQ5V8i7zoAg3CHK0cMnv36WF0SYbLlS7pDdIkMSMFRhsoP53deLlAKlQClQCpQCpUD7UGv/SQ7CZipOnI77BKaTh7+OOUNOoO6hxwnUdoPsDPm+YKj+7kqBUqAUKAVKgVLgkBSw49OAp0uWdtis73PydITJHj7Nb5Mt3w6zxZudkBkQhCPkkBnXtAFQ9a8UKAVKgVKgFCgFSoFDUQDQaeGxBCEnUNNuIPIuM2DIO8qOHj77VwuT9TBkp8i1oQgwIs+o/pUCpUApUAqUAqVAKXAoChh8DDvhAiUUnZ5eRMis32FGrhAwRBEM7R2saAfIIEStPCK+Yl85Q4fyi6/3KAVKgVKgFCgFSgEp4DCZYYiE6WiLJOor5Q/l4Yu0O4H63v0XgqGz1c3AydNAj/OCcIl2nCIfwrh8Ozypc4bqb68UKAVKgVKgFCgFDkgBw1DLC5pdtbOG2hb7DoacMxTO0KPnvwmEDDuZJ4Q75DI7uw4wipqcoee/HdCPX69SCpQCpUApUAqUArddASCoD5X5Oto5gJEzh9pnOS5yJ9nL4eThz8PRCecMAUIkUPP5jYSiFirLPo+hfvy8Eqhv+x9d/fylQClQCpQCpcAhKQD8zOfXLTTGvYGI5Glfu35w8nI4fvDT8PDRL8PRgye/BgQBQlNCY20H2fihVsJnBqXF+buCoUP67de7lAKlQClQCpQCpUCDoJ1dY7P+rCE+0DrmEQFDgBB1S6A2DNkBas5QwhHtjKGwA63+lQKlQClQCpQCpUApcCgKOAQWuUMzOUFygdIVaucOCZBwhSgBQ4+/+X0nRGbgIZE6kqn3wmT04ybVv1KgFCgFSoFSoBQoBQ5FAZ8lZGdozCHiVGrOGZIzFO7Q9LKBUMsZMgBR2wGazq8GivscQuO+nKFD+dXXe5QCpUApUAqUAqUACgA8KnypPq9hGUBodjmcRohM17hHdoUePf6VnKFfGgDtg49DZg2QMqcIN6n+lQKlQClQCpQCpUApcCgKzGziJAAZiIAgYIjiNsYSHsMVigTqk2djAvU+9OzDkJ2jh7W1/lB+9/UepUApUAqUAqVAKcCHWhN4AnrmV+EEAUJ2hIh2tfv51XDy6OfhmB1lJ3ECNVvrr4f5+fWwWL0dZss3w3Sh8JjhyFBk5+jRN5VAXX95pUApUAqUAqVAKXA4Ctj1iboDn94Ros9A9ODRz8P9k5+iHD18JhgCggAiwAgYipwhPtyau8j6nCHcpPpXCpQCpUApUAqUAqXAoSigXWTkCF3lR1kVFmNH2TwOXfQnOdRuEDp++HI4Onn2S7hBszPcIOBHQEQNINE2PbtSAZLOroaHBUOH8ruv9ygFSoFSoBQoBUqBYQjHx6EygKg/cdqAdDq9HPhmGTvOSKC+/+BFnkD97JcAHGAoAMjgAxwBQ4TNumvucZPqXylQCpQCpUApUAqUAoeiACEwYMhhsP3a4bPYKT8fd5PpnKFv/xXhsQZDCT8BQAlBvianiFDag6c/H8rPXu9RCpQCpUApUAqUAqVA2ymmvCBB0T4cNSCaXbbdZAFDgE2EyLqcIYXHFBKLHCLcosWlQmVnV8Pxk5cleylQCpQCpUApUAqUAgejgJ0hh8pwhnCBfO/azpC31cdX6+8//mmYzC8bEOECuSiPSCDEmHCIlm/KGTqYX329SClQCpQCpUApUAqgAGcHUQKC+BxHnje0Hy5zf+QMHb/wOUNjzlDkB3UOkN2gBkWRZH01PHxeu8nqT68UKAVKgVKgFCgFDkcBHB9ABweIaztF1AFGHRzxSY77xy9aqOwIsGnQ42TpDIv1jhGg5J1m7ECrf6VAKVAKlAKlQClQChyKAnaAAoYykdrXLVfI5w9NtgFCd+/9MNy7/6O21gNDk+YIXStMtsjQWbpBhiFcooKhQ/nV13uUAqVAKVAKlAKlAArYDTIUxX3mDNHmMBqAxL0/x0G47Ohe5gydZt4QeUGAkeGIOvo616jCZPWHVwqUAqVAKVAKlAKHpACAAwABPc0RIjSW4bFwh7pvlHHo4r0HL4Y4dPH+k5cBPjg+OESn84uAHwCohyInVVOXM3RIv/56l1KgFCgFSoFSoBTonSBgyEDka2Dp9WTbEqyBIICIz3IcnTz/NQ5WDPBhx1gLl427ygxCdosKhuqPrhQoBUqBUqAUKAUOSQF9juNyIDlap0wrNMY9ZTq9VMmv17O1no+0UgcMATuxkyxDZLhD3kpvEHJ/OEO1m+yQfv/1LqVAKVAKlAKlwK1XAAByafDDTjI+zTHb/S4Z/ffufz88OGFH2YvMGcq8oIAggCgdothS332Sw2D0oHaT3fo/uhKgFCgFSoFSoBQ4JAUCeHB9pnKHXLsdUGrb7GeXw/3jH6KcPPxpODp++nM7ZBHYcSiMmrwhh81whuwOFQwd0q+/3qUUKAVKgVKgFCgFnCPkM4V8T66Qk6tbMvX8cjh5/DLK/RO21nPOUH/qdH6Ww+ATMJR5RJFkzec46ttk9VdXCpQCpUApUAqUAgekAK4PACT42Q5TDJ0ZblBXaMsCBN178MMQMHTvycsGQzhB4QZ1uUMGJUJodo7uPXlxQD9+vUopUAqUAqVAKVAK3HYFJjMcoM1wOmXH2HbgHhByrfZNwtFlbKtnN9nO1voedhwic8iML9UDQt5uX87Qbf+Tq5+/FCgFSoFSoBQ4LAW0hV4hsdeTjSDI7hBnKS6uouAMMRYI0vZ6J1BnmMzwo/ygPIk6+045kTrzhipn6LD+AOptSoFSoBQoBUqB264A4bE+TNY7RHaH+poDF+8eK1R2xKGLuEJ2fRwWcz1bCooApUmC0fGTl7dd8/r5S4FSoBQoBUqBUuCAFGjJ0bPL4fUp4bLxRGr6ACWfQk347MEjTqD+Ier4HIdzgQxAgqOLBj8tmTphCICqf6VAKVAKlAKlQClQChyKAnaGnEgd4NN9isOnTwckzS4DggAiytGdhz+27fQ9FBmAqMMVyu+VES6rnKFD+dXXe5QCpUApUAqUAqUACpxOtvG5jXCA8uv0BiBqh9D8wVZ2kR0/fKHdZOT/4AS9Jgs7w2VAUb+zzGDknWblDNUfXilQCpQCpUApUAockgLNCbIb1G2jJ2manWbkDFHIJzIMhTPEV+udLzQmUPNdssvhdEGoTNvt7Q4BSuUMHdKvv96lFCgFSoFSoBQoBQh/2Qly8nScMcROsthBJhASDG1avtDd4++Ho7uPXnSu0EWGzC6H6fJqmJ0LigCj0S26KBiqv7lSoBQoBUqBUqAUOCgFnAukcNiuCwQc9TvJuCdERgI1dSRQOzxmhyjCZoTMnCfEh1vPLobpkh1lF8O9x3Xo4kH9BdTLlAKlQClQCpQCt1wBH7DocJjOE3JYbDyMERCi7869fwxf3/vHEM4Q+T/kCxEGU96QXKDRCSJMRj7RNkAoYKhOoL7lf3L145cCpUApUAqUAoelgE6f3rTPbbRQWYbJImTGqdSZS8S3yXCFAKKjO49ftN1iPQw5gRpI0jVJ1tvh9Xw73Hvy02EpUG9TCpQCpUApUAqUArdaAcMPdYTEnECdn+XgVGpyhzzO3yW7c/+74QiwOT27DCAaw2Vyika3SPdA0ev5xXD3ccHQrf6Lqx++FCgFSoFSoBQ4MAV2c4KUM4RbZEcICHIojbHAECEy6qO7wFDmBhEa68voCgmWInR2djl8/eiHA5OgXqcUKAVKgVKgFCgFbrMCPejYGeJ7ZLTjClGAI9f+av1Xd/8+HB0//yWcIYDI4bDRIXLbWANE95/WCdS3+Q+ufvZSoBQoBUqBUuDQFHD4K+rZVvnOM4XMgCPaXXNtGApn6OvH3w+nZxdRXi+2AyV2kzFx4WTqLow2uxjuPPrx0DSo9ykFSoFSoBQoBUqBW6yAEqgFPK+nm+EUjslDFoEgyuvTdXOGCJGRQB1b6+8+/XGYLC9HGJpvhtetaAcZ5wxx+CL5QoDS3dpaf4v/3OpHLwVKgVKgFCgFDk8BYKhBD+EwgGi6jcIOMofMaAOKCI/hDunbZE9+6JwhHCKBT3yhfnkV9wFB0X4VbtH9ZxUmO7w/g3qjUqAUKAVKgVLg9ioACLFb7LPcodxNJudIeUOT6bYlT8dusjtPflBoLENlhMxeLwiRCYwIlcU9n+WIT3RcDncfV5js9v651U9eCpQCpUApUAocngJ9kjRg5EMXgSO7RuEUTXQWkXeT4Q4dESZ7Nd9Ece6Qa8Jncep0htEEStvh60ffH54K9UalQClQCpQCpUApcGsVCADqPsTqEJnbgaNwhxKOyBkChOIEahKo/5itGwyRQA0cRSJ1ukVAEcUJ1nfKGbq1f2z1g5cCpUApUAqUAoeoANBDAYJUb5QwfbreaXMYzbvJ0hn6ocGQAaiHIbf1MHS3PsdxiH8H9U6lQClQCpQCpcCtVcBOkM4R0gGLgI+L+pVUDSwRJqMEDOEMxe4xttXnLjLAx6GyvrYz9NWj726t2PWDlwKlQClQCpQCpcDhKWAIsjNkCKL91em67TSza+ScIeqj/QRqJUuTRJ3hsvlmB4xoB6DqXylQCpQCpUApUAqUAoeiAFvpKX+crgN++jOF7AoBQoYhh8kChv7r5O8RJrMrxI4xgIh7J0w7VGaXiKTr+lcKlAKlQClQCpQCpcChKGAY6s8XMgRpWz1nDuXWeg6Qvv/dcC+TqI8IeQE+kSfUJU5HSKwdvigwciK1oehLdR9i83Ws5dOt2bq/7zZ195NI2uaAx62+mcY9p2IvLgb6OACS57LLzbUOhVQb31ObLa+iMGa2fBMfoZ2fXw+zJeXNMF+9ifnMi91yuV7MO9f32VjH32nzerPoUztr0c96i9Xb4Wz1NurF6nqY+znL6+Fs/S7aeT7jqOn39SzXiPboexNjvOZyfRNru//s/O1w1q3hfp4TZfV2WK7fDefrm2G5ejes1jc7xe3L1dthtXk/rDfvo45xm/cxjzEU+mlfnr+NerP5MJyv3ul+pXXX6xyzehdrce+21fr9cL5i/s2wXn8YNpuPA21cr1aqo337Z/StNx+in3FcuzB2s/4Q82jbMH77p9ZcfxguNn9GP2O43m4+RuGe4nv6XLYx7s/hYvuptV1sx/4Yx322scbl9tNwufk0XKz/VGGN9cexjfXXXdvmz+hjDoWxVxd/Re1x1JtVvndcfxw2K+b9NVxu/z1crHk/lXg2a158Gnj/eMd4HmvwXM2L8cxbf4p2+tzPGK/J+jzH/ao/Rj/t/ToxZ/3XcJGFsetzr8vYfw/beB7P5GdV2V2b8ft9Gk87Y73GevlxWC0/DNRRzvU8ntm3bc4/Devlp2F1xu/6U7zT+vxj1DE/523W/x5WS9b41OrzM57x57A8+zD4mnuudf8h3mG19P2fw9n8/bA8ez8sF9QfdL/4MCwXed36csziw7CY3USJuYxlHuOWH4bF4iauuZ/PNY5+j5nP36l9cbNTx9jF++Hs7MMwnzPX494Pi2jXerPZ24FCP/V0ej1Mp9S6dn9fs3bcz98OU+bMrqMe519rrew7nfDtJ4+7HibT6+F0+iba+mvGzM9uom8yvRpmsT5jr6LoOXrW6YRdP6zLOrRpHPezOfe0vxkms6thktdu62vW4Vms5bpfmzatwdk0PE9lMuX5egf6da221xNOMcZdGMcyjzlRGD+7HF5PKZyAPNanU+ZdtrLf73vPeTXZxnzuKdwzxuMmcz1rOr/6rN3jPNZr7M7ZDK84qHB+GSVObOZwZU5qnm2jcNAy/9dxz9g2Zp5j3JZzYi4ODfNdz7bh1gSkkOCcc1mPcTzfbdy3ZzCWddPx8XqMjc+HdX2s9WryuSNkJwiXCBAaQ2mbds5QOEO4PJ/BSobIACSAw/2+doL1DjBlzhFjvlR21phv2qnXXtN1P442AxXQArwAJIYyarefzrcBQECToEbA00ON4GacI1i6ijXjuoMdxnquYcgwRt88wabBzPK6gU4PPoYkamCFvpjDGjkn+hKm3GYY8jzfU7u4jzr6AaIEM0CoL4Yg18CQr3eAKYGIue6Pdc7fBuQEGK2AG0BHsBVAtb4JGDI4BRRt3gtygJ+AJsGRYSjACLgx/AA83b3bDVABNx04XV5+ClhZJyz1MGQQ6mvgYbP+GIDka6BiA1AkXAg0NAYA6scZPlwDMQBOwJHBp4crwMPQ4hpgyTExN4EqoGr713B18e+AEGCE64CShJwYE2AkiFuvPgYACVQMTMAWYCGo6WHEEOTx+8ADKDG+h6AGTwlXhhxDS4wHkDaAm2BJfUDX2O42oId27g1TvjcQUQf0JGytgaIegpYCxn5cwNAK0DHAaA7QQp8hCNgx8LCmgQn46KFHQPI+24AlAQrrnc1vdmEo+wRWY3+MS2AChCiAUUBRghDgAagAQ1ESrBYBODcBSwCTAUXQI7DRXPW5XW25VgCWxgIyBiKDD2Dk9n6++2cAVBRBkcYIlGKt+dsAH8MSsAP8CHI0h7XcbmASPL0JQAFsKK9PgREBFOuxhkGGdgOTAclA5LoHJo0RQNEumBmBK+AnAAkoASb6IogBHICG6fxN1B4D4PxxKiBpcMHYBk9eU/DCmNeTbUAMIBRzqBOKABUAp4ccnmtg6YGmvwZ+ADS3+X25b++1t04PVoyL5xJSmqwFIglFASKEkgAU1x28GIgatMwuApJ2QMUwBaAkLLnf8wKEEnIMY4xxe3u2ISvfIeAoQS3WzDXivfNkaQGPTqPu84YcNnN95/i74c7x98PX978bjiKBOkGGLfbASICJ3SLfd4DkkBpj7Sg1mOncJbdRe80GO+nsGHb83B50PI9Pgdj9kXOk9QCYAKLzq3SS7B7J3Qn4MUQtr8JZMtAAVUCO7w1DepYcH+bj/MTYHC8wehMuU4AN/ekEheuEa7PnAmmcHCGuDTweb5gBaFq/4SrXCthJ0PH40Qm6aa6Q2xiDQwTI4CYBP2N5N5zhWkW7gAbwoQBGvjYMMY7r9RZYkRNk98dz7DC5f5XOkUEGhwgIopwt38oZwv1JAHJtxydcIZwdHKAY9z7mAEitBBilQ5QQ1cOPr+3uACZ2iagBI8GQoEfXdpMESF6DPgPTDuDswY/dG4GOXKdwlL7gKgVEpcsEdPRz3Ecb7wCgGL78LgFxCTCADaXBS7pJcZ/XrOFx1IYtoMrQBCj1c9ze1l1rDcap79OwDueJ+74IrHrA8Vq0jTCldVijFbs5ua6gxW7P6BixXnOPEmyAFtYBbGJeQo4haIQiQRPjBUG4O8CP7qnt0BhyaGO8IOd9c5BwkQAcPYPrm3CPBE3p8iQMMY4ym73bAR07Q7g8iwAkQEhQAwwJWgRHBihBEo6Qil0f1qYwziDlOT38GHr6+QEv4R5da92zmwQiP8eu0Tu5RfO3AS7Ay44LNM356TLZKXp9Oro0uDKAjh0bwIZrAY7cH48Z3R7B0whBmu9xBiH6vc4E2MK1wVGiLK4bMNAO8FACXICahCADkGpBUu/2aLzhQwATIIOLM+XAP34+XXtsDy+GFtcGINdu7+f6mjEGmn7N/pqxhizP69tifgcjARl5H8CSDlG4MHZo7Bb1AJRA5TnUBh7XrAHwcA98GXh6QDLYBNSkeyQHSA5UtOcnwU7DPUoHKZ0kHCAgSA6QPsHhkJhCZWOILGBpdjHcffjj8NXxd8PXD74XDBlUDEOGHTtDhpIefhzqirEJTB5nQDL49KDjMcCHr13TNsWd2QMlA1Ocih0nY4/uU8zpQmaM5fMh/pxIwBNuEY4SThMhsbPLCJXZ8WEN2hkTobMzwZQgBtgROAmKFGabEw5bEXajT+E36gCdrAOkCMslIEV/wk2AUAc8jDHwBBT1a50r3GbXh36PZR4A5DbCZhE6y7DZ6A4ZhgCk8VrA81bhsGw3/BAmO2cdw1CG1DwHONKYMRQXMNRAKNtXNwEwDo31ta8BnnbdAVK4Q+ksAUyGqwZECUe0M9/w4trwYyASAPVhtI8KldmtSffI4EPNnACg7Riecvt6BTwJqnYcIjs4DqnZJerCYowHdliD9dtzcJG2nzLEJwjDsTIgcR1ztjgxnz4LpwE9wAvuEMBgcAGAuHcftYtgq3OFEqBGgDHcEBZUCA0Y09o4OTwLp8qQpPv1+Yf2HqwFoLjeuTYMnROmAjTe744Fbgw5GfYbQYs17QoBj4Iy1o8S8xT+IpwF/KgInAREcpIMPBEKw/HJsBZjGggteD/WUYgNuIlxhM5cCIPh9mQoqx9zthCkAEDAil2hEV7s/AhoDDKMpYxAY1dI7pLhpq/DwUlXyNcxv3ObvJ6dojYfyGLcmYrbA7rS8dl3fXpnyJDlcJjcHoWr3GYQop6fvQs3yE4QNUBDn8fZAVKtENp+v+cwZrZ4O7yeAg64HKMDJGhQm+DDbozH2tlRuyDIrpFCU4BFX/QMhdLs/NBPWMwQ4vGGFtcxLkNeHtODjNtcTxdyrJjvti9d0xbgFOEkAZrGE3oSTAAo4d7gvABDXXjLEGMQib72Nfi98BUOULo3rBPXdnq6Ndsado+ybwfGDGX5PtFn6AlII9ylsBegg/tDHTA0UU5QABBzeBf6WAtYooRbtR3uP/5puPfoRUDR0Vdsrc98noChdHYMMAYV7g05tAFBvn+96D7uaiepW2d/Lbs/sY5BKkHIazMHSKE2eMW7LLYCmz0Aom+24ltqvBvQM4bDgKgIsSXUGIgMOX0+UvSlmzQC0hecolxrfv6myy0CnN4EEFEDKD0QCZoETH07kBPAlABksLED5DV9byjyPeMNXOEMdXDEGOBFLhAQZBiSaxQ5QS0kpn61OYwmcDL02AFiHbcBV55jZ4l6g5OUOUUKqwFHghaDjeEmnKHMK4pQWYbDRmcow2ndGLtJmkv+k1wdgxD16ADZ/ZHT0o/ZcXoynGX3hb4ejNyu+aO7xDgAZX3+fgyNGYQyzyeek1BkBwnAiZyh3mHCRboQDMWcrg94Eoh9GC4vyNMRwAAovo66y9lpoJOuD/2GHI/l3tDEeEpbMwFnf17MZWz0G4a8tu4BJDtPoxukMT0M2ckJd+hc7g9g8tmYBk2sn+G0DJsxNwApYUjujt0ehcfs3tgNMgjF8xPW7BABM8ofwt3ROoKkvA4o+tiAyWP83PMIhcnd+QySMixm52Z0huQY6d4wZDjadXoEMQIig9IO8KRjZNgJqAKm0s0xZDHHkGXgiXUyZ8hABPjQP5ng2sgR2oUT5QsZiKLeyyUyxAAsc0AlwmPOARL4eIxDYkCRw2iAjyCJ8Jvyhkb40T3tHsdagiGBkIFBTpChZgShEZgESqMrxH/8hiHcpHE9t7O2S4TEutweAAQoEXgpvGWI6Wv30+Z37a/p17P1Dh7Tt2sNQRLRDf7jD9jpQl6GG9wa9zGuD5kBLf04X1NP+UyXgSXH2e0xEDFuH3wMSH1frJNr+Jlt7YShcR0OUzTsCHLs/gh0dLhi5AYlkMWz7F4lBOk5m+HOyXfDV8d/H75+8I8Mk3UJzACOoSjAImGE9hF+xjOJDCs79T7AdHlHbR1DUCYvB+j8h3wjv4fH2CmitotE33x9HWEzg5QdHxKmw/WJhOouNBYfnyURS+DlMXKHtLadnwi5pWPEujEm63CMlnK0ZucOm2UOEaCSsCIAUvuU8ZE39CaTr7ucoy84RoYdwMdOULhC3b3hyGO5b2PC9VEeECEyYMYhLtwfAxMhLK4XOaZBzuZ9OEqGHQCohcQyWdtQBCRtLj5EWI1wWQMiErb3k6fJF+pyikjSpmgOITnlHYVr5FBYukERPsuk6x6MYo0IyckpsjskMHIYrHeHdiEK2AgnpoeQhKJoDxdHjhAOjuBEYGRIclvATLpEAUAJQ3aR1P9nJFbT1kOS+1obzw0nSs/mWVonQ1uZbG1oMdDIsdlNrjYEUXu8ASlg6LMEbOBD4IUjFM5UwpUcKPV7jYCgc5wX3lUhsH0nR/cJNIacdH1wmgxDJEwH+CTs7IBThsOAJsbT1/f7WhCEkwPIjLAFDNFGzRpx38JlmSsUydJ2g3iGisYqDOZ1/M6sadCh9rpAEW7R6ALtwgxj7RRpvsNTqt2vPjlCPdT42gCk2hClNZwHRA3osNYitSYS9wAADhJJREFUE7gDlMJJGsNhPTyxnpwh5fVoDcBEOTpyfHB0DEvqM7DQTi4Q4+3oeC7t47jPE6bpG0FHOTOzuZ6lxOcRglg7co5mo9MjSDAAGXZ6d0d9hhtBiqDHUNS3eZxr9QliGhR17hHP/1K7gYb5HrOf39OPYVx/72vP4d75PgEozXkZHSAAwWMAIMOHwciwQu0SADFXMrXbWp0hNYNNwEsHMg2UHF5LN8rjvY4gRc98PcOlAuTWAVUTnh0OkCDIidHaJi9X6BWuUL5zvAM/e/788XN296ezzfD18d+H/3X/fw//de9vec5Q7hozdEToqwMT4MKQFEDUARLgtBNe6+YZXvraawU8dUDkMbRzbeDhmvX7mmvCaXaMPGe2eqN5sRNNH5sNcOnCbsxzknU4Rhkis1uFu9RgKHOV7OgAM4Ii7VgzbBmOACdDjucYTLhnLmMUYhOg4Sy5nK0JlSnk5rwih93s/nwGQ90uMrtCAUG5k621kT8UO8T2XaIxDAbMAErAkGFpBKaxjT5gCTAyHAFGtBuQCKExl/t9GIqQWO4qk6uTO8ciPKbxzPFafk64SglH4QIBRZlTFOG03IFGW4TRcneZoYIagDAc+XoModlJEhwZnpinOQpfAUSGJbs0/a402gxJXLcxXDvklgnXfrd94HF7jO/cJMFQhu3sYuEWsW7CEDADjHg3miEm+mPMXwEo3PdQFOMSgrxWrOGwG45SX7qQ2/5c1sURAoZWhMq60JUhKACHUFaCEOMoAVDM7UNqCUJ9qIz+vgAgPdiM0CNAAlSAEUHP+xZ28zyDk8HGNf3M5V4gJJjqAcdrN1cp830AG2AjnkHbnARqQ4ycH4NNQEkHQ4CNwciOD7WAx2sIpvbbDUNqzznhCpEUbUAxsAhk5PYIkIAc5SDRxzitQVusSfisc5ns0hhyBDh6ziR2ln3u2uD8UHgfOznUfj/BEWsoHEZtkPLuLe/+oo4dXuQAeZcXYbF0cwAWQYTrMbyknKHe6SHkIucFFyYSrmPXWoKRE5fZVRaJyKoNQ4YVQ4rbue/bfO8214I2wCjBaqJk53484GNwcjsQwPk6/OcfdTo3tAMduDLswOKatQ1DASSdyzOO1a6vmJdrBCy1vJ3M5cnwmkGqXy/AZB+U8l36cXEd7tC2hdrICwogmq4HwGVKxAfQ6cNghPoi3DdCT/z85CVN1uF0AUEuPIf3FJytwxEChnCH2qGLAScJRQFDAE+f+Jx9PQx5Dm2nZ3KLWj/zvwA7gMx/aqfvS4UwHLBi+OEspH6dcT2BFDDTwl0JQl4XF4cQmvrTzSGROl0mYIn+XZdILs7oDpFzRM4QcJThuOWYh+RxAUe5K82ukGEo3CSSshOGgKDlmlygMcE6ACi34QfURK7Qtbba74fUEoqYA/RQG5yAoygGJ+ocR/hMITSFzQAaQQdb6wEgbcHHPWpQsnnf5gA8AUyZWM0Y1sMdslMUu85wiGLMGCYT0CiJ2qBjeKK2S+Q6nKAIkwme7BpttwkcdowAHm+Ljz6SrgU4gI/hJJyVBBfDh/pxeTTewOT7AB1DSNaR69M5RB7jOYIpPZc+wMU7yqgDSDpQimdm+Et9SsQ2CPXrs7bXYmyM7yBn17XR7jM5VAImQQwhMoXJDEj7a2kdwVCEvb7gKLEWobALcorWfzXYCGBJ4GEMxdvfGxgBSwatHBPjYuwITAYnQZHgJNp6MMrcIsGQXSDBVYANUJNOUEBMOkOGH+YBNdy7cN9Dk6DnYyRZG5QMOqzt5GsAB6DxeowhQdqQ09dfgqK+DQgBRnq3x/30uR1w4fqLJRybcZcYoSwKwENxSIw62uJ5CUstsXoMtQEoODYAjJwbX7OWwCtcmi4x2vcAk90gwmCGIMOPAElJz0BTzAtXCTjStnZqb3vv27y769WpoEegoTAV8GPwCOhhLRKogZyJdnpxPUJQ5v1EW+4Wi91jgpsRRj53hQw2/RhAhhLv0IXW7OwIngQuBp4/TnE8BHJeM6ArQlEJOemABPzkNf/596GpHoAIdQWsABgJLNz/z+lqB0hifr9ehr/cTi24UC6OwQYoUaLzGC7zOD03YQcHCODBxKAQBtspbtN6sT4/VxZyn/SsMdGa5wBAuEoUuUJyjeQ4KYfIIbKAobabrNstFm5Phsv+cO5P3gM7FNpfLbZRN3jah6kEooCmPTAaAUYAFLCz2AaU2KUJ5yXzhnr44Zox+20Gnta3t4Uf0BHkpIOzlEsUuUGZAxQg5V1qGVZjjvKKxvBYD1sCHDk9XPfFYIRDJCBiS32OWZGMPYbTDC0GGWo7RC0pOsNijPW4/pq2GLsXIuvXpj/KRmcYAUA4QgqNKf9HoTMASU5R7xAZeAxB7hP86KyigKo8x4hrdpORQ2SgCufHZxKtFA5roS47PN2W+80WF0i72QCb3lFyMrVhya5Rf++2cJAihJZwlEATMJQAhQtkKOq37QuM5C7Rrj7nItGeidQdLAX8ZHI0/QKkXWeHZ9OnkBLvpXUMPbhMl5xPlM6WxivpOmCI5GqeGYCS75NuUgAUoSqStB2GC/BRyM1zNE4w1YOQ4QhQ2eI4JbAYulo4rCVKC7gMPa6BJOYwXrWuDTzUXtO5RQafEWrk8NgNkkvD70GJ0A2KAoYAJYOQc36AlzEkpvmj49OApyVIa+cY6wBFrrkGagKkcJti59kIPDyDfmpghX7mAEiGlx6CuKa9L3J0vuz6uO/z8bg3Ap1wc76QOB2AlCGscH9a7o/dIgEMSdOGkznjW8L0CE70G1Ic6jIQjZCkXV0NbMLlkUvk9Znj3CHWMyRxHfc8J+CHZ48Ok56lMZ5n0DI4CHrGLfKAhAADEOjDYqNTpLnqE3iMoTav29c96NDue9dt7BdyhvQuo/PDWD1zBB/cKdYyLDlnSOsmaAAGmctDzX/+BhGDDoAQENJvUbcjZBdpnu5Sdw+YACBaM0NY9IdzIyenX9fAE/08M50kjx/rDIFFGGwEIMBIJeHKIBZwNf68Xt/w5XcISAv3R46S3j9hK8ELQKKd8Bj5QndOvhsigTrcnAQch73+Z7YeKBECSzeH6x6G9iHHUGQoMazE+h0M7c/rx/vacOQ1+tpjeqCK8V3uk8czxuGzPrRGf7hAQBUJ1naGEoSYtxMu68CIsQE8ufOtuTwRAtNus2gz9ORuM4XJyClKGMIVShgClCKkljvUgCDDzpeu7RQZcvrcIOZFeyZSe4whyKGzJTCU4TOABZgZ6/HaidKAjCFH4zSn7+fartC4Vh7ImH0tbBbJ1EqqBlJweoCcHliaY5QAE86RHSaH2jo4ivF5oGODJMNP5xzFzrPNh51DFQEVoKIPowle+va+X3AT0NKcIcGMwUcAYwiy29RBE3lJsXPMY8a+Eb4+7oTlDEmuGxA12CDHJoGrOTjOLxJ02JESSCSA7blDgFBAUKwrV4h7hb9GqGHHWL9rzLDjdvXJEbLD1PpwgSKElv0JWxEy6/J/AJEGO5FPJDAagcg5Q8r9sRvVAwxtAAo1jhR9ATSZR2S3h7YvOUICGmBK4EPuD6ATYJMAxfqsM5+93YGbACSfJZT1ctnNzzaHxtq63Rz67Pb0IMS1AEmhrHCG5jpXKOAot/F7foAS/RnqCgcooQhAcfE4A07fDrDwHEOOxxiK+nb6dC8XCaDhXjCknB/3R57PZy7QGCZjrsBH7lC4Ql1bzO8gJyBqrp1XPWQIJAQ8XO+G0QRMjN9PtGbsK9yjLhcIUOHe638GQd1YzRsTqbn3eNeGHe77a8MQc15NcZcEJPGfvw8udEgs3RvAxG4QsAA4BDR0uTsNTjrAYVzAU4bAOHPPQNTGG1K8Zucu8UzGNQDLPJ4eWORMpSuU+UEBQQlfyhfKkJaflQBmEDJ4RZ19bvNaAUO5fuQfJXyxPiBkd+joqyc/hLsT4DPfCIASjNzWQwfXhhvgx4Dka8NTDyz0+d6Q4nvW6yHKz4r2BCi3eS7gA5D4nrqHp/37yAPaC5cZfryWQ2vM9dq+DhcoQ2dylkaHiHvCZUANkOOxXp82QMUO0X4ukcNtbZ08z2h+fhUhM8Jmhps+f8ig5D5qnuN2w5IhKcYl+ABHvjcM0TbCi3KHlGg9hrwU5srt8nk4o0NidnxGSNJuM99Hf0CM5jsc5nnh4jSoyUTr9fs4vdonWGuMc5A0ps1LNwnIiWTrHqoy8Zqx+3Al4ABADCMGlrEO18Xhtsw5oq0HJY1xMrXmGlYMRuFmcVBjOkF93pFzjKi1Nu+jEmsHpJHArHDbfl+0AyrngJtCYE6EZldYAEmCBg4PO9EENryrQIfxATIJUOHQpCMk10ogNI5X7pEBx85OQBThrdgNpq31AT/h4BCuEjxFflBsyR+hi3fjWaulcnrsDtkNMuQ43whAccjNEGMA8hxBTw9TyjXyOEMQa3msauUYBQRlUjVQ4/sIi3WwEsADFAFIASjp9vjcoW6soWffIfrSvWBHLpGvXY8QZFdohBlgYxwnYAJgxlyfd7FtvsFTnink8JaAZwx/AUfuU2gNyNkFFUMRteGJXWOCJLk63Ltfz5Djo7nKC+La+UEGJblCGbKLhG2d+my4ApI0Vrk9wIThwy4QICPwGYGEe4GM4ch9Woc16PcYQ4vWloMDtBhc+naux/cYrw1O7vea1Kzj+34ttxkEBDa5ZRzXxDDiOhyiXRjyGIABp4fcIjspsV63NZ4xBq0AKQOJ4aeDqx6Q/AxDV8x1nk6+J89ijl0bwKQ/Oyj6053yu46Q45wfJVhH2CvW0/0+8DSnycnYzYnaDndOvg8Ywhn6f/nvTcaUa9jAAAAAAElFTkSuQmCC;" parent="2" vertex="1">
                    <mxGeometry x="930" y="350" width="469.5" height="465.45" as="geometry"/>
                </mxCell>
            </root>
        </mxGraphModel>
    </diagram>
</mxfile>